<svg xmlns="http://www.w3.org/2000/svg" xmlns:xlink="http://www.w3.org/1999/xlink" width="500" zoomAndPan="magnify" viewBox="0 0 375 374.999991" height="500" preserveAspectRatio="xMidYMid meet" version="1.0"><defs><g/><clipPath id="c3d2d7c6a8"><path d="M 112.5 101.300781 L 262.5 101.300781 L 262.5 214.550781 L 112.5 214.550781 Z M 112.5 101.300781 " clip-rule="nonzero"/></clipPath><clipPath id="9833489d75"><path d="M 73.585938 68.765625 L 294.835938 68.765625 L 294.835938 200.765625 L 73.585938 200.765625 Z M 73.585938 68.765625 " clip-rule="nonzero"/></clipPath></defs><g clip-path="url(#c3d2d7c6a8)"><path fill="#000000" d="M 124.226562 192.890625 C 124.015625 191.597656 123.777344 190.308594 123.59375 189.046875 C 123.445312 187.785156 123.355469 186.492188 123.234375 185.140625 C 123.054688 185.140625 122.847656 185.140625 122.636719 185.140625 C 121.945312 185.109375 121.195312 185.199219 120.535156 185.050781 C 117.507812 184.300781 115.289062 182.558594 114.210938 179.554688 C 113.757812 178.261719 113.550781 176.941406 113.339844 175.589844 C 112.621094 171.082031 112.5 166.578125 112.679688 162.011719 C 112.828125 158.136719 113.21875 154.292969 113.878906 150.476562 C 114.628906 146.152344 115.679688 141.886719 117.328125 137.800781 C 117.835938 136.539062 118.4375 135.277344 119.128906 134.105469 C 119.90625 132.785156 120.867188 131.671875 122.125 130.800781 C 122.546875 130.5 122.816406 130.203125 122.964844 129.691406 C 124.046875 126.445312 125.15625 123.171875 126.234375 119.929688 C 126.5625 118.90625 126.894531 117.886719 127.285156 116.894531 C 127.644531 115.964844 128.125 115.09375 128.785156 114.339844 C 129.53125 113.5 130.433594 112.960938 131.542969 112.628906 C 133.339844 112.117188 135.109375 111.519531 136.910156 110.976562 C 141.886719 109.414062 146.867188 107.824219 151.84375 106.261719 C 154.875 105.300781 157.933594 104.339844 160.960938 103.378906 C 161.710938 103.136719 162.429688 102.925781 163.210938 102.867188 C 163.597656 102.835938 163.960938 102.65625 164.347656 102.597656 C 165.699219 102.328125 167.078125 102.054688 168.457031 101.875 C 171.605469 101.425781 174.785156 101.335938 177.964844 101.425781 C 181.441406 101.515625 184.921875 101.90625 188.339844 102.535156 C 195.117188 103.796875 201.59375 105.929688 207.773438 109.023438 C 212.988281 111.636719 217.757812 114.851562 221.984375 118.90625 C 223.933594 120.800781 225.734375 122.8125 227.234375 125.09375 C 227.355469 125.273438 227.445312 125.425781 227.535156 125.605469 C 227.5625 125.664062 227.535156 125.816406 227.472656 125.847656 C 227.382812 125.875 227.265625 125.875 227.203125 125.847656 C 227.113281 125.785156 227.054688 125.695312 226.996094 125.605469 C 221.894531 119.359375 215.539062 114.761719 208.371094 111.246094 C 202.074219 108.152344 195.445312 106.019531 188.519531 104.820312 C 184.832031 104.1875 181.113281 103.828125 177.363281 103.859375 C 175.292969 103.886719 173.226562 104.039062 171.15625 104.160156 C 171.007812 104.160156 170.828125 104.21875 170.617188 104.25 C 170.738281 104.339844 170.796875 104.429688 170.886719 104.457031 C 175.714844 107.011719 178.894531 110.976562 180.933594 115.933594 C 181.53125 117.40625 182.070312 118.9375 182.402344 120.5 C 182.433594 120.710938 182.492188 120.917969 182.492188 121.128906 C 182.492188 121.21875 182.402344 121.339844 182.3125 121.371094 C 182.222656 121.398438 182.101562 121.308594 182.042969 121.25 C 181.953125 121.070312 181.863281 120.859375 181.800781 120.648438 C 179.824219 115.394531 176.523438 111.1875 171.90625 108.003906 C 170.46875 107.011719 168.90625 106.292969 167.289062 105.691406 C 166.207031 105.300781 165.160156 105.058594 164.019531 105.089844 C 163.148438 105.121094 162.308594 105.210938 161.46875 105.480469 C 157.960938 106.589844 154.453125 107.703125 150.945312 108.8125 C 145.9375 110.40625 140.957031 111.96875 135.949219 113.558594 C 134.511719 114.011719 133.101562 114.460938 131.664062 114.910156 C 130.554688 115.273438 129.953125 116.144531 129.53125 117.136719 C 129.203125 117.886719 128.933594 118.636719 128.664062 119.417969 C 127.613281 122.511719 126.5625 125.605469 125.515625 128.699219 C 125.453125 128.910156 125.394531 129.089844 125.304688 129.390625 C 125.785156 129.332031 126.175781 129.269531 126.5625 129.238281 C 131.03125 128.550781 135.472656 127.859375 139.9375 127.199219 C 143.476562 126.65625 147.046875 126.175781 150.585938 125.695312 C 153.792969 125.246094 156.972656 124.824219 160.179688 124.433594 C 163.390625 124.042969 166.597656 123.683594 169.808594 123.351562 C 171.847656 123.140625 173.855469 122.960938 175.894531 122.992188 C 176.074219 122.992188 176.253906 122.992188 176.40625 122.992188 C 176.496094 123.261719 176.34375 123.292969 176.195312 123.292969 C 174.753906 123.503906 173.316406 123.742188 171.875 123.953125 C 168.789062 124.402344 165.699219 124.855469 162.609375 125.335938 C 159.042969 125.875 155.472656 126.417969 151.933594 127.015625 C 148.726562 127.527344 145.515625 128.070312 142.339844 128.609375 C 138.949219 129.179688 135.589844 129.75 132.203125 130.382812 C 130.074219 130.773438 127.972656 131.253906 125.84375 131.613281 C 123.625 131.972656 122.097656 133.296875 120.957031 135.128906 C 119.996094 136.660156 119.335938 138.339844 118.707031 140.054688 C 117.269531 144.019531 116.367188 148.074219 115.707031 152.25 C 115.230469 155.34375 114.898438 158.496094 114.777344 161.621094 C 114.628906 165.253906 114.628906 168.890625 115.050781 172.496094 C 115.230469 174.027344 115.46875 175.527344 115.738281 177.058594 C 115.859375 177.691406 116.039062 178.320312 116.21875 178.953125 C 116.308594 179.253906 116.429688 179.523438 116.578125 179.792969 C 117.449219 181.355469 118.859375 182.257812 120.535156 182.886719 C 120.566406 182.675781 120.597656 182.527344 120.597656 182.375 C 120.597656 180.664062 120.746094 178.984375 121.015625 177.300781 C 121.285156 175.738281 121.675781 174.238281 122.335938 172.792969 C 122.726562 171.984375 123.175781 171.234375 123.804688 170.601562 C 125.035156 169.371094 126.65625 169.28125 128.003906 170.363281 C 128.8125 171.023438 129.414062 171.832031 129.921875 172.734375 C 130.882812 174.417969 131.511719 176.25 131.933594 178.140625 C 132.230469 179.554688 132.441406 180.996094 132.652344 182.40625 C 132.710938 182.855469 132.710938 183.339844 132.773438 183.820312 C 133.011719 185.230469 133.792969 186.191406 135.199219 186.550781 C 136.851562 186.972656 138.5 187.421875 140.179688 187.875 C 144.707031 189.046875 149.207031 190.214844 153.734375 191.359375 C 157.152344 192.230469 160.570312 193.128906 163.988281 194 C 164.140625 194.03125 164.257812 194.0625 164.4375 194.089844 C 164.4375 193.972656 164.46875 193.851562 164.46875 193.761719 C 164.167969 191.328125 164.019531 188.863281 164.109375 186.402344 C 164.199219 183.96875 164.5 181.535156 165.160156 179.191406 C 165.519531 177.929688 166 176.699219 166.71875 175.558594 C 167.109375 174.925781 167.558594 174.355469 168.128906 173.875 C 169.539062 172.675781 171.097656 172.433594 172.804688 173.09375 C 173.824219 173.484375 174.664062 174.144531 175.414062 174.867188 C 176.792969 176.1875 177.84375 177.78125 178.742188 179.433594 C 180.121094 181.925781 181.113281 184.570312 181.863281 187.332031 C 182.28125 188.835938 182.550781 190.367188 182.972656 191.867188 C 183.839844 195.113281 186.03125 197.003906 189.238281 197.757812 C 190.257812 197.996094 191.308594 197.996094 192.359375 198.117188 C 199.226562 198.898438 206.09375 199.019531 212.988281 198.898438 C 216.199219 198.835938 219.40625 198.746094 222.617188 198.628906 C 224.804688 198.535156 226.964844 198.386719 229.152344 198.238281 C 230.800781 198.148438 232.421875 198.027344 234.070312 197.875 C 236.199219 197.695312 238.300781 197.484375 240.429688 197.277344 C 242.679688 197.035156 244.898438 196.792969 247.144531 196.464844 C 249.457031 196.132812 251.765625 195.742188 254.074219 195.351562 C 254.253906 195.324219 254.433594 195.292969 254.613281 195.261719 C 254.972656 195.234375 255.304688 195.082031 255.601562 194.871094 C 256.261719 194.421875 256.53125 193.820312 256.414062 193.011719 C 256.292969 192.199219 256.171875 191.386719 256.171875 190.578125 C 256.140625 189.074219 256.59375 187.695312 257.402344 186.433594 C 258.152344 185.289062 258.839844 184.089844 259.5625 182.917969 C 260.28125 181.714844 260.371094 180.394531 260.039062 179.011719 C 259.832031 179.011719 259.621094 178.984375 259.410156 179.011719 C 257.070312 179.222656 254.703125 179.464844 252.363281 179.644531 C 249.15625 179.882812 245.917969 180.0625 242.707031 180.242188 C 240.609375 180.363281 238.480469 180.425781 236.378906 180.515625 C 232.511719 180.664062 228.644531 180.816406 224.746094 180.875 C 219.015625 180.964844 213.257812 180.964844 207.53125 181.023438 C 206.242188 181.023438 204.953125 180.90625 203.664062 180.753906 C 202.824219 180.664062 202.015625 180.335938 201.292969 179.882812 C 200.816406 179.582031 200.605469 179.3125 200.363281 178.832031 C 200.574219 178.621094 200.84375 178.652344 201.113281 178.652344 C 202.433594 178.683594 203.753906 178.773438 205.074219 178.773438 C 209.871094 178.800781 214.667969 178.800781 219.46875 178.773438 C 222.347656 178.773438 225.226562 178.683594 228.132812 178.59375 C 230.53125 178.53125 232.933594 178.441406 235.332031 178.351562 C 238.390625 178.230469 241.417969 178.113281 244.476562 177.929688 C 246.9375 177.8125 249.394531 177.628906 251.882812 177.449219 C 253.804688 177.300781 255.691406 177.148438 257.582031 176.96875 C 258.542969 176.878906 259.5 176.730469 260.492188 176.640625 C 261.300781 176.550781 261.78125 176.851562 261.988281 177.628906 C 262.320312 178.742188 262.5 179.882812 262.410156 181.054688 C 262.320312 182.167969 261.929688 183.21875 261.359375 184.148438 C 260.761719 185.171875 260.101562 186.191406 259.5 187.210938 C 258.992188 188.023438 258.542969 188.863281 258.421875 189.855469 C 258.332031 190.695312 258.390625 191.539062 258.542969 192.378906 C 258.839844 194.273438 258.210938 195.625 256.59375 196.585938 C 255.691406 197.125 254.703125 197.394531 253.683594 197.574219 C 250.386719 198.148438 247.117188 198.65625 243.789062 199.019531 C 241.296875 199.289062 238.808594 199.527344 236.320312 199.796875 C 236.171875 199.828125 235.992188 199.859375 235.78125 199.890625 C 235.359375 201.960938 234.671875 203.914062 233.203125 205.597656 C 233.921875 205.746094 234.550781 205.894531 235.210938 206.046875 C 239.320312 206.949219 243.398438 207.847656 247.507812 208.75 C 249.515625 209.199219 251.523438 209.621094 253.535156 210.070312 C 253.5625 210.070312 253.59375 210.070312 253.652344 210.101562 C 253.832031 210.132812 254.042969 210.191406 254.042969 210.402344 C 254.042969 210.671875 253.804688 210.671875 253.59375 210.671875 C 253.023438 210.703125 252.453125 210.730469 251.855469 210.761719 C 249.816406 210.882812 247.777344 210.972656 245.765625 211.09375 C 243.546875 211.214844 241.328125 211.304688 239.109375 211.421875 C 237.128906 211.511719 235.152344 211.632812 233.171875 211.753906 C 231.132812 211.875 229.0625 211.964844 227.023438 212.085938 C 225.046875 212.175781 223.066406 212.292969 221.085938 212.414062 C 219.40625 212.503906 217.699219 212.625 216.019531 212.714844 C 214.25 212.804688 212.449219 212.894531 210.679688 212.984375 C 209 213.074219 207.320312 213.164062 205.671875 213.253906 C 203.992188 213.34375 202.3125 213.4375 200.664062 213.527344 C 198.65625 213.644531 196.644531 213.734375 194.605469 213.855469 C 192.386719 213.976562 190.140625 214.066406 187.917969 214.1875 C 186.871094 214.246094 185.820312 214.214844 184.800781 214.398438 C 184.140625 214.515625 183.570312 214.335938 182.972656 214.15625 C 176.824219 212.414062 170.648438 210.582031 164.46875 208.75 C 156.164062 206.285156 147.855469 203.855469 139.519531 201.390625 C 132.171875 199.226562 124.824219 197.035156 117.476562 194.871094 C 117.238281 194.8125 117 194.753906 116.757812 194.664062 C 116.609375 194.601562 116.429688 194.511719 116.488281 194.332031 C 116.519531 194.242188 116.699219 194.121094 116.816406 194.089844 C 117.328125 194 117.835938 193.910156 118.378906 193.851562 C 120.265625 193.550781 122.15625 193.28125 124.046875 192.980469 C 124.105469 192.949219 124.164062 192.921875 124.226562 192.890625 Z M 170.167969 194.511719 C 170.257812 195.894531 170.347656 197.246094 170.46875 198.597656 C 170.585938 199.707031 170.796875 200.789062 171.214844 201.8125 C 171.367188 202.171875 171.546875 202.53125 171.785156 202.832031 C 172.144531 203.3125 172.535156 203.3125 172.957031 202.832031 C 172.984375 202.800781 173.046875 202.742188 173.046875 202.710938 C 173.316406 202.082031 173.617188 201.449219 173.855469 200.820312 C 173.914062 200.699219 173.855469 200.550781 173.824219 200.398438 C 173.375 198.445312 173.195312 196.496094 173.253906 194.480469 C 173.285156 192.289062 173.496094 190.125 174.125 187.992188 C 174.15625 187.875 174.183594 187.695312 174.15625 187.574219 C 174.003906 186.824219 173.765625 186.070312 173.34375 185.410156 C 172.867188 184.628906 172.386719 184.628906 171.875 185.351562 C 171.757812 185.5 171.667969 185.679688 171.578125 185.859375 C 171.394531 186.28125 171.214844 186.703125 171.097656 187.121094 C 170.40625 189.554688 170.195312 192.019531 170.167969 194.511719 Z M 125.753906 184.269531 C 125.695312 185.742188 125.90625 187.84375 126.234375 189.074219 C 126.382812 189.675781 126.59375 190.246094 126.835938 190.816406 C 126.953125 191.117188 127.164062 191.359375 127.375 191.597656 C 127.554688 191.808594 127.792969 191.867188 128.0625 191.75 C 128.511719 191.539062 129.171875 190.214844 129.082031 189.734375 C 129.082031 189.675781 129.054688 189.585938 129.023438 189.527344 C 128.574219 188.265625 128.363281 186.972656 128.304688 185.652344 C 128.214844 183.726562 128.304688 181.835938 128.902344 179.972656 C 128.933594 179.882812 128.992188 179.761719 128.964844 179.671875 C 128.785156 179.042969 128.542969 178.441406 128.0625 177.992188 C 127.792969 177.722656 127.523438 177.722656 127.253906 178.019531 C 127.042969 178.261719 126.804688 178.53125 126.714844 178.800781 C 126.472656 179.433594 126.234375 180.09375 126.085938 180.753906 C 125.84375 181.957031 125.753906 183.21875 125.753906 184.269531 Z M 229.152344 130.800781 C 229.8125 131.460938 230.472656 132.09375 231.074219 132.785156 C 236.289062 138.402344 241.089844 144.347656 245.4375 150.65625 C 245.738281 151.109375 246.035156 151.558594 246.367188 152.007812 C 246.457031 152.128906 246.636719 152.277344 246.785156 152.277344 C 247.386719 152.339844 247.984375 152.339844 248.554688 152.339844 C 248.945312 152.339844 249.125 152.097656 249.003906 151.738281 C 248.914062 151.46875 248.796875 151.199219 248.644531 150.957031 C 247.296875 148.855469 245.976562 146.753906 244.566406 144.679688 C 240.96875 139.511719 236.921875 134.707031 232.300781 130.441406 C 231.550781 129.75 230.800781 129.089844 230.023438 128.460938 C 229.542969 128.070312 228.972656 127.707031 228.375 127.527344 C 226.84375 127.046875 225.285156 126.65625 223.726562 126.296875 C 220.398438 125.515625 217.039062 124.855469 213.648438 124.433594 C 211.371094 124.132812 209.0625 123.832031 206.78125 123.621094 C 205.074219 123.441406 203.332031 123.351562 201.59375 123.261719 C 199.375 123.171875 197.15625 123.082031 194.9375 123.050781 C 192.71875 123.023438 190.5 123.082031 188.28125 123.113281 C 187.738281 123.113281 187.199219 123.203125 186.691406 123.441406 C 185.820312 123.863281 185.371094 124.585938 185.460938 125.546875 C 185.492188 125.964844 185.609375 126.386719 185.761719 126.808594 C 186.300781 128.21875 186.871094 129.601562 187.378906 130.980469 C 189.210938 135.96875 190.828125 141.015625 192.238281 146.121094 C 192.449219 146.871094 192.6875 147.59375 192.957031 148.34375 C 193.40625 149.574219 194.335938 150.117188 195.625 150.175781 C 197.425781 150.238281 199.226562 150.296875 201.023438 150.386719 C 203.242188 150.476562 205.492188 150.597656 207.710938 150.6875 C 210.742188 150.808594 213.769531 150.925781 216.796875 151.046875 C 218.957031 151.136719 221.117188 151.257812 223.277344 151.347656 C 226.246094 151.46875 229.214844 151.589844 232.183594 151.707031 C 234.011719 151.769531 235.871094 151.859375 237.699219 151.917969 C 239.140625 151.980469 240.578125 152.070312 242.019531 152.097656 C 242.589844 152.128906 243.15625 152.097656 243.816406 152.097656 C 239.410156 144.4375 234.042969 137.589844 228.523438 130.773438 C 228.851562 130.472656 229.003906 130.652344 229.152344 130.800781 Z M 136.25 176.941406 C 135.378906 176.820312 134.542969 176.667969 133.703125 176.609375 C 133.191406 176.578125 132.863281 176.398438 132.742188 175.859375 C 132.710938 175.679688 132.621094 175.527344 132.5625 175.316406 C 133.222656 175.199219 133.792969 175.378906 134.390625 175.40625 C 134.992188 175.4375 135.5625 175.5 136.191406 175.558594 C 136.191406 173.726562 136.191406 171.921875 136.191406 170.089844 C 135.921875 170.0625 135.710938 170 135.472656 170 C 133.523438 169.851562 131.542969 169.699219 129.59375 169.550781 C 129.324219 169.519531 129.082031 169.460938 128.84375 169.28125 C 128.511719 169.039062 128.183594 168.800781 127.734375 168.5 C 128.753906 168.410156 129.652344 168.558594 130.582031 168.558594 C 131.511719 168.589844 132.410156 168.621094 133.339844 168.648438 C 134.269531 168.679688 135.199219 168.738281 136.191406 168.769531 C 136.25 166.96875 136.339844 165.253906 136.402344 163.453125 C 136.21875 163.421875 136.039062 163.421875 135.859375 163.421875 C 133.132812 163.304688 130.433594 163.210938 127.703125 163.09375 C 124.707031 162.972656 121.734375 162.820312 118.738281 162.671875 C 118.527344 162.671875 118.167969 162.730469 118.199219 162.402344 C 118.226562 162.132812 118.527344 162.191406 118.738281 162.191406 C 123.027344 162.222656 127.285156 162.222656 131.574219 162.25 C 133.011719 162.25 134.453125 162.28125 135.890625 162.28125 C 136.070312 162.28125 136.25 162.28125 136.492188 162.28125 C 136.640625 160.507812 136.789062 158.765625 136.941406 156.996094 C 136.761719 156.996094 136.582031 156.964844 136.429688 156.964844 C 131.933594 156.933594 127.402344 156.90625 122.90625 156.875 C 121.585938 156.875 120.265625 156.816406 118.949219 156.785156 C 118.765625 156.785156 118.585938 156.816406 118.46875 156.632812 C 118.527344 156.394531 118.707031 156.425781 118.859375 156.425781 C 119.367188 156.394531 119.878906 156.363281 120.355469 156.335938 C 124.855469 156.214844 129.324219 156.09375 133.820312 155.972656 C 134.871094 155.945312 135.921875 155.914062 137 155.851562 C 137.058594 155.464844 137.121094 155.101562 137.148438 154.742188 C 137.628906 150.65625 138.257812 146.632812 139.128906 142.605469 C 139.757812 139.664062 140.480469 136.71875 141.378906 133.867188 C 141.527344 133.414062 141.648438 132.964844 141.796875 132.515625 C 142.097656 131.761719 142.609375 131.253906 143.386719 131.042969 C 143.925781 130.890625 144.46875 130.773438 145.007812 130.683594 C 147.257812 130.320312 149.535156 129.992188 151.785156 129.628906 C 154.035156 129.269531 156.253906 128.910156 158.5 128.550781 C 159.371094 128.398438 160.242188 128.25 161.109375 128.160156 C 161.5 128.128906 161.949219 128.160156 162.339844 128.25 C 162.820312 128.367188 163.148438 128.730469 163.210938 129.238281 C 163.269531 129.601562 163.269531 129.960938 163.238281 130.320312 C 163.148438 131.703125 162.640625 132.996094 162.28125 134.316406 C 161.199219 138.28125 160.390625 142.277344 159.730469 146.332031 C 159.191406 149.546875 158.769531 152.757812 158.472656 156.003906 C 158.230469 158.707031 158.023438 161.410156 157.902344 164.113281 C 157.78125 167.148438 157.722656 170.179688 157.722656 173.214844 C 157.722656 177 157.960938 180.785156 158.351562 184.570312 C 158.472656 185.742188 158.652344 186.882812 158.769531 188.054688 C 158.863281 189.105469 158.320312 189.585938 157.273438 189.375 C 156.074219 189.136719 154.871094 188.863281 153.671875 188.59375 C 148.367188 187.421875 143.058594 186.222656 137.75 185.050781 C 136.941406 184.871094 136.640625 184.570312 136.582031 183.726562 C 136.429688 181.625 136.308594 179.523438 136.160156 177.390625 C 136.28125 177.269531 136.28125 177.148438 136.25 176.941406 Z M 138.859375 182.976562 C 139.039062 183.039062 139.21875 183.097656 139.398438 183.128906 C 141.046875 183.488281 142.699219 183.847656 144.347656 184.238281 C 148.246094 185.109375 152.144531 185.980469 156.042969 186.851562 C 156.191406 186.882812 156.34375 186.882812 156.550781 186.914062 C 155.082031 175.109375 155.503906 163.363281 156.882812 151.558594 C 151.632812 151.738281 146.476562 151.917969 141.226562 152.097656 C 141.257812 151.769531 141.257812 151.496094 141.289062 151.226562 C 141.347656 150.71875 141.378906 150.238281 141.4375 149.726562 C 141.738281 147.203125 142.007812 144.710938 142.367188 142.214844 C 142.757812 139.574219 143.296875 136.929688 143.777344 134.285156 C 143.808594 134.136719 143.808594 133.957031 143.808594 133.746094 C 143.449219 133.835938 143.449219 134.074219 143.386719 134.257812 C 143.027344 135.519531 142.699219 136.75 142.367188 138.011719 C 141.4375 141.554688 140.660156 145.128906 140.089844 148.765625 C 139.847656 150.417969 139.667969 152.070312 139.488281 153.722656 C 139.398438 154.410156 139.339844 155.074219 139.277344 155.824219 C 139.519531 155.824219 139.699219 155.824219 139.878906 155.824219 C 141.679688 155.792969 143.476562 155.734375 145.277344 155.671875 C 148.035156 155.582031 150.792969 155.464844 153.554688 155.34375 C 153.703125 155.34375 153.882812 155.3125 154.035156 155.34375 C 154.542969 155.402344 154.902344 155.792969 154.902344 156.304688 C 154.902344 156.753906 154.542969 157.144531 154.0625 157.207031 C 153.945312 157.207031 153.851562 157.207031 153.734375 157.207031 C 149.117188 157.113281 144.496094 157.054688 139.878906 156.964844 C 139.640625 156.964844 139.429688 156.964844 139.128906 156.964844 C 138.917969 158.738281 138.769531 160.507812 138.679688 162.3125 C 139.609375 162.3125 140.449219 162.3125 141.289062 162.3125 C 145.15625 162.3125 149.054688 162.3125 152.921875 162.3125 C 153.074219 162.3125 153.253906 162.3125 153.402344 162.339844 C 153.851562 162.460938 154.152344 162.851562 154.152344 163.273438 C 154.125 163.722656 153.792969 164.082031 153.34375 164.175781 C 153.195312 164.203125 153.015625 164.203125 152.863281 164.175781 C 152.503906 164.144531 152.144531 164.113281 151.785156 164.082031 C 149.175781 163.964844 146.597656 163.84375 143.988281 163.722656 C 142.609375 163.664062 141.199219 163.601562 139.820312 163.542969 C 139.398438 163.511719 139.007812 163.542969 138.589844 163.542969 C 138.410156 164.625 138.289062 168.320312 138.410156 168.828125 C 138.558594 168.828125 138.710938 168.859375 138.890625 168.859375 C 140 168.917969 141.078125 168.949219 142.1875 169.011719 C 145.515625 169.128906 148.816406 169.25 152.144531 169.371094 C 152.355469 169.371094 152.535156 169.371094 152.742188 169.402344 C 153.3125 169.492188 153.671875 169.910156 153.644531 170.453125 C 153.613281 170.992188 153.222656 171.382812 152.652344 171.382812 C 152.355469 171.382812 152.085938 171.351562 151.785156 171.324219 C 149.894531 171.144531 147.976562 170.960938 146.085938 170.8125 C 143.957031 170.632812 141.859375 170.480469 139.730469 170.300781 C 139.277344 170.273438 138.828125 170.242188 138.378906 170.210938 C 138.378906 172.074219 138.378906 173.847656 138.378906 175.679688 C 138.53125 175.707031 138.648438 175.769531 138.769531 175.769531 C 141.109375 175.980469 143.476562 176.21875 145.816406 176.429688 C 148.125 176.640625 150.40625 176.789062 152.714844 177 C 152.894531 177 153.074219 177.058594 153.222656 177.121094 C 153.671875 177.300781 153.945312 177.78125 153.882812 178.261719 C 153.824219 178.742188 153.433594 179.101562 152.921875 179.164062 C 152.714844 179.191406 152.503906 179.164062 152.265625 179.132812 C 150.644531 178.890625 149.054688 178.652344 147.4375 178.410156 C 144.796875 178.050781 142.1875 177.691406 139.550781 177.359375 C 139.1875 177.300781 138.800781 177.269531 138.378906 177.242188 C 138.53125 179.191406 138.679688 181.085938 138.859375 182.976562 Z M 169.65625 151.859375 C 174.335938 151.828125 179.042969 151.796875 183.722656 151.769531 C 185.070312 151.769531 186.421875 151.769531 187.769531 151.769531 C 189.148438 151.769531 189.960938 150.957031 189.929688 149.574219 C 189.929688 149.425781 189.898438 149.246094 189.867188 149.09375 C 189.71875 148.496094 189.570312 147.894531 189.417969 147.324219 C 188.460938 143.566406 187.378906 139.84375 186.089844 136.179688 C 185.191406 133.59375 184.230469 131.011719 183.089844 128.519531 C 182.730469 127.707031 182.222656 126.988281 181.5625 126.355469 C 180.992188 125.816406 180.304688 125.457031 179.464844 125.484375 C 178.804688 125.515625 178.144531 125.636719 177.484375 125.726562 C 175.835938 125.9375 174.15625 126.144531 172.507812 126.355469 C 171.667969 126.445312 170.828125 126.535156 169.988281 126.6875 C 169.085938 126.835938 168.398438 127.289062 168.039062 128.160156 C 167.886719 128.550781 167.707031 128.96875 167.617188 129.390625 C 167.226562 130.921875 166.867188 132.425781 166.539062 133.984375 C 165.820312 137.261719 165.308594 140.59375 164.949219 143.929688 C 164.800781 145.339844 164.679688 146.78125 164.558594 148.195312 C 164.5 149.003906 164.589844 149.785156 164.917969 150.507812 C 165.367188 151.4375 166.148438 151.828125 167.136719 151.949219 C 167.167969 151.707031 167.167969 151.558594 167.167969 151.378906 C 167.289062 148.285156 167.527344 145.160156 167.859375 142.097656 C 168.277344 138.402344 168.847656 134.738281 169.539062 131.074219 C 169.628906 130.652344 169.71875 130.230469 169.808594 129.8125 C 169.867188 129.570312 169.957031 129.390625 170.316406 129.511719 C 169.417969 136.929688 168.789062 144.378906 168.789062 151.949219 C 169.207031 151.859375 169.445312 151.859375 169.65625 151.859375 Z M 123.234375 152.730469 C 124.707031 152.667969 126.203125 152.640625 127.675781 152.578125 C 128.902344 152.519531 130.164062 152.460938 131.390625 152.429688 C 132.320312 152.398438 133.25 152.339844 134.210938 152.367188 C 135.320312 152.398438 136.070312 151.886719 136.371094 150.808594 C 136.460938 150.507812 136.492188 150.207031 136.550781 149.90625 C 136.96875 147.894531 137.359375 145.882812 137.78125 143.867188 C 138.46875 140.535156 139.1875 137.199219 140.269531 133.957031 C 140.390625 133.59375 140.449219 133.175781 140.480469 132.785156 C 140.507812 132.0625 140.148438 131.703125 139.550781 131.703125 C 139.339844 131.703125 139.160156 131.671875 138.949219 131.703125 C 137 132.003906 135.019531 132.304688 133.070312 132.632812 C 130.433594 133.054688 127.792969 133.476562 125.183594 133.894531 C 124.464844 134.015625 123.777344 134.167969 123.085938 134.316406 C 122.636719 134.4375 122.277344 134.707031 122.007812 135.097656 C 121.644531 135.609375 121.316406 136.089844 121.105469 136.6875 C 120.808594 137.589844 120.445312 138.460938 120.148438 139.332031 C 119.039062 142.726562 118.316406 146.210938 117.65625 149.695312 C 117.539062 150.328125 117.539062 150.988281 117.746094 151.617188 C 117.988281 152.398438 118.46875 152.789062 119.277344 152.851562 C 119.695312 152.878906 120.148438 152.820312 120.566406 152.820312 C 120.597656 152.667969 120.625 152.578125 120.65625 152.460938 C 120.925781 150.117188 121.347656 147.804688 121.855469 145.519531 C 122.457031 142.816406 123.117188 140.113281 123.984375 137.46875 C 124.046875 137.320312 124.046875 137.171875 124.136719 137.078125 C 124.195312 136.988281 124.316406 136.960938 124.40625 136.898438 C 124.433594 136.988281 124.496094 137.078125 124.496094 137.171875 C 124.496094 137.289062 124.464844 137.378906 124.433594 137.5 C 124.015625 139.574219 123.535156 141.675781 123.175781 143.75 C 122.816406 145.851562 122.574219 147.953125 122.335938 150.085938 C 122.246094 150.925781 122.214844 151.796875 122.15625 152.757812 C 122.605469 152.730469 122.9375 152.757812 123.234375 152.730469 Z M 256.324219 185.652344 C 253.5625 185.921875 250.835938 186.222656 248.074219 186.433594 C 245.316406 186.640625 242.558594 186.761719 239.800781 186.882812 C 236.199219 187.03125 232.632812 187.121094 229.035156 187.210938 C 224.296875 187.304688 219.585938 187.363281 214.847656 187.453125 C 214.160156 187.453125 213.441406 187.453125 212.75 187.453125 C 212.628906 187.453125 212.539062 187.421875 212.421875 187.394531 C 212.539062 187.242188 212.628906 187.152344 212.78125 187.121094 C 213.050781 187.09375 213.320312 187.0625 213.589844 187.03125 C 215.570312 186.941406 217.546875 186.882812 219.527344 186.792969 C 222.375 186.671875 225.226562 186.582031 228.074219 186.460938 C 230.710938 186.339844 233.382812 186.25 236.019531 186.101562 C 240.128906 185.859375 244.265625 185.5625 248.375 185.261719 C 251.285156 185.050781 254.132812 184.628906 257.070312 184.117188 C 257.191406 183.699219 257.34375 183.246094 257.433594 182.796875 C 257.550781 182.347656 257.34375 182.105469 256.863281 182.136719 C 256.351562 182.167969 255.8125 182.226562 255.304688 182.285156 C 254.34375 182.375 253.414062 182.496094 252.453125 182.585938 C 251.316406 182.675781 250.144531 182.738281 249.003906 182.828125 C 247.234375 182.949219 245.4375 183.097656 243.667969 183.21875 C 242.167969 183.308594 240.640625 183.398438 239.140625 183.488281 C 237.371094 183.578125 235.601562 183.699219 233.863281 183.789062 C 232.363281 183.847656 230.863281 183.878906 229.363281 183.9375 C 226.515625 184.027344 223.664062 184.148438 220.816406 184.210938 C 217.609375 184.269531 214.398438 184.238281 211.191406 184.269531 C 210.769531 184.269531 210.351562 184.238281 209.960938 184.269531 C 209.421875 184.269531 209.300781 184.417969 209.359375 184.960938 C 209.421875 185.441406 209.511719 185.890625 209.570312 186.339844 C 209.839844 187.8125 210.140625 189.285156 210.742188 190.667969 C 211.308594 192.019531 212.300781 192.800781 213.738281 193.011719 C 214.488281 193.128906 215.269531 193.160156 216.046875 193.191406 C 217.277344 193.25 218.539062 193.308594 219.765625 193.308594 C 223.15625 193.28125 226.542969 193.25 229.933594 193.191406 C 231.582031 193.160156 233.203125 193.011719 234.851562 192.890625 C 236.410156 192.769531 237.941406 192.679688 239.5 192.53125 C 241.449219 192.347656 243.398438 192.140625 245.347656 191.898438 C 247.476562 191.628906 249.605469 191.328125 251.734375 191.027344 C 252.875 190.878906 253.804688 190.367188 254.613281 189.554688 C 254.792969 189.375 254.941406 189.136719 255.183594 188.835938 C 254.851562 188.863281 254.671875 188.894531 254.492188 188.894531 C 253.355469 189.015625 252.242188 189.195312 251.105469 189.285156 C 247.6875 189.496094 244.265625 189.675781 240.847656 189.824219 C 237.578125 189.976562 234.3125 190.097656 231.074219 190.15625 C 226.394531 190.246094 221.6875 190.246094 217.007812 190.277344 C 216.078125 190.277344 215.179688 190.246094 214.25 190.246094 C 214.070312 190.246094 213.859375 190.308594 213.679688 190.007812 C 213.917969 189.976562 214.070312 189.945312 214.25 189.945312 C 216.886719 189.886719 219.527344 189.824219 222.136719 189.734375 C 226.003906 189.585938 229.84375 189.40625 233.710938 189.226562 C 236.859375 189.074219 240.007812 188.894531 243.15625 188.683594 C 246.15625 188.472656 249.15625 188.203125 252.152344 187.902344 C 253.324219 187.785156 254.464844 187.542969 255.632812 187.332031 C 255.78125 187.304688 256.023438 187.210938 256.082031 187.09375 C 256.292969 186.671875 256.441406 186.191406 256.621094 185.742188 C 256.414062 185.679688 256.382812 185.652344 256.324219 185.652344 Z M 202.074219 177.242188 C 203.902344 177.300781 205.761719 177.359375 207.59375 177.390625 C 210.199219 177.421875 212.78125 177.449219 215.390625 177.449219 C 216.136719 177.449219 216.859375 177.421875 217.609375 177.359375 C 218.566406 177.300781 218.988281 176.640625 218.71875 175.738281 C 218.6875 175.679688 218.6875 175.648438 218.65625 175.589844 C 217.878906 173.515625 217.097656 171.441406 216.257812 169.371094 C 216.046875 168.828125 215.75 168.347656 215.390625 167.867188 C 214.789062 167.085938 213.980469 166.515625 213.109375 166.066406 C 211.371094 165.105469 209.480469 164.804688 207.53125 164.683594 C 206.210938 164.59375 204.863281 164.5625 203.542969 164.503906 C 201.894531 164.414062 200.273438 164.355469 198.625 164.265625 C 197.214844 164.203125 195.808594 164.113281 194.425781 164.054688 C 193.496094 164.023438 192.566406 163.964844 191.609375 163.964844 C 190.859375 163.964844 190.46875 164.382812 190.5 165.136719 C 190.527344 166.15625 190.527344 167.148438 190.558594 168.167969 C 190.589844 170.273438 190.617188 172.375 190.707031 174.445312 C 190.707031 174.835938 190.828125 175.226562 190.980469 175.589844 C 191.21875 176.128906 191.636719 176.488281 192.269531 176.519531 C 194.066406 176.667969 195.898438 176.851562 197.695312 177 C 197.757812 177 197.816406 176.96875 197.90625 176.941406 C 197.9375 176.851562 197.9375 176.757812 197.9375 176.667969 C 198.085938 174.808594 198.207031 172.914062 198.355469 171.050781 C 198.445312 169.941406 198.566406 168.828125 198.683594 167.71875 C 198.714844 167.539062 198.777344 167.386719 198.835938 167.207031 C 199.164062 167.269531 199.195312 167.476562 199.226562 167.6875 C 199.253906 168.019531 199.316406 168.378906 199.34375 168.710938 C 199.613281 170.691406 199.886719 172.675781 200.125 174.65625 C 200.214844 175.46875 200.304688 176.277344 200.394531 177.121094 C 200.996094 177.148438 201.535156 177.210938 202.074219 177.242188 Z M 223.214844 172.585938 C 223.457031 172.523438 223.664062 172.496094 223.90625 172.496094 C 225.285156 172.402344 226.664062 172.285156 228.074219 172.253906 C 231.613281 172.105469 235.152344 171.984375 238.660156 171.832031 C 241.898438 171.714844 245.136719 171.59375 248.40625 171.503906 C 248.585938 171.503906 248.765625 171.472656 248.945312 171.472656 C 249.066406 170.78125 249.125 170.152344 249.125 169.460938 C 248.644531 169.460938 248.195312 169.460938 247.777344 169.460938 C 242.828125 169.429688 237.878906 169.402344 232.960938 169.371094 C 230.59375 169.339844 228.222656 169.308594 225.882812 169.28125 C 224.65625 169.28125 223.394531 169.308594 222.167969 169.308594 C 221.925781 169.308594 221.65625 169.371094 221.445312 169.039062 C 221.6875 168.980469 221.894531 168.890625 222.105469 168.859375 C 222.617188 168.800781 223.15625 168.769531 223.664062 168.769531 C 228.285156 168.710938 232.902344 168.648438 237.519531 168.558594 C 240.9375 168.46875 244.355469 168.320312 247.804688 168.199219 C 248.316406 168.167969 248.796875 168.140625 249.304688 168.109375 C 249.367188 167.660156 249.367188 167.238281 249.183594 166.847656 C 248.976562 166.335938 248.617188 166.097656 248.046875 166.097656 C 247.746094 166.097656 247.445312 166.097656 247.117188 166.097656 C 238.179688 166.097656 229.242188 166.097656 220.335938 166.097656 C 219.945312 166.097656 219.558594 166.066406 219.136719 166.066406 C 218.835938 166.066406 218.566406 166.066406 218.269531 166.125 C 217.488281 166.304688 217.1875 166.90625 217.488281 167.660156 C 217.578125 167.867188 217.699219 168.078125 217.757812 168.289062 C 218.539062 170.242188 219.289062 172.195312 220.066406 174.117188 C 220.488281 175.136719 221.207031 175.796875 222.347656 175.828125 C 223.546875 175.886719 224.714844 175.917969 225.914062 175.917969 C 227.894531 175.917969 229.84375 175.886719 231.820312 175.859375 C 233.980469 175.796875 236.140625 175.738281 238.300781 175.617188 C 241.027344 175.46875 243.757812 175.257812 246.488281 175.046875 C 247.445312 174.988281 248.164062 174.476562 248.617188 173.605469 C 248.734375 173.367188 248.855469 173.125 248.707031 172.792969 C 248.527344 172.792969 248.375 172.792969 248.226562 172.792969 C 242.316406 172.792969 236.378906 172.792969 230.472656 172.824219 C 228.132812 172.824219 225.792969 172.914062 223.425781 172.976562 C 223.214844 172.976562 222.976562 173.09375 222.796875 172.765625 C 222.976562 172.703125 223.097656 172.613281 223.214844 172.585938 Z M 139.039062 125.335938 C 140.839844 125.035156 142.636719 124.703125 144.40625 124.402344 C 146.054688 124.132812 147.707031 123.863281 149.355469 123.5625 C 149.953125 123.441406 150.554688 123.292969 151.125 123.082031 C 151.933594 122.78125 152.382812 122.121094 152.59375 121.28125 C 153.042969 119.207031 153.523438 117.164062 153.972656 115.09375 C 154.214844 113.949219 154.484375 112.839844 154.691406 111.699219 C 154.84375 110.917969 154.394531 110.316406 153.613281 110.136719 C 153.015625 109.984375 152.472656 110.136719 151.902344 110.285156 C 148.964844 111.1875 146.054688 112.058594 143.117188 112.960938 C 141.917969 113.320312 140.75 113.742188 139.578125 114.101562 C 138.46875 114.460938 137.929688 115.242188 137.660156 116.324219 C 137.089844 118.605469 136.519531 120.890625 135.949219 123.140625 C 135.832031 123.621094 135.800781 124.105469 135.921875 124.585938 C 136.128906 125.273438 136.730469 125.605469 137.449219 125.425781 C 137.660156 124.464844 137.898438 123.503906 138.140625 122.542969 C 138.648438 120.46875 139.1875 118.425781 139.730469 116.355469 C 139.789062 116.171875 139.757812 115.964844 140 115.875 C 140.238281 115.992188 140.179688 116.171875 140.148438 116.355469 C 139.730469 118.816406 139.308594 121.308594 138.917969 123.773438 C 138.828125 124.285156 138.769531 124.792969 138.710938 125.363281 C 138.828125 125.335938 138.949219 125.335938 139.039062 125.335938 Z M 257.191406 175.46875 C 257.550781 175.40625 257.820312 175.199219 257.941406 174.867188 C 258 174.6875 258.03125 174.476562 258.0625 174.296875 C 258.210938 172.164062 258.0625 170.03125 257.851562 167.929688 C 257.730469 166.667969 257.402344 165.464844 256.800781 164.355469 C 255.363281 161.710938 253.863281 159.128906 252.183594 156.664062 C 251.882812 156.242188 251.554688 155.824219 251.222656 155.433594 C 251.164062 155.34375 251.042969 155.3125 250.953125 155.253906 C 250.925781 155.28125 250.894531 155.3125 250.863281 155.34375 C 250.984375 155.644531 251.074219 155.945312 251.222656 156.214844 C 252.152344 158.136719 253.054688 160.058594 253.804688 162.070312 C 254.164062 163.003906 254.433594 163.992188 254.761719 164.984375 C 254.464844 165.074219 254.222656 165.164062 254.011719 165.253906 C 253.535156 165.433594 253.023438 165.617188 252.574219 165.824219 C 251.734375 166.214844 251.285156 166.90625 251.195312 167.808594 C 250.984375 169.820312 250.804688 171.832031 250.625 173.847656 C 250.59375 174.296875 250.59375 174.777344 250.65625 175.257812 C 250.714844 175.917969 251.074219 176.160156 251.703125 176.128906 C 252.09375 176.097656 252.453125 176.070312 252.84375 176.039062 C 253.472656 175.980469 254.074219 175.917969 254.734375 175.828125 C 254.851562 175.136719 254.972656 174.507812 255.0625 173.875 C 255.304688 172.042969 255.484375 170.179688 255.484375 168.320312 C 255.484375 168.140625 255.421875 167.957031 255.722656 167.808594 C 255.78125 167.898438 255.902344 167.988281 255.933594 168.109375 C 255.992188 168.289062 256.023438 168.46875 256.023438 168.648438 C 256.113281 169.882812 256.203125 171.113281 256.261719 172.3125 C 256.324219 173.367188 256.351562 174.445312 256.382812 175.558594 C 256.652344 175.527344 256.921875 175.527344 257.191406 175.46875 Z M 180.664062 176.460938 C 180.273438 175.167969 179.824219 173.9375 179.164062 172.765625 C 178.503906 171.59375 177.695312 170.542969 176.675781 169.640625 C 174.367188 167.628906 171.695312 166.996094 168.699219 167.539062 C 168.066406 167.660156 167.4375 167.839844 166.777344 167.988281 C 166.75 167.898438 166.6875 167.777344 166.6875 167.6875 C 166.359375 165.644531 166.089844 163.574219 166.027344 161.5 C 165.96875 159.277344 166.027344 157.023438 166.027344 154.773438 C 166.027344 154.621094 166.027344 154.441406 166.027344 154.292969 C 166.027344 154.140625 166 153.960938 165.820312 153.960938 C 165.699219 153.960938 165.546875 154.082031 165.488281 154.203125 C 165.367188 154.472656 165.308594 154.773438 165.25 155.074219 C 165.070312 156.394531 164.859375 157.714844 164.738281 159.039062 C 164.378906 162.820312 164.199219 166.605469 164.378906 170.390625 C 164.410156 170.691406 164.46875 170.992188 164.589844 171.261719 C 164.859375 171.832031 165.339844 171.953125 165.910156 171.683594 C 166.238281 171.53125 166.539062 171.324219 166.839844 171.144531 C 168.546875 170.089844 170.375 169.761719 172.355469 170.089844 C 174.484375 170.480469 176.222656 171.5625 177.722656 173.125 C 178.683594 174.117188 179.433594 175.257812 180.121094 176.460938 C 180.214844 176.640625 180.363281 176.789062 180.511719 176.96875 C 180.722656 176.699219 180.722656 176.699219 180.664062 176.460938 Z M 201.925781 190.007812 C 202.074219 188.894531 201.863281 187.84375 201.175781 186.941406 C 200.816406 186.460938 200.335938 186.101562 199.734375 185.980469 C 199.105469 185.859375 198.683594 186.101562 198.445312 186.671875 C 197.875 188.113281 197.816406 189.554688 198.324219 191.027344 C 198.566406 191.75 198.957031 192.410156 199.554688 192.921875 C 200.542969 193.761719 201.863281 193.910156 202.945312 193.160156 C 203.394531 192.859375 203.8125 192.46875 204.082031 192.050781 C 205.28125 190.15625 205.433594 188.175781 204.53125 186.132812 C 204.171875 185.320312 203.574219 184.691406 202.734375 184.328125 C 201.953125 184 201.175781 184.027344 200.394531 184.417969 C 200.425781 184.480469 200.425781 184.507812 200.425781 184.507812 C 200.453125 184.539062 200.484375 184.570312 200.515625 184.570312 C 201.894531 185.230469 202.613281 186.402344 202.882812 187.875 C 203.035156 188.773438 202.972656 189.675781 202.523438 190.515625 C 202.402344 190.757812 202.253906 191.027344 201.894531 191.117188 C 201.714844 190.667969 201.863281 190.335938 201.925781 190.007812 Z M 233.652344 160.300781 C 232.632812 160.328125 231.640625 160.507812 230.773438 161.109375 C 229.902344 161.710938 229.871094 162.671875 230.710938 163.332031 C 231.132812 163.632812 231.613281 163.875 232.09375 164.023438 C 233.230469 164.382812 234.402344 164.414062 235.570312 164.234375 C 236.351562 164.113281 237.128906 163.902344 237.761719 163.394531 C 238.480469 162.792969 238.507812 161.890625 237.761719 161.320312 C 237.398438 161.050781 236.980469 160.839844 236.558594 160.691406 C 235.8125 160.417969 235.03125 160.328125 234.222656 160.328125 C 234.070312 160.300781 233.863281 160.300781 233.652344 160.300781 Z M 170.4375 158.707031 C 171.816406 158.558594 173.226562 158.4375 174.605469 158.285156 C 174.816406 158.257812 175.023438 158.195312 175.234375 158.105469 C 175.476562 157.984375 175.476562 157.714844 175.234375 157.59375 C 175.054688 157.503906 174.84375 157.445312 174.636719 157.414062 C 172.867188 157.175781 171.066406 156.933594 169.296875 156.695312 C 169.117188 156.664062 168.90625 156.695312 168.726562 156.753906 C 167.976562 157.023438 167.796875 157.984375 168.367188 158.527344 C 168.636719 158.765625 168.9375 158.828125 169.265625 158.828125 C 169.65625 158.796875 170.046875 158.738281 170.4375 158.707031 Z M 118.378906 168.558594 C 119.996094 168.710938 121.644531 168.828125 123.265625 169.039062 C 123.925781 169.128906 124.226562 168.738281 124.644531 168.378906 C 122.785156 168.140625 118.199219 168.078125 117.71875 168.320312 C 117.867188 168.558594 118.136719 168.53125 118.378906 168.558594 Z M 118.046875 174.027344 C 117.898438 174.027344 117.71875 173.996094 117.628906 174.238281 C 118.648438 174.535156 119.667969 174.65625 120.6875 174.808594 C 120.746094 174.597656 120.777344 174.445312 120.835938 174.207031 C 119.878906 174.144531 118.976562 174.085938 118.046875 174.027344 Z M 118.046875 174.027344 " fill-opacity="1" fill-rule="nonzero"/></g><g clip-path="url(#9833489d75)"><path fill="#000000" d="M 75.472656 200.523438 C 75.644531 200.457031 75.65625 200.265625 75.589844 198.175781 C 75.234375 186.722656 75.492188 181.097656 76.738281 173.140625 C 80.269531 150.644531 91.207031 129.363281 107.699219 112.914062 C 126.53125 94.132812 151.941406 82.066406 178.125 79.472656 C 182.167969 79.070312 184.152344 78.980469 188.839844 78.980469 C 193.300781 78.984375 195.28125 79.066406 199.109375 79.414062 C 218.691406 81.203125 236.355469 87.566406 250.195312 97.816406 C 262.878906 107.210938 273.8125 120.320312 280.953125 134.695312 C 284.554688 141.949219 287.25 149.789062 289.234375 158.773438 C 291.164062 167.527344 291.699219 173.882812 291.578125 186.578125 C 291.523438 192.753906 291.394531 195.046875 290.945312 198.042969 C 290.824219 198.855469 290.691406 199.78125 290.65625 200.097656 C 290.59375 200.660156 290.597656 200.675781 290.867188 200.675781 C 291.105469 200.675781 291.175781 200.585938 291.371094 200.042969 C 291.941406 198.46875 292.199219 197.347656 292.757812 194.011719 C 293.53125 189.390625 293.835938 186.726562 294.03125 182.960938 C 294.09375 181.691406 294.195312 180.0625 294.253906 179.339844 C 294.828125 172.136719 294.097656 162.308594 292.375 153.976562 C 290.011719 142.570312 285.066406 130.039062 278.941406 119.941406 C 270.675781 106.316406 259.191406 94.847656 244.425781 85.472656 C 236.609375 80.511719 228.347656 76.585938 219.929688 73.835938 C 211.664062 71.132812 204.105469 69.683594 194.878906 69.023438 C 192.371094 68.847656 184.429688 68.847656 181.863281 69.027344 C 172.484375 69.679688 164.671875 71.074219 156.375 73.578125 C 142.0625 77.890625 128.535156 85.203125 116.914062 94.902344 C 108.101562 102.257812 100.316406 110.992188 93.753906 120.882812 C 83.25 136.714844 76.609375 155.039062 74.539062 173.910156 C 73.578125 182.679688 73.699219 193.949219 74.820312 199.46875 C 75 200.355469 75.171875 200.636719 75.472656 200.523438 Z M 75.472656 200.523438 " fill-opacity="1" fill-rule="nonzero"/></g><g fill="#000000" fill-opacity="1"><g transform="translate(44.431642, 258.413522)"><g><path d="M 3.953125 -32.90625 L 29 -32.90625 L 29 -26.3125 L 11.1875 -26.3125 L 11.1875 -19.3125 L 26.890625 -19.3125 L 26.890625 -12.734375 L 11.1875 -12.734375 L 11.1875 0 L 3.953125 0 Z M 3.953125 -32.90625 "/></g></g></g><g fill="#000000" fill-opacity="1"><g transform="translate(75.258476, 258.413522)"><g><path d="M 15.234375 -33.140625 L 21.90625 -33.140625 L 36 0 L 28.4375 0 L 25.421875 -7.375 L 11.515625 -7.375 L 8.5 0 L 1.125 0 Z M 22.84375 -13.765625 L 18.46875 -24.4375 L 14.09375 -13.765625 Z M 22.84375 -13.765625 "/></g></g></g><g fill="#000000" fill-opacity="1"><g transform="translate(112.382249, 258.413522)"><g><path d="M 3.953125 -32.90625 L 11.1875 -32.90625 L 11.1875 -6.578125 L 27.59375 -6.578125 L 27.59375 0 L 3.953125 0 Z M 3.953125 -32.90625 "/></g></g></g><g fill="#000000" fill-opacity="1"><g transform="translate(141.47037, 258.413522)"><g><path d="M 19.359375 0.5625 C 16.953125 0.5625 14.710938 0.125 12.640625 -0.75 C 10.578125 -1.625 8.789062 -2.820312 7.28125 -4.34375 C 5.78125 -5.863281 4.601562 -7.65625 3.75 -9.71875 C 2.90625 -11.789062 2.484375 -14.003906 2.484375 -16.359375 L 2.484375 -16.453125 C 2.484375 -18.796875 2.90625 -20.992188 3.75 -23.046875 C 4.601562 -25.097656 5.78125 -26.898438 7.28125 -28.453125 C 8.789062 -30.003906 10.59375 -31.226562 12.6875 -32.125 C 14.789062 -33.019531 17.109375 -33.46875 19.640625 -33.46875 C 21.179688 -33.46875 22.582031 -33.34375 23.84375 -33.09375 C 25.113281 -32.84375 26.265625 -32.492188 27.296875 -32.046875 C 28.335938 -31.609375 29.296875 -31.078125 30.171875 -30.453125 C 31.046875 -29.828125 31.863281 -29.140625 32.625 -28.390625 L 28.015625 -23.078125 C 26.722656 -24.234375 25.410156 -25.140625 24.078125 -25.796875 C 22.753906 -26.460938 21.257812 -26.796875 19.59375 -26.796875 C 18.21875 -26.796875 16.941406 -26.523438 15.765625 -25.984375 C 14.585938 -25.453125 13.578125 -24.71875 12.734375 -23.78125 C 11.890625 -22.84375 11.234375 -21.753906 10.765625 -20.515625 C 10.296875 -19.273438 10.0625 -17.953125 10.0625 -16.546875 L 10.0625 -16.453125 C 10.0625 -15.035156 10.296875 -13.703125 10.765625 -12.453125 C 11.234375 -11.203125 11.878906 -10.101562 12.703125 -9.15625 C 13.535156 -8.21875 14.539062 -7.472656 15.71875 -6.921875 C 16.894531 -6.378906 18.1875 -6.109375 19.59375 -6.109375 C 21.476562 -6.109375 23.066406 -6.453125 24.359375 -7.140625 C 25.660156 -7.828125 26.957031 -8.769531 28.25 -9.96875 L 32.859375 -5.3125 C 32.003906 -4.40625 31.125 -3.585938 30.21875 -2.859375 C 29.3125 -2.140625 28.316406 -1.519531 27.234375 -1 C 26.148438 -0.488281 24.96875 -0.101562 23.6875 0.15625 C 22.40625 0.425781 20.960938 0.5625 19.359375 0.5625 Z M 19.359375 0.5625 "/></g></g></g><g fill="#000000" fill-opacity="1"><g transform="translate(176.150555, 258.413522)"><g><path d="M 19.921875 0.5625 C 17.390625 0.5625 15.054688 0.117188 12.921875 -0.765625 C 10.796875 -1.660156 8.957031 -2.867188 7.40625 -4.390625 C 5.851562 -5.910156 4.644531 -7.695312 3.78125 -9.75 C 2.914062 -11.800781 2.484375 -14.003906 2.484375 -16.359375 L 2.484375 -16.453125 C 2.484375 -18.796875 2.921875 -20.992188 3.796875 -23.046875 C 4.679688 -25.097656 5.898438 -26.898438 7.453125 -28.453125 C 9.003906 -30.003906 10.851562 -31.226562 13 -32.125 C 15.144531 -33.019531 17.484375 -33.46875 20.015625 -33.46875 C 22.554688 -33.46875 24.890625 -33.019531 27.015625 -32.125 C 29.148438 -31.226562 30.992188 -30.019531 32.546875 -28.5 C 34.097656 -26.976562 35.300781 -25.191406 36.15625 -23.140625 C 37.019531 -21.085938 37.453125 -18.890625 37.453125 -16.546875 L 37.453125 -16.453125 C 37.453125 -14.097656 37.015625 -11.894531 36.140625 -9.84375 C 35.265625 -7.789062 34.050781 -5.988281 32.5 -4.4375 C 30.945312 -2.882812 29.097656 -1.660156 26.953125 -0.765625 C 24.804688 0.117188 22.460938 0.5625 19.921875 0.5625 Z M 20.015625 -6.109375 C 21.460938 -6.109375 22.796875 -6.375 24.015625 -6.90625 C 25.234375 -7.4375 26.273438 -8.171875 27.140625 -9.109375 C 28.003906 -10.054688 28.675781 -11.144531 29.15625 -12.375 C 29.644531 -13.613281 29.890625 -14.941406 29.890625 -16.359375 L 29.890625 -16.453125 C 29.890625 -17.859375 29.644531 -19.1875 29.15625 -20.4375 C 28.675781 -21.695312 27.988281 -22.796875 27.09375 -23.734375 C 26.195312 -24.671875 25.140625 -25.414062 23.921875 -25.96875 C 22.703125 -26.519531 21.367188 -26.796875 19.921875 -26.796875 C 18.453125 -26.796875 17.113281 -26.523438 15.90625 -25.984375 C 14.695312 -25.453125 13.660156 -24.71875 12.796875 -23.78125 C 11.941406 -22.84375 11.269531 -21.753906 10.78125 -20.515625 C 10.300781 -19.273438 10.0625 -17.953125 10.0625 -16.546875 L 10.0625 -16.453125 C 10.0625 -15.035156 10.300781 -13.703125 10.78125 -12.453125 C 11.269531 -11.203125 11.957031 -10.101562 12.84375 -9.15625 C 13.738281 -8.21875 14.789062 -7.472656 16 -6.921875 C 17.207031 -6.378906 18.546875 -6.109375 20.015625 -6.109375 Z M 20.015625 -6.109375 "/></g></g></g><g fill="#000000" fill-opacity="1"><g transform="translate(216.093855, 258.413522)"><g><path d="M 3.953125 -32.90625 L 10.625 -32.90625 L 26.03125 -12.640625 L 26.03125 -32.90625 L 33.1875 -32.90625 L 33.1875 0 L 27.03125 0 L 11.09375 -20.921875 L 11.09375 0 L 3.953125 0 Z M 3.953125 -32.90625 "/></g></g></g><g fill="#000000" fill-opacity="1"><g transform="translate(253.217639, 258.413522)"><g><path d="M 4.28125 -32.90625 L 11.515625 -32.90625 L 11.515625 0 L 4.28125 0 Z M 4.28125 -32.90625 "/></g></g></g><g fill="#000000" fill-opacity="1"><g transform="translate(269.007006, 258.413522)"><g><path d="M 3.953125 -32.90625 L 28.765625 -32.90625 L 28.765625 -26.46875 L 11.140625 -26.46875 L 11.140625 -19.78125 L 26.65625 -19.78125 L 26.65625 -13.34375 L 11.140625 -13.34375 L 11.140625 -6.4375 L 29 -6.4375 L 29 0 L 3.953125 0 Z M 3.953125 -32.90625 "/></g></g></g><g fill="#000000" fill-opacity="1"><g transform="translate(300.491714, 258.413522)"><g><path d="M 15.65625 0.46875 C 13.144531 0.46875 10.679688 0.0390625 8.265625 -0.8125 C 5.859375 -1.675781 3.664062 -3.003906 1.6875 -4.796875 L 5.96875 -9.921875 C 7.46875 -8.691406 9.007812 -7.71875 10.59375 -7 C 12.175781 -6.28125 13.910156 -5.921875 15.796875 -5.921875 C 17.296875 -5.921875 18.457031 -6.191406 19.28125 -6.734375 C 20.113281 -7.285156 20.53125 -8.050781 20.53125 -9.03125 L 20.53125 -9.125 C 20.53125 -9.59375 20.441406 -10.003906 20.265625 -10.359375 C 20.097656 -10.722656 19.769531 -11.0625 19.28125 -11.375 C 18.800781 -11.6875 18.128906 -12 17.265625 -12.3125 C 16.410156 -12.625 15.289062 -12.953125 13.90625 -13.296875 C 12.25 -13.703125 10.742188 -14.15625 9.390625 -14.65625 C 8.046875 -15.164062 6.90625 -15.785156 5.96875 -16.515625 C 5.03125 -17.253906 4.300781 -18.171875 3.78125 -19.265625 C 3.269531 -20.367188 3.015625 -21.734375 3.015625 -23.359375 L 3.015625 -23.453125 C 3.015625 -24.953125 3.296875 -26.304688 3.859375 -27.515625 C 4.421875 -28.722656 5.207031 -29.765625 6.21875 -30.640625 C 7.238281 -31.515625 8.453125 -32.1875 9.859375 -32.65625 C 11.273438 -33.132812 12.828125 -33.375 14.515625 -33.375 C 16.929688 -33.375 19.148438 -33.007812 21.171875 -32.28125 C 23.191406 -31.5625 25.050781 -30.53125 26.75 -29.1875 L 22.984375 -23.734375 C 21.515625 -24.734375 20.070312 -25.523438 18.65625 -26.109375 C 17.25 -26.691406 15.835938 -26.984375 14.421875 -26.984375 C 13.015625 -26.984375 11.957031 -26.707031 11.25 -26.15625 C 10.550781 -25.601562 10.203125 -24.921875 10.203125 -24.109375 L 10.203125 -24.015625 C 10.203125 -23.484375 10.300781 -23.019531 10.5 -22.625 C 10.707031 -22.238281 11.078125 -21.890625 11.609375 -21.578125 C 12.140625 -21.265625 12.867188 -20.960938 13.796875 -20.671875 C 14.722656 -20.390625 15.890625 -20.0625 17.296875 -19.6875 C 18.953125 -19.25 20.429688 -18.753906 21.734375 -18.203125 C 23.035156 -17.660156 24.128906 -17.003906 25.015625 -16.234375 C 25.910156 -15.472656 26.585938 -14.570312 27.046875 -13.53125 C 27.503906 -12.5 27.734375 -11.265625 27.734375 -9.828125 L 27.734375 -9.734375 C 27.734375 -8.097656 27.429688 -6.644531 26.828125 -5.375 C 26.234375 -4.113281 25.40625 -3.050781 24.34375 -2.1875 C 23.28125 -1.320312 22.007812 -0.660156 20.53125 -0.203125 C 19.0625 0.242188 17.4375 0.46875 15.65625 0.46875 Z M 15.65625 0.46875 "/></g></g></g><g fill="#000000" fill-opacity="1"><g transform="translate(104.273436, 290.513566)"><g><path d="M 9.328125 0.265625 C 8.148438 0.265625 7.082031 0.0507812 6.125 -0.375 C 5.164062 -0.800781 4.34375 -1.375 3.65625 -2.09375 C 2.96875 -2.820312 2.4375 -3.664062 2.0625 -4.625 C 1.6875 -5.59375 1.5 -6.601562 1.5 -7.65625 L 1.5 -7.703125 C 1.5 -8.753906 1.6875 -9.765625 2.0625 -10.734375 C 2.445312 -11.703125 2.984375 -12.546875 3.671875 -13.265625 C 4.359375 -13.992188 5.1875 -14.570312 6.15625 -15 C 7.125 -15.4375 8.195312 -15.65625 9.375 -15.65625 C 10.539062 -15.65625 11.601562 -15.441406 12.5625 -15.015625 C 13.53125 -14.597656 14.359375 -14.023438 15.046875 -13.296875 C 15.734375 -12.566406 16.265625 -11.722656 16.640625 -10.765625 C 17.015625 -9.804688 17.203125 -8.800781 17.203125 -7.75 L 17.203125 -7.703125 C 17.203125 -6.640625 17.007812 -5.625 16.625 -4.65625 C 16.25 -3.695312 15.710938 -2.851562 15.015625 -2.125 C 14.328125 -1.394531 13.5 -0.8125 12.53125 -0.375 C 11.570312 0.0507812 10.503906 0.265625 9.328125 0.265625 Z M 9.375 -1.34375 C 10.25 -1.34375 11.054688 -1.503906 11.796875 -1.828125 C 12.535156 -2.160156 13.171875 -2.613281 13.703125 -3.1875 C 14.234375 -3.757812 14.648438 -4.425781 14.953125 -5.1875 C 15.253906 -5.957031 15.40625 -6.78125 15.40625 -7.65625 L 15.40625 -7.703125 C 15.40625 -8.578125 15.253906 -9.398438 14.953125 -10.171875 C 14.648438 -10.941406 14.226562 -11.613281 13.6875 -12.1875 C 13.144531 -12.757812 12.5 -13.210938 11.75 -13.546875 C 11.007812 -13.890625 10.203125 -14.0625 9.328125 -14.0625 C 8.453125 -14.0625 7.640625 -13.894531 6.890625 -13.5625 C 6.148438 -13.226562 5.515625 -12.773438 4.984375 -12.203125 C 4.460938 -11.640625 4.050781 -10.972656 3.75 -10.203125 C 3.445312 -9.441406 3.296875 -8.625 3.296875 -7.75 L 3.296875 -7.703125 C 3.296875 -6.816406 3.445312 -5.988281 3.75 -5.21875 C 4.050781 -4.445312 4.472656 -3.773438 5.015625 -3.203125 C 5.554688 -2.640625 6.195312 -2.1875 6.9375 -1.84375 C 7.675781 -1.507812 8.488281 -1.34375 9.375 -1.34375 Z M 9.375 -1.34375 "/></g></g></g><g fill="#000000" fill-opacity="1"><g transform="translate(122.970105, 290.513566)"><g><path d="M 2.171875 -15.40625 L 3.8125 -15.40625 L 13.515625 -3.0625 L 13.515625 -15.40625 L 15.203125 -15.40625 L 15.203125 0 L 13.8125 0 L 3.875 -12.625 L 3.875 0 L 2.171875 0 Z M 2.171875 -15.40625 "/></g></g></g><g fill="#000000" fill-opacity="1"><g transform="translate(140.347008, 290.513566)"><g/></g></g><g fill="#000000" fill-opacity="1"><g transform="translate(146.945831, 290.513566)"><g><path d="M 6.1875 -13.796875 L 0.984375 -13.796875 L 0.984375 -15.40625 L 13.109375 -15.40625 L 13.109375 -13.796875 L 7.921875 -13.796875 L 7.921875 0 L 6.1875 0 Z M 6.1875 -13.796875 "/></g></g></g><g fill="#000000" fill-opacity="1"><g transform="translate(161.045317, 290.513566)"><g><path d="M 2.171875 -15.40625 L 3.921875 -15.40625 L 3.921875 -8.5625 L 12.796875 -8.5625 L 12.796875 -15.40625 L 14.546875 -15.40625 L 14.546875 0 L 12.796875 0 L 12.796875 -6.9375 L 3.921875 -6.9375 L 3.921875 0 L 2.171875 0 Z M 2.171875 -15.40625 "/></g></g></g><g fill="#000000" fill-opacity="1"><g transform="translate(177.762342, 290.513566)"><g><path d="M 2.171875 -15.40625 L 13.3125 -15.40625 L 13.3125 -13.8125 L 3.921875 -13.8125 L 3.921875 -8.5625 L 12.3125 -8.5625 L 12.3125 -6.96875 L 3.921875 -6.96875 L 3.921875 -1.578125 L 13.421875 -1.578125 L 13.421875 0 L 2.171875 0 Z M 2.171875 -15.40625 "/></g></g></g><g fill="#000000" fill-opacity="1"><g transform="translate(192.499711, 290.513566)"><g/></g></g><g fill="#000000" fill-opacity="1"><g transform="translate(199.098534, 290.513566)"><g><path d="M 2.171875 -15.40625 L 8.796875 -15.40625 C 9.753906 -15.40625 10.601562 -15.269531 11.34375 -15 C 12.082031 -14.726562 12.691406 -14.347656 13.171875 -13.859375 C 13.554688 -13.472656 13.847656 -13.023438 14.046875 -12.515625 C 14.253906 -12.003906 14.359375 -11.441406 14.359375 -10.828125 L 14.359375 -10.78125 C 14.359375 -10.132812 14.253906 -9.554688 14.046875 -9.046875 C 13.847656 -8.546875 13.5625 -8.109375 13.1875 -7.734375 C 12.8125 -7.359375 12.367188 -7.050781 11.859375 -6.8125 C 11.347656 -6.570312 10.789062 -6.398438 10.1875 -6.296875 L 14.921875 0 L 12.78125 0 L 8.3125 -5.984375 L 3.921875 -5.984375 L 3.921875 0 L 2.171875 0 Z M 8.640625 -7.546875 C 9.210938 -7.546875 9.738281 -7.617188 10.21875 -7.765625 C 10.707031 -7.910156 11.128906 -8.117188 11.484375 -8.390625 C 11.835938 -8.660156 12.113281 -8.988281 12.3125 -9.375 C 12.507812 -9.769531 12.609375 -10.21875 12.609375 -10.71875 L 12.609375 -10.765625 C 12.609375 -11.710938 12.257812 -12.453125 11.5625 -12.984375 C 10.875 -13.523438 9.910156 -13.796875 8.671875 -13.796875 L 3.921875 -13.796875 L 3.921875 -7.546875 Z M 8.640625 -7.546875 "/></g></g></g><g fill="#000000" fill-opacity="1"><g transform="translate(215.001701, 290.513566)"><g><path d="M 9.328125 0.265625 C 8.148438 0.265625 7.082031 0.0507812 6.125 -0.375 C 5.164062 -0.800781 4.34375 -1.375 3.65625 -2.09375 C 2.96875 -2.820312 2.4375 -3.664062 2.0625 -4.625 C 1.6875 -5.59375 1.5 -6.601562 1.5 -7.65625 L 1.5 -7.703125 C 1.5 -8.753906 1.6875 -9.765625 2.0625 -10.734375 C 2.445312 -11.703125 2.984375 -12.546875 3.671875 -13.265625 C 4.359375 -13.992188 5.1875 -14.570312 6.15625 -15 C 7.125 -15.4375 8.195312 -15.65625 9.375 -15.65625 C 10.539062 -15.65625 11.601562 -15.441406 12.5625 -15.015625 C 13.53125 -14.597656 14.359375 -14.023438 15.046875 -13.296875 C 15.734375 -12.566406 16.265625 -11.722656 16.640625 -10.765625 C 17.015625 -9.804688 17.203125 -8.800781 17.203125 -7.75 L 17.203125 -7.703125 C 17.203125 -6.640625 17.007812 -5.625 16.625 -4.65625 C 16.25 -3.695312 15.710938 -2.851562 15.015625 -2.125 C 14.328125 -1.394531 13.5 -0.8125 12.53125 -0.375 C 11.570312 0.0507812 10.503906 0.265625 9.328125 0.265625 Z M 9.375 -1.34375 C 10.25 -1.34375 11.054688 -1.503906 11.796875 -1.828125 C 12.535156 -2.160156 13.171875 -2.613281 13.703125 -3.1875 C 14.234375 -3.757812 14.648438 -4.425781 14.953125 -5.1875 C 15.253906 -5.957031 15.40625 -6.78125 15.40625 -7.65625 L 15.40625 -7.703125 C 15.40625 -8.578125 15.253906 -9.398438 14.953125 -10.171875 C 14.648438 -10.941406 14.226562 -11.613281 13.6875 -12.1875 C 13.144531 -12.757812 12.5 -13.210938 11.75 -13.546875 C 11.007812 -13.890625 10.203125 -14.0625 9.328125 -14.0625 C 8.453125 -14.0625 7.640625 -13.894531 6.890625 -13.5625 C 6.148438 -13.226562 5.515625 -12.773438 4.984375 -12.203125 C 4.460938 -11.640625 4.050781 -10.972656 3.75 -10.203125 C 3.445312 -9.441406 3.296875 -8.625 3.296875 -7.75 L 3.296875 -7.703125 C 3.296875 -6.816406 3.445312 -5.988281 3.75 -5.21875 C 4.050781 -4.445312 4.472656 -3.773438 5.015625 -3.203125 C 5.554688 -2.640625 6.195312 -2.1875 6.9375 -1.84375 C 7.675781 -1.507812 8.488281 -1.34375 9.375 -1.34375 Z M 9.375 -1.34375 "/></g></g></g><g fill="#000000" fill-opacity="1"><g transform="translate(233.69837, 290.513566)"><g><path d="M 7.875 -15.515625 L 9.5 -15.515625 L 16.515625 0 L 14.65625 0 L 12.84375 -4.0625 L 4.46875 -4.0625 L 2.640625 0 L 0.859375 0 Z M 12.171875 -5.625 L 8.671875 -13.484375 L 5.140625 -5.625 Z M 12.171875 -5.625 "/></g></g></g><g fill="#000000" fill-opacity="1"><g transform="translate(251.075273, 290.513566)"><g><path d="M 2.171875 -15.40625 L 7.53125 -15.40625 C 8.726562 -15.40625 9.828125 -15.207031 10.828125 -14.8125 C 11.835938 -14.425781 12.703125 -13.890625 13.421875 -13.203125 C 14.148438 -12.515625 14.710938 -11.703125 15.109375 -10.765625 C 15.503906 -9.835938 15.703125 -8.832031 15.703125 -7.75 L 15.703125 -7.703125 C 15.703125 -6.617188 15.503906 -5.601562 15.109375 -4.65625 C 14.710938 -3.71875 14.148438 -2.90625 13.421875 -2.21875 C 12.703125 -1.53125 11.835938 -0.988281 10.828125 -0.59375 C 9.828125 -0.195312 8.726562 0 7.53125 0 L 2.171875 0 Z M 3.921875 -13.796875 L 3.921875 -1.609375 L 7.53125 -1.609375 C 8.488281 -1.609375 9.363281 -1.757812 10.15625 -2.0625 C 10.957031 -2.375 11.628906 -2.800781 12.171875 -3.34375 C 12.722656 -3.882812 13.148438 -4.523438 13.453125 -5.265625 C 13.753906 -6.003906 13.90625 -6.800781 13.90625 -7.65625 L 13.90625 -7.703125 C 13.90625 -8.546875 13.753906 -9.335938 13.453125 -10.078125 C 13.148438 -10.828125 12.722656 -11.472656 12.171875 -12.015625 C 11.628906 -12.566406 10.957031 -13 10.15625 -13.3125 C 9.363281 -13.632812 8.488281 -13.796875 7.53125 -13.796875 Z M 3.921875 -13.796875 "/></g></g></g></svg>