<svg xmlns="http://www.w3.org/2000/svg" xmlns:xlink="http://www.w3.org/1999/xlink" width="500" zoomAndPan="magnify" viewBox="0 0 375 374.999991" height="500" preserveAspectRatio="xMidYMid meet" version="1.0"><defs><g/><clipPath id="a2a58ca481"><path d="M 99.148438 124 L 261.894531 124 L 261.894531 218.726562 L 99.148438 218.726562 Z M 99.148438 124 " clip-rule="nonzero"/></clipPath><clipPath id="74a08b45a3"><path d="M 79 91 L 283 91 L 283 211 L 79 211 Z M 79 91 " clip-rule="nonzero"/></clipPath><clipPath id="48b6ec51dd"><path d="M 76.148438 93.925781 L 295.839844 88.296875 L 298.824219 204.675781 L 79.128906 210.300781 Z M 76.148438 93.925781 " clip-rule="nonzero"/></clipPath><clipPath id="968d9078c2"><path d="M 76.148438 93.925781 L 295.839844 88.296875 L 300.921875 286.613281 L 81.226562 292.242188 Z M 76.148438 93.925781 " clip-rule="nonzero"/></clipPath></defs><path fill="#ffffff" d="M 167.9375 162.429688 C 167.019531 161.957031 166.628906 161.175781 166.644531 159.84375 C 166.660156 158.554688 168.113281 150.046875 168.621094 148.265625 C 169.035156 146.816406 169.890625 145.902344 171.15625 145.554688 C 171.71875 145.398438 174.121094 144.894531 176.492188 144.429688 C 181.34375 143.480469 181.636719 143.492188 182.277344 144.683594 C 182.636719 145.347656 182.648438 145.535156 182.433594 146.960938 C 182.304688 147.8125 181.847656 150.886719 181.417969 153.789062 C 180.988281 156.6875 180.496094 159.335938 180.324219 159.664062 C 179.96875 160.355469 179.28125 160.945312 178.476562 161.253906 C 177.941406 161.457031 169.609375 162.6875 168.808594 162.679688 C 168.589844 162.675781 168.199219 162.566406 167.9375 162.429688 Z M 174.703125 155.140625 C 180.253906 154.140625 180.601562 154.054688 180.601562 153.65625 L 180.601562 153.234375 L 178.171875 153.679688 C 176.835938 153.921875 174.453125 154.359375 172.871094 154.648438 C 171.289062 154.9375 169.808594 155.21875 169.578125 155.273438 C 169.160156 155.378906 169.160156 155.367188 169.417969 153.925781 C 170.101562 150.089844 170.496094 148.519531 170.871094 148.144531 C 171.15625 147.859375 172.34375 147.523438 175.214844 146.910156 C 180.347656 145.8125 180.925781 145.730469 181.296875 146.035156 C 181.539062 146.238281 181.589844 146.21875 181.589844 145.925781 C 181.589844 145.425781 181.011719 144.84375 180.519531 144.847656 C 179.710938 144.847656 171.453125 146.632812 170.882812 146.929688 C 170.5625 147.09375 170.167969 147.484375 170.007812 147.796875 C 169.769531 148.261719 168.3125 155.453125 168.3125 156.175781 C 168.3125 156.289062 168.425781 156.339844 168.5625 156.289062 C 168.695312 156.242188 171.460938 155.722656 174.703125 155.140625 Z M 174.703125 155.140625 " fill-opacity="1" fill-rule="nonzero"/><path fill="#ffffff" d="M 150.074219 164.6875 C 149.019531 163.632812 149.042969 163.132812 150.5 155.546875 C 151.34375 151.148438 151.730469 150.046875 152.65625 149.378906 C 153.175781 149.007812 161.339844 147.222656 162.523438 147.222656 C 163.445312 147.222656 164.152344 147.96875 164.152344 148.941406 C 164.152344 150.199219 162.167969 161.734375 161.828125 162.445312 C 161.21875 163.734375 160.527344 163.992188 155.828125 164.65625 C 153.484375 164.984375 151.359375 165.257812 151.105469 165.257812 C 150.851562 165.257812 150.386719 165 150.074219 164.6875 Z M 155.753906 158.316406 C 162.53125 157.066406 162.167969 157.160156 162.167969 156.699219 C 162.167969 156.339844 162.089844 156.3125 161.425781 156.441406 C 156.195312 157.46875 151.863281 158.21875 151.863281 158.09375 C 151.863281 157.746094 153.078125 152.140625 153.253906 151.679688 C 153.503906 151.019531 153.6875 150.960938 158.601562 149.980469 C 162.675781 149.164062 162.828125 149.148438 163.089844 149.507812 C 163.347656 149.863281 163.359375 149.863281 163.359375 149.480469 C 163.359375 148.78125 162.878906 148.34375 162.144531 148.371094 C 161.007812 148.414062 153.777344 150.007812 153.285156 150.324219 C 152.617188 150.757812 152.375 151.488281 151.6875 155.191406 C 151.019531 158.773438 150.980469 159.113281 151.246094 159.113281 C 151.34375 159.113281 153.371094 158.753906 155.753906 158.316406 Z M 155.753906 158.316406 " fill-opacity="1" fill-rule="nonzero"/><path fill="#ffffff" d="M 134.367188 167.234375 C 134.085938 167.015625 133.753906 166.523438 133.628906 166.140625 C 133.359375 165.328125 133.445312 164.71875 134.730469 158.265625 C 135.652344 153.621094 135.964844 152.828125 137.054688 152.316406 C 138.023438 151.859375 145.824219 150.328125 146.414062 150.476562 C 146.730469 150.554688 147.042969 150.863281 147.246094 151.285156 C 147.554688 151.933594 147.542969 152.121094 147.023438 155.09375 C 145.261719 165.171875 145.222656 165.3125 144.023438 166.058594 C 143.597656 166.320312 142.171875 166.613281 139.265625 167.035156 C 136.984375 167.363281 135.0625 167.632812 134.996094 167.636719 C 134.929688 167.636719 134.644531 167.457031 134.367188 167.234375 Z M 145.472656 159.917969 C 145.5 159.910156 145.523438 159.726562 145.523438 159.507812 C 145.523438 159.195312 145.425781 159.128906 145.078125 159.207031 C 143.738281 159.507812 136.117188 160.875 136.066406 160.820312 C 135.964844 160.71875 137.207031 154.914062 137.410156 154.53125 C 137.632812 154.117188 137.648438 154.113281 140.667969 153.460938 C 145.738281 152.371094 145.988281 152.335938 146.265625 152.710938 C 146.488281 153.011719 146.511719 152.996094 146.511719 152.550781 C 146.511719 151.921875 146.171875 151.582031 145.53125 151.582031 C 144.960938 151.582031 138.84375 152.863281 137.820312 153.195312 C 137.324219 153.355469 137.066406 153.617188 136.796875 154.230469 C 136.484375 154.941406 135.21875 160.8125 135.21875 161.550781 C 135.21875 161.753906 136.390625 161.597656 140.320312 160.871094 C 143.128906 160.351562 145.445312 159.921875 145.472656 159.917969 Z M 145.472656 159.917969 " fill-opacity="1" fill-rule="nonzero"/><path fill="#ffffff" d="M 119.910156 169.402344 C 119.4375 169.128906 118.964844 168.171875 118.96875 167.496094 C 118.972656 166.804688 120.667969 157.882812 120.980469 156.9375 C 121.539062 155.226562 121.859375 155.070312 126.945312 154.054688 C 132.4375 152.953125 132.324219 152.757812 130.867188 160.984375 C 129.816406 166.929688 129.589844 167.648438 128.574219 168.3125 C 128.269531 168.511719 126.742188 168.824219 124.566406 169.125 C 120.636719 169.675781 120.398438 169.6875 119.910156 169.402344 Z M 125.183594 163.277344 C 127.5625 162.839844 129.585938 162.484375 129.6875 162.484375 C 129.785156 162.484375 129.867188 162.304688 129.867188 162.085938 C 129.867188 161.867188 129.800781 161.691406 129.71875 161.695312 C 129.636719 161.699219 127.742188 162.042969 125.507812 162.460938 C 123.273438 162.878906 121.425781 163.207031 121.402344 163.191406 C 121.324219 163.132812 122.527344 157.824219 122.714844 157.398438 C 122.949219 156.871094 123.425781 156.722656 127.375 155.929688 C 130.402344 155.324219 130.539062 155.3125 130.792969 155.65625 C 131.039062 155.996094 131.054688 155.996094 131.054688 155.671875 C 131.054688 155.480469 130.957031 155.140625 130.835938 154.914062 C 130.644531 154.554688 130.496094 154.519531 129.589844 154.628906 C 128.550781 154.75 124.65625 155.566406 123.277344 155.949219 C 122.277344 156.230469 122.074219 156.691406 121.339844 160.328125 C 121.003906 162.003906 120.683594 163.53125 120.628906 163.722656 C 120.570312 163.914062 120.601562 164.070312 120.695312 164.070312 C 120.789062 164.070312 122.808594 163.710938 125.183594 163.277344 Z M 125.183594 163.277344 " fill-opacity="1" fill-rule="nonzero"/><path fill="#ffffff" d="M 246.640625 178.121094 C 245.113281 177.808594 243.75 176.425781 242.601562 174.019531 C 240.507812 169.632812 241.636719 165.058594 244.8125 165.058594 C 246.6875 165.058594 248.246094 166.691406 249.300781 169.761719 C 249.730469 171.011719 249.832031 171.675781 249.84375 173.285156 C 249.867188 177.035156 248.847656 178.574219 246.640625 178.121094 Z M 246.640625 178.121094 " fill-opacity="1" fill-rule="nonzero"/><path fill="#ffffff" d="M 233.296875 188.027344 C 232.84375 187.886719 232.132812 187.484375 231.714844 187.132812 C 228.757812 184.644531 229.605469 179.6875 233.183594 178.515625 C 236.257812 177.511719 239.402344 179.941406 239.359375 183.28125 C 239.34375 184.550781 239.078125 185.3125 238.261719 186.414062 C 237.210938 187.835938 234.988281 188.558594 233.296875 188.027344 Z M 235.667969 187.222656 C 238.566406 186.429688 239.417969 182.144531 237.078125 180.125 C 235.238281 178.535156 232.511719 179.015625 231.300781 181.140625 C 230.933594 181.785156 230.847656 182.183594 230.851562 183.191406 C 230.855469 184.667969 231.300781 185.667969 232.296875 186.449219 C 233.402344 187.316406 234.449219 187.558594 235.667969 187.222656 Z M 232.28125 187.074219 C 231.828125 186.929688 231.117188 186.527344 230.699219 186.175781 C 227.742188 183.6875 228.589844 178.730469 232.167969 177.5625 C 235.242188 176.558594 238.386719 178.984375 238.34375 182.328125 C 238.328125 183.59375 238.058594 184.359375 237.246094 185.460938 C 236.195312 186.878906 233.972656 187.601562 232.28125 187.074219 Z M 234.652344 186.265625 C 237.550781 185.472656 238.402344 181.1875 236.0625 179.167969 C 234.222656 177.578125 231.496094 178.058594 230.285156 180.1875 C 229.917969 180.828125 229.832031 181.226562 229.835938 182.238281 C 229.839844 183.710938 230.285156 184.710938 231.28125 185.496094 C 232.386719 186.359375 233.433594 186.601562 234.652344 186.265625 Z M 234.652344 186.265625 " fill-opacity="1" fill-rule="nonzero"/><path fill="#ffffff" d="M 185.554688 172.203125 C 185.390625 172.09375 184.941406 172 184.554688 172 C 183.746094 171.996094 183.375 171.707031 183.375 171.089844 C 183.375 170.496094 183.796875 170.195312 184.804688 170.066406 C 185.269531 170.007812 185.894531 169.835938 186.1875 169.6875 C 187.480469 169.035156 189.714844 169.664062 189.714844 170.679688 C 189.714844 170.941406 189.570312 171.273438 189.394531 171.421875 C 188.558594 172.113281 186.148438 172.605469 185.554688 172.203125 Z M 188.90625 170.886719 C 189.152344 170.648438 188.566406 170.605469 186.667969 170.730469 C 185.511719 170.804688 184.5625 170.917969 184.5625 170.984375 C 184.5625 171.113281 188.769531 171.019531 188.90625 170.886719 Z M 188.90625 170.886719 " fill-opacity="1" fill-rule="nonzero"/><path fill="#ffffff" d="M 106.679688 177.761719 C 106.265625 177.476562 106.636719 176.921875 107.390625 176.707031 C 108.449219 176.402344 112.117188 176.28125 112.585938 176.53125 C 113.128906 176.824219 113.144531 177.265625 112.621094 177.546875 C 112.066406 177.84375 107.058594 178.023438 106.679688 177.761719 Z M 106.679688 177.761719 " fill-opacity="1" fill-rule="nonzero"/><path fill="#ffffff" d="M 109.910156 160.835938 C 109.496094 160.550781 109.867188 159.996094 110.617188 159.78125 C 111.679688 159.476562 115.34375 159.355469 115.816406 159.609375 C 116.359375 159.898438 116.375 160.339844 115.851562 160.621094 C 115.296875 160.917969 110.289062 161.101562 109.910156 160.835938 Z M 109.910156 160.835938 " fill-opacity="1" fill-rule="nonzero"/><path fill="#ffffff" d="M 109.363281 163.792969 C 108.949219 163.507812 109.320312 162.953125 110.070312 162.738281 C 111.132812 162.433594 114.796875 162.3125 115.269531 162.566406 C 115.8125 162.855469 115.828125 163.296875 115.304688 163.578125 C 114.75 163.875 109.742188 164.058594 109.363281 163.792969 Z M 109.363281 163.792969 " fill-opacity="1" fill-rule="nonzero"/><path fill="#ffffff" d="M 108.707031 167.078125 C 108.292969 166.792969 108.664062 166.238281 109.414062 166.023438 C 110.476562 165.71875 114.140625 165.597656 114.613281 165.851562 C 115.15625 166.140625 115.171875 166.582031 114.648438 166.863281 C 114.089844 167.160156 109.085938 167.34375 108.707031 167.078125 Z M 108.707031 167.078125 " fill-opacity="1" fill-rule="nonzero"/><path fill="#ffffff" d="M 106.585938 179.339844 C 106.242188 178.78125 107.011719 178.488281 109.386719 178.289062 C 111.835938 178.082031 112.824219 178.230469 112.824219 178.804688 C 112.824219 179.210938 112.238281 179.320312 109.335938 179.460938 C 107.367188 179.554688 106.703125 179.523438 106.585938 179.339844 Z M 106.585938 179.339844 " fill-opacity="1" fill-rule="nonzero"/><path fill="#ffffff" d="M 118.066406 181.296875 C 118.066406 180.792969 118.59375 180.578125 120.5625 180.292969 C 124.925781 179.65625 126.785156 179.707031 126.785156 180.460938 C 126.785156 180.859375 126.488281 180.929688 123.246094 181.269531 C 119.59375 181.65625 118.066406 181.664062 118.066406 181.296875 Z M 118.066406 181.296875 " fill-opacity="1" fill-rule="nonzero"/><path fill="#ffffff" d="M 118.042969 179.3125 C 118.042969 178.808594 118.574219 178.59375 120.542969 178.308594 C 124.90625 177.671875 126.765625 177.722656 126.765625 178.480469 C 126.765625 178.878906 126.46875 178.945312 123.226562 179.289062 C 119.570312 179.671875 118.042969 179.679688 118.042969 179.3125 Z M 118.042969 179.3125 " fill-opacity="1" fill-rule="nonzero"/><path fill="#ffffff" d="M 117.933594 177.015625 C 117.933594 176.507812 118.464844 176.296875 120.433594 176.007812 C 124.796875 175.375 126.65625 175.425781 126.65625 176.179688 C 126.65625 176.578125 126.359375 176.644531 123.117188 176.988281 C 119.460938 177.371094 117.933594 177.378906 117.933594 177.015625 Z M 117.933594 177.015625 " fill-opacity="1" fill-rule="nonzero"/><path fill="#ffffff" d="M 106.546875 180.800781 C 106.484375 180.628906 106.511719 180.410156 106.609375 180.308594 C 107.203125 179.71875 112.183594 179.488281 112.632812 180.03125 C 113.066406 180.554688 112.558594 180.769531 110.503906 180.9375 C 107.441406 181.183594 106.683594 181.15625 106.546875 180.800781 Z M 106.546875 180.800781 " fill-opacity="1" fill-rule="nonzero"/><path fill="#ffffff" d="M 106.480469 182.234375 C 106.480469 181.855469 107.300781 181.53125 108.828125 181.3125 C 110.90625 181.007812 111.921875 181.058594 112.453125 181.492188 C 112.710938 181.699219 112.863281 181.929688 112.789062 182.003906 C 112.574219 182.21875 110.085938 182.484375 108.214844 182.492188 C 106.894531 182.496094 106.480469 182.433594 106.480469 182.234375 Z M 106.480469 182.234375 " fill-opacity="1" fill-rule="nonzero"/><path fill="#ffffff" d="M 106.828125 185.957031 C 106.503906 185.617188 106.695312 185.113281 107.203125 184.988281 C 108.363281 184.695312 111.679688 184.515625 112.246094 184.714844 C 112.941406 184.957031 112.996094 185.414062 112.359375 185.65625 C 111.734375 185.894531 107.015625 186.148438 106.828125 185.957031 Z M 106.828125 185.957031 " fill-opacity="1" fill-rule="nonzero"/><path fill="#ffffff" d="M 106.925781 187.519531 C 106.46875 187.335938 106.675781 186.839844 107.324219 186.570312 C 107.679688 186.421875 108.859375 186.238281 109.949219 186.160156 C 111.769531 186.035156 111.972656 186.054688 112.425781 186.425781 C 112.78125 186.714844 112.863281 186.890625 112.710938 187.046875 C 112.382812 187.382812 107.558594 187.773438 106.925781 187.519531 Z M 106.925781 187.519531 " fill-opacity="1" fill-rule="nonzero"/><path fill="#ffffff" d="M 106.679688 188.695312 C 106.679688 188.191406 107.746094 187.867188 109.914062 187.714844 C 111.21875 187.621094 111.679688 187.664062 112.1875 187.925781 C 113.542969 188.628906 112.894531 188.878906 109.40625 188.992188 C 106.800781 189.078125 106.679688 189.066406 106.679688 188.695312 Z M 106.679688 188.695312 " fill-opacity="1" fill-rule="nonzero"/><path fill="#ffffff" d="M 107.234375 190.613281 C 106.984375 190.554688 106.777344 190.378906 106.777344 190.21875 C 106.777344 189.5625 110.542969 188.976562 111.898438 189.425781 C 112.613281 189.660156 112.839844 190.070312 112.402344 190.34375 C 112.101562 190.527344 107.816406 190.753906 107.234375 190.613281 Z M 107.234375 190.613281 " fill-opacity="1" fill-rule="nonzero"/><path fill="#ffffff" d="M 121.941406 203.503906 C 121.207031 202.773438 121.621094 200.929688 122.515625 200.929688 C 123.535156 200.929688 123.984375 202.851562 123.125 203.546875 C 122.570312 203.996094 122.425781 203.992188 121.941406 203.503906 Z M 122.921875 202.726562 C 123.191406 202.226562 122.984375 201.722656 122.511719 201.722656 C 122.230469 201.722656 122.136719 201.863281 122.136719 202.300781 C 122.136719 202.785156 122.238281 202.933594 122.675781 203.09375 C 122.699219 203.101562 122.808594 202.9375 122.921875 202.726562 Z M 122.921875 202.726562 " fill-opacity="1" fill-rule="nonzero"/><path fill="#ffffff" d="M 193.464844 204.117188 C 192.992188 203.640625 192.886719 203.367188 192.886719 202.613281 C 192.886719 201.859375 192.992188 201.585938 193.464844 201.113281 C 194.171875 200.40625 194.671875 200.382812 195.402344 201.011719 C 195.890625 201.429688 195.957031 201.628906 195.957031 202.613281 C 195.957031 203.601562 195.890625 203.796875 195.402344 204.214844 C 194.671875 204.847656 194.171875 204.820312 193.464844 204.117188 Z M 195.070312 202.996094 C 195.328125 202.328125 195 201.722656 194.386719 201.722656 C 193.917969 201.722656 193.679688 202.050781 193.679688 202.691406 C 193.679688 203.558594 194.765625 203.796875 195.070312 202.996094 Z M 195.070312 202.996094 " fill-opacity="1" fill-rule="nonzero"/><path fill="#ffffff" d="M 194.300781 212.210938 C 191.40625 211.636719 188.929688 209.003906 188.03125 205.546875 C 187.648438 204.089844 187.652344 201.332031 188.03125 199.867188 C 188.777344 197.003906 190.542969 194.679688 192.730469 193.683594 C 193.761719 193.214844 194.25 193.113281 195.5625 193.109375 C 196.933594 193.101562 197.304688 193.179688 198.304688 193.6875 C 200.390625 194.742188 202.207031 197.144531 202.90625 199.765625 C 203.269531 201.132812 203.269531 204.292969 202.90625 205.660156 C 201.730469 210.074219 197.964844 212.941406 194.300781 212.210938 Z M 196.652344 211.054688 C 197.035156 210.941406 196.875 210.886719 195.945312 210.796875 C 193.625 210.578125 191.78125 209.117188 190.550781 206.519531 C 189.90625 205.164062 189.816406 204.789062 189.75 203.089844 C 189.570312 198.632812 191.59375 195.554688 195.464844 194.40625 C 196.085938 194.21875 196.046875 194.210938 195.074219 194.304688 C 191.886719 194.625 189.5 197.277344 188.894531 201.175781 C 188.339844 204.730469 189.878906 208.691406 192.425781 210.265625 C 193.761719 211.089844 195.433594 211.402344 196.652344 211.054688 Z M 198.171875 208.839844 C 200.675781 207.628906 202.238281 204.070312 201.605469 201.019531 C 200.738281 196.824219 197.359375 194.5625 194.171875 196.042969 C 192.988281 196.597656 192.023438 197.644531 191.320312 199.136719 C 190.859375 200.121094 190.804688 200.472656 190.804688 202.515625 C 190.804688 204.433594 190.875 204.941406 191.234375 205.71875 C 191.796875 206.9375 193.183594 208.429688 194.175781 208.882812 C 195.277344 209.386719 197.082031 209.367188 198.171875 208.839844 Z M 198.171875 208.839844 " fill-opacity="1" fill-rule="nonzero"/><g clip-path="url(#a2a58ca481)"><path fill="#ffffff" d="M 179.015625 218.644531 C 178.304688 218.609375 174.738281 218.484375 171.085938 218.367188 C 157.164062 217.921875 132.554688 216.796875 119.066406 215.984375 C 111.515625 215.53125 100.972656 214.816406 100.535156 214.730469 C 99.777344 214.578125 106.414062 214.207031 115.539062 213.886719 L 119.34375 213.753906 L 118.578125 213.199219 C 117.613281 212.5 116.550781 211.113281 115.792969 209.566406 C 115.148438 208.242188 114.410156 205.589844 114.410156 204.589844 C 114.410156 204.238281 114.351562 203.671875 114.285156 203.332031 C 114.179688 202.804688 114.074219 202.710938 113.570312 202.710938 C 113.222656 202.710938 112.726562 202.925781 112.371094 203.226562 C 111.777344 203.722656 111.695312 203.734375 109.324219 203.679688 C 106.945312 203.621094 106.875 203.632812 106.339844 204.128906 C 105.53125 204.875 105.226562 204.929688 102.71875 204.773438 C 100.488281 204.636719 100.421875 204.621094 99.792969 203.992188 L 99.148438 203.347656 L 99.148438 201.195312 C 99.148438 199.398438 99.214844 198.941406 99.546875 198.398438 C 100 197.652344 100.621094 197.363281 101.761719 197.363281 C 102.535156 197.363281 102.558594 197.339844 102.445312 196.816406 C 100.25 186.789062 100.929688 174.359375 104.207031 164.558594 C 105.042969 162.0625 106.472656 158.9375 107.546875 157.253906 C 108.257812 156.148438 108.28125 156.058594 108.085938 155.164062 C 107.738281 153.53125 108.210938 152.632812 110.09375 151.351562 C 111.5625 150.355469 115 148.714844 117.695312 147.722656 L 119.695312 146.988281 L 119.921875 145.507812 C 120.523438 141.644531 122.90625 138.328125 126.972656 135.695312 C 128.992188 134.386719 141.203125 130.546875 151.960938 127.835938 C 166.472656 124.175781 172.273438 123.761719 180.328125 125.804688 C 184.011719 126.738281 187.816406 128.128906 190.746094 129.605469 L 191.9375 130.207031 L 194.441406 129.898438 C 208.847656 128.121094 216.917969 128.246094 225.289062 130.375 C 233.914062 132.570312 241.367188 136.425781 246.265625 141.238281 C 248.867188 143.789062 249.3125 144.921875 248.464844 146.816406 L 247.925781 148.011719 L 250.777344 153.859375 L 253.628906 159.710938 L 253.992188 159.214844 C 254.410156 158.640625 254.757812 158.589844 255.199219 159.027344 C 255.433594 159.265625 255.507812 159.757812 255.507812 161.058594 C 255.503906 162.007812 255.425781 162.902344 255.332031 163.054688 C 255.21875 163.230469 255.335938 163.710938 255.65625 164.414062 C 255.929688 165.011719 256.40625 166.761719 256.714844 168.304688 C 257.808594 173.796875 258.273438 179.957031 258.339844 189.832031 L 258.382812 196.273438 L 259.386719 196.375 C 260.558594 196.492188 261.324219 196.9375 261.859375 197.820312 C 262.1875 198.355469 262.246094 198.824219 262.246094 200.851562 C 262.246094 203.011719 262.203125 203.316406 261.800781 203.921875 C 260.9375 205.214844 260.691406 205.261719 253.125 205.492188 C 249.367188 205.605469 245.863281 205.71875 245.339844 205.742188 L 244.382812 205.785156 L 243.746094 207.476562 C 242.34375 211.210938 239.902344 213.855469 236.605469 215.210938 C 235.847656 215.523438 235.90625 215.53125 239.675781 215.660156 C 248.574219 215.957031 255.898438 216.265625 255.820312 216.339844 C 255.667969 216.492188 243.28125 217.558594 238.070312 217.863281 C 227.277344 218.5 222.585938 218.601562 201.703125 218.65625 C 189.933594 218.6875 179.722656 218.683594 179.015625 218.644531 Z M 227.171875 215.101562 C 227.171875 215.050781 226.703125 214.769531 226.132812 214.480469 C 223.945312 213.375 221.125 209.847656 220.425781 207.34375 L 220.183594 206.476562 L 217.386719 206.476562 C 214.820312 206.476562 214.53125 206.441406 213.910156 206.03125 C 212.632812 205.191406 212.40625 205.097656 211.6875 205.09375 C 210.980469 205.089844 210.964844 205.109375 210.828125 206.019531 C 210.449219 208.542969 208.996094 211.785156 207.460938 213.542969 L 206.566406 214.5625 L 209.585938 214.679688 C 211.246094 214.742188 215.769531 214.871094 219.640625 214.960938 C 223.511719 215.054688 226.789062 215.144531 226.921875 215.164062 C 227.058594 215.183594 227.171875 215.15625 227.171875 215.101562 Z M 185.71875 213.859375 C 184.429688 212.460938 182.996094 209.394531 182.507812 206.980469 L 182.265625 205.785156 L 173.695312 205.613281 C 168.976562 205.519531 165.074219 205.488281 165.019531 205.546875 C 164.960938 205.601562 164.78125 206.167969 164.613281 206.804688 C 163.972656 209.273438 162.296875 211.917969 160.734375 212.929688 C 160.238281 213.25 159.667969 213.621094 159.464844 213.75 C 159.175781 213.933594 160.648438 213.992188 166.332031 214.023438 C 172.664062 214.058594 183.972656 214.261719 185.640625 214.367188 L 186.222656 214.40625 Z M 196.757812 214.101562 C 202.03125 212.734375 205.40625 206.160156 204.085938 199.839844 C 203.664062 197.828125 202.402344 195.410156 200.980469 193.890625 C 197.550781 190.226562 192.628906 190.144531 189.007812 193.695312 C 186.777344 195.886719 185.566406 199.128906 185.558594 202.929688 C 185.550781 206.398438 186.648438 209.351562 188.75 211.542969 C 191.082031 213.972656 193.847656 214.851562 196.757812 214.101562 Z M 152.457031 213.929688 C 152.457031 213.882812 152.070312 213.621094 151.597656 213.34375 C 149.742188 212.257812 147.480469 209.101562 147.167969 207.160156 C 147.089844 206.675781 146.96875 206.488281 146.785156 206.558594 C 146.636719 206.617188 145.734375 206.816406 144.78125 207.003906 C 142.894531 207.375 137.460938 207.5 135.761719 207.210938 C 134.941406 207.070312 134.800781 207.09375 134.699219 207.40625 C 133.933594 209.679688 132.378906 212.019531 130.941406 213.050781 L 130.019531 213.710938 L 140.792969 213.8125 C 146.71875 213.871094 151.769531 213.9375 152.011719 213.960938 C 152.257812 213.988281 152.457031 213.972656 152.457031 213.929688 Z M 125.25 211.242188 C 127.097656 210.40625 128.761719 208.03125 129.394531 205.339844 C 129.8125 203.542969 129.699219 200.863281 129.160156 199.941406 C 128.550781 198.898438 128.261719 198.957031 128.59375 200.058594 C 129.011719 201.4375 128.957031 204.195312 128.484375 205.722656 C 127.195312 209.890625 123.625 211.457031 120.890625 209.050781 C 118.285156 206.757812 117.578125 201.652344 119.378906 198.125 C 119.878906 197.144531 119.871094 197.109375 119.117188 197.261719 C 117.636719 197.558594 116.902344 199.398438 116.902344 202.8125 C 116.902344 205.085938 117.210938 206.5625 118.011719 208.136719 C 118.570312 209.230469 120.035156 210.738281 121.011719 211.222656 C 122.105469 211.761719 124.085938 211.773438 125.25 211.242188 Z M 123.710938 208.980469 C 121.894531 208.492188 120.636719 207.023438 120.039062 204.691406 C 119.402344 202.195312 120.066406 199.140625 121.605469 197.511719 C 122.082031 197.003906 122.089844 196.964844 121.722656 196.964844 C 121.152344 196.964844 120.222656 198.070312 119.710938 199.34375 C 119.082031 200.921875 119.082031 204.3125 119.71875 205.898438 C 120.570312 208.03125 122.035156 209.25 123.722656 209.234375 L 124.613281 209.226562 Z M 125.269531 207.386719 C 126.734375 206.621094 127.527344 205.148438 127.648438 202.964844 C 127.832031 199.601562 126.378906 197.363281 124.015625 197.363281 C 122.6875 197.363281 121.671875 198.171875 120.914062 199.839844 C 120.039062 201.769531 120.429688 205.117188 121.699219 206.550781 C 122.640625 207.609375 124.160156 207.964844 125.269531 207.386719 Z M 241.527344 203.605469 C 254.496094 203.328125 257.289062 203.226562 258.457031 202.988281 C 258.914062 202.894531 258.917969 202.886719 258.554688 202.484375 C 258.09375 201.972656 256.34375 201.082031 254.742188 200.542969 C 249.574219 198.800781 242.316406 198.867188 233.082031 200.734375 C 229.800781 201.398438 220.570312 203.515625 220.136719 203.703125 C 219.539062 203.960938 225.984375 203.933594 241.527344 203.605469 Z M 181.988281 203.109375 L 181.988281 202.515625 L 158.105469 202.515625 C 141.933594 202.515625 134.226562 202.582031 134.226562 202.71875 C 134.226562 202.828125 134.453125 203.007812 134.730469 203.113281 C 135.164062 203.277344 155.804688 203.554688 176.289062 203.671875 L 181.988281 203.703125 Z M 212.113281 201.375 C 212.117188 200.484375 212.246094 199.753906 212.5 199.195312 L 212.882812 198.351562 L 210.863281 198.347656 C 208.488281 198.34375 207.566406 198.023438 206.609375 196.863281 C 206.25 196.425781 205.15625 194.125 203.960938 191.28125 C 201.804688 186.148438 201.152344 185.085938 199.925781 184.679688 C 199.414062 184.511719 197.371094 184.507812 191.914062 184.664062 C 187.886719 184.78125 184.003906 184.878906 183.289062 184.878906 L 181.988281 184.878906 L 181.984375 182.351562 C 181.984375 180.960938 182.082031 176.71875 182.203125 172.925781 C 182.324219 169.132812 182.394531 165.996094 182.355469 165.960938 C 182.285156 165.894531 172.0625 167.191406 162.167969 168.519531 C 159.28125 168.90625 153.839844 169.625 150.078125 170.117188 C 146.320312 170.609375 140.566406 171.367188 137.296875 171.804688 C 127.722656 173.074219 119.988281 174.070312 111.789062 175.089844 C 105.695312 175.84375 104.085938 176.105469 103.984375 176.347656 C 103.910156 176.515625 103.808594 179.0625 103.753906 182.003906 C 103.648438 187.710938 103.875 190.609375 104.71875 194.488281 C 105.304688 197.183594 105.4375 197.488281 106.203125 197.941406 C 107.042969 198.4375 107.472656 199.378906 107.472656 200.726562 L 107.472656 201.722656 L 111.347656 201.722656 L 112.300781 197.867188 C 112.828125 195.746094 113.386719 193.902344 113.539062 193.773438 C 113.742188 193.605469 116.074219 193.511719 121.738281 193.441406 L 129.65625 193.34375 L 131.433594 197.035156 L 133.207031 200.730469 L 156.484375 200.730469 C 174.863281 200.730469 179.800781 200.679688 179.960938 200.484375 C 180.070312 200.347656 180.382812 199.699219 180.648438 199.046875 C 180.914062 198.394531 182.015625 195.894531 183.089844 193.496094 C 184.730469 189.839844 185.191406 188.992188 185.957031 188.226562 C 187.175781 187 187.800781 186.882812 193.578125 186.816406 C 197.976562 186.765625 198.394531 186.789062 199.121094 187.148438 C 200.933594 188.046875 201.6875 189.210938 203.75 194.289062 C 206.222656 200.378906 206.960938 202.027344 207.371094 202.367188 C 207.714844 202.648438 208.1875 202.714844 209.953125 202.714844 L 212.109375 202.714844 Z M 214.558594 197.066406 C 215.046875 196.859375 215.96875 196.769531 217.527344 196.769531 C 218.769531 196.769531 220.199219 196.710938 220.703125 196.640625 L 221.621094 196.515625 L 221.621094 193.796875 L 219.824219 193.796875 L 219.878906 192.257812 L 219.9375 190.722656 L 220.78125 190.664062 L 221.621094 190.601562 L 221.621094 187.589844 C 221.621094 183.167969 221.269531 176.550781 220.820312 172.542969 C 220.257812 167.527344 220.351562 167.832031 219.34375 167.832031 C 218.371094 167.832031 218.261719 167.640625 218.257812 165.902344 L 218.253906 164.859375 L 219.046875 164.859375 C 219.882812 164.859375 220.046875 164.613281 219.589844 164.019531 C 218.949219 163.1875 210.28125 162.9375 203.09375 163.542969 C 199.242188 163.867188 192.019531 164.652344 186.128906 165.386719 L 183.230469 165.746094 L 183.105469 168.324219 C 183.039062 169.746094 182.921875 173.867188 182.847656 177.488281 L 182.714844 184.074219 L 185.273438 183.96875 C 192.34375 183.675781 199.367188 183.558594 199.976562 183.726562 C 200.867188 183.972656 202.007812 185.035156 202.644531 186.203125 C 202.929688 186.726562 203.886719 188.894531 204.769531 191.015625 C 207.445312 197.441406 207.363281 197.359375 211.242188 197.363281 C 213.109375 197.363281 214.046875 197.277344 214.554688 197.066406 Z M 230.835938 196.179688 C 236.257812 195.941406 245.695312 195.84375 251.449219 195.972656 L 255.808594 196.070312 L 255.777344 191.359375 L 255.742188 186.648438 L 255.039062 185.871094 C 253.285156 183.929688 253.304688 179.480469 255.070312 177.882812 C 255.460938 177.527344 255.460938 177.515625 254.785156 176.195312 C 254.328125 175.304688 254.058594 174.445312 253.964844 173.582031 L 253.824219 172.292969 L 252.769531 174.671875 C 251.464844 177.617188 250.273438 181.152344 249.0625 185.667969 C 248.011719 189.585938 247.949219 189.742188 247.390625 189.886719 C 246.648438 190.082031 246.238281 189.445312 245.695312 187.253906 C 244.03125 180.570312 241.1875 175.683594 236.742188 171.894531 C 233.597656 169.210938 229.714844 166.894531 226.125 165.566406 C 224.273438 164.882812 220.617188 163.820312 220.503906 163.933594 C 220.472656 163.960938 220.621094 164.949219 220.835938 166.125 C 221.835938 171.6875 222.332031 178.441406 222.53125 189.3125 L 222.664062 196.621094 L 224.570312 196.496094 C 225.621094 196.429688 228.441406 196.285156 230.835938 196.179688 Z M 248.148438 183.289062 C 249.527344 178.03125 251.128906 173.53125 253.148438 169.25 C 253.683594 168.113281 254.125 166.988281 254.125 166.753906 C 254.125 166.1875 253.417969 164.121094 252.980469 163.394531 C 252.648438 162.847656 252.40625 162.765625 248.175781 161.792969 C 245.722656 161.230469 243.53125 160.667969 243.300781 160.542969 C 242.714844 160.226562 242.453125 159.785156 239.804688 154.65625 C 238.507812 152.148438 237.363281 150.007812 237.257812 149.898438 C 237.066406 149.707031 237.882812 151.621094 239.710938 155.664062 C 240.761719 157.980469 240.980469 158.886719 240.644531 159.515625 C 240.429688 159.921875 240.308594 159.949219 239.191406 159.84375 C 238.519531 159.78125 236.855469 159.546875 235.496094 159.324219 C 231.667969 158.699219 228.675781 158.332031 224.839844 158.019531 C 220.355469 157.652344 218.578125 157.640625 218.722656 157.972656 C 218.78125 158.109375 219.066406 158.988281 219.359375 159.929688 L 219.894531 161.632812 L 221.472656 161.972656 C 225.269531 162.789062 230.230469 164.941406 233.804688 167.320312 C 240.851562 172.015625 245.085938 177.894531 247 185.640625 C 247.117188 186.113281 247.242188 186.472656 247.277344 186.433594 C 247.316406 186.394531 247.707031 184.980469 248.148438 183.289062 Z M 255.894531 182.152344 C 255.882812 180.777344 255.820312 180.164062 255.710938 180.417969 C 255.417969 181.097656 255.519531 184.28125 255.832031 184.28125 C 255.875 184.28125 255.902344 183.324219 255.894531 182.152344 Z M 255.3125 174.066406 C 255.074219 172.578125 254.976562 172.332031 254.703125 172.5 C 254.476562 172.640625 254.671875 174.03125 255.042969 174.949219 C 255.449219 175.945312 255.554688 175.59375 255.3125 174.066406 Z M 119.460938 172.691406 C 126.480469 171.746094 154.914062 167.839844 161.972656 166.851562 C 164.207031 166.539062 169.554688 165.824219 173.863281 165.261719 C 178.167969 164.699219 181.878906 164.203125 182.109375 164.15625 C 182.46875 164.085938 182.542969 163.898438 182.628906 162.789062 C 182.695312 161.996094 182.894531 161.234375 183.152344 160.792969 C 183.402344 160.375 183.574219 159.742188 183.574219 159.25 C 183.574219 158.070312 184.097656 153.695312 184.574219 150.890625 C 185.027344 148.21875 186.210938 143.441406 186.550781 142.914062 C 186.734375 142.628906 186.753906 142.625 186.675781 142.890625 C 185.726562 145.988281 184.167969 155.984375 184.167969 158.953125 C 184.167969 159.746094 184.042969 160.292969 183.746094 160.792969 C 183.488281 161.234375 183.289062 161.996094 183.222656 162.796875 C 183.121094 164.078125 183.125 164.089844 183.59375 163.984375 C 184.390625 163.808594 191.722656 162.921875 196.75 162.394531 C 206.835938 161.332031 213.078125 160.980469 216.558594 161.277344 C 217.863281 161.386719 218.957031 161.449219 218.988281 161.417969 C 219.023438 161.382812 218.757812 160.515625 218.402344 159.492188 L 217.757812 157.628906 L 216.964844 157.628906 C 216.476562 157.628906 216.164062 157.722656 216.148438 157.875 C 216.132812 158.011719 216.113281 158.613281 216.097656 159.214844 C 216.074219 160.238281 216.042969 160.304688 215.578125 160.304688 C 215.097656 160.304688 215.082031 160.265625 215.082031 158.90625 L 215.082031 157.511719 L 212.753906 157.628906 C 207.042969 157.917969 201.015625 158.5 190.972656 159.742188 C 186.960938 160.234375 186.480469 160.175781 186.257812 159.164062 C 186.136719 158.605469 187.394531 149.96875 188.140625 146.242188 C 188.578125 144.050781 189.199219 142.730469 190.054688 142.152344 C 190.933594 141.5625 198.859375 139.945312 204.539062 139.203125 C 210.179688 138.460938 211.554688 138.992188 212.761719 142.367188 C 213.03125 143.132812 214.308594 146.207031 215.589844 149.207031 C 217.601562 153.898438 217.925781 154.800781 217.917969 155.695312 C 217.914062 156.320312 218 156.742188 218.132812 156.753906 C 220.214844 156.910156 222.8125 157.011719 222.808594 156.933594 C 222.808594 156.878906 222.5 156.636719 222.128906 156.394531 C 221.753906 156.152344 221.214844 155.554688 220.925781 155.066406 C 220.640625 154.578125 219.023438 150.984375 217.328125 147.085938 C 214.414062 140.367188 214.253906 139.933594 214.335938 138.953125 L 214.421875 137.914062 L 212.722656 137.367188 C 209.847656 136.441406 208.515625 136.554688 199.425781 138.484375 C 192.085938 140.046875 165.4375 145.382812 130.660156 152.261719 C 108.496094 156.644531 110.441406 156.222656 110.011719 156.765625 C 109.238281 157.753906 107.039062 162.496094 106.304688 164.761719 C 105.476562 167.304688 104.554688 171.4375 104.367188 173.464844 L 104.25 174.703125 L 108.488281 174.152344 C 110.816406 173.847656 115.757812 173.191406 119.460938 172.691406 Z M 251.347656 161.117188 C 251.347656 160.667969 245.101562 148.949219 244.730469 148.707031 C 243.988281 148.222656 235.824219 144.648438 235.714844 144.757812 C 235.382812 145.089844 236.40625 145.703125 239.578125 147.074219 C 241.527344 147.917969 243.4375 148.765625 243.820312 148.957031 C 244.4375 149.265625 244.765625 149.804688 246.863281 153.960938 C 248.15625 156.523438 249.140625 158.546875 249.042969 158.457031 C 248.949219 158.371094 247.847656 156.949219 246.59375 155.300781 C 245.339844 153.652344 244.089844 152.136719 243.816406 151.9375 C 243.375 151.617188 243.074219 151.589844 241.289062 151.707031 L 239.261719 151.839844 L 241.054688 155.328125 C 242.039062 157.246094 243 158.96875 243.183594 159.152344 C 243.378906 159.34375 244.371094 159.660156 245.503906 159.890625 C 246.59375 160.109375 248.289062 160.507812 249.269531 160.773438 C 251.410156 161.347656 251.347656 161.335938 251.347656 161.117188 Z M 189.636719 152.277344 C 190.203125 148.570312 190.726562 145.300781 190.800781 145.011719 C 191.007812 144.226562 191.675781 143.707031 192.890625 143.394531 C 195.109375 142.824219 202.585938 141.398438 202.710938 141.523438 C 202.785156 141.597656 203.4375 145.136719 204.167969 149.386719 C 204.898438 153.640625 205.53125 157.160156 205.582031 157.207031 C 205.65625 157.277344 214.074219 156.628906 214.878906 156.488281 C 215.046875 156.457031 214.597656 155.953125 213.789062 155.261719 C 212.417969 154.101562 212.40625 154.09375 212.34375 154.621094 C 212.285156 155.136719 212.25 155.152344 210.921875 155.152344 C 209.011719 155.152344 208.9375 155.050781 208.9375 152.347656 C 208.9375 149.550781 209.015625 149.402344 210.515625 149.402344 C 212.066406 149.402344 212.308594 149.65625 212.308594 151.277344 L 212.308594 152.527344 L 213.25 153.292969 C 214.007812 153.910156 214.109375 153.953125 213.769531 153.519531 C 213.464844 153.128906 213.304688 152.550781 213.203125 151.453125 C 213.019531 149.484375 212.550781 148.9375 210.882812 148.742188 C 209.601562 148.589844 208.867188 148.800781 208.539062 149.410156 C 208.253906 149.945312 208.351562 155.039062 208.65625 155.34375 C 208.773438 155.457031 209.441406 155.660156 210.140625 155.789062 L 211.417969 156.027344 L 209.730469 156.171875 C 208.804688 156.25 207.714844 156.363281 207.304688 156.425781 C 206.894531 156.492188 206.5625 156.5 206.5625 156.449219 C 206.5625 156.394531 205.980469 153.191406 205.273438 149.328125 C 204.566406 145.460938 203.984375 142.160156 203.984375 141.988281 C 203.984375 141.734375 204.222656 141.675781 205.222656 141.679688 C 206.691406 141.6875 209.289062 142.125 209.953125 142.476562 L 210.425781 142.722656 L 210.03125 142.277344 C 209.417969 141.589844 208.699219 141.296875 206.914062 141.011719 L 205.273438 140.75 L 206.972656 140.601562 C 209.285156 140.402344 210.003906 140.5625 210.746094 141.449219 C 211.371094 142.195312 213.199219 146.289062 216.621094 154.605469 C 216.898438 155.285156 216.898438 155.382812 216.597656 155.710938 C 216.160156 156.199219 216.1875 156.539062 216.664062 156.539062 C 217.320312 156.539062 217.335938 155.761719 216.707031 154.253906 C 216.386719 153.492188 215.128906 150.464844 213.910156 147.519531 C 211.316406 141.257812 211.375 141.390625 210.75 140.765625 C 210.066406 140.082031 209.65625 140.023438 206.492188 140.144531 C 203.503906 140.261719 201.625 140.566406 195.957031 141.863281 C 191.777344 142.816406 190.839844 143.210938 190.332031 144.222656 C 189.839844 145.207031 189.839844 145.214844 188.828125 151.855469 C 187.820312 158.46875 187.765625 159.175781 188.269531 159.078125 C 188.558594 159.023438 188.769531 157.976562 189.636719 152.277344 Z M 239.457031 158.640625 C 239.457031 158.597656 238.222656 156.035156 236.714844 152.945312 C 235.207031 149.851562 233.601562 146.546875 233.148438 145.597656 C 232.136719 143.484375 231.617188 143.058594 229.253906 142.394531 C 224.742188 141.132812 215.59375 138.703125 215.351562 138.703125 C 215.203125 138.703125 215.082031 138.863281 215.082031 139.0625 C 215.082031 139.367188 216.25 139.742188 222.859375 141.546875 C 227.140625 142.714844 230.863281 143.832031 231.132812 144.027344 C 231.636719 144.398438 235.46875 152.269531 235.25 152.488281 C 235.1875 152.550781 233.457031 152.902344 231.402344 153.277344 C 227.417969 153.996094 227.171875 154.109375 227.171875 155.195312 C 227.171875 155.738281 227.640625 156.679688 228.058594 156.980469 C 228.171875 157.0625 228.589844 157.128906 228.992188 157.128906 C 229.761719 157.132812 236.621094 158.171875 237.972656 158.492188 C 238.847656 158.695312 239.457031 158.757812 239.457031 158.640625 Z M 126.300781 150.214844 C 138.378906 147.828125 146.859375 146.1875 170.890625 141.59375 C 187.1875 138.476562 201.335938 135.949219 207.253906 135.09375 C 209.953125 134.707031 218.6875 134.773438 221.917969 135.207031 C 228.175781 136.046875 234.707031 137.6875 239.0625 139.515625 C 241.566406 140.566406 241.46875 140.347656 238.664062 138.613281 C 231.433594 134.140625 222.894531 131.613281 213.199219 131.070312 C 203.914062 130.554688 184.019531 133.523438 160.152344 138.984375 C 144.398438 142.589844 120.996094 148.945312 116.226562 150.914062 C 113.117188 152.195312 112.90625 152.695312 115.660156 152.253906 C 116.550781 152.113281 121.339844 151.195312 126.300781 150.214844 Z M 126.167969 144.558594 C 141.019531 140.191406 158.25 136.089844 172.375 133.554688 C 174.882812 133.105469 177.023438 132.695312 177.132812 132.644531 C 177.503906 132.476562 172.582031 132.761719 169.898438 133.066406 C 163.902344 133.746094 155.867188 135.167969 150.8125 136.4375 C 146.972656 137.398438 140.871094 139.152344 133.53125 141.398438 C 124.496094 144.164062 122.535156 144.835938 122.535156 145.160156 C 122.535156 145.578125 122.894531 145.519531 126.167969 144.558594 Z M 131.425781 141.066406 C 140.574219 138.515625 146.328125 136.925781 148.691406 136.304688 C 151.527344 135.554688 150.109375 135.65625 145.675781 136.519531 C 140.222656 137.585938 136.511719 138.449219 132.121094 139.671875 C 124.664062 141.753906 122.730469 142.457031 122.730469 143.09375 C 122.730469 143.445312 123.804688 143.195312 131.425781 141.066406 Z M 127.046875 139.609375 C 134.796875 137.132812 144.796875 134.214844 152.855469 132.070312 C 159.390625 130.332031 162.8125 129.25 165.042969 128.210938 C 166.800781 127.394531 167.328125 126.9375 166.953125 126.5625 C 165.859375 125.464844 149.953125 129.242188 135.316406 134.074219 C 132.808594 134.902344 130.222656 135.824219 129.570312 136.121094 C 128.433594 136.636719 125.230469 138.972656 124.4375 139.863281 C 124.0625 140.28125 124.0625 140.289062 124.488281 140.289062 C 124.726562 140.289062 125.875 139.980469 127.046875 139.609375 Z M 127.046875 139.609375 " fill-opacity="1" fill-rule="nonzero"/></g><g clip-path="url(#74a08b45a3)"><g clip-path="url(#48b6ec51dd)"><g clip-path="url(#968d9078c2)"><path fill="#ffffff" d="M 116.070312 121.574219 C 113.777344 123.578125 111.675781 125.71875 109.757812 127.996094 C 110.679688 126.992188 111.636719 125.988281 112.628906 124.976562 C 113.5 124.082031 114.644531 122.949219 116.070312 121.574219 M 106.574219 123.664062 C 105.019531 125.128906 103.640625 126.519531 102.445312 127.832031 C 101.246094 129.148438 100.175781 130.414062 99.238281 131.632812 C 101.367188 129.097656 103.8125 126.441406 106.574219 123.664062 M 272.980469 165.679688 L 272.953125 166.101562 L 272.953125 166.519531 L 272.984375 166.945312 L 273.054688 167.375 L 273.167969 167.8125 L 273.324219 168.253906 L 273.527344 168.703125 L 273.785156 169.164062 L 274.101562 169.636719 L 274.476562 170.117188 L 274.917969 170.613281 L 275.429688 171.125 C 274.730469 169.503906 273.914062 167.691406 272.980469 165.679688 M 178.683594 91.363281 L 177.355469 91.40625 C 149.683594 93.316406 126.109375 104.050781 106.628906 123.613281 C 127.128906 104.6875 150.417969 94.621094 176.503906 93.414062 C 190.105469 93.160156 201.738281 94.914062 211.402344 98.679688 C 225.855469 104.042969 237.464844 110.636719 246.234375 118.457031 C 252.613281 124.140625 257.386719 129.207031 260.554688 133.660156 C 252.609375 123.058594 240.777344 114.027344 225.058594 106.570312 C 207.984375 99.25 191.410156 95.792969 175.335938 96.207031 C 153.589844 96.339844 133.847656 104.785156 116.105469 121.542969 C 134.46875 106.097656 155.257812 98.925781 178.46875 100.023438 C 205.457031 101.773438 228.300781 110.832031 247 127.210938 C 257.195312 136.359375 265.855469 149.179688 272.980469 165.671875 C 274.164062 161.40625 274.464844 158.851562 273.886719 158.011719 C 276.75 165.917969 278.542969 174.15625 279.257812 182.726562 C 281.679688 206.941406 274.675781 230.003906 258.246094 251.90625 C 285.300781 219.71875 290.042969 184.496094 272.472656 146.234375 C 262.972656 127.996094 250.777344 114.800781 235.878906 106.648438 C 217.238281 96.132812 198.171875 91.035156 178.683594 91.363281 M 258.214844 251.941406 L 257.535156 252.714844 C 255.480469 255.054688 253.273438 257.421875 250.914062 259.816406 L 252.519531 258.464844 L 252.867188 258.15625 C 252.96875 258.082031 253.371094 257.679688 254.078125 256.945312 C 254.667969 256.316406 255.3125 255.578125 256.011719 254.734375 L 257.085938 253.40625 L 258.214844 251.941406 M 109.722656 128.03125 L 108.046875 129.894531 C 89.007812 152.367188 80.902344 177.261719 83.734375 204.570312 C 80.28125 192.886719 80.132812 180.574219 83.285156 167.640625 C 86.296875 153.964844 91.605469 141.976562 99.207031 131.671875 C 86.574219 146.941406 79.921875 166.25 79.25 189.589844 C 79.320312 193.796875 80.15625 199.046875 81.761719 205.34375 C 87.300781 223.234375 90.515625 232.722656 91.40625 233.808594 C 97.332031 246.414062 104.179688 256.144531 111.945312 263.003906 C 121.867188 271.824219 132.710938 278.355469 144.480469 282.597656 C 156.363281 287.179688 167.5625 289.238281 178.082031 288.777344 C 193.128906 288.066406 207.21875 285.457031 220.355469 280.953125 C 229.886719 277.273438 240.066406 270.238281 250.894531 259.835938 C 239.65625 269.277344 229.941406 275.378906 221.75 278.144531 C 206.402344 282.789062 192.191406 285.175781 179.109375 285.308594 C 170.921875 286.085938 159.167969 283.410156 143.84375 277.273438 C 132.648438 272.714844 123.351562 266.96875 115.957031 260.039062 C 110.042969 254.402344 105.523438 249.117188 102.398438 244.1875 C 111.601562 254.671875 124.816406 264.570312 142.042969 273.875 C 150.320312 278.210938 158.527344 281.261719 166.671875 283.027344 C 168.761719 283.445312 169.945312 283.585938 170.210938 283.449219 C 170.355469 283.398438 170.339844 283.292969 170.160156 283.140625 C 170.523438 283.382812 171.054688 283.132812 171.75 282.398438 C 172.332031 281.65625 172.707031 280.929688 172.875 280.21875 C 162.152344 280.242188 145.457031 273.355469 122.789062 259.554688 C 109.820312 250.382812 99.957031 239.480469 93.199219 226.855469 C 86.742188 212.449219 84.984375 195.199219 87.9375 175.101562 C 90.082031 159.507812 97.34375 143.820312 109.722656 128.03125 " fill-opacity="1" fill-rule="nonzero"/></g></g></g><g fill="#ffffff" fill-opacity="1"><g transform="translate(64.464653, 254.46798)"><g><path d="M 3.390625 -28.28125 L 24.9375 -28.28125 L 24.9375 -22.625 L 9.609375 -22.625 L 9.609375 -16.609375 L 23.109375 -16.609375 L 23.109375 -10.953125 L 9.609375 -10.953125 L 9.609375 0 L 3.390625 0 Z M 3.390625 -28.28125 "/></g></g></g><g fill="#ffffff" fill-opacity="1"><g transform="translate(90.970409, 254.46798)"><g><path d="M 13.09375 -28.484375 L 18.828125 -28.484375 L 30.953125 0 L 24.453125 0 L 21.859375 -6.34375 L 9.90625 -6.34375 L 7.3125 0 L 0.96875 0 Z M 19.640625 -11.84375 L 15.875 -21.015625 L 12.125 -11.84375 Z M 19.640625 -11.84375 "/></g></g></g><g fill="#ffffff" fill-opacity="1"><g transform="translate(122.890464, 254.46798)"><g><path d="M 3.390625 -28.28125 L 9.609375 -28.28125 L 9.609375 -5.65625 L 23.71875 -5.65625 L 23.71875 0 L 3.390625 0 Z M 3.390625 -28.28125 "/></g></g></g><g fill="#ffffff" fill-opacity="1"><g transform="translate(147.90124, 254.46798)"><g><path d="M 16.640625 0.484375 C 14.566406 0.484375 12.640625 0.109375 10.859375 -0.640625 C 9.085938 -1.398438 7.554688 -2.429688 6.265625 -3.734375 C 4.972656 -5.046875 3.960938 -6.585938 3.234375 -8.359375 C 2.503906 -10.140625 2.140625 -12.039062 2.140625 -14.0625 L 2.140625 -14.140625 C 2.140625 -16.160156 2.503906 -18.050781 3.234375 -19.8125 C 3.960938 -21.582031 4.972656 -23.132812 6.265625 -24.46875 C 7.554688 -25.800781 9.101562 -26.847656 10.90625 -27.609375 C 12.707031 -28.378906 14.703125 -28.765625 16.890625 -28.765625 C 18.210938 -28.765625 19.414062 -28.65625 20.5 -28.4375 C 21.59375 -28.226562 22.582031 -27.929688 23.46875 -27.546875 C 24.363281 -27.171875 25.1875 -26.710938 25.9375 -26.171875 C 26.695312 -25.640625 27.398438 -25.050781 28.046875 -24.40625 L 24.078125 -19.84375 C 22.972656 -20.832031 21.847656 -21.609375 20.703125 -22.171875 C 19.554688 -22.742188 18.269531 -23.03125 16.84375 -23.03125 C 15.664062 -23.03125 14.570312 -22.800781 13.5625 -22.34375 C 12.550781 -21.882812 11.679688 -21.25 10.953125 -20.4375 C 10.222656 -19.632812 9.65625 -18.703125 9.25 -17.640625 C 8.84375 -16.578125 8.640625 -15.4375 8.640625 -14.21875 L 8.640625 -14.140625 C 8.640625 -12.929688 8.84375 -11.785156 9.25 -10.703125 C 9.65625 -9.628906 10.210938 -8.6875 10.921875 -7.875 C 11.640625 -7.070312 12.503906 -6.429688 13.515625 -5.953125 C 14.523438 -5.484375 15.632812 -5.25 16.84375 -5.25 C 18.46875 -5.25 19.835938 -5.546875 20.953125 -6.140625 C 22.066406 -6.734375 23.175781 -7.539062 24.28125 -8.5625 L 28.25 -4.5625 C 27.519531 -3.78125 26.765625 -3.078125 25.984375 -2.453125 C 25.203125 -1.835938 24.34375 -1.304688 23.40625 -0.859375 C 22.476562 -0.421875 21.460938 -0.0859375 20.359375 0.140625 C 19.253906 0.367188 18.015625 0.484375 16.640625 0.484375 Z M 16.640625 0.484375 "/></g></g></g><g fill="#ffffff" fill-opacity="1"><g transform="translate(177.720223, 254.46798)"><g><path d="M 17.125 0.484375 C 14.945312 0.484375 12.941406 0.101562 11.109375 -0.65625 C 9.273438 -1.425781 7.691406 -2.460938 6.359375 -3.765625 C 5.023438 -5.078125 3.988281 -6.613281 3.25 -8.375 C 2.507812 -10.144531 2.140625 -12.039062 2.140625 -14.0625 L 2.140625 -14.140625 C 2.140625 -16.160156 2.515625 -18.050781 3.265625 -19.8125 C 4.023438 -21.582031 5.070312 -23.132812 6.40625 -24.46875 C 7.738281 -25.800781 9.328125 -26.847656 11.171875 -27.609375 C 13.015625 -28.378906 15.03125 -28.765625 17.21875 -28.765625 C 19.394531 -28.765625 21.398438 -28.378906 23.234375 -27.609375 C 25.066406 -26.847656 26.648438 -25.8125 27.984375 -24.5 C 29.316406 -23.195312 30.351562 -21.660156 31.09375 -19.890625 C 31.832031 -18.128906 32.203125 -16.238281 32.203125 -14.21875 L 32.203125 -14.140625 C 32.203125 -12.117188 31.820312 -10.222656 31.0625 -8.453125 C 30.3125 -6.691406 29.269531 -5.144531 27.9375 -3.8125 C 26.601562 -2.476562 25.015625 -1.425781 23.171875 -0.65625 C 21.328125 0.101562 19.3125 0.484375 17.125 0.484375 Z M 17.21875 -5.25 C 18.457031 -5.25 19.597656 -5.476562 20.640625 -5.9375 C 21.691406 -6.394531 22.585938 -7.023438 23.328125 -7.828125 C 24.078125 -8.640625 24.660156 -9.578125 25.078125 -10.640625 C 25.492188 -11.710938 25.703125 -12.851562 25.703125 -14.0625 L 25.703125 -14.140625 C 25.703125 -15.347656 25.492188 -16.488281 25.078125 -17.5625 C 24.660156 -18.644531 24.066406 -19.59375 23.296875 -20.40625 C 22.523438 -21.21875 21.613281 -21.859375 20.5625 -22.328125 C 19.507812 -22.796875 18.363281 -23.03125 17.125 -23.03125 C 15.863281 -23.03125 14.710938 -22.800781 13.671875 -22.34375 C 12.640625 -21.882812 11.753906 -21.25 11.015625 -20.4375 C 10.273438 -19.632812 9.691406 -18.703125 9.265625 -17.640625 C 8.847656 -16.578125 8.640625 -15.4375 8.640625 -14.21875 L 8.640625 -14.140625 C 8.640625 -12.929688 8.847656 -11.785156 9.265625 -10.703125 C 9.691406 -9.628906 10.285156 -8.6875 11.046875 -7.875 C 11.816406 -7.070312 12.71875 -6.429688 13.75 -5.953125 C 14.789062 -5.484375 15.945312 -5.25 17.21875 -5.25 Z M 17.21875 -5.25 "/></g></g></g><g fill="#ffffff" fill-opacity="1"><g transform="translate(212.064589, 254.46798)"><g><path d="M 3.390625 -28.28125 L 9.125 -28.28125 L 22.390625 -10.875 L 22.390625 -28.28125 L 28.53125 -28.28125 L 28.53125 0 L 23.234375 0 L 9.53125 -17.984375 L 9.53125 0 L 3.390625 0 Z M 3.390625 -28.28125 "/></g></g></g><g fill="#ffffff" fill-opacity="1"><g transform="translate(243.984644, 254.46798)"><g><path d="M 3.671875 -28.28125 L 9.90625 -28.28125 L 9.90625 0 L 3.671875 0 Z M 3.671875 -28.28125 "/></g></g></g><g fill="#ffffff" fill-opacity="1"><g transform="translate(257.560759, 254.46798)"><g><path d="M 3.390625 -28.28125 L 24.734375 -28.28125 L 24.734375 -22.75 L 9.578125 -22.75 L 9.578125 -17.015625 L 22.90625 -17.015625 L 22.90625 -11.46875 L 9.578125 -11.46875 L 9.578125 -5.53125 L 24.9375 -5.53125 L 24.9375 0 L 3.390625 0 Z M 3.390625 -28.28125 "/></g></g></g><g fill="#ffffff" fill-opacity="1"><g transform="translate(284.632195, 254.46798)"><g><path d="M 13.453125 0.40625 C 11.296875 0.40625 9.179688 0.0351562 7.109375 -0.703125 C 5.035156 -1.441406 3.148438 -2.582031 1.453125 -4.125 L 5.125 -8.53125 C 6.425781 -7.476562 7.753906 -6.640625 9.109375 -6.015625 C 10.472656 -5.398438 11.960938 -5.09375 13.578125 -5.09375 C 14.867188 -5.09375 15.867188 -5.328125 16.578125 -5.796875 C 17.296875 -6.265625 17.65625 -6.921875 17.65625 -7.765625 L 17.65625 -7.84375 C 17.65625 -8.238281 17.582031 -8.59375 17.4375 -8.90625 C 17.289062 -9.21875 17.003906 -9.507812 16.578125 -9.78125 C 16.160156 -10.050781 15.582031 -10.316406 14.84375 -10.578125 C 14.101562 -10.847656 13.140625 -11.132812 11.953125 -11.4375 C 10.523438 -11.78125 9.234375 -12.164062 8.078125 -12.59375 C 6.921875 -13.03125 5.9375 -13.566406 5.125 -14.203125 C 4.320312 -14.835938 3.695312 -15.625 3.25 -16.5625 C 2.8125 -17.507812 2.59375 -18.679688 2.59375 -20.078125 L 2.59375 -20.15625 C 2.59375 -21.457031 2.832031 -22.625 3.3125 -23.65625 C 3.800781 -24.695312 4.484375 -25.59375 5.359375 -26.34375 C 6.234375 -27.09375 7.273438 -27.671875 8.484375 -28.078125 C 9.691406 -28.484375 11.023438 -28.6875 12.484375 -28.6875 C 14.554688 -28.6875 16.460938 -28.375 18.203125 -27.75 C 19.941406 -27.132812 21.535156 -26.25 22.984375 -25.09375 L 19.765625 -20.40625 C 18.492188 -21.269531 17.25 -21.945312 16.03125 -22.4375 C 14.820312 -22.9375 13.613281 -23.1875 12.40625 -23.1875 C 11.195312 -23.1875 10.285156 -22.953125 9.671875 -22.484375 C 9.066406 -22.015625 8.765625 -21.429688 8.765625 -20.734375 L 8.765625 -20.640625 C 8.765625 -20.179688 8.851562 -19.785156 9.03125 -19.453125 C 9.207031 -19.117188 9.523438 -18.816406 9.984375 -18.546875 C 10.441406 -18.273438 11.066406 -18.019531 11.859375 -17.78125 C 12.648438 -17.539062 13.65625 -17.257812 14.875 -16.9375 C 16.300781 -16.550781 17.570312 -16.125 18.6875 -15.65625 C 19.800781 -15.1875 20.742188 -14.617188 21.515625 -13.953125 C 22.285156 -13.296875 22.863281 -12.519531 23.25 -11.625 C 23.644531 -10.738281 23.84375 -9.675781 23.84375 -8.4375 L 23.84375 -8.359375 C 23.84375 -6.960938 23.582031 -5.71875 23.0625 -4.625 C 22.550781 -3.53125 21.835938 -2.613281 20.921875 -1.875 C 20.015625 -1.132812 18.925781 -0.566406 17.65625 -0.171875 C 16.394531 0.210938 14.992188 0.40625 13.453125 0.40625 Z M 13.453125 0.40625 "/></g></g></g><g fill="#ffffff" fill-opacity="1"><g transform="translate(114.274526, 281.310183)"><g><path d="M 8.21875 0.21875 C 6.832031 0.21875 5.613281 -0.0625 4.5625 -0.625 C 3.507812 -1.1875 2.679688 -2.046875 2.078125 -3.203125 C 1.484375 -4.367188 1.1875 -5.816406 1.1875 -7.546875 C 1.1875 -9.265625 1.484375 -10.703125 2.078125 -11.859375 C 2.679688 -13.023438 3.507812 -13.890625 4.5625 -14.453125 C 5.613281 -15.015625 6.832031 -15.296875 8.21875 -15.296875 C 9.601562 -15.296875 10.820312 -15.015625 11.875 -14.453125 C 12.925781 -13.890625 13.75 -13.023438 14.34375 -11.859375 C 14.9375 -10.703125 15.234375 -9.265625 15.234375 -7.546875 C 15.234375 -5.816406 14.9375 -4.367188 14.34375 -3.203125 C 13.75 -2.046875 12.925781 -1.1875 11.875 -0.625 C 10.820312 -0.0625 9.601562 0.21875 8.21875 0.21875 Z M 8.21875 -2.375 C 9.5 -2.375 10.472656 -2.785156 11.140625 -3.609375 C 11.816406 -4.429688 12.15625 -5.742188 12.15625 -7.546875 C 12.15625 -9.347656 11.816406 -10.660156 11.140625 -11.484375 C 10.472656 -12.304688 9.5 -12.71875 8.21875 -12.71875 C 6.9375 -12.71875 5.957031 -12.304688 5.28125 -11.484375 C 4.601562 -10.660156 4.265625 -9.347656 4.265625 -7.546875 C 4.265625 -5.742188 4.601562 -4.429688 5.28125 -3.609375 C 5.957031 -2.785156 6.9375 -2.375 8.21875 -2.375 Z M 8.21875 -2.375 "/></g></g></g><g fill="#ffffff" fill-opacity="1"><g transform="translate(130.710952, 281.310183)"><g><path d="M 4.84375 0 L 1.953125 0 L 1.953125 -15.078125 L 5.375 -15.078125 L 11.421875 -5.359375 L 11.703125 -5.40625 L 11.703125 -15.078125 L 14.5625 -15.078125 L 14.5625 0 L 11.515625 0 L 5.109375 -10.375 L 4.84375 -10.328125 Z M 4.84375 0 "/></g></g></g><g fill="#ffffff" fill-opacity="1"><g transform="translate(147.250558, 281.310183)"><g/></g></g><g fill="#ffffff" fill-opacity="1"><g transform="translate(152.234112, 281.310183)"><g><path d="M 12.09375 -15.078125 L 12.09375 -12.578125 L 7.734375 -12.578125 L 7.734375 0 L 4.765625 0 L 4.765625 -12.578125 L 0.40625 -12.578125 L 0.40625 -15.078125 Z M 12.09375 -15.078125 "/></g></g></g><g fill="#ffffff" fill-opacity="1"><g transform="translate(164.73941, 281.310183)"><g><path d="M 11.703125 -9.40625 L 11.703125 -15.078125 L 14.671875 -15.078125 L 14.671875 0 L 11.703125 0 L 11.703125 -6.875 L 4.9375 -6.875 L 4.9375 0 L 1.953125 0 L 1.953125 -15.078125 L 4.9375 -15.078125 L 4.9375 -9.40625 Z M 11.703125 -9.40625 "/></g></g></g><g fill="#ffffff" fill-opacity="1"><g transform="translate(181.382195, 281.310183)"><g><path d="M 4.9375 -6.625 L 4.9375 -2.5 L 12.140625 -2.5 L 12.140625 0 L 1.953125 0 L 1.953125 -15.078125 L 11.96875 -15.078125 L 11.96875 -12.578125 L 4.9375 -12.578125 L 4.9375 -9.0625 L 11.09375 -9.0625 L 11.09375 -6.625 Z M 4.9375 -6.625 "/></g></g></g><g fill="#ffffff" fill-opacity="1"><g transform="translate(194.351806, 281.310183)"><g/></g></g><g fill="#ffffff" fill-opacity="1"><g transform="translate(199.33536, 281.310183)"><g><path d="M 1.953125 0 L 1.953125 -15.078125 L 8.015625 -15.078125 C 9.578125 -15.078125 10.753906 -14.71875 11.546875 -14 C 12.335938 -13.28125 12.734375 -12.289062 12.734375 -11.03125 C 12.734375 -10.113281 12.5 -9.363281 12.03125 -8.78125 C 11.570312 -8.195312 10.882812 -7.75 9.96875 -7.4375 L 9.96875 -7.21875 C 10.4375 -7.007812 10.816406 -6.703125 11.109375 -6.296875 C 11.398438 -5.890625 11.675781 -5.289062 11.9375 -4.5 L 13.453125 0 L 10.390625 0 L 8.90625 -4.5 C 8.757812 -4.957031 8.59375 -5.3125 8.40625 -5.5625 C 8.21875 -5.8125 7.972656 -5.992188 7.671875 -6.109375 C 7.378906 -6.222656 7.003906 -6.28125 6.546875 -6.28125 L 4.9375 -6.28125 L 4.9375 0 Z M 7.65625 -8.640625 C 9.09375 -8.640625 9.8125 -9.316406 9.8125 -10.671875 C 9.8125 -12.035156 9.09375 -12.71875 7.65625 -12.71875 L 4.9375 -12.71875 L 4.9375 -8.640625 Z M 7.65625 -8.640625 "/></g></g></g><g fill="#ffffff" fill-opacity="1"><g transform="translate(213.43994, 281.310183)"><g><path d="M 8.21875 0.21875 C 6.832031 0.21875 5.613281 -0.0625 4.5625 -0.625 C 3.507812 -1.1875 2.679688 -2.046875 2.078125 -3.203125 C 1.484375 -4.367188 1.1875 -5.816406 1.1875 -7.546875 C 1.1875 -9.265625 1.484375 -10.703125 2.078125 -11.859375 C 2.679688 -13.023438 3.507812 -13.890625 4.5625 -14.453125 C 5.613281 -15.015625 6.832031 -15.296875 8.21875 -15.296875 C 9.601562 -15.296875 10.820312 -15.015625 11.875 -14.453125 C 12.925781 -13.890625 13.75 -13.023438 14.34375 -11.859375 C 14.9375 -10.703125 15.234375 -9.265625 15.234375 -7.546875 C 15.234375 -5.816406 14.9375 -4.367188 14.34375 -3.203125 C 13.75 -2.046875 12.925781 -1.1875 11.875 -0.625 C 10.820312 -0.0625 9.601562 0.21875 8.21875 0.21875 Z M 8.21875 -2.375 C 9.5 -2.375 10.472656 -2.785156 11.140625 -3.609375 C 11.816406 -4.429688 12.15625 -5.742188 12.15625 -7.546875 C 12.15625 -9.347656 11.816406 -10.660156 11.140625 -11.484375 C 10.472656 -12.304688 9.5 -12.71875 8.21875 -12.71875 C 6.9375 -12.71875 5.957031 -12.304688 5.28125 -11.484375 C 4.601562 -10.660156 4.265625 -9.347656 4.265625 -7.546875 C 4.265625 -5.742188 4.601562 -4.429688 5.28125 -3.609375 C 5.957031 -2.785156 6.9375 -2.375 8.21875 -2.375 Z M 8.21875 -2.375 "/></g></g></g><g fill="#ffffff" fill-opacity="1"><g transform="translate(229.876367, 281.310183)"><g><path d="M 14.46875 0 L 11.34375 0 L 10.203125 -3.46875 L 4.421875 -3.46875 L 3.296875 0 L 0.234375 0 L 5.4375 -15.078125 L 9.265625 -15.078125 Z M 7.171875 -11.9375 L 5.234375 -5.984375 L 9.375 -5.984375 L 7.421875 -11.9375 Z M 7.171875 -11.9375 "/></g></g></g><g fill="#ffffff" fill-opacity="1"><g transform="translate(244.579385, 281.310183)"><g><path d="M 7.390625 -15.078125 C 9.835938 -15.078125 11.703125 -14.441406 12.984375 -13.171875 C 14.273438 -11.910156 14.921875 -10.035156 14.921875 -7.546875 C 14.921875 -5.054688 14.273438 -3.175781 12.984375 -1.90625 C 11.703125 -0.632812 9.835938 0 7.390625 0 L 1.953125 0 L 1.953125 -15.078125 Z M 7.203125 -2.5 C 8.765625 -2.5 9.929688 -2.894531 10.703125 -3.6875 C 11.472656 -4.488281 11.859375 -5.773438 11.859375 -7.546875 C 11.859375 -9.304688 11.472656 -10.582031 10.703125 -11.375 C 9.929688 -12.175781 8.765625 -12.578125 7.203125 -12.578125 L 4.9375 -12.578125 L 4.9375 -2.5 Z M 7.203125 -2.5 "/></g></g></g></svg>