<svg xmlns="http://www.w3.org/2000/svg" xmlns:xlink="http://www.w3.org/1999/xlink" width="500" zoomAndPan="magnify" viewBox="0 0 375 374.999991" height="500" preserveAspectRatio="xMidYMid meet" version="1.0"><defs><g/><clipPath id="9d0c53380a"><path d="M 99.148438 124 L 261.894531 124 L 261.894531 218.726562 L 99.148438 218.726562 Z M 99.148438 124 " clip-rule="nonzero"/></clipPath><clipPath id="79ca0346f3"><path d="M 79 91 L 283 91 L 283 211 L 79 211 Z M 79 91 " clip-rule="nonzero"/></clipPath><clipPath id="cf7f6e36b9"><path d="M 76.148438 93.925781 L 295.839844 88.296875 L 298.824219 204.675781 L 79.128906 210.300781 Z M 76.148438 93.925781 " clip-rule="nonzero"/></clipPath><clipPath id="77c8dd4ff6"><path d="M 76.148438 93.925781 L 295.839844 88.296875 L 298.824219 204.675781 L 79.128906 210.300781 Z M 76.148438 93.925781 " clip-rule="nonzero"/></clipPath><clipPath id="a3c4e43a02"><path d="M 76.148438 93.925781 L 295.839844 88.296875 L 300.921875 286.613281 L 81.226562 292.242188 Z M 76.148438 93.925781 " clip-rule="nonzero"/></clipPath></defs><path fill="#000000" d="M 167.769531 162.429688 C 166.855469 161.957031 166.464844 161.175781 166.484375 159.84375 C 166.5 158.554688 167.949219 150.046875 168.457031 148.265625 C 168.867188 146.816406 169.71875 145.902344 170.984375 145.554688 C 171.546875 145.398438 173.941406 144.894531 176.308594 144.429688 C 181.148438 143.480469 181.4375 143.492188 182.078125 144.683594 C 182.4375 145.347656 182.449219 145.535156 182.234375 146.960938 C 182.105469 147.8125 181.652344 150.886719 181.222656 153.789062 C 180.792969 156.6875 180.300781 159.335938 180.132812 159.664062 C 179.777344 160.355469 179.089844 160.945312 178.289062 161.253906 C 177.753906 161.457031 169.441406 162.6875 168.640625 162.679688 C 168.425781 162.675781 168.03125 162.566406 167.769531 162.429688 Z M 174.523438 155.140625 C 180.0625 154.140625 180.40625 154.054688 180.40625 153.65625 L 180.40625 153.234375 L 177.984375 153.679688 C 176.652344 153.921875 174.273438 154.359375 172.695312 154.648438 C 171.117188 154.9375 169.640625 155.21875 169.410156 155.273438 C 168.992188 155.378906 168.992188 155.367188 169.25 153.925781 C 169.929688 150.089844 170.324219 148.519531 170.699219 148.144531 C 170.984375 147.859375 172.167969 147.523438 175.035156 146.910156 C 180.152344 145.8125 180.730469 145.730469 181.097656 146.035156 C 181.339844 146.238281 181.394531 146.21875 181.394531 145.925781 C 181.394531 145.425781 180.816406 144.84375 180.324219 144.847656 C 179.519531 144.847656 171.28125 146.632812 170.710938 146.929688 C 170.390625 147.09375 170 147.484375 169.839844 147.796875 C 169.601562 148.261719 168.148438 155.453125 168.148438 156.175781 C 168.148438 156.289062 168.257812 156.339844 168.394531 156.289062 C 168.53125 156.242188 171.289062 155.722656 174.523438 155.140625 Z M 174.523438 155.140625 " fill-opacity="1" fill-rule="nonzero"/><path fill="#000000" d="M 149.953125 164.6875 C 148.898438 163.632812 148.921875 163.132812 150.375 155.546875 C 151.21875 151.148438 151.601562 150.046875 152.527344 149.378906 C 153.046875 149.007812 161.191406 147.222656 162.375 147.222656 C 163.292969 147.222656 163.996094 147.96875 163.996094 148.941406 C 163.996094 150.199219 162.015625 161.734375 161.679688 162.445312 C 161.070312 163.734375 160.378906 163.992188 155.691406 164.65625 C 153.355469 164.984375 151.234375 165.257812 150.980469 165.257812 C 150.730469 165.257812 150.265625 165 149.953125 164.6875 Z M 155.621094 158.316406 C 162.382812 157.066406 162.019531 157.160156 162.019531 156.699219 C 162.019531 156.339844 161.941406 156.3125 161.277344 156.441406 C 156.058594 157.46875 151.738281 158.21875 151.738281 158.09375 C 151.738281 157.746094 152.949219 152.140625 153.125 151.679688 C 153.375 151.019531 153.554688 150.960938 158.457031 149.980469 C 162.523438 149.164062 162.675781 149.148438 162.9375 149.507812 C 163.195312 149.863281 163.207031 149.863281 163.207031 149.480469 C 163.207031 148.78125 162.726562 148.34375 161.996094 148.371094 C 160.859375 148.414062 153.644531 150.007812 153.15625 150.324219 C 152.488281 150.757812 152.246094 151.488281 151.5625 155.191406 C 150.894531 158.773438 150.859375 159.113281 151.121094 159.113281 C 151.21875 159.113281 153.242188 158.753906 155.621094 158.316406 Z M 155.621094 158.316406 " fill-opacity="1" fill-rule="nonzero"/><path fill="#000000" d="M 134.28125 167.234375 C 134.003906 167.015625 133.671875 166.523438 133.546875 166.140625 C 133.277344 165.328125 133.363281 164.71875 134.644531 158.265625 C 135.566406 153.621094 135.875 152.828125 136.964844 152.316406 C 137.929688 151.859375 145.710938 150.328125 146.300781 150.476562 C 146.617188 150.554688 146.929688 150.863281 147.132812 151.285156 C 147.441406 151.933594 147.429688 152.121094 146.910156 155.09375 C 145.152344 165.171875 145.113281 165.3125 143.914062 166.058594 C 143.492188 166.320312 142.070312 166.613281 139.171875 167.035156 C 136.894531 167.363281 134.976562 167.632812 134.910156 167.636719 C 134.84375 167.636719 134.5625 167.457031 134.28125 167.234375 Z M 145.363281 159.917969 C 145.390625 159.910156 145.410156 159.726562 145.410156 159.507812 C 145.410156 159.195312 145.316406 159.128906 144.96875 159.207031 C 143.632812 159.507812 136.03125 160.875 135.976562 160.820312 C 135.875 160.71875 137.113281 154.914062 137.316406 154.53125 C 137.539062 154.117188 137.554688 154.113281 140.566406 153.460938 C 145.628906 152.371094 145.878906 152.335938 146.152344 152.710938 C 146.375 153.011719 146.398438 152.996094 146.398438 152.550781 C 146.398438 151.921875 146.058594 151.582031 145.421875 151.582031 C 144.851562 151.582031 138.746094 152.863281 137.730469 153.195312 C 137.230469 153.355469 136.976562 153.617188 136.707031 154.230469 C 136.394531 154.941406 135.132812 160.8125 135.132812 161.550781 C 135.132812 161.753906 136.300781 161.597656 140.222656 160.871094 C 143.023438 160.351562 145.335938 159.921875 145.363281 159.917969 Z M 145.363281 159.917969 " fill-opacity="1" fill-rule="nonzero"/><path fill="#000000" d="M 119.859375 169.402344 C 119.390625 169.128906 118.917969 168.171875 118.921875 167.496094 C 118.921875 166.804688 120.617188 157.882812 120.925781 156.9375 C 121.484375 155.226562 121.804688 155.070312 126.878906 154.054688 C 132.355469 152.953125 132.246094 152.757812 130.792969 160.984375 C 129.742188 166.929688 129.519531 167.648438 128.503906 168.3125 C 128.203125 168.511719 126.675781 168.824219 124.503906 169.125 C 120.582031 169.675781 120.347656 169.6875 119.859375 169.402344 Z M 125.121094 163.277344 C 127.492188 162.839844 129.515625 162.484375 129.613281 162.484375 C 129.710938 162.484375 129.792969 162.304688 129.792969 162.085938 C 129.792969 161.867188 129.726562 161.691406 129.644531 161.695312 C 129.5625 161.699219 127.671875 162.042969 125.445312 162.460938 C 123.214844 162.878906 121.371094 163.207031 121.351562 163.191406 C 121.269531 163.132812 122.472656 157.824219 122.660156 157.398438 C 122.890625 156.871094 123.367188 156.722656 127.304688 155.929688 C 130.328125 155.324219 130.464844 155.3125 130.714844 155.65625 C 130.960938 155.996094 130.980469 155.996094 130.980469 155.671875 C 130.980469 155.480469 130.882812 155.140625 130.761719 154.914062 C 130.570312 154.554688 130.417969 154.519531 129.515625 154.628906 C 128.480469 154.75 124.597656 155.566406 123.222656 155.949219 C 122.222656 156.230469 122.019531 156.691406 121.289062 160.328125 C 120.953125 162.003906 120.632812 163.53125 120.574219 163.722656 C 120.519531 163.914062 120.550781 164.070312 120.644531 164.070312 C 120.734375 164.070312 122.75 163.710938 125.121094 163.277344 Z M 125.121094 163.277344 " fill-opacity="1" fill-rule="nonzero"/><path fill="#000000" d="M 246.285156 178.121094 C 244.765625 177.808594 243.40625 176.425781 242.261719 174.019531 C 240.171875 169.632812 241.296875 165.058594 244.464844 165.058594 C 246.335938 165.058594 247.890625 166.691406 248.941406 169.761719 C 249.371094 171.011719 249.472656 171.675781 249.484375 173.285156 C 249.507812 177.035156 248.492188 178.574219 246.285156 178.121094 Z M 246.285156 178.121094 " fill-opacity="1" fill-rule="nonzero"/><path fill="#000000" d="M 232.976562 188.027344 C 232.523438 187.886719 231.8125 187.484375 231.398438 187.132812 C 228.449219 184.644531 229.292969 179.6875 232.863281 178.515625 C 235.929688 177.511719 239.066406 179.941406 239.023438 183.28125 C 239.007812 184.550781 238.742188 185.3125 237.929688 186.414062 C 236.878906 187.835938 234.664062 188.558594 232.976562 188.027344 Z M 235.339844 187.222656 C 238.234375 186.429688 239.082031 182.144531 236.75 180.125 C 234.914062 178.535156 232.195312 179.015625 230.984375 181.140625 C 230.617188 181.785156 230.53125 182.183594 230.535156 183.191406 C 230.542969 184.667969 230.984375 185.667969 231.980469 186.449219 C 233.082031 187.316406 234.125 187.558594 235.339844 187.222656 Z M 231.960938 187.074219 C 231.511719 186.929688 230.800781 186.527344 230.382812 186.175781 C 227.4375 183.6875 228.28125 178.730469 231.851562 177.5625 C 234.914062 176.558594 238.054688 178.984375 238.011719 182.328125 C 237.996094 183.59375 237.730469 184.359375 236.917969 185.460938 C 235.867188 186.878906 233.648438 187.601562 231.960938 187.074219 Z M 234.328125 186.265625 C 237.222656 185.472656 238.070312 181.1875 235.734375 179.167969 C 233.898438 177.578125 231.179688 178.058594 229.972656 180.1875 C 229.605469 180.828125 229.519531 181.226562 229.523438 182.238281 C 229.527344 183.710938 229.972656 184.710938 230.96875 185.496094 C 232.066406 186.359375 233.113281 186.601562 234.328125 186.265625 Z M 234.328125 186.265625 " fill-opacity="1" fill-rule="nonzero"/><path fill="#000000" d="M 185.347656 172.203125 C 185.183594 172.09375 184.734375 172 184.347656 172 C 183.546875 171.996094 183.171875 171.707031 183.171875 171.089844 C 183.171875 170.496094 183.59375 170.195312 184.597656 170.066406 C 185.066406 170.007812 185.6875 169.835938 185.980469 169.6875 C 187.269531 169.035156 189.5 169.664062 189.5 170.679688 C 189.5 170.941406 189.355469 171.273438 189.179688 171.421875 C 188.347656 172.113281 185.941406 172.605469 185.347656 172.203125 Z M 188.691406 170.886719 C 188.9375 170.648438 188.351562 170.605469 186.460938 170.730469 C 185.304688 170.804688 184.359375 170.917969 184.359375 170.984375 C 184.359375 171.113281 188.558594 171.019531 188.691406 170.886719 Z M 188.691406 170.886719 " fill-opacity="1" fill-rule="nonzero"/><path fill="#000000" d="M 106.660156 177.761719 C 106.25 177.476562 106.621094 176.921875 107.371094 176.707031 C 108.429688 176.402344 112.085938 176.28125 112.554688 176.53125 C 113.097656 176.824219 113.113281 177.265625 112.589844 177.546875 C 112.035156 177.84375 107.042969 178.023438 106.660156 177.761719 Z M 106.660156 177.761719 " fill-opacity="1" fill-rule="nonzero"/><path fill="#000000" d="M 109.882812 160.835938 C 109.472656 160.550781 109.84375 159.996094 110.589844 159.78125 C 111.652344 159.476562 115.308594 159.355469 115.777344 159.609375 C 116.320312 159.898438 116.335938 160.339844 115.8125 160.621094 C 115.257812 160.917969 110.261719 161.101562 109.882812 160.835938 Z M 109.882812 160.835938 " fill-opacity="1" fill-rule="nonzero"/><path fill="#000000" d="M 109.339844 163.792969 C 108.925781 163.507812 109.296875 162.953125 110.046875 162.738281 C 111.105469 162.433594 114.761719 162.3125 115.230469 162.566406 C 115.773438 162.855469 115.789062 163.296875 115.265625 163.578125 C 114.710938 163.875 109.71875 164.058594 109.339844 163.792969 Z M 109.339844 163.792969 " fill-opacity="1" fill-rule="nonzero"/><path fill="#000000" d="M 108.683594 167.078125 C 108.269531 166.792969 108.640625 166.238281 109.390625 166.023438 C 110.449219 165.71875 114.105469 165.597656 114.574219 165.851562 C 115.117188 166.140625 115.132812 166.582031 114.609375 166.863281 C 114.054688 167.160156 109.0625 167.34375 108.683594 167.078125 Z M 108.683594 167.078125 " fill-opacity="1" fill-rule="nonzero"/><path fill="#000000" d="M 106.570312 179.339844 C 106.226562 178.78125 106.996094 178.488281 109.363281 178.289062 C 111.804688 178.082031 112.789062 178.230469 112.789062 178.804688 C 112.789062 179.210938 112.207031 179.320312 109.3125 179.460938 C 107.347656 179.554688 106.683594 179.523438 106.570312 179.339844 Z M 106.570312 179.339844 " fill-opacity="1" fill-rule="nonzero"/><path fill="#000000" d="M 118.019531 181.296875 C 118.019531 180.792969 118.546875 180.578125 120.511719 180.292969 C 124.863281 179.65625 126.71875 179.707031 126.71875 180.460938 C 126.71875 180.859375 126.425781 180.929688 123.1875 181.269531 C 119.542969 181.65625 118.019531 181.664062 118.019531 181.296875 Z M 118.019531 181.296875 " fill-opacity="1" fill-rule="nonzero"/><path fill="#000000" d="M 118 179.3125 C 118 178.808594 118.527344 178.59375 120.492188 178.308594 C 124.84375 177.671875 126.699219 177.722656 126.699219 178.480469 C 126.699219 178.878906 126.402344 178.945312 123.167969 179.289062 C 119.523438 179.671875 118 179.679688 118 179.3125 Z M 118 179.3125 " fill-opacity="1" fill-rule="nonzero"/><path fill="#000000" d="M 117.890625 177.015625 C 117.890625 176.507812 118.417969 176.296875 120.382812 176.007812 C 124.734375 175.375 126.589844 175.425781 126.589844 176.179688 C 126.589844 176.578125 126.292969 176.644531 123.058594 176.988281 C 119.414062 177.371094 117.890625 177.378906 117.890625 177.015625 Z M 117.890625 177.015625 " fill-opacity="1" fill-rule="nonzero"/><path fill="#000000" d="M 106.53125 180.800781 C 106.464844 180.628906 106.492188 180.410156 106.59375 180.308594 C 107.183594 179.71875 112.152344 179.488281 112.601562 180.03125 C 113.035156 180.554688 112.527344 180.769531 110.476562 180.9375 C 107.421875 181.183594 106.667969 181.15625 106.53125 180.800781 Z M 106.53125 180.800781 " fill-opacity="1" fill-rule="nonzero"/><path fill="#000000" d="M 106.464844 182.234375 C 106.464844 181.855469 107.28125 181.53125 108.804688 181.3125 C 110.878906 181.007812 111.894531 181.058594 112.421875 181.492188 C 112.679688 181.699219 112.828125 181.929688 112.757812 182.003906 C 112.542969 182.21875 110.0625 182.484375 108.195312 182.492188 C 106.878906 182.496094 106.464844 182.433594 106.464844 182.234375 Z M 106.464844 182.234375 " fill-opacity="1" fill-rule="nonzero"/><path fill="#000000" d="M 106.808594 185.957031 C 106.484375 185.617188 106.679688 185.113281 107.183594 184.988281 C 108.339844 184.695312 111.648438 184.515625 112.214844 184.714844 C 112.910156 184.957031 112.964844 185.414062 112.328125 185.65625 C 111.707031 185.894531 106.996094 186.148438 106.808594 185.957031 Z M 106.808594 185.957031 " fill-opacity="1" fill-rule="nonzero"/><path fill="#000000" d="M 106.910156 187.519531 C 106.453125 187.335938 106.65625 186.839844 107.304688 186.570312 C 107.65625 186.421875 108.835938 186.238281 109.925781 186.160156 C 111.738281 186.035156 111.941406 186.054688 112.394531 186.425781 C 112.75 186.714844 112.828125 186.890625 112.675781 187.046875 C 112.351562 187.382812 107.539062 187.773438 106.910156 187.519531 Z M 106.910156 187.519531 " fill-opacity="1" fill-rule="nonzero"/><path fill="#000000" d="M 106.660156 188.695312 C 106.660156 188.191406 107.722656 187.867188 109.890625 187.714844 C 111.191406 187.621094 111.652344 187.664062 112.15625 187.925781 C 113.507812 188.628906 112.859375 188.878906 109.378906 188.992188 C 106.785156 189.078125 106.660156 189.066406 106.660156 188.695312 Z M 106.660156 188.695312 " fill-opacity="1" fill-rule="nonzero"/><path fill="#000000" d="M 107.214844 190.613281 C 106.964844 190.554688 106.761719 190.378906 106.761719 190.21875 C 106.761719 189.5625 110.515625 188.976562 111.867188 189.425781 C 112.582031 189.660156 112.808594 190.070312 112.371094 190.34375 C 112.074219 190.527344 107.796875 190.753906 107.214844 190.613281 Z M 107.214844 190.613281 " fill-opacity="1" fill-rule="nonzero"/><path fill="#000000" d="M 121.886719 203.503906 C 121.15625 202.773438 121.566406 200.929688 122.457031 200.929688 C 123.480469 200.929688 123.925781 202.851562 123.066406 203.546875 C 122.515625 203.996094 122.371094 203.992188 121.886719 203.503906 Z M 122.867188 202.726562 C 123.132812 202.226562 122.929688 201.722656 122.457031 201.722656 C 122.175781 201.722656 122.082031 201.863281 122.082031 202.300781 C 122.082031 202.785156 122.179688 202.933594 122.621094 203.09375 C 122.644531 203.101562 122.753906 202.9375 122.867188 202.726562 Z M 122.867188 202.726562 " fill-opacity="1" fill-rule="nonzero"/><path fill="#000000" d="M 193.242188 204.117188 C 192.769531 203.640625 192.664062 203.367188 192.664062 202.613281 C 192.664062 201.859375 192.769531 201.585938 193.242188 201.113281 C 193.945312 200.40625 194.441406 200.382812 195.171875 201.011719 C 195.660156 201.429688 195.726562 201.628906 195.726562 202.613281 C 195.726562 203.601562 195.660156 203.796875 195.171875 204.214844 C 194.441406 204.847656 193.945312 204.820312 193.242188 204.117188 Z M 194.84375 202.996094 C 195.097656 202.328125 194.773438 201.722656 194.160156 201.722656 C 193.695312 201.722656 193.453125 202.050781 193.453125 202.691406 C 193.453125 203.558594 194.539062 203.796875 194.84375 202.996094 Z M 194.84375 202.996094 " fill-opacity="1" fill-rule="nonzero"/><path fill="#000000" d="M 194.074219 212.210938 C 191.183594 211.636719 188.714844 209.003906 187.816406 205.546875 C 187.4375 204.089844 187.441406 201.332031 187.820312 199.867188 C 188.566406 197.003906 190.324219 194.679688 192.507812 193.683594 C 193.539062 193.214844 194.023438 193.113281 195.332031 193.109375 C 196.699219 193.101562 197.070312 193.179688 198.066406 193.6875 C 200.148438 194.742188 201.960938 197.144531 202.65625 199.765625 C 203.019531 201.132812 203.019531 204.292969 202.65625 205.660156 C 201.484375 210.074219 197.730469 212.941406 194.074219 212.210938 Z M 196.417969 211.054688 C 196.800781 210.941406 196.640625 210.886719 195.714844 210.796875 C 193.398438 210.578125 191.5625 209.117188 190.332031 206.519531 C 189.6875 205.164062 189.601562 204.789062 189.53125 203.089844 C 189.355469 198.632812 191.375 195.554688 195.234375 194.40625 C 195.855469 194.21875 195.816406 194.210938 194.847656 194.304688 C 191.664062 194.625 189.28125 197.277344 188.679688 201.175781 C 188.128906 204.730469 189.664062 208.691406 192.203125 210.265625 C 193.535156 211.089844 195.203125 211.402344 196.417969 211.054688 Z M 197.933594 208.839844 C 200.433594 207.628906 201.992188 204.070312 201.359375 201.019531 C 200.496094 196.824219 197.121094 194.5625 193.945312 196.042969 C 192.761719 196.597656 191.800781 197.644531 191.101562 199.136719 C 190.640625 200.121094 190.585938 200.472656 190.585938 202.515625 C 190.585938 204.433594 190.65625 204.941406 191.015625 205.71875 C 191.574219 206.9375 192.960938 208.429688 193.949219 208.882812 C 195.050781 209.386719 196.847656 209.367188 197.933594 208.839844 Z M 197.933594 208.839844 " fill-opacity="1" fill-rule="nonzero"/><g clip-path="url(#9d0c53380a)"><path fill="#000000" d="M 178.824219 218.644531 C 178.117188 218.609375 174.558594 218.484375 170.914062 218.367188 C 157.027344 217.921875 132.472656 216.796875 119.019531 215.984375 C 111.484375 215.53125 100.96875 214.816406 100.53125 214.730469 C 99.773438 214.578125 106.398438 214.207031 115.5 213.886719 L 119.296875 213.753906 L 118.53125 213.199219 C 117.570312 212.5 116.507812 211.113281 115.753906 209.566406 C 115.109375 208.242188 114.371094 205.589844 114.371094 204.589844 C 114.371094 204.238281 114.316406 203.671875 114.25 203.332031 C 114.144531 202.804688 114.039062 202.710938 113.535156 202.710938 C 113.191406 202.710938 112.695312 202.925781 112.339844 203.226562 C 111.75 203.722656 111.667969 203.734375 109.300781 203.679688 C 106.929688 203.621094 106.855469 203.632812 106.320312 204.128906 C 105.515625 204.875 105.210938 204.929688 102.710938 204.773438 C 100.484375 204.636719 100.421875 204.621094 99.792969 203.992188 L 99.148438 203.347656 L 99.148438 201.195312 C 99.148438 199.398438 99.214844 198.941406 99.542969 198.398438 C 100 197.652344 100.617188 197.363281 101.753906 197.363281 C 102.527344 197.363281 102.550781 197.339844 102.4375 196.816406 C 100.25 186.789062 100.925781 174.359375 104.195312 164.558594 C 105.027344 162.0625 106.453125 158.9375 107.527344 157.253906 C 108.234375 156.148438 108.257812 156.058594 108.066406 155.164062 C 107.71875 153.53125 108.1875 152.632812 110.070312 151.351562 C 111.535156 150.355469 114.960938 148.714844 117.652344 147.722656 L 119.644531 146.988281 L 119.875 145.507812 C 120.472656 141.644531 122.847656 138.328125 126.90625 135.695312 C 128.917969 134.386719 141.101562 130.546875 151.835938 127.835938 C 166.3125 124.175781 172.101562 123.761719 180.136719 125.804688 C 183.808594 126.738281 187.605469 128.128906 190.527344 129.605469 L 191.714844 130.207031 L 194.214844 129.898438 C 208.585938 128.121094 216.636719 128.246094 224.988281 130.375 C 233.59375 132.570312 241.027344 136.425781 245.914062 141.238281 C 248.507812 143.789062 248.953125 144.921875 248.105469 146.816406 L 247.570312 148.011719 L 250.414062 153.859375 L 253.257812 159.710938 L 253.621094 159.214844 C 254.039062 158.640625 254.386719 158.589844 254.824219 159.027344 C 255.0625 159.265625 255.136719 159.757812 255.132812 161.058594 C 255.132812 162.007812 255.054688 162.902344 254.957031 163.054688 C 254.847656 163.230469 254.960938 163.710938 255.28125 164.414062 C 255.558594 165.011719 256.03125 166.761719 256.335938 168.304688 C 257.429688 173.796875 257.894531 179.957031 257.960938 189.832031 L 258.003906 196.273438 L 259.003906 196.375 C 260.175781 196.492188 260.9375 196.9375 261.472656 197.820312 C 261.796875 198.355469 261.855469 198.824219 261.859375 200.851562 C 261.859375 203.011719 261.8125 203.316406 261.410156 203.921875 C 260.550781 205.214844 260.304688 205.261719 252.753906 205.492188 C 249.007812 205.605469 245.515625 205.71875 244.988281 205.742188 L 244.035156 205.785156 L 243.402344 207.476562 C 242 211.210938 239.566406 213.855469 236.277344 215.210938 C 235.523438 215.523438 235.582031 215.53125 239.339844 215.660156 C 248.21875 215.957031 255.523438 216.265625 255.449219 216.339844 C 255.292969 216.492188 242.933594 217.558594 237.738281 217.863281 C 226.972656 218.5 222.292969 218.601562 201.460938 218.65625 C 189.714844 218.6875 179.53125 218.683594 178.824219 218.644531 Z M 226.867188 215.101562 C 226.867188 215.050781 226.398438 214.769531 225.828125 214.480469 C 223.648438 213.375 220.835938 209.847656 220.136719 207.34375 L 219.894531 206.476562 L 217.101562 206.476562 C 214.542969 206.476562 214.253906 206.441406 213.636719 206.03125 C 212.359375 205.191406 212.136719 205.097656 211.417969 205.09375 C 210.710938 205.089844 210.695312 205.109375 210.558594 206.019531 C 210.183594 208.542969 208.734375 211.785156 207.199219 213.542969 L 206.308594 214.5625 L 209.320312 214.679688 C 210.980469 214.742188 215.492188 214.871094 219.351562 214.960938 C 223.214844 215.054688 226.484375 215.144531 226.617188 215.164062 C 226.753906 215.183594 226.867188 215.15625 226.867188 215.101562 Z M 185.511719 213.859375 C 184.222656 212.460938 182.796875 209.394531 182.308594 206.980469 L 182.070312 205.785156 L 173.515625 205.613281 C 168.8125 205.519531 164.917969 205.488281 164.859375 205.546875 C 164.804688 205.601562 164.625 206.167969 164.457031 206.804688 C 163.816406 209.273438 162.144531 211.917969 160.585938 212.929688 C 160.09375 213.25 159.523438 213.621094 159.324219 213.75 C 159.035156 213.933594 160.503906 213.992188 166.171875 214.023438 C 172.488281 214.058594 183.769531 214.261719 185.433594 214.367188 L 186.015625 214.40625 Z M 196.527344 214.101562 C 201.785156 212.734375 205.152344 206.160156 203.832031 199.839844 C 203.414062 197.828125 202.15625 195.410156 200.734375 193.890625 C 197.316406 190.226562 192.402344 190.144531 188.792969 193.695312 C 186.566406 195.886719 185.359375 199.128906 185.351562 202.929688 C 185.34375 206.398438 186.4375 209.351562 188.539062 211.542969 C 190.863281 213.972656 193.621094 214.851562 196.527344 214.101562 Z M 152.332031 213.929688 C 152.332031 213.882812 151.945312 213.621094 151.472656 213.34375 C 149.621094 212.257812 147.367188 209.101562 147.050781 207.160156 C 146.972656 206.675781 146.855469 206.488281 146.671875 206.558594 C 146.523438 206.617188 145.625 206.816406 144.671875 207.003906 C 142.792969 207.375 137.367188 207.5 135.671875 207.210938 C 134.855469 207.070312 134.71875 207.09375 134.613281 207.40625 C 133.851562 209.679688 132.300781 212.019531 130.863281 213.050781 L 129.945312 213.710938 L 140.695312 213.8125 C 146.605469 213.871094 151.640625 213.9375 151.886719 213.960938 C 152.132812 213.988281 152.332031 213.972656 152.332031 213.929688 Z M 125.1875 211.242188 C 127.03125 210.40625 128.691406 208.03125 129.320312 205.339844 C 129.742188 203.542969 129.625 200.863281 129.089844 199.941406 C 128.480469 198.898438 128.195312 198.957031 128.523438 200.058594 C 128.9375 201.4375 128.886719 204.195312 128.414062 205.722656 C 127.128906 209.890625 123.566406 211.457031 120.839844 209.050781 C 118.238281 206.757812 117.535156 201.652344 119.332031 198.125 C 119.828125 197.144531 119.820312 197.109375 119.066406 197.261719 C 117.589844 197.558594 116.859375 199.398438 116.859375 202.8125 C 116.859375 205.085938 117.167969 206.5625 117.96875 208.136719 C 118.523438 209.230469 119.984375 210.738281 120.960938 211.222656 C 122.050781 211.761719 124.027344 211.773438 125.1875 211.242188 Z M 123.652344 208.980469 C 121.839844 208.492188 120.585938 207.023438 119.992188 204.691406 C 119.351562 202.195312 120.015625 199.140625 121.550781 197.511719 C 122.027344 197.003906 122.035156 196.964844 121.667969 196.964844 C 121.101562 196.964844 120.171875 198.070312 119.664062 199.34375 C 119.03125 200.921875 119.035156 204.3125 119.667969 205.898438 C 120.515625 208.03125 121.980469 209.25 123.664062 209.234375 L 124.554688 209.226562 Z M 125.207031 207.386719 C 126.667969 206.621094 127.460938 205.148438 127.578125 202.964844 C 127.761719 199.601562 126.316406 197.363281 123.957031 197.363281 C 122.632812 197.363281 121.621094 198.171875 120.863281 199.839844 C 119.988281 201.769531 120.378906 205.117188 121.644531 206.550781 C 122.582031 207.609375 124.101562 207.964844 125.207031 207.386719 Z M 241.1875 203.605469 C 254.125 203.328125 256.914062 203.226562 258.074219 202.988281 C 258.535156 202.894531 258.535156 202.886719 258.175781 202.484375 C 257.714844 201.972656 255.96875 201.082031 254.371094 200.542969 C 249.214844 198.800781 241.972656 198.867188 232.761719 200.734375 C 229.488281 201.398438 220.28125 203.515625 219.847656 203.703125 C 219.25 203.960938 225.683594 203.933594 241.1875 203.605469 Z M 181.789062 203.109375 L 181.789062 202.515625 L 157.964844 202.515625 C 141.832031 202.515625 134.144531 202.582031 134.144531 202.71875 C 134.144531 202.828125 134.367188 203.007812 134.644531 203.113281 C 135.078125 203.277344 155.667969 203.554688 176.105469 203.671875 L 181.789062 203.703125 Z M 211.84375 201.375 C 211.847656 200.484375 211.976562 199.753906 212.230469 199.195312 L 212.613281 198.351562 L 210.59375 198.347656 C 208.226562 198.34375 207.304688 198.023438 206.355469 196.863281 C 205.992188 196.425781 204.902344 194.125 203.710938 191.28125 C 201.558594 186.148438 200.910156 185.085938 199.683594 184.679688 C 199.171875 184.511719 197.136719 184.507812 191.691406 184.664062 C 187.675781 184.78125 183.800781 184.878906 183.085938 184.878906 L 181.789062 184.878906 L 181.785156 182.351562 C 181.785156 180.960938 181.886719 176.71875 182.007812 172.925781 C 182.128906 169.132812 182.195312 165.996094 182.15625 165.960938 C 182.085938 165.894531 171.886719 167.191406 162.019531 168.519531 C 159.136719 168.90625 153.710938 169.625 149.957031 170.117188 C 146.207031 170.609375 140.46875 171.367188 137.207031 171.804688 C 127.65625 173.074219 119.9375 174.070312 111.757812 175.089844 C 105.679688 175.84375 104.074219 176.105469 103.972656 176.347656 C 103.902344 176.515625 103.796875 179.0625 103.742188 182.003906 C 103.640625 187.710938 103.863281 190.609375 104.703125 194.488281 C 105.289062 197.183594 105.421875 197.488281 106.1875 197.941406 C 107.023438 198.4375 107.453125 199.378906 107.453125 200.726562 L 107.453125 201.722656 L 111.316406 201.722656 L 112.269531 197.867188 C 112.796875 195.746094 113.351562 193.902344 113.507812 193.773438 C 113.707031 193.605469 116.03125 193.511719 121.683594 193.441406 L 129.582031 193.34375 L 131.355469 197.035156 L 133.128906 200.730469 L 156.347656 200.730469 C 174.683594 200.730469 179.609375 200.679688 179.765625 200.484375 C 179.878906 200.347656 180.1875 199.699219 180.453125 199.046875 C 180.71875 198.394531 181.816406 195.894531 182.890625 193.496094 C 184.527344 189.839844 184.988281 188.992188 185.746094 188.226562 C 186.96875 187 187.589844 186.882812 193.355469 186.816406 C 197.738281 186.765625 198.160156 186.789062 198.882812 187.148438 C 200.691406 188.046875 201.441406 189.210938 203.5 194.289062 C 205.96875 200.378906 206.703125 202.027344 207.113281 202.367188 C 207.457031 202.648438 207.929688 202.714844 209.6875 202.714844 L 211.839844 202.714844 Z M 214.28125 197.066406 C 214.769531 196.859375 215.6875 196.769531 217.242188 196.769531 C 218.480469 196.769531 219.910156 196.710938 220.414062 196.640625 L 221.328125 196.515625 L 221.328125 193.796875 L 219.535156 193.796875 L 219.589844 192.257812 L 219.648438 190.722656 L 220.488281 190.664062 L 221.328125 190.601562 L 221.328125 187.589844 C 221.328125 183.167969 220.976562 176.550781 220.527344 172.542969 C 219.964844 167.527344 220.0625 167.832031 219.054688 167.832031 C 218.085938 167.832031 217.976562 167.640625 217.972656 165.902344 L 217.96875 164.859375 L 218.757812 164.859375 C 219.597656 164.859375 219.757812 164.613281 219.304688 164.019531 C 218.664062 163.1875 210.015625 162.9375 202.84375 163.542969 C 199.003906 163.867188 191.796875 164.652344 185.917969 165.386719 L 183.03125 165.746094 L 182.90625 168.324219 C 182.835938 169.746094 182.722656 173.867188 182.648438 177.488281 L 182.515625 184.074219 L 185.070312 183.96875 C 192.121094 183.675781 199.125 183.558594 199.734375 183.726562 C 200.621094 183.972656 201.761719 185.035156 202.398438 186.203125 C 202.679688 186.726562 203.636719 188.894531 204.519531 191.015625 C 207.1875 197.441406 207.105469 197.359375 210.976562 197.363281 C 212.835938 197.363281 213.773438 197.277344 214.28125 197.066406 Z M 230.523438 196.179688 C 235.933594 195.941406 245.34375 195.84375 251.085938 195.972656 L 255.433594 196.070312 L 255.402344 191.359375 L 255.367188 186.648438 L 254.667969 185.871094 C 252.917969 183.929688 252.933594 179.480469 254.699219 177.882812 C 255.089844 177.527344 255.085938 177.515625 254.414062 176.195312 C 253.957031 175.304688 253.691406 174.445312 253.59375 173.582031 L 253.453125 172.292969 L 252.402344 174.671875 C 251.101562 177.617188 249.910156 181.152344 248.703125 185.667969 C 247.65625 189.585938 247.59375 189.742188 247.035156 189.886719 C 246.296875 190.082031 245.890625 189.445312 245.34375 187.253906 C 243.6875 180.570312 240.847656 175.683594 236.414062 171.894531 C 233.277344 169.210938 229.402344 166.894531 225.824219 165.566406 C 223.976562 164.882812 220.328125 163.820312 220.214844 163.933594 C 220.183594 163.960938 220.332031 164.949219 220.542969 166.125 C 221.542969 171.6875 222.039062 178.441406 222.238281 189.3125 L 222.371094 196.621094 L 224.273438 196.496094 C 225.316406 196.429688 228.132812 196.285156 230.523438 196.179688 Z M 247.792969 183.289062 C 249.167969 178.03125 250.765625 173.53125 252.777344 169.25 C 253.316406 168.113281 253.753906 166.988281 253.753906 166.753906 C 253.753906 166.1875 253.050781 164.121094 252.609375 163.394531 C 252.28125 162.847656 252.039062 162.765625 247.820312 161.792969 C 245.375 161.230469 243.1875 160.667969 242.957031 160.542969 C 242.371094 160.226562 242.109375 159.785156 239.46875 154.65625 C 238.175781 152.148438 237.03125 150.007812 236.925781 149.898438 C 236.738281 149.707031 237.550781 151.621094 239.375 155.664062 C 240.421875 157.980469 240.640625 158.886719 240.308594 159.515625 C 240.089844 159.921875 239.96875 159.949219 238.855469 159.84375 C 238.1875 159.78125 236.527344 159.546875 235.167969 159.324219 C 231.351562 158.699219 228.367188 158.332031 224.542969 158.019531 C 220.066406 157.652344 218.292969 157.640625 218.4375 157.972656 C 218.492188 158.109375 218.78125 158.988281 219.074219 159.929688 L 219.605469 161.632812 L 221.179688 161.972656 C 224.96875 162.789062 229.917969 164.941406 233.484375 167.320312 C 240.511719 172.015625 244.738281 177.894531 246.648438 185.640625 C 246.765625 186.113281 246.890625 186.472656 246.925781 186.433594 C 246.960938 186.394531 247.351562 184.980469 247.792969 183.289062 Z M 255.519531 182.152344 C 255.511719 180.777344 255.445312 180.164062 255.335938 180.417969 C 255.042969 181.097656 255.144531 184.28125 255.457031 184.28125 C 255.5 184.28125 255.527344 183.324219 255.519531 182.152344 Z M 254.9375 174.066406 C 254.699219 172.578125 254.605469 172.332031 254.332031 172.5 C 254.105469 172.640625 254.300781 174.03125 254.671875 174.949219 C 255.074219 175.945312 255.179688 175.59375 254.9375 174.066406 Z M 119.414062 172.691406 C 126.417969 171.746094 154.78125 167.839844 161.820312 166.851562 C 164.050781 166.539062 169.386719 165.824219 173.683594 165.261719 C 177.980469 164.699219 181.679688 164.203125 181.910156 164.15625 C 182.269531 164.085938 182.34375 163.898438 182.429688 162.789062 C 182.496094 161.996094 182.691406 161.234375 182.953125 160.792969 C 183.199219 160.375 183.371094 159.742188 183.371094 159.25 C 183.371094 158.070312 183.894531 153.695312 184.367188 150.890625 C 184.820312 148.21875 186.003906 143.441406 186.339844 142.914062 C 186.523438 142.628906 186.546875 142.625 186.464844 142.890625 C 185.519531 145.988281 183.964844 155.984375 183.964844 158.953125 C 183.964844 159.746094 183.839844 160.292969 183.546875 160.792969 C 183.285156 161.234375 183.085938 161.996094 183.023438 162.796875 C 182.921875 164.078125 182.921875 164.089844 183.390625 163.984375 C 184.1875 163.808594 191.503906 162.921875 196.519531 162.394531 C 206.578125 161.332031 212.804688 160.980469 216.277344 161.277344 C 217.578125 161.386719 218.667969 161.449219 218.703125 161.417969 C 218.734375 161.382812 218.472656 160.515625 218.121094 159.492188 L 217.476562 157.628906 L 216.683594 157.628906 C 216.195312 157.628906 215.882812 157.722656 215.867188 157.875 C 215.855469 158.011719 215.832031 158.613281 215.820312 159.214844 C 215.796875 160.238281 215.765625 160.304688 215.300781 160.304688 C 214.820312 160.304688 214.804688 160.265625 214.804688 158.90625 L 214.804688 157.511719 L 212.484375 157.628906 C 206.785156 157.917969 200.773438 158.5 190.753906 159.742188 C 186.753906 160.234375 186.273438 160.175781 186.050781 159.164062 C 185.929688 158.605469 187.183594 149.96875 187.929688 146.242188 C 188.367188 144.050781 188.984375 142.730469 189.835938 142.152344 C 190.710938 141.5625 198.621094 139.945312 204.289062 139.203125 C 209.914062 138.460938 211.285156 138.992188 212.488281 142.367188 C 212.761719 143.132812 214.03125 146.207031 215.3125 149.207031 C 217.316406 153.898438 217.640625 154.800781 217.636719 155.695312 C 217.628906 156.320312 217.714844 156.742188 217.847656 156.753906 C 219.925781 156.910156 222.515625 157.011719 222.515625 156.933594 C 222.511719 156.878906 222.207031 156.636719 221.832031 156.394531 C 221.460938 156.152344 220.921875 155.554688 220.636719 155.066406 C 220.351562 154.578125 218.734375 150.984375 217.046875 147.085938 C 214.136719 140.367188 213.980469 139.933594 214.0625 138.953125 L 214.144531 137.914062 L 212.449219 137.367188 C 209.582031 136.441406 208.253906 136.554688 199.1875 138.484375 C 191.863281 140.046875 165.28125 145.382812 130.585938 152.261719 C 108.476562 156.644531 110.414062 156.222656 109.988281 156.765625 C 109.214844 157.753906 107.019531 162.496094 106.285156 164.761719 C 105.460938 167.304688 104.542969 171.4375 104.355469 173.464844 L 104.238281 174.703125 L 108.464844 174.152344 C 110.789062 173.847656 115.71875 173.191406 119.414062 172.691406 Z M 250.984375 161.117188 C 250.984375 160.667969 244.75 148.949219 244.382812 148.707031 C 243.644531 148.222656 235.496094 144.648438 235.386719 144.757812 C 235.058594 145.089844 236.078125 145.703125 239.242188 147.074219 C 241.1875 147.917969 243.09375 148.765625 243.472656 148.957031 C 244.089844 149.265625 244.417969 149.804688 246.511719 153.960938 C 247.800781 156.523438 248.78125 158.546875 248.6875 158.457031 C 248.589844 158.371094 247.492188 156.949219 246.242188 155.300781 C 244.988281 153.652344 243.742188 152.136719 243.46875 151.9375 C 243.03125 151.617188 242.730469 151.589844 240.949219 151.707031 L 238.925781 151.839844 L 240.714844 155.328125 C 241.699219 157.246094 242.65625 158.96875 242.839844 159.152344 C 243.03125 159.34375 244.023438 159.660156 245.152344 159.890625 C 246.242188 160.109375 247.929688 160.507812 248.910156 160.773438 C 251.046875 161.347656 250.984375 161.335938 250.984375 161.117188 Z M 189.421875 152.277344 C 189.984375 148.570312 190.507812 145.300781 190.582031 145.011719 C 190.785156 144.226562 191.453125 143.707031 192.664062 143.394531 C 194.878906 142.824219 202.339844 141.398438 202.464844 141.523438 C 202.535156 141.597656 203.191406 145.136719 203.917969 149.386719 C 204.644531 153.640625 205.277344 157.160156 205.328125 157.207031 C 205.402344 157.277344 213.800781 156.628906 214.601562 156.488281 C 214.769531 156.457031 214.324219 155.953125 213.511719 155.261719 C 212.148438 154.101562 212.136719 154.09375 212.074219 154.621094 C 212.011719 155.136719 211.976562 155.152344 210.65625 155.152344 C 208.746094 155.152344 208.675781 155.050781 208.675781 152.347656 C 208.675781 149.550781 208.753906 149.402344 210.25 149.402344 C 211.796875 149.402344 212.039062 149.65625 212.039062 151.277344 L 212.039062 152.527344 L 212.976562 153.292969 C 213.734375 153.910156 213.832031 153.953125 213.496094 153.519531 C 213.191406 153.128906 213.035156 152.550781 212.929688 151.453125 C 212.746094 149.484375 212.28125 148.9375 210.617188 148.742188 C 209.335938 148.589844 208.601562 148.800781 208.277344 149.410156 C 207.992188 149.945312 208.089844 155.039062 208.394531 155.34375 C 208.511719 155.457031 209.175781 155.660156 209.875 155.789062 L 211.148438 156.027344 L 209.46875 156.171875 C 208.542969 156.25 207.453125 156.363281 207.046875 156.425781 C 206.636719 156.492188 206.304688 156.5 206.304688 156.449219 C 206.304688 156.394531 205.726562 153.191406 205.019531 149.328125 C 204.3125 145.460938 203.734375 142.160156 203.734375 141.988281 C 203.734375 141.734375 203.972656 141.675781 204.96875 141.679688 C 206.433594 141.6875 209.023438 142.125 209.6875 142.476562 L 210.160156 142.722656 L 209.765625 142.277344 C 209.15625 141.589844 208.4375 141.296875 206.65625 141.011719 L 205.019531 140.75 L 206.71875 140.601562 C 209.023438 140.402344 209.742188 140.5625 210.480469 141.449219 C 211.101562 142.195312 212.925781 146.289062 216.339844 154.605469 C 216.617188 155.285156 216.617188 155.382812 216.320312 155.710938 C 215.878906 156.199219 215.90625 156.539062 216.382812 156.539062 C 217.039062 156.539062 217.054688 155.761719 216.425781 154.253906 C 216.109375 153.492188 214.851562 150.464844 213.636719 147.519531 C 211.046875 141.257812 211.109375 141.390625 210.484375 140.765625 C 209.800781 140.082031 209.390625 140.023438 206.234375 140.144531 C 203.257812 140.261719 201.382812 140.566406 195.726562 141.863281 C 191.554688 142.816406 190.621094 143.210938 190.113281 144.222656 C 189.621094 145.207031 189.621094 145.214844 188.613281 151.855469 C 187.609375 158.46875 187.554688 159.175781 188.058594 159.078125 C 188.34375 159.023438 188.554688 157.976562 189.421875 152.277344 Z M 239.125 158.640625 C 239.125 158.597656 237.890625 156.035156 236.386719 152.945312 C 234.882812 149.851562 233.28125 146.546875 232.828125 145.597656 C 231.820312 143.484375 231.300781 143.058594 228.941406 142.394531 C 224.441406 141.132812 215.316406 138.703125 215.074219 138.703125 C 214.925781 138.703125 214.804688 138.863281 214.804688 139.0625 C 214.804688 139.367188 215.96875 139.742188 222.566406 141.546875 C 226.832031 142.714844 230.546875 143.832031 230.816406 144.027344 C 231.320312 144.398438 235.144531 152.269531 234.925781 152.488281 C 234.863281 152.550781 233.136719 152.902344 231.089844 153.277344 C 227.109375 153.996094 226.867188 154.109375 226.867188 155.195312 C 226.867188 155.738281 227.332031 156.679688 227.75 156.980469 C 227.863281 157.0625 228.28125 157.128906 228.679688 157.128906 C 229.449219 157.132812 236.292969 158.171875 237.640625 158.492188 C 238.511719 158.695312 239.125 158.757812 239.125 158.640625 Z M 126.234375 150.214844 C 138.285156 147.828125 146.746094 146.1875 170.71875 141.59375 C 186.976562 138.476562 201.09375 135.949219 206.996094 135.09375 C 209.691406 134.707031 218.402344 134.773438 221.625 135.207031 C 227.867188 136.046875 234.382812 137.6875 238.726562 139.515625 C 241.226562 140.566406 241.128906 140.347656 238.332031 138.613281 C 231.121094 134.140625 222.601562 131.613281 212.925781 131.070312 C 203.664062 130.554688 183.816406 133.523438 160.007812 138.984375 C 144.289062 142.589844 120.945312 148.945312 116.1875 150.914062 C 113.085938 152.195312 112.875 152.695312 115.621094 152.253906 C 116.511719 152.113281 121.289062 151.195312 126.234375 150.214844 Z M 126.105469 144.558594 C 140.917969 140.191406 158.109375 136.089844 172.199219 133.554688 C 174.703125 133.105469 176.835938 132.695312 176.945312 132.644531 C 177.316406 132.476562 172.40625 132.761719 169.730469 133.066406 C 163.746094 133.746094 155.730469 135.167969 150.691406 136.4375 C 146.859375 137.398438 140.769531 139.152344 133.449219 141.398438 C 124.4375 144.164062 122.476562 144.835938 122.476562 145.160156 C 122.476562 145.578125 122.839844 145.519531 126.105469 144.558594 Z M 131.351562 141.066406 C 140.472656 138.515625 146.214844 136.925781 148.570312 136.304688 C 151.402344 135.554688 149.988281 135.65625 145.5625 136.519531 C 140.125 137.585938 136.421875 138.449219 132.042969 139.671875 C 124.601562 141.753906 122.675781 142.457031 122.675781 143.09375 C 122.675781 143.445312 123.746094 143.195312 131.351562 141.066406 Z M 126.980469 139.609375 C 134.710938 137.132812 144.6875 134.214844 152.726562 132.070312 C 159.246094 130.332031 162.660156 129.25 164.886719 128.210938 C 166.636719 127.394531 167.167969 126.9375 166.792969 126.5625 C 165.699219 125.464844 149.832031 129.242188 135.230469 134.074219 C 132.730469 134.902344 130.148438 135.824219 129.496094 136.121094 C 128.363281 136.636719 125.167969 138.972656 124.375 139.863281 C 124.003906 140.28125 124.003906 140.289062 124.429688 140.289062 C 124.664062 140.289062 125.8125 139.980469 126.980469 139.609375 Z M 126.980469 139.609375 " fill-opacity="1" fill-rule="nonzero"/></g><g clip-path="url(#79ca0346f3)"><g clip-path="url(#cf7f6e36b9)"><g clip-path="url(#77c8dd4ff6)"><g clip-path="url(#a3c4e43a02)"><path fill="#000000" d="M 116.066406 121.65625 C 113.773438 123.664062 111.671875 125.8125 109.753906 128.097656 C 110.675781 127.09375 111.632812 126.082031 112.625 125.070312 C 113.496094 124.171875 114.640625 123.035156 116.066406 121.65625 M 106.570312 123.753906 C 105.015625 125.222656 103.640625 126.617188 102.441406 127.933594 C 101.242188 129.25 100.175781 130.519531 99.234375 131.746094 C 101.367188 129.199219 103.8125 126.535156 106.570312 123.753906 M 272.953125 165.90625 L 272.925781 166.324219 L 272.925781 166.746094 L 272.957031 167.175781 L 273.027344 167.605469 L 273.140625 168.042969 L 273.296875 168.484375 L 273.5 168.9375 L 273.757812 169.398438 L 274.074219 169.871094 L 274.449219 170.355469 L 274.890625 170.851562 L 275.402344 171.363281 C 274.703125 169.742188 273.886719 167.921875 272.953125 165.90625 M 178.664062 91.363281 L 177.339844 91.40625 C 149.671875 93.320312 126.101562 104.082031 106.625 123.699219 C 127.121094 104.722656 150.40625 94.628906 176.488281 93.417969 C 190.085938 93.164062 201.714844 94.925781 211.382812 98.707031 C 225.828125 104.082031 237.4375 110.695312 246.207031 118.542969 C 252.585938 124.242188 257.359375 129.324219 260.527344 133.789062 C 252.582031 123.15625 240.753906 114.101562 225.03125 106.621094 C 207.960938 99.273438 191.390625 95.808594 175.320312 96.222656 C 153.578125 96.351562 133.835938 104.820312 116.101562 121.625 C 134.460938 106.140625 155.246094 98.945312 178.449219 100.050781 C 205.433594 101.804688 228.277344 110.894531 246.972656 127.320312 C 257.167969 136.496094 265.828125 149.355469 272.953125 165.898438 C 274.136719 161.617188 274.4375 159.058594 273.859375 158.214844 C 276.722656 166.144531 278.515625 174.40625 279.234375 183 C 281.65625 207.285156 274.65625 230.414062 258.230469 252.378906 C 285.277344 220.101562 290.015625 184.777344 272.445312 146.402344 C 262.945312 128.109375 250.75 114.875 235.851562 106.699219 C 217.214844 96.148438 198.152344 91.039062 178.664062 91.363281 M 258.199219 252.414062 L 257.515625 253.191406 C 255.460938 255.535156 253.257812 257.910156 250.898438 260.3125 L 252.503906 258.957031 L 252.851562 258.648438 C 252.953125 258.574219 253.355469 258.167969 254.0625 257.433594 C 254.652344 256.800781 255.292969 256.0625 255.992188 255.21875 L 257.070312 253.882812 L 258.199219 252.414062 M 109.71875 128.132812 L 108.042969 130 C 89.011719 152.539062 80.910156 177.503906 83.742188 204.890625 C 80.289062 193.171875 80.136719 180.828125 83.289062 167.855469 C 86.300781 154.140625 91.605469 142.117188 99.207031 131.785156 C 86.578125 147.097656 79.929688 166.460938 79.257812 189.871094 C 79.328125 194.089844 80.164062 199.355469 81.769531 205.667969 C 87.308594 223.613281 90.523438 233.128906 91.414062 234.214844 C 97.339844 246.859375 104.1875 256.621094 111.953125 263.496094 C 121.871094 272.34375 132.714844 278.894531 144.480469 283.152344 C 156.363281 287.746094 167.5625 289.8125 178.082031 289.351562 C 193.121094 288.640625 207.210938 286.023438 220.347656 281.507812 C 229.875 277.820312 240.050781 270.761719 250.878906 260.332031 C 239.644531 269.796875 229.929688 275.917969 221.742188 278.691406 C 206.398438 283.347656 192.1875 285.742188 179.105469 285.871094 C 170.921875 286.652344 159.167969 283.964844 143.847656 277.8125 C 132.652344 273.238281 123.359375 267.476562 115.964844 260.523438 C 110.050781 254.871094 105.53125 249.574219 102.40625 244.625 C 111.609375 255.144531 124.820312 265.070312 142.046875 274.402344 C 150.324219 278.753906 158.53125 281.8125 166.667969 283.582031 C 168.761719 284.003906 169.941406 284.148438 170.210938 284.007812 C 170.355469 283.953125 170.339844 283.851562 170.160156 283.699219 C 170.523438 283.941406 171.050781 283.691406 171.75 282.957031 C 172.332031 282.207031 172.707031 281.480469 172.871094 280.769531 C 162.152344 280.792969 145.460938 273.882812 122.796875 260.039062 C 109.828125 250.839844 99.964844 239.90625 93.207031 227.242188 C 86.75 212.792969 84.992188 195.492188 87.941406 175.339844 C 90.085938 159.703125 97.34375 143.964844 109.71875 128.132812 " fill-opacity="1" fill-rule="nonzero"/></g></g></g></g><g fill="#000000" fill-opacity="1"><g transform="translate(64.464653, 254.46798)"><g><path d="M 3.390625 -28.28125 L 24.9375 -28.28125 L 24.9375 -22.625 L 9.609375 -22.625 L 9.609375 -16.609375 L 23.109375 -16.609375 L 23.109375 -10.953125 L 9.609375 -10.953125 L 9.609375 0 L 3.390625 0 Z M 3.390625 -28.28125 "/></g></g></g><g fill="#000000" fill-opacity="1"><g transform="translate(90.970409, 254.46798)"><g><path d="M 13.09375 -28.484375 L 18.828125 -28.484375 L 30.953125 0 L 24.453125 0 L 21.859375 -6.34375 L 9.90625 -6.34375 L 7.3125 0 L 0.96875 0 Z M 19.640625 -11.84375 L 15.875 -21.015625 L 12.125 -11.84375 Z M 19.640625 -11.84375 "/></g></g></g><g fill="#000000" fill-opacity="1"><g transform="translate(122.890464, 254.46798)"><g><path d="M 3.390625 -28.28125 L 9.609375 -28.28125 L 9.609375 -5.65625 L 23.71875 -5.65625 L 23.71875 0 L 3.390625 0 Z M 3.390625 -28.28125 "/></g></g></g><g fill="#000000" fill-opacity="1"><g transform="translate(147.90124, 254.46798)"><g><path d="M 16.640625 0.484375 C 14.566406 0.484375 12.640625 0.109375 10.859375 -0.640625 C 9.085938 -1.398438 7.554688 -2.429688 6.265625 -3.734375 C 4.972656 -5.046875 3.960938 -6.585938 3.234375 -8.359375 C 2.503906 -10.140625 2.140625 -12.039062 2.140625 -14.0625 L 2.140625 -14.140625 C 2.140625 -16.160156 2.503906 -18.050781 3.234375 -19.8125 C 3.960938 -21.582031 4.972656 -23.132812 6.265625 -24.46875 C 7.554688 -25.800781 9.101562 -26.847656 10.90625 -27.609375 C 12.707031 -28.378906 14.703125 -28.765625 16.890625 -28.765625 C 18.210938 -28.765625 19.414062 -28.65625 20.5 -28.4375 C 21.59375 -28.226562 22.582031 -27.929688 23.46875 -27.546875 C 24.363281 -27.171875 25.1875 -26.710938 25.9375 -26.171875 C 26.695312 -25.640625 27.398438 -25.050781 28.046875 -24.40625 L 24.078125 -19.84375 C 22.972656 -20.832031 21.847656 -21.609375 20.703125 -22.171875 C 19.554688 -22.742188 18.269531 -23.03125 16.84375 -23.03125 C 15.664062 -23.03125 14.570312 -22.800781 13.5625 -22.34375 C 12.550781 -21.882812 11.679688 -21.25 10.953125 -20.4375 C 10.222656 -19.632812 9.65625 -18.703125 9.25 -17.640625 C 8.84375 -16.578125 8.640625 -15.4375 8.640625 -14.21875 L 8.640625 -14.140625 C 8.640625 -12.929688 8.84375 -11.785156 9.25 -10.703125 C 9.65625 -9.628906 10.210938 -8.6875 10.921875 -7.875 C 11.640625 -7.070312 12.503906 -6.429688 13.515625 -5.953125 C 14.523438 -5.484375 15.632812 -5.25 16.84375 -5.25 C 18.46875 -5.25 19.835938 -5.546875 20.953125 -6.140625 C 22.066406 -6.734375 23.175781 -7.539062 24.28125 -8.5625 L 28.25 -4.5625 C 27.519531 -3.78125 26.765625 -3.078125 25.984375 -2.453125 C 25.203125 -1.835938 24.34375 -1.304688 23.40625 -0.859375 C 22.476562 -0.421875 21.460938 -0.0859375 20.359375 0.140625 C 19.253906 0.367188 18.015625 0.484375 16.640625 0.484375 Z M 16.640625 0.484375 "/></g></g></g><g fill="#000000" fill-opacity="1"><g transform="translate(177.720223, 254.46798)"><g><path d="M 17.125 0.484375 C 14.945312 0.484375 12.941406 0.101562 11.109375 -0.65625 C 9.273438 -1.425781 7.691406 -2.460938 6.359375 -3.765625 C 5.023438 -5.078125 3.988281 -6.613281 3.25 -8.375 C 2.507812 -10.144531 2.140625 -12.039062 2.140625 -14.0625 L 2.140625 -14.140625 C 2.140625 -16.160156 2.515625 -18.050781 3.265625 -19.8125 C 4.023438 -21.582031 5.070312 -23.132812 6.40625 -24.46875 C 7.738281 -25.800781 9.328125 -26.847656 11.171875 -27.609375 C 13.015625 -28.378906 15.03125 -28.765625 17.21875 -28.765625 C 19.394531 -28.765625 21.398438 -28.378906 23.234375 -27.609375 C 25.066406 -26.847656 26.648438 -25.8125 27.984375 -24.5 C 29.316406 -23.195312 30.351562 -21.660156 31.09375 -19.890625 C 31.832031 -18.128906 32.203125 -16.238281 32.203125 -14.21875 L 32.203125 -14.140625 C 32.203125 -12.117188 31.820312 -10.222656 31.0625 -8.453125 C 30.3125 -6.691406 29.269531 -5.144531 27.9375 -3.8125 C 26.601562 -2.476562 25.015625 -1.425781 23.171875 -0.65625 C 21.328125 0.101562 19.3125 0.484375 17.125 0.484375 Z M 17.21875 -5.25 C 18.457031 -5.25 19.597656 -5.476562 20.640625 -5.9375 C 21.691406 -6.394531 22.585938 -7.023438 23.328125 -7.828125 C 24.078125 -8.640625 24.660156 -9.578125 25.078125 -10.640625 C 25.492188 -11.710938 25.703125 -12.851562 25.703125 -14.0625 L 25.703125 -14.140625 C 25.703125 -15.347656 25.492188 -16.488281 25.078125 -17.5625 C 24.660156 -18.644531 24.066406 -19.59375 23.296875 -20.40625 C 22.523438 -21.21875 21.613281 -21.859375 20.5625 -22.328125 C 19.507812 -22.796875 18.363281 -23.03125 17.125 -23.03125 C 15.863281 -23.03125 14.710938 -22.800781 13.671875 -22.34375 C 12.640625 -21.882812 11.753906 -21.25 11.015625 -20.4375 C 10.273438 -19.632812 9.691406 -18.703125 9.265625 -17.640625 C 8.847656 -16.578125 8.640625 -15.4375 8.640625 -14.21875 L 8.640625 -14.140625 C 8.640625 -12.929688 8.847656 -11.785156 9.265625 -10.703125 C 9.691406 -9.628906 10.285156 -8.6875 11.046875 -7.875 C 11.816406 -7.070312 12.71875 -6.429688 13.75 -5.953125 C 14.789062 -5.484375 15.945312 -5.25 17.21875 -5.25 Z M 17.21875 -5.25 "/></g></g></g><g fill="#000000" fill-opacity="1"><g transform="translate(212.064589, 254.46798)"><g><path d="M 3.390625 -28.28125 L 9.125 -28.28125 L 22.390625 -10.875 L 22.390625 -28.28125 L 28.53125 -28.28125 L 28.53125 0 L 23.234375 0 L 9.53125 -17.984375 L 9.53125 0 L 3.390625 0 Z M 3.390625 -28.28125 "/></g></g></g><g fill="#000000" fill-opacity="1"><g transform="translate(243.984644, 254.46798)"><g><path d="M 3.671875 -28.28125 L 9.90625 -28.28125 L 9.90625 0 L 3.671875 0 Z M 3.671875 -28.28125 "/></g></g></g><g fill="#000000" fill-opacity="1"><g transform="translate(257.560759, 254.46798)"><g><path d="M 3.390625 -28.28125 L 24.734375 -28.28125 L 24.734375 -22.75 L 9.578125 -22.75 L 9.578125 -17.015625 L 22.90625 -17.015625 L 22.90625 -11.46875 L 9.578125 -11.46875 L 9.578125 -5.53125 L 24.9375 -5.53125 L 24.9375 0 L 3.390625 0 Z M 3.390625 -28.28125 "/></g></g></g><g fill="#000000" fill-opacity="1"><g transform="translate(284.632195, 254.46798)"><g><path d="M 13.453125 0.40625 C 11.296875 0.40625 9.179688 0.0351562 7.109375 -0.703125 C 5.035156 -1.441406 3.148438 -2.582031 1.453125 -4.125 L 5.125 -8.53125 C 6.425781 -7.476562 7.753906 -6.640625 9.109375 -6.015625 C 10.472656 -5.398438 11.960938 -5.09375 13.578125 -5.09375 C 14.867188 -5.09375 15.867188 -5.328125 16.578125 -5.796875 C 17.296875 -6.265625 17.65625 -6.921875 17.65625 -7.765625 L 17.65625 -7.84375 C 17.65625 -8.238281 17.582031 -8.59375 17.4375 -8.90625 C 17.289062 -9.21875 17.003906 -9.507812 16.578125 -9.78125 C 16.160156 -10.050781 15.582031 -10.316406 14.84375 -10.578125 C 14.101562 -10.847656 13.140625 -11.132812 11.953125 -11.4375 C 10.523438 -11.78125 9.234375 -12.164062 8.078125 -12.59375 C 6.921875 -13.03125 5.9375 -13.566406 5.125 -14.203125 C 4.320312 -14.835938 3.695312 -15.625 3.25 -16.5625 C 2.8125 -17.507812 2.59375 -18.679688 2.59375 -20.078125 L 2.59375 -20.15625 C 2.59375 -21.457031 2.832031 -22.625 3.3125 -23.65625 C 3.800781 -24.695312 4.484375 -25.59375 5.359375 -26.34375 C 6.234375 -27.09375 7.273438 -27.671875 8.484375 -28.078125 C 9.691406 -28.484375 11.023438 -28.6875 12.484375 -28.6875 C 14.554688 -28.6875 16.460938 -28.375 18.203125 -27.75 C 19.941406 -27.132812 21.535156 -26.25 22.984375 -25.09375 L 19.765625 -20.40625 C 18.492188 -21.269531 17.25 -21.945312 16.03125 -22.4375 C 14.820312 -22.9375 13.613281 -23.1875 12.40625 -23.1875 C 11.195312 -23.1875 10.285156 -22.953125 9.671875 -22.484375 C 9.066406 -22.015625 8.765625 -21.429688 8.765625 -20.734375 L 8.765625 -20.640625 C 8.765625 -20.179688 8.851562 -19.785156 9.03125 -19.453125 C 9.207031 -19.117188 9.523438 -18.816406 9.984375 -18.546875 C 10.441406 -18.273438 11.066406 -18.019531 11.859375 -17.78125 C 12.648438 -17.539062 13.65625 -17.257812 14.875 -16.9375 C 16.300781 -16.550781 17.570312 -16.125 18.6875 -15.65625 C 19.800781 -15.1875 20.742188 -14.617188 21.515625 -13.953125 C 22.285156 -13.296875 22.863281 -12.519531 23.25 -11.625 C 23.644531 -10.738281 23.84375 -9.675781 23.84375 -8.4375 L 23.84375 -8.359375 C 23.84375 -6.960938 23.582031 -5.71875 23.0625 -4.625 C 22.550781 -3.53125 21.835938 -2.613281 20.921875 -1.875 C 20.015625 -1.132812 18.925781 -0.566406 17.65625 -0.171875 C 16.394531 0.210938 14.992188 0.40625 13.453125 0.40625 Z M 13.453125 0.40625 "/></g></g></g><g fill="#000000" fill-opacity="1"><g transform="translate(114.274526, 281.310183)"><g><path d="M 8.21875 0.21875 C 6.832031 0.21875 5.613281 -0.0625 4.5625 -0.625 C 3.507812 -1.1875 2.679688 -2.046875 2.078125 -3.203125 C 1.484375 -4.367188 1.1875 -5.816406 1.1875 -7.546875 C 1.1875 -9.265625 1.484375 -10.703125 2.078125 -11.859375 C 2.679688 -13.023438 3.507812 -13.890625 4.5625 -14.453125 C 5.613281 -15.015625 6.832031 -15.296875 8.21875 -15.296875 C 9.601562 -15.296875 10.820312 -15.015625 11.875 -14.453125 C 12.925781 -13.890625 13.75 -13.023438 14.34375 -11.859375 C 14.9375 -10.703125 15.234375 -9.265625 15.234375 -7.546875 C 15.234375 -5.816406 14.9375 -4.367188 14.34375 -3.203125 C 13.75 -2.046875 12.925781 -1.1875 11.875 -0.625 C 10.820312 -0.0625 9.601562 0.21875 8.21875 0.21875 Z M 8.21875 -2.375 C 9.5 -2.375 10.472656 -2.785156 11.140625 -3.609375 C 11.816406 -4.429688 12.15625 -5.742188 12.15625 -7.546875 C 12.15625 -9.347656 11.816406 -10.660156 11.140625 -11.484375 C 10.472656 -12.304688 9.5 -12.71875 8.21875 -12.71875 C 6.9375 -12.71875 5.957031 -12.304688 5.28125 -11.484375 C 4.601562 -10.660156 4.265625 -9.347656 4.265625 -7.546875 C 4.265625 -5.742188 4.601562 -4.429688 5.28125 -3.609375 C 5.957031 -2.785156 6.9375 -2.375 8.21875 -2.375 Z M 8.21875 -2.375 "/></g></g></g><g fill="#000000" fill-opacity="1"><g transform="translate(130.710952, 281.310183)"><g><path d="M 4.84375 0 L 1.953125 0 L 1.953125 -15.078125 L 5.375 -15.078125 L 11.421875 -5.359375 L 11.703125 -5.40625 L 11.703125 -15.078125 L 14.5625 -15.078125 L 14.5625 0 L 11.515625 0 L 5.109375 -10.375 L 4.84375 -10.328125 Z M 4.84375 0 "/></g></g></g><g fill="#000000" fill-opacity="1"><g transform="translate(147.250558, 281.310183)"><g/></g></g><g fill="#000000" fill-opacity="1"><g transform="translate(152.234112, 281.310183)"><g><path d="M 12.09375 -15.078125 L 12.09375 -12.578125 L 7.734375 -12.578125 L 7.734375 0 L 4.765625 0 L 4.765625 -12.578125 L 0.40625 -12.578125 L 0.40625 -15.078125 Z M 12.09375 -15.078125 "/></g></g></g><g fill="#000000" fill-opacity="1"><g transform="translate(164.73941, 281.310183)"><g><path d="M 11.703125 -9.40625 L 11.703125 -15.078125 L 14.671875 -15.078125 L 14.671875 0 L 11.703125 0 L 11.703125 -6.875 L 4.9375 -6.875 L 4.9375 0 L 1.953125 0 L 1.953125 -15.078125 L 4.9375 -15.078125 L 4.9375 -9.40625 Z M 11.703125 -9.40625 "/></g></g></g><g fill="#000000" fill-opacity="1"><g transform="translate(181.382195, 281.310183)"><g><path d="M 4.9375 -6.625 L 4.9375 -2.5 L 12.140625 -2.5 L 12.140625 0 L 1.953125 0 L 1.953125 -15.078125 L 11.96875 -15.078125 L 11.96875 -12.578125 L 4.9375 -12.578125 L 4.9375 -9.0625 L 11.09375 -9.0625 L 11.09375 -6.625 Z M 4.9375 -6.625 "/></g></g></g><g fill="#000000" fill-opacity="1"><g transform="translate(194.351806, 281.310183)"><g/></g></g><g fill="#000000" fill-opacity="1"><g transform="translate(199.33536, 281.310183)"><g><path d="M 1.953125 0 L 1.953125 -15.078125 L 8.015625 -15.078125 C 9.578125 -15.078125 10.753906 -14.71875 11.546875 -14 C 12.335938 -13.28125 12.734375 -12.289062 12.734375 -11.03125 C 12.734375 -10.113281 12.5 -9.363281 12.03125 -8.78125 C 11.570312 -8.195312 10.882812 -7.75 9.96875 -7.4375 L 9.96875 -7.21875 C 10.4375 -7.007812 10.816406 -6.703125 11.109375 -6.296875 C 11.398438 -5.890625 11.675781 -5.289062 11.9375 -4.5 L 13.453125 0 L 10.390625 0 L 8.90625 -4.5 C 8.757812 -4.957031 8.59375 -5.3125 8.40625 -5.5625 C 8.21875 -5.8125 7.972656 -5.992188 7.671875 -6.109375 C 7.378906 -6.222656 7.003906 -6.28125 6.546875 -6.28125 L 4.9375 -6.28125 L 4.9375 0 Z M 7.65625 -8.640625 C 9.09375 -8.640625 9.8125 -9.316406 9.8125 -10.671875 C 9.8125 -12.035156 9.09375 -12.71875 7.65625 -12.71875 L 4.9375 -12.71875 L 4.9375 -8.640625 Z M 7.65625 -8.640625 "/></g></g></g><g fill="#000000" fill-opacity="1"><g transform="translate(213.43994, 281.310183)"><g><path d="M 8.21875 0.21875 C 6.832031 0.21875 5.613281 -0.0625 4.5625 -0.625 C 3.507812 -1.1875 2.679688 -2.046875 2.078125 -3.203125 C 1.484375 -4.367188 1.1875 -5.816406 1.1875 -7.546875 C 1.1875 -9.265625 1.484375 -10.703125 2.078125 -11.859375 C 2.679688 -13.023438 3.507812 -13.890625 4.5625 -14.453125 C 5.613281 -15.015625 6.832031 -15.296875 8.21875 -15.296875 C 9.601562 -15.296875 10.820312 -15.015625 11.875 -14.453125 C 12.925781 -13.890625 13.75 -13.023438 14.34375 -11.859375 C 14.9375 -10.703125 15.234375 -9.265625 15.234375 -7.546875 C 15.234375 -5.816406 14.9375 -4.367188 14.34375 -3.203125 C 13.75 -2.046875 12.925781 -1.1875 11.875 -0.625 C 10.820312 -0.0625 9.601562 0.21875 8.21875 0.21875 Z M 8.21875 -2.375 C 9.5 -2.375 10.472656 -2.785156 11.140625 -3.609375 C 11.816406 -4.429688 12.15625 -5.742188 12.15625 -7.546875 C 12.15625 -9.347656 11.816406 -10.660156 11.140625 -11.484375 C 10.472656 -12.304688 9.5 -12.71875 8.21875 -12.71875 C 6.9375 -12.71875 5.957031 -12.304688 5.28125 -11.484375 C 4.601562 -10.660156 4.265625 -9.347656 4.265625 -7.546875 C 4.265625 -5.742188 4.601562 -4.429688 5.28125 -3.609375 C 5.957031 -2.785156 6.9375 -2.375 8.21875 -2.375 Z M 8.21875 -2.375 "/></g></g></g><g fill="#000000" fill-opacity="1"><g transform="translate(229.876367, 281.310183)"><g><path d="M 14.46875 0 L 11.34375 0 L 10.203125 -3.46875 L 4.421875 -3.46875 L 3.296875 0 L 0.234375 0 L 5.4375 -15.078125 L 9.265625 -15.078125 Z M 7.171875 -11.9375 L 5.234375 -5.984375 L 9.375 -5.984375 L 7.421875 -11.9375 Z M 7.171875 -11.9375 "/></g></g></g><g fill="#000000" fill-opacity="1"><g transform="translate(244.579385, 281.310183)"><g><path d="M 7.390625 -15.078125 C 9.835938 -15.078125 11.703125 -14.441406 12.984375 -13.171875 C 14.273438 -11.910156 14.921875 -10.035156 14.921875 -7.546875 C 14.921875 -5.054688 14.273438 -3.175781 12.984375 -1.90625 C 11.703125 -0.632812 9.835938 0 7.390625 0 L 1.953125 0 L 1.953125 -15.078125 Z M 7.203125 -2.5 C 8.765625 -2.5 9.929688 -2.894531 10.703125 -3.6875 C 11.472656 -4.488281 11.859375 -5.773438 11.859375 -7.546875 C 11.859375 -9.304688 11.472656 -10.582031 10.703125 -11.375 C 9.929688 -12.175781 8.765625 -12.578125 7.203125 -12.578125 L 4.9375 -12.578125 L 4.9375 -2.5 Z M 7.203125 -2.5 "/></g></g></g></svg>