<svg xmlns="http://www.w3.org/2000/svg" xmlns:xlink="http://www.w3.org/1999/xlink" width="300" zoomAndPan="magnify" viewBox="0 0 375 374.999991" height="300" preserveAspectRatio="xMidYMid meet" version="1.0"><defs><clipPath id="4b418c14ee"><path d="M 57.796875 145 L 296.71875 145 L 296.71875 283.242188 L 57.796875 283.242188 Z M 57.796875 145 " clip-rule="nonzero"/></clipPath><clipPath id="777ebeb37d"><path d="M 28 96 L 328 96 L 328 271 L 28 271 Z M 28 96 " clip-rule="nonzero"/></clipPath><clipPath id="74ce2dd695"><path d="M 24.027344 100.023438 L 346.550781 91.761719 L 350.929688 262.613281 L 28.40625 270.875 Z M 24.027344 100.023438 " clip-rule="nonzero"/></clipPath><clipPath id="e5643b399e"><path d="M 24.027344 100.023438 L 346.550781 91.761719 L 354.011719 382.902344 L 31.488281 391.167969 Z M 24.027344 100.023438 " clip-rule="nonzero"/></clipPath></defs><path fill="#ffffff" d="M 158.777344 200.59375 C 157.429688 199.902344 156.855469 198.753906 156.882812 196.796875 C 156.90625 194.90625 159.042969 182.414062 159.785156 179.800781 C 160.390625 177.675781 161.648438 176.332031 163.507812 175.820312 C 164.332031 175.59375 167.855469 174.851562 171.34375 174.167969 C 178.460938 172.773438 178.890625 172.792969 179.832031 174.542969 C 180.359375 175.519531 180.375 175.792969 180.0625 177.882812 C 179.875 179.136719 179.203125 183.648438 178.570312 187.90625 C 177.941406 192.167969 177.21875 196.050781 176.964844 196.535156 C 176.445312 197.546875 175.433594 198.414062 174.253906 198.867188 C 173.46875 199.167969 161.238281 200.972656 160.058594 200.960938 C 159.738281 200.957031 159.164062 200.792969 158.777344 200.59375 Z M 168.714844 189.890625 C 176.863281 188.425781 177.371094 188.296875 177.371094 187.714844 L 177.371094 187.097656 L 173.804688 187.75 C 171.847656 188.105469 168.34375 188.746094 166.023438 189.167969 C 163.703125 189.59375 161.527344 190.007812 161.1875 190.089844 C 160.578125 190.242188 160.574219 190.222656 160.953125 188.109375 C 161.957031 182.476562 162.535156 180.175781 163.089844 179.621094 C 163.503906 179.207031 165.25 178.710938 169.464844 177.808594 C 176.996094 176.199219 177.851562 176.078125 178.390625 176.527344 C 178.75 176.824219 178.824219 176.792969 178.824219 176.363281 C 178.824219 175.632812 177.976562 174.777344 177.253906 174.78125 C 176.066406 174.785156 163.941406 177.40625 163.105469 177.839844 C 162.636719 178.082031 162.058594 178.65625 161.820312 179.113281 C 161.46875 179.792969 159.332031 190.351562 159.332031 191.410156 C 159.332031 191.578125 159.496094 191.65625 159.695312 191.582031 C 159.894531 191.507812 163.953125 190.746094 168.714844 189.890625 Z M 168.714844 189.890625 " fill-opacity="1" fill-rule="nonzero"/><path fill="#ffffff" d="M 132.558594 203.910156 C 131.007812 202.359375 131.042969 201.625 133.179688 190.488281 C 134.417969 184.03125 134.984375 182.414062 136.347656 181.4375 C 137.109375 180.890625 149.097656 178.269531 150.835938 178.269531 C 152.1875 178.269531 153.222656 179.363281 153.222656 180.796875 C 153.222656 182.636719 150.3125 199.570312 149.816406 200.617188 C 148.914062 202.511719 147.898438 202.886719 141.003906 203.859375 C 137.5625 204.347656 134.445312 204.746094 134.070312 204.746094 C 133.699219 204.746094 133.019531 204.371094 132.558594 203.910156 Z M 140.894531 194.554688 C 150.847656 192.722656 150.3125 192.859375 150.3125 192.183594 C 150.3125 191.652344 150.195312 191.613281 149.222656 191.800781 C 141.542969 193.308594 135.183594 194.410156 135.183594 194.230469 C 135.183594 193.71875 136.964844 185.488281 137.222656 184.8125 C 137.589844 183.84375 137.859375 183.757812 145.074219 182.316406 C 151.058594 181.121094 151.28125 181.097656 151.664062 181.621094 C 152.046875 182.144531 152.058594 182.144531 152.058594 181.582031 C 152.058594 180.558594 151.351562 179.914062 150.277344 179.957031 C 148.605469 180.019531 137.992188 182.359375 137.269531 182.824219 C 136.289062 183.457031 135.933594 184.535156 134.925781 189.964844 C 133.945312 195.230469 133.890625 195.726562 134.277344 195.726562 C 134.417969 195.726562 137.398438 195.199219 140.894531 194.554688 Z M 140.894531 194.554688 " fill-opacity="1" fill-rule="nonzero"/><path fill="#ffffff" d="M 109.496094 207.648438 C 109.085938 207.328125 108.601562 206.605469 108.414062 206.042969 C 108.019531 204.847656 108.144531 203.957031 110.03125 194.480469 C 111.386719 187.664062 111.84375 186.496094 113.441406 185.746094 C 114.863281 185.078125 126.316406 182.828125 127.183594 183.042969 C 127.644531 183.160156 128.109375 183.613281 128.40625 184.230469 C 128.859375 185.183594 128.84375 185.460938 128.078125 189.824219 C 125.492188 204.617188 125.4375 204.828125 123.671875 205.921875 C 123.046875 206.308594 120.957031 206.738281 116.691406 207.355469 C 113.339844 207.839844 110.519531 208.234375 110.421875 208.234375 C 110.324219 208.234375 109.90625 207.972656 109.496094 207.648438 Z M 125.800781 196.90625 C 125.84375 196.898438 125.875 196.625 125.875 196.300781 C 125.875 195.84375 125.730469 195.746094 125.21875 195.863281 C 123.253906 196.308594 112.066406 198.308594 111.988281 198.230469 C 111.839844 198.082031 113.664062 189.5625 113.964844 189 C 114.289062 188.394531 114.3125 188.386719 118.746094 187.429688 C 126.191406 185.824219 126.5625 185.777344 126.964844 186.324219 C 127.292969 186.765625 127.328125 186.742188 127.328125 186.09375 C 127.328125 185.167969 126.828125 184.671875 125.890625 184.671875 C 125.050781 184.671875 116.066406 186.546875 114.570312 187.035156 C 113.835938 187.273438 113.460938 187.65625 113.066406 188.558594 C 112.605469 189.601562 110.746094 198.21875 110.746094 199.300781 C 110.746094 199.601562 112.46875 199.371094 118.238281 198.304688 C 122.359375 197.542969 125.761719 196.914062 125.800781 196.90625 Z M 125.800781 196.90625 " fill-opacity="1" fill-rule="nonzero"/><path fill="#ffffff" d="M 88.269531 210.832031 C 87.582031 210.429688 86.890625 209.027344 86.890625 208.03125 C 86.894531 207.015625 89.390625 193.917969 89.84375 192.527344 C 90.667969 190.015625 91.132812 189.792969 98.605469 188.296875 C 106.664062 186.683594 106.5 186.394531 104.359375 198.472656 C 102.816406 207.199219 102.484375 208.253906 100.996094 209.230469 C 100.546875 209.523438 98.304688 209.980469 95.109375 210.425781 C 89.339844 211.230469 88.992188 211.25 88.269531 210.832031 Z M 96.019531 201.835938 C 99.507812 201.195312 102.480469 200.671875 102.625 200.671875 C 102.773438 200.671875 102.890625 200.410156 102.890625 200.089844 C 102.890625 199.769531 102.792969 199.511719 102.671875 199.515625 C 102.550781 199.519531 99.769531 200.023438 96.492188 200.636719 C 93.210938 201.25 90.5 201.734375 90.464844 201.710938 C 90.351562 201.628906 92.117188 193.832031 92.390625 193.210938 C 92.734375 192.433594 93.4375 192.214844 99.230469 191.050781 C 103.675781 190.160156 103.878906 190.144531 104.25 190.652344 C 104.613281 191.148438 104.636719 191.148438 104.636719 190.671875 C 104.636719 190.390625 104.492188 189.890625 104.316406 189.5625 C 104.035156 189.035156 103.8125 188.984375 102.484375 189.140625 C 100.960938 189.320312 95.242188 190.515625 93.21875 191.082031 C 91.75 191.492188 91.449219 192.167969 90.375 197.507812 C 89.878906 199.96875 89.410156 202.210938 89.328125 202.492188 C 89.246094 202.769531 89.289062 203 89.425781 203 C 89.5625 203 92.527344 202.476562 96.019531 201.835938 Z M 96.019531 201.835938 " fill-opacity="1" fill-rule="nonzero"/><path fill="#ffffff" d="M 274.320312 223.632812 C 272.078125 223.171875 270.078125 221.140625 268.394531 217.609375 C 265.320312 211.171875 266.976562 204.453125 271.636719 204.453125 C 274.390625 204.453125 276.679688 206.851562 278.230469 211.359375 C 278.859375 213.191406 279.007812 214.167969 279.023438 216.527344 C 279.0625 222.035156 277.566406 224.292969 274.320312 223.632812 Z M 274.320312 223.632812 " fill-opacity="1" fill-rule="nonzero"/><path fill="#ffffff" d="M 254.730469 238.175781 C 254.066406 237.964844 253.019531 237.375 252.410156 236.859375 C 248.070312 233.207031 249.3125 225.929688 254.566406 224.210938 C 259.078125 222.738281 263.695312 226.300781 263.632812 231.207031 C 263.609375 233.070312 263.21875 234.191406 262.019531 235.804688 C 260.476562 237.894531 257.214844 238.953125 254.730469 238.175781 Z M 258.210938 236.992188 C 262.46875 235.828125 263.71875 229.539062 260.285156 226.570312 C 257.582031 224.238281 253.582031 224.941406 251.800781 228.066406 C 251.261719 229.007812 251.132812 229.589844 251.140625 231.074219 C 251.148438 233.238281 251.804688 234.710938 253.265625 235.859375 C 254.886719 237.128906 256.425781 237.480469 258.210938 236.992188 Z M 253.242188 236.773438 C 252.574219 236.5625 251.53125 235.972656 250.917969 235.457031 C 246.578125 231.800781 247.820312 224.523438 253.078125 222.808594 C 257.585938 221.332031 262.203125 224.898438 262.140625 229.804688 C 262.117188 231.664062 261.726562 232.785156 260.53125 234.402344 C 258.988281 236.488281 255.722656 237.550781 253.242188 236.773438 Z M 256.722656 235.589844 C 260.980469 234.425781 262.230469 228.132812 258.792969 225.164062 C 256.09375 222.832031 252.089844 223.539062 250.308594 226.660156 C 249.769531 227.605469 249.644531 228.1875 249.648438 229.671875 C 249.660156 231.835938 250.3125 233.304688 251.777344 234.453125 C 253.394531 235.726562 254.933594 236.078125 256.722656 235.589844 Z M 256.722656 235.589844 " fill-opacity="1" fill-rule="nonzero"/><path fill="#ffffff" d="M 184.644531 214.941406 C 184.402344 214.777344 183.742188 214.644531 183.175781 214.640625 C 181.992188 214.636719 181.445312 214.214844 181.445312 213.304688 C 181.445312 212.4375 182.0625 211.996094 183.542969 211.808594 C 184.226562 211.71875 185.144531 211.46875 185.574219 211.25 C 187.472656 210.292969 190.753906 211.214844 190.753906 212.707031 C 190.753906 213.089844 190.542969 213.578125 190.285156 213.792969 C 189.054688 214.8125 185.515625 215.53125 184.644531 214.941406 Z M 189.566406 213.011719 C 189.925781 212.660156 189.0625 212.597656 186.28125 212.777344 C 184.582031 212.886719 183.1875 213.054688 183.1875 213.152344 C 183.1875 213.34375 189.367188 213.203125 189.566406 213.011719 Z M 189.566406 213.011719 " fill-opacity="1" fill-rule="nonzero"/><path fill="#ffffff" d="M 68.851562 223.101562 C 68.242188 222.679688 68.789062 221.867188 69.890625 221.550781 C 71.449219 221.105469 76.832031 220.929688 77.523438 221.296875 C 78.320312 221.726562 78.34375 222.375 77.574219 222.785156 C 76.757812 223.222656 69.410156 223.488281 68.851562 223.101562 Z M 68.851562 223.101562 " fill-opacity="1" fill-rule="nonzero"/><path fill="#ffffff" d="M 73.59375 198.253906 C 72.984375 197.835938 73.53125 197.019531 74.632812 196.707031 C 76.191406 196.261719 81.574219 196.082031 82.265625 196.453125 C 83.0625 196.878906 83.085938 197.527344 82.316406 197.941406 C 81.5 198.375 74.152344 198.640625 73.59375 198.253906 Z M 73.59375 198.253906 " fill-opacity="1" fill-rule="nonzero"/><path fill="#ffffff" d="M 72.789062 202.597656 C 72.179688 202.175781 72.726562 201.359375 73.828125 201.046875 C 75.390625 200.601562 80.769531 200.421875 81.460938 200.792969 C 82.257812 201.21875 82.28125 201.867188 81.511719 202.28125 C 80.695312 202.714844 73.347656 202.984375 72.789062 202.597656 Z M 72.789062 202.597656 " fill-opacity="1" fill-rule="nonzero"/><path fill="#ffffff" d="M 71.824219 207.417969 C 71.214844 207 71.761719 206.183594 72.863281 205.871094 C 74.425781 205.425781 79.804688 205.246094 80.496094 205.617188 C 81.292969 206.042969 81.316406 206.691406 80.546875 207.105469 C 79.730469 207.539062 72.382812 207.804688 71.824219 207.417969 Z M 71.824219 207.417969 " fill-opacity="1" fill-rule="nonzero"/><path fill="#ffffff" d="M 68.714844 225.417969 C 68.207031 224.597656 69.339844 224.171875 72.824219 223.875 C 76.417969 223.570312 77.871094 223.789062 77.871094 224.632812 C 77.871094 225.226562 77.011719 225.386719 72.75 225.59375 C 69.863281 225.734375 68.882812 225.691406 68.714844 225.417969 Z M 68.714844 225.417969 " fill-opacity="1" fill-rule="nonzero"/><path fill="#ffffff" d="M 85.566406 228.292969 C 85.566406 227.550781 86.34375 227.238281 89.234375 226.816406 C 95.636719 225.882812 98.367188 225.957031 98.367188 227.066406 C 98.367188 227.652344 97.933594 227.75 93.171875 228.253906 C 87.808594 228.820312 85.566406 228.832031 85.566406 228.292969 Z M 85.566406 228.292969 " fill-opacity="1" fill-rule="nonzero"/><path fill="#ffffff" d="M 85.535156 225.382812 C 85.535156 224.640625 86.3125 224.328125 89.203125 223.90625 C 95.609375 222.972656 98.335938 223.046875 98.335938 224.15625 C 98.335938 224.742188 97.902344 224.839844 93.140625 225.34375 C 87.777344 225.90625 85.535156 225.917969 85.535156 225.382812 Z M 85.535156 225.382812 " fill-opacity="1" fill-rule="nonzero"/><path fill="#ffffff" d="M 85.375 222.003906 C 85.375 221.261719 86.152344 220.949219 89.042969 220.527344 C 95.449219 219.597656 98.175781 219.671875 98.175781 220.777344 C 98.175781 221.363281 97.742188 221.464844 92.980469 221.964844 C 87.617188 222.53125 85.375 222.542969 85.375 222.003906 Z M 85.375 222.003906 " fill-opacity="1" fill-rule="nonzero"/><path fill="#ffffff" d="M 68.65625 227.5625 C 68.5625 227.3125 68.601562 226.988281 68.75 226.839844 C 69.617188 225.976562 76.929688 225.636719 77.589844 226.433594 C 78.226562 227.203125 77.484375 227.519531 74.464844 227.761719 C 69.96875 228.125 68.859375 228.085938 68.660156 227.5625 Z M 68.65625 227.5625 " fill-opacity="1" fill-rule="nonzero"/><path fill="#ffffff" d="M 68.558594 229.667969 C 68.558594 229.109375 69.765625 228.636719 72.003906 228.3125 C 75.054688 227.871094 76.550781 227.945312 77.328125 228.578125 C 77.707031 228.882812 77.929688 229.222656 77.820312 229.328125 C 77.503906 229.648438 73.851562 230.035156 71.105469 230.046875 C 69.167969 230.054688 68.558594 229.964844 68.558594 229.667969 Z M 68.558594 229.667969 " fill-opacity="1" fill-rule="nonzero"/><path fill="#ffffff" d="M 69.070312 235.132812 C 68.589844 234.636719 68.875 233.894531 69.621094 233.710938 C 71.324219 233.28125 76.1875 233.019531 77.023438 233.308594 C 78.042969 233.664062 78.125 234.339844 77.191406 234.695312 C 76.273438 235.042969 69.34375 235.414062 69.070312 235.132812 Z M 69.070312 235.132812 " fill-opacity="1" fill-rule="nonzero"/><path fill="#ffffff" d="M 69.214844 237.429688 C 68.542969 237.15625 68.84375 236.429688 69.796875 236.035156 C 70.316406 235.816406 72.050781 235.546875 73.652344 235.433594 C 76.320312 235.246094 76.621094 235.277344 77.289062 235.824219 C 77.8125 236.25 77.925781 236.507812 77.703125 236.734375 C 77.222656 237.222656 70.140625 237.800781 69.214844 237.429688 Z M 69.214844 237.429688 " fill-opacity="1" fill-rule="nonzero"/><path fill="#ffffff" d="M 68.851562 239.15625 C 68.851562 238.414062 70.414062 237.9375 73.601562 237.710938 C 75.515625 237.578125 76.191406 237.640625 76.9375 238.027344 C 78.925781 239.054688 77.972656 239.421875 72.851562 239.589844 C 69.03125 239.71875 68.851562 239.699219 68.851562 239.15625 Z M 68.851562 239.15625 " fill-opacity="1" fill-rule="nonzero"/><path fill="#ffffff" d="M 69.667969 241.972656 C 69.296875 241.886719 68.996094 241.625 68.996094 241.390625 C 68.996094 240.425781 74.523438 239.566406 76.511719 240.222656 C 77.5625 240.570312 77.894531 241.175781 77.25 241.574219 C 76.8125 241.84375 70.519531 242.175781 69.667969 241.972656 Z M 69.667969 241.972656 " fill-opacity="1" fill-rule="nonzero"/><path fill="#ffffff" d="M 91.253906 260.894531 C 90.179688 259.824219 90.785156 257.113281 92.097656 257.113281 C 93.597656 257.113281 94.257812 259.9375 92.992188 260.957031 C 92.179688 261.617188 91.96875 261.609375 91.253906 260.894531 Z M 92.695312 259.753906 C 93.089844 259.019531 92.789062 258.277344 92.09375 258.277344 C 91.679688 258.277344 91.542969 258.488281 91.542969 259.125 C 91.542969 259.839844 91.691406 260.054688 92.335938 260.292969 C 92.367188 260.304688 92.53125 260.0625 92.695312 259.753906 Z M 92.695312 259.753906 " fill-opacity="1" fill-rule="nonzero"/><path fill="#ffffff" d="M 196.257812 261.792969 C 195.5625 261.09375 195.410156 260.695312 195.410156 259.585938 C 195.410156 258.476562 195.5625 258.078125 196.257812 257.382812 C 197.292969 256.347656 198.027344 256.308594 199.101562 257.234375 C 199.816406 257.851562 199.917969 258.140625 199.917969 259.585938 C 199.917969 261.035156 199.816406 261.324219 199.101562 261.941406 C 198.027344 262.863281 197.292969 262.824219 196.257812 261.792969 Z M 198.617188 260.148438 C 198.988281 259.167969 198.511719 258.277344 197.609375 258.277344 C 196.925781 258.277344 196.570312 258.757812 196.570312 259.699219 C 196.570312 260.972656 198.167969 261.324219 198.617188 260.148438 Z M 198.617188 260.148438 " fill-opacity="1" fill-rule="nonzero"/><path fill="#ffffff" d="M 197.484375 273.675781 C 193.234375 272.832031 189.601562 268.96875 188.277344 263.890625 C 187.71875 261.75 187.722656 257.703125 188.28125 255.550781 C 189.378906 251.351562 191.96875 247.941406 195.179688 246.476562 C 196.695312 245.785156 197.40625 245.640625 199.335938 245.632812 C 201.347656 245.625 201.894531 245.738281 203.359375 246.480469 C 206.421875 248.03125 209.089844 251.558594 210.113281 255.40625 C 210.648438 257.414062 210.648438 262.050781 210.113281 264.058594 C 208.390625 270.539062 202.863281 274.75 197.484375 273.675781 Z M 200.9375 271.976562 C 201.5 271.8125 201.261719 271.730469 199.898438 271.601562 C 196.492188 271.28125 193.789062 269.136719 191.976562 265.324219 C 191.03125 263.328125 190.902344 262.78125 190.800781 260.285156 C 190.539062 253.738281 193.511719 249.222656 199.191406 247.535156 C 200.105469 247.265625 200.050781 247.25 198.621094 247.390625 C 193.9375 247.855469 190.433594 251.75 189.542969 257.476562 C 188.734375 262.695312 190.996094 268.511719 194.730469 270.820312 C 196.691406 272.03125 199.148438 272.488281 200.9375 271.976562 Z M 203.164062 268.726562 C 206.839844 266.949219 209.132812 261.726562 208.207031 257.246094 C 206.9375 251.089844 201.972656 247.765625 197.296875 249.941406 C 195.554688 250.753906 194.140625 252.289062 193.109375 254.480469 C 192.433594 255.925781 192.355469 256.445312 192.355469 259.441406 C 192.355469 262.257812 192.453125 263.003906 192.980469 264.148438 C 193.808594 265.933594 195.84375 268.125 197.300781 268.789062 C 198.921875 269.527344 201.566406 269.5 203.164062 268.726562 Z M 203.164062 268.726562 " fill-opacity="1" fill-rule="nonzero"/><g clip-path="url(#4b418c14ee)"><path fill="#ffffff" d="M 175.042969 283.125 C 174.003906 283.070312 168.765625 282.886719 163.40625 282.714844 C 142.964844 282.0625 106.835938 280.40625 87.035156 279.21875 C 75.949219 278.550781 60.46875 277.503906 59.832031 277.375 C 58.714844 277.152344 68.464844 276.605469 81.855469 276.136719 L 87.441406 275.941406 L 86.320312 275.128906 C 84.902344 274.097656 83.339844 272.066406 82.230469 269.792969 C 81.28125 267.851562 80.199219 263.957031 80.199219 262.484375 C 80.199219 261.972656 80.117188 261.140625 80.015625 260.640625 C 79.859375 259.867188 79.707031 259.730469 78.96875 259.730469 C 78.457031 259.730469 77.730469 260.042969 77.207031 260.484375 C 76.335938 261.214844 76.21875 261.234375 72.734375 261.148438 C 69.242188 261.066406 69.136719 261.082031 68.351562 261.808594 C 67.164062 262.90625 66.71875 262.988281 63.039062 262.761719 C 59.761719 262.558594 59.664062 262.53125 58.742188 261.609375 L 57.796875 260.664062 L 57.796875 257.507812 C 57.796875 254.863281 57.890625 254.195312 58.378906 253.398438 C 59.046875 252.300781 59.953125 251.878906 61.628906 251.878906 C 62.765625 251.878906 62.800781 251.847656 62.632812 251.078125 C 59.414062 236.355469 60.410156 218.109375 65.222656 203.71875 C 66.445312 200.054688 68.546875 195.464844 70.125 192.996094 C 71.164062 191.371094 71.199219 191.238281 70.917969 189.925781 C 70.402344 187.527344 71.097656 186.214844 73.867188 184.332031 C 76.019531 182.867188 81.0625 180.460938 85.023438 179.003906 L 87.957031 177.925781 L 88.292969 175.753906 C 89.175781 170.078125 92.671875 165.214844 98.640625 161.347656 C 101.605469 159.425781 119.53125 153.789062 135.328125 149.804688 C 156.632812 144.4375 165.148438 143.828125 176.972656 146.828125 C 182.378906 148.195312 187.964844 150.234375 192.265625 152.40625 L 194.011719 153.289062 L 197.691406 152.835938 C 218.839844 150.230469 230.6875 150.414062 242.976562 153.535156 C 255.640625 156.757812 266.578125 162.421875 273.773438 169.480469 C 277.589844 173.226562 278.246094 174.894531 276.996094 177.675781 L 276.210938 179.425781 L 280.394531 188.015625 L 284.578125 196.601562 L 285.113281 195.871094 C 285.726562 195.03125 286.238281 194.953125 286.886719 195.601562 C 287.230469 195.949219 287.34375 196.671875 287.339844 198.582031 C 287.335938 199.972656 287.21875 201.289062 287.082031 201.507812 C 286.917969 201.765625 287.085938 202.476562 287.558594 203.507812 C 287.960938 204.386719 288.660156 206.957031 289.109375 209.21875 C 290.71875 217.285156 291.402344 226.324219 291.5 240.820312 L 291.5625 250.277344 L 293.035156 250.425781 C 294.757812 250.597656 295.875 251.253906 296.664062 252.546875 C 297.144531 253.332031 297.234375 254.019531 297.234375 257 C 297.234375 260.171875 297.167969 260.617188 296.578125 261.507812 C 295.3125 263.40625 294.949219 263.472656 283.839844 263.808594 C 278.324219 263.976562 273.183594 264.144531 272.410156 264.179688 L 271.007812 264.242188 L 270.074219 266.726562 C 268.015625 272.207031 264.429688 276.089844 259.589844 278.082031 C 258.480469 278.539062 258.566406 278.550781 264.101562 278.738281 C 277.164062 279.171875 287.910156 279.625 287.800781 279.738281 C 287.574219 279.964844 269.386719 281.527344 261.742188 281.976562 C 245.894531 282.90625 239.011719 283.058594 208.355469 283.136719 C 191.070312 283.183594 176.082031 283.175781 175.042969 283.121094 Z M 245.742188 277.921875 C 245.742188 277.84375 245.054688 277.433594 244.210938 277.007812 C 241.007812 275.382812 236.867188 270.203125 235.835938 266.527344 L 235.480469 265.261719 L 231.375 265.257812 C 227.605469 265.257812 227.183594 265.203125 226.269531 264.605469 C 224.394531 263.371094 224.0625 263.230469 223.007812 263.226562 C 221.96875 263.222656 221.945312 263.25 221.746094 264.585938 C 221.191406 268.289062 219.058594 273.050781 216.800781 275.628906 L 215.492188 277.128906 L 219.921875 277.300781 C 222.363281 277.394531 229.003906 277.582031 234.683594 277.714844 C 240.367188 277.847656 245.175781 277.980469 245.375 278.007812 C 245.578125 278.039062 245.742188 277.996094 245.742188 277.921875 Z M 184.886719 276.097656 C 182.988281 274.042969 180.890625 269.542969 180.171875 265.996094 L 179.816406 264.242188 L 167.230469 263.992188 C 160.308594 263.855469 154.578125 263.808594 154.496094 263.890625 C 154.414062 263.972656 154.148438 264.804688 153.902344 265.742188 C 152.957031 269.363281 150.5 273.246094 148.203125 274.734375 C 147.480469 275.203125 146.644531 275.746094 146.34375 275.933594 C 145.921875 276.207031 148.082031 276.292969 156.421875 276.339844 C 165.722656 276.390625 182.320312 276.683594 184.769531 276.84375 L 185.625 276.898438 Z M 201.09375 276.449219 C 208.832031 274.445312 213.789062 264.792969 211.847656 255.515625 C 211.226562 252.558594 209.378906 249.015625 207.289062 246.78125 C 202.253906 241.398438 195.027344 241.28125 189.714844 246.496094 C 186.4375 249.710938 184.660156 254.46875 184.648438 260.050781 C 184.640625 265.140625 186.246094 269.476562 189.339844 272.695312 C 192.757812 276.257812 196.816406 277.554688 201.09375 276.449219 Z M 136.058594 276.199219 C 136.058594 276.132812 135.488281 275.746094 134.792969 275.339844 C 132.070312 273.742188 128.75 269.113281 128.289062 266.261719 C 128.171875 265.554688 127.996094 265.277344 127.726562 265.378906 C 127.507812 265.464844 126.1875 265.757812 124.785156 266.035156 C 122.019531 266.578125 114.039062 266.757812 111.542969 266.332031 C 110.34375 266.128906 110.136719 266.167969 109.984375 266.625 C 108.863281 269.960938 106.578125 273.394531 104.46875 274.910156 L 103.117188 275.878906 L 118.933594 276.027344 C 127.632812 276.109375 135.042969 276.207031 135.402344 276.246094 C 135.761719 276.285156 136.058594 276.261719 136.058594 276.199219 Z M 96.113281 272.253906 C 98.824219 271.027344 101.269531 267.539062 102.195312 263.585938 C 102.8125 260.949219 102.644531 257.015625 101.855469 255.664062 C 100.960938 254.128906 100.535156 254.21875 101.023438 255.835938 C 101.632812 257.859375 101.554688 261.90625 100.859375 264.152344 C 98.972656 270.269531 93.726562 272.566406 89.714844 269.035156 C 85.890625 265.667969 84.851562 258.175781 87.492188 252.996094 C 88.230469 251.554688 88.214844 251.507812 87.109375 251.730469 C 84.933594 252.167969 83.859375 254.863281 83.859375 259.878906 C 83.859375 263.21875 84.308594 265.382812 85.488281 267.691406 C 86.308594 269.300781 88.457031 271.511719 89.894531 272.222656 C 91.496094 273.015625 94.40625 273.03125 96.113281 272.253906 Z M 93.855469 268.9375 C 91.1875 268.21875 89.34375 266.058594 88.464844 262.636719 C 87.527344 258.972656 88.503906 254.492188 90.761719 252.09375 C 91.464844 251.351562 91.476562 251.296875 90.933594 251.296875 C 90.097656 251.296875 88.730469 252.914062 87.984375 254.785156 C 87.054688 257.101562 87.058594 262.082031 87.992188 264.410156 C 89.242188 267.539062 91.394531 269.332031 93.871094 269.308594 L 95.179688 269.292969 Z M 96.140625 266.59375 C 98.292969 265.472656 99.457031 263.304688 99.632812 260.105469 C 99.902344 255.164062 97.773438 251.878906 94.304688 251.878906 C 92.351562 251.878906 90.863281 253.066406 89.75 255.515625 C 88.460938 258.347656 89.035156 263.261719 90.902344 265.363281 C 92.28125 266.917969 94.515625 267.445312 96.140625 266.59375 Z M 266.8125 261.039062 C 285.855469 260.636719 289.957031 260.488281 291.667969 260.136719 C 292.34375 260 292.34375 259.984375 291.8125 259.394531 C 291.132812 258.644531 288.566406 257.335938 286.214844 256.542969 C 278.628906 253.988281 267.972656 254.085938 254.414062 256.828125 C 249.601562 257.804688 236.046875 260.914062 235.410156 261.1875 C 234.53125 261.566406 244 261.523438 266.8125 261.039062 Z M 179.40625 260.3125 L 179.40625 259.441406 L 144.347656 259.441406 C 120.605469 259.441406 109.292969 259.539062 109.292969 259.738281 C 109.292969 259.902344 109.625 260.164062 110.027344 260.316406 C 110.667969 260.5625 140.96875 260.96875 171.042969 261.140625 L 179.40625 261.1875 Z M 223.636719 257.769531 C 223.640625 256.460938 223.828125 255.390625 224.203125 254.566406 L 224.765625 253.332031 L 221.796875 253.324219 C 218.308594 253.316406 216.957031 252.84375 215.554688 251.144531 C 215.023438 250.5 213.421875 247.125 211.667969 242.949219 C 208.496094 235.414062 207.542969 233.851562 205.738281 233.257812 C 204.988281 233.011719 201.992188 233.003906 193.980469 233.238281 C 188.066406 233.40625 182.367188 233.546875 181.316406 233.546875 L 179.40625 233.546875 L 179.402344 229.839844 C 179.402344 227.796875 179.546875 221.570312 179.726562 216.003906 C 179.90625 210.433594 180.003906 205.832031 179.945312 205.777344 C 179.84375 205.679688 164.835938 207.582031 150.3125 209.53125 C 146.070312 210.101562 138.085938 211.160156 132.566406 211.882812 C 127.042969 212.605469 118.601562 213.71875 113.800781 214.355469 C 99.746094 216.222656 88.390625 217.683594 76.347656 219.179688 C 67.40625 220.289062 65.042969 220.671875 64.890625 221.027344 C 64.789062 221.273438 64.636719 225.011719 64.558594 229.332031 C 64.402344 237.707031 64.730469 241.964844 65.972656 247.660156 C 66.832031 251.613281 67.027344 252.0625 68.152344 252.730469 C 69.386719 253.457031 70.015625 254.835938 70.015625 256.8125 L 70.015625 258.277344 L 75.703125 258.277344 L 77.105469 252.617188 C 77.878906 249.503906 78.695312 246.800781 78.921875 246.609375 C 79.21875 246.363281 82.640625 246.226562 90.960938 246.121094 L 102.582031 245.976562 L 105.1875 251.398438 L 107.796875 256.824219 L 141.964844 256.824219 C 168.949219 256.824219 176.195312 256.746094 176.429688 256.460938 C 176.59375 256.257812 177.050781 255.308594 177.441406 254.351562 C 177.832031 253.390625 179.445312 249.722656 181.027344 246.203125 C 183.4375 240.832031 184.113281 239.585938 185.234375 238.464844 C 187.027344 236.660156 187.945312 236.492188 196.425781 236.394531 C 202.878906 236.316406 203.496094 236.355469 204.5625 236.882812 C 207.222656 238.203125 208.328125 239.910156 211.355469 247.367188 C 214.984375 256.304688 216.070312 258.726562 216.675781 259.222656 C 217.179688 259.640625 217.871094 259.730469 220.460938 259.730469 L 223.628906 259.730469 L 223.632812 257.769531 Z M 227.222656 251.441406 C 227.941406 251.140625 229.292969 251.003906 231.578125 251.003906 C 233.402344 251.003906 235.5 250.921875 236.246094 250.820312 L 237.59375 250.632812 L 237.59375 246.640625 L 234.953125 246.640625 L 235.035156 244.386719 L 235.121094 242.128906 L 236.359375 242.042969 L 237.59375 241.953125 L 237.59375 237.53125 C 237.59375 231.039062 237.074219 221.324219 236.414062 215.4375 C 235.589844 208.078125 235.730469 208.527344 234.246094 208.527344 C 232.820312 208.527344 232.660156 208.242188 232.652344 205.691406 L 232.648438 204.164062 L 233.8125 204.164062 C 235.042969 204.164062 235.28125 203.796875 234.613281 202.929688 C 233.671875 201.707031 220.945312 201.335938 210.390625 202.230469 C 204.738281 202.707031 194.132812 203.855469 185.484375 204.933594 L 181.234375 205.460938 L 181.050781 209.25 C 180.949219 211.332031 180.777344 217.386719 180.671875 222.703125 L 180.476562 232.371094 L 184.234375 232.214844 C 194.613281 231.78125 204.917969 231.613281 205.816406 231.863281 C 207.121094 232.222656 208.796875 233.777344 209.734375 235.496094 C 210.152344 236.265625 211.554688 239.445312 212.855469 242.5625 C 216.78125 251.992188 216.664062 251.875 222.355469 251.875 C 225.097656 251.875 226.472656 251.753906 227.21875 251.441406 Z M 251.121094 250.140625 C 259.082031 249.789062 272.929688 249.648438 281.378906 249.835938 L 287.78125 249.976562 L 287.734375 243.0625 L 287.683594 236.148438 L 286.652344 235.003906 C 284.078125 232.15625 284.101562 225.625 286.699219 223.277344 C 287.273438 222.757812 287.269531 222.742188 286.28125 220.804688 C 285.609375 219.496094 285.214844 218.234375 285.074219 216.964844 L 284.867188 215.074219 L 283.320312 218.566406 C 281.40625 222.890625 279.65625 228.082031 277.875 234.710938 C 276.332031 240.460938 276.242188 240.691406 275.425781 240.902344 C 274.335938 241.1875 273.734375 240.253906 272.933594 237.039062 C 270.492188 227.222656 266.316406 220.054688 259.792969 214.488281 C 255.171875 210.546875 249.472656 207.152344 244.203125 205.199219 C 241.488281 204.195312 236.117188 202.632812 235.949219 202.800781 C 235.90625 202.84375 236.125 204.292969 236.4375 206.019531 C 237.910156 214.183594 238.636719 224.097656 238.929688 240.058594 L 239.125 250.792969 L 241.925781 250.609375 C 243.460938 250.507812 247.601562 250.296875 251.121094 250.140625 Z M 276.535156 231.214844 C 278.558594 223.496094 280.910156 216.890625 283.875 210.609375 C 284.664062 208.9375 285.308594 207.285156 285.308594 206.941406 C 285.308594 206.113281 284.273438 203.074219 283.625 202.007812 C 283.140625 201.207031 282.785156 201.089844 276.574219 199.660156 C 272.976562 198.835938 269.757812 198.007812 269.421875 197.828125 C 268.558594 197.359375 268.171875 196.710938 264.285156 189.179688 C 262.382812 185.5 260.703125 182.359375 260.546875 182.199219 C 260.269531 181.917969 261.464844 184.722656 264.152344 190.660156 C 265.691406 194.0625 266.011719 195.394531 265.519531 196.316406 C 265.203125 196.910156 265.023438 196.949219 263.382812 196.796875 C 262.402344 196.707031 259.960938 196.363281 257.960938 196.039062 C 252.339844 195.121094 247.949219 194.582031 242.320312 194.121094 C 235.734375 193.582031 233.128906 193.5625 233.335938 194.054688 C 233.421875 194.253906 233.84375 195.542969 234.273438 196.921875 L 235.054688 199.425781 L 237.375 199.925781 C 242.949219 201.121094 250.230469 204.28125 255.476562 207.777344 C 265.820312 214.667969 272.039062 223.296875 274.851562 234.667969 C 275.023438 235.363281 275.207031 235.886719 275.257812 235.832031 C 275.3125 235.777344 275.886719 233.699219 276.535156 231.214844 Z M 287.90625 229.546875 C 287.890625 227.53125 287.796875 226.625 287.636719 227.003906 C 287.207031 228 287.355469 232.675781 287.816406 232.675781 C 287.875 232.675781 287.917969 231.269531 287.90625 229.546875 Z M 287.050781 217.679688 C 286.703125 215.492188 286.5625 215.128906 286.160156 215.378906 C 285.828125 215.582031 286.113281 217.625 286.660156 218.972656 C 287.253906 220.433594 287.410156 219.917969 287.050781 217.679688 Z M 87.617188 215.660156 C 97.921875 214.273438 139.660156 208.535156 150.023438 207.085938 C 153.300781 206.625 161.15625 205.574219 167.480469 204.75 C 173.800781 203.925781 179.246094 203.199219 179.585938 203.132812 C 180.113281 203.027344 180.21875 202.746094 180.351562 201.121094 C 180.445312 199.953125 180.738281 198.839844 181.117188 198.191406 C 181.480469 197.574219 181.734375 196.648438 181.734375 195.925781 C 181.734375 194.195312 182.503906 187.769531 183.203125 183.652344 C 183.867188 179.730469 185.605469 172.71875 186.105469 171.941406 C 186.375 171.523438 186.40625 171.519531 186.289062 171.90625 C 184.898438 176.453125 182.605469 191.132812 182.605469 195.488281 C 182.605469 196.65625 182.425781 197.457031 181.992188 198.191406 C 181.609375 198.839844 181.316406 199.957031 181.222656 201.132812 C 181.070312 203.015625 181.078125 203.03125 181.765625 202.878906 C 182.9375 202.617188 193.699219 201.316406 201.082031 200.539062 C 215.886719 198.984375 225.046875 198.46875 230.160156 198.902344 C 232.074219 199.0625 233.679688 199.15625 233.726562 199.109375 C 233.777344 199.058594 233.390625 197.785156 232.871094 196.28125 L 231.921875 193.542969 L 230.757812 193.542969 C 230.039062 193.542969 229.578125 193.683594 229.558594 193.90625 C 229.535156 194.109375 229.503906 194.992188 229.484375 195.871094 C 229.449219 197.375 229.402344 197.472656 228.71875 197.472656 C 228.011719 197.472656 227.992188 197.414062 227.992188 195.421875 L 227.992188 193.375 L 224.574219 193.546875 C 216.1875 193.96875 207.34375 194.828125 192.597656 196.648438 C 186.710938 197.371094 186.003906 197.285156 185.679688 195.800781 C 185.496094 194.980469 187.34375 182.300781 188.441406 176.828125 C 189.085938 173.613281 189.992188 171.675781 191.25 170.828125 C 192.539062 169.960938 204.179688 167.585938 212.515625 166.492188 C 220.792969 165.410156 222.8125 166.1875 224.582031 171.140625 C 224.984375 172.261719 226.855469 176.777344 228.738281 181.179688 C 231.691406 188.066406 232.164062 189.394531 232.15625 190.707031 C 232.148438 191.625 232.277344 192.246094 232.46875 192.257812 C 235.527344 192.488281 239.339844 192.636719 239.335938 192.527344 C 239.332031 192.445312 238.882812 192.089844 238.335938 191.734375 C 237.785156 191.378906 236.992188 190.5 236.574219 189.785156 C 236.152344 189.066406 233.777344 183.792969 231.289062 178.066406 C 227.011719 168.203125 226.777344 167.570312 226.898438 166.125 L 227.023438 164.601562 L 224.527344 163.800781 C 220.304688 162.441406 218.351562 162.605469 205.007812 165.441406 C 194.230469 167.734375 155.113281 175.570312 104.054688 185.667969 C 71.519531 192.101562 74.371094 191.480469 73.746094 192.28125 C 72.609375 193.730469 69.378906 200.691406 68.296875 204.019531 C 67.082031 207.75 65.734375 213.820312 65.453125 216.792969 L 65.285156 218.609375 L 71.503906 217.804688 C 74.925781 217.359375 82.175781 216.394531 87.617188 215.660156 Z M 281.234375 198.671875 C 281.234375 198.007812 272.0625 180.800781 271.519531 180.449219 C 270.429688 179.738281 258.441406 174.488281 258.28125 174.652344 C 257.796875 175.136719 259.296875 176.035156 263.953125 178.050781 C 266.816406 179.289062 269.617188 180.535156 270.179688 180.8125 C 271.085938 181.269531 271.570312 182.0625 274.652344 188.160156 C 276.550781 191.921875 277.988281 194.894531 277.851562 194.761719 C 277.710938 194.632812 276.09375 192.546875 274.253906 190.125 C 272.410156 187.707031 270.578125 185.484375 270.175781 185.191406 C 269.53125 184.722656 269.085938 184.683594 266.464844 184.855469 L 263.488281 185.050781 L 266.121094 190.167969 C 267.570312 192.984375 268.976562 195.511719 269.25 195.78125 C 269.53125 196.066406 270.988281 196.527344 272.652344 196.867188 C 274.253906 197.191406 276.738281 197.773438 278.179688 198.160156 C 281.320312 199.003906 281.234375 198.992188 281.234375 198.671875 Z M 190.636719 185.6875 C 191.46875 180.246094 192.238281 175.449219 192.347656 175.023438 C 192.648438 173.871094 193.628906 173.109375 195.410156 172.648438 C 198.667969 171.808594 209.648438 169.71875 209.832031 169.90625 C 209.9375 170.011719 210.898438 175.203125 211.96875 181.449219 C 213.039062 187.691406 213.972656 192.855469 214.042969 192.925781 C 214.15625 193.03125 226.511719 192.078125 227.691406 191.871094 C 227.941406 191.824219 227.28125 191.085938 226.089844 190.074219 C 224.082031 188.367188 224.066406 188.359375 223.972656 189.128906 C 223.882812 189.886719 223.832031 189.90625 221.886719 189.90625 C 219.078125 189.90625 218.972656 189.761719 218.972656 185.792969 C 218.972656 181.683594 219.089844 181.46875 221.292969 181.46875 C 223.566406 181.46875 223.921875 181.839844 223.921875 184.21875 L 223.921875 186.054688 L 225.300781 187.179688 C 226.414062 188.085938 226.5625 188.152344 226.0625 187.511719 C 225.617188 186.941406 225.386719 186.089844 225.234375 184.476562 C 224.964844 181.585938 224.277344 180.789062 221.828125 180.5 C 219.945312 180.277344 218.867188 180.585938 218.386719 181.480469 C 217.96875 182.265625 218.113281 189.746094 218.558594 190.191406 C 218.726562 190.359375 219.710938 190.65625 220.738281 190.847656 L 222.609375 191.195312 L 220.136719 191.40625 C 218.777344 191.519531 217.175781 191.691406 216.574219 191.78125 C 215.972656 191.875 215.484375 191.886719 215.484375 191.8125 C 215.484375 191.734375 214.632812 187.03125 213.59375 181.359375 C 212.550781 175.683594 211.699219 170.835938 211.699219 170.582031 C 211.699219 170.210938 212.050781 170.125 213.519531 170.132812 C 215.675781 170.144531 219.484375 170.785156 220.460938 171.300781 L 221.15625 171.664062 L 220.574219 171.007812 C 219.675781 170 218.621094 169.570312 216 169.152344 L 213.59375 168.769531 L 216.089844 168.550781 C 219.484375 168.257812 220.539062 168.492188 221.628906 169.796875 C 222.542969 170.886719 225.226562 176.898438 230.25 189.109375 C 230.660156 190.105469 230.660156 190.246094 230.21875 190.730469 C 229.574219 191.445312 229.613281 191.945312 230.316406 191.945312 C 231.28125 191.945312 231.300781 190.808594 230.375 188.59375 C 229.910156 187.476562 228.0625 183.027344 226.269531 178.707031 C 222.460938 169.511719 222.550781 169.707031 221.632812 168.789062 C 220.628906 167.785156 220.027344 167.699219 215.378906 167.878906 C 210.996094 168.050781 208.238281 168.5 199.914062 170.398438 C 193.78125 171.800781 192.402344 172.378906 191.65625 173.863281 C 190.933594 175.308594 190.933594 175.320312 189.445312 185.074219 C 187.96875 194.777344 187.890625 195.816406 188.632812 195.671875 C 189.054688 195.59375 189.363281 194.054688 190.636719 185.6875 Z M 263.777344 195.03125 C 263.777344 194.96875 261.964844 191.207031 259.75 186.667969 C 257.535156 182.128906 255.179688 177.277344 254.511719 175.882812 C 253.027344 172.78125 252.265625 172.15625 248.796875 171.183594 C 242.171875 169.328125 228.746094 165.761719 228.390625 165.761719 C 228.171875 165.761719 227.992188 166 227.992188 166.289062 C 227.992188 166.738281 229.707031 167.285156 239.414062 169.933594 C 245.691406 171.648438 251.15625 173.289062 251.554688 173.578125 C 252.296875 174.121094 257.921875 185.679688 257.601562 186 C 257.511719 186.089844 254.96875 186.609375 251.953125 187.15625 C 246.101562 188.214844 245.742188 188.378906 245.742188 189.972656 C 245.742188 190.769531 246.425781 192.152344 247.042969 192.59375 C 247.207031 192.710938 247.824219 192.808594 248.410156 192.8125 C 249.542969 192.816406 259.613281 194.34375 261.597656 194.8125 C 262.878906 195.113281 263.777344 195.207031 263.777344 195.03125 Z M 97.652344 182.660156 C 115.386719 179.15625 127.839844 176.75 163.113281 170.003906 C 187.042969 165.425781 207.8125 161.714844 216.5 160.464844 C 220.464844 159.894531 233.285156 159.992188 238.03125 160.628906 C 247.214844 161.863281 256.800781 164.273438 263.195312 166.953125 C 266.871094 168.496094 266.730469 168.175781 262.613281 165.628906 C 252 159.0625 239.464844 155.351562 225.230469 154.558594 C 211.601562 153.796875 182.386719 158.15625 147.355469 166.175781 C 124.226562 171.46875 89.871094 180.800781 82.867188 183.6875 C 78.300781 185.570312 77.992188 186.304688 82.035156 185.65625 C 83.34375 185.445312 90.375 184.097656 97.652344 182.660156 Z M 97.464844 174.355469 C 119.261719 167.949219 144.558594 161.925781 165.296875 158.203125 C 168.976562 157.542969 172.117188 156.945312 172.277344 156.871094 C 172.824219 156.617188 165.601562 157.039062 161.660156 157.484375 C 152.855469 158.488281 141.0625 160.570312 133.640625 162.433594 C 128.003906 163.847656 119.046875 166.421875 108.273438 169.71875 C 95.007812 173.777344 92.125 174.761719 92.125 175.238281 C 92.125 175.855469 92.65625 175.769531 97.464844 174.355469 Z M 105.179688 169.234375 C 118.609375 165.484375 127.054688 163.15625 130.523438 162.238281 C 134.691406 161.136719 132.605469 161.289062 126.097656 162.558594 C 118.09375 164.121094 112.644531 165.386719 106.203125 167.1875 C 95.25 170.242188 92.417969 171.273438 92.417969 172.207031 C 92.417969 172.722656 93.992188 172.355469 105.179688 169.234375 Z M 98.75 167.089844 C 110.128906 163.457031 124.808594 159.171875 136.640625 156.023438 C 146.234375 153.476562 151.257812 151.882812 154.53125 150.359375 C 157.109375 149.160156 157.886719 148.488281 157.335938 147.9375 C 155.730469 146.328125 132.378906 151.875 110.890625 158.96875 C 107.210938 160.183594 103.414062 161.535156 102.453125 161.96875 C 100.785156 162.726562 96.085938 166.15625 94.917969 167.464844 C 94.371094 168.078125 94.371094 168.085938 94.996094 168.085938 C 95.34375 168.085938 97.03125 167.640625 98.75 167.089844 Z M 98.75 167.089844 " fill-opacity="1" fill-rule="nonzero"/></g><g clip-path="url(#777ebeb37d)"><g clip-path="url(#74ce2dd695)"><g clip-path="url(#e5643b399e)"><path fill="#ffffff" d="M 82.640625 140.613281 C 79.273438 143.554688 76.183594 146.699219 73.371094 150.042969 C 74.722656 148.570312 76.128906 147.09375 77.582031 145.609375 C 78.859375 144.296875 80.546875 142.632812 82.640625 140.613281 M 68.695312 143.683594 C 66.414062 145.835938 64.390625 147.875 62.632812 149.804688 C 60.871094 151.730469 59.304688 153.59375 57.925781 155.382812 C 61.054688 151.660156 64.644531 147.757812 68.695312 143.683594 M 312.988281 205.367188 L 312.949219 205.984375 L 312.949219 206.601562 L 313 207.222656 L 313.101562 207.855469 L 313.265625 208.492188 L 313.496094 209.144531 L 313.796875 209.804688 L 314.175781 210.480469 L 314.636719 211.171875 L 315.1875 211.882812 L 315.835938 212.609375 L 316.582031 213.359375 C 315.558594 210.980469 314.359375 208.316406 312.988281 205.367188 M 174.554688 96.261719 L 172.609375 96.328125 C 131.984375 99.128906 97.371094 114.890625 68.777344 143.609375 C 98.871094 115.828125 133.0625 101.050781 171.359375 99.273438 C 191.324219 98.898438 208.402344 101.476562 222.59375 107.007812 C 243.804688 114.878906 260.851562 124.554688 273.722656 136.039062 C 283.089844 144.382812 290.097656 151.824219 294.75 158.359375 C 283.085938 142.796875 265.714844 129.539062 242.636719 118.589844 C 217.570312 107.839844 193.238281 102.769531 169.644531 103.378906 C 137.71875 103.566406 108.734375 115.964844 82.691406 140.570312 C 109.648438 117.898438 140.164062 107.367188 174.238281 108.976562 C 213.859375 111.542969 247.398438 124.847656 274.851562 148.886719 C 289.816406 162.320312 302.527344 181.140625 312.992188 205.355469 C 314.726562 199.089844 315.171875 195.34375 314.320312 194.109375 C 318.523438 205.714844 321.15625 217.808594 322.207031 230.386719 C 325.761719 265.941406 315.480469 299.796875 291.363281 331.949219 C 331.078125 284.699219 338.039062 232.988281 312.246094 176.816406 C 298.300781 150.042969 280.390625 130.675781 258.519531 118.707031 C 231.15625 103.265625 203.167969 95.785156 174.554688 96.261719 M 291.316406 332.003906 L 290.3125 333.136719 C 287.296875 336.570312 284.058594 340.046875 280.597656 343.566406 L 282.953125 341.582031 L 283.464844 341.125 C 283.613281 341.019531 284.203125 340.425781 285.242188 339.347656 C 286.105469 338.425781 287.050781 337.34375 288.078125 336.105469 L 289.65625 334.152344 L 291.316406 332.003906 M 73.320312 150.097656 L 70.855469 152.828125 C 42.90625 185.824219 31.011719 222.367188 35.164062 262.457031 C 30.097656 245.304688 29.875 227.234375 34.503906 208.242188 C 38.929688 188.164062 46.71875 170.566406 57.878906 155.441406 C 39.335938 177.859375 29.570312 206.199219 28.582031 240.46875 C 28.683594 246.644531 29.914062 254.351562 32.269531 263.59375 C 40.402344 289.859375 45.121094 303.789062 46.429688 305.382812 C 55.128906 323.886719 65.179688 338.175781 76.578125 348.242188 C 91.144531 361.1875 107.066406 370.777344 124.34375 377.007812 C 141.789062 383.734375 158.234375 386.757812 173.675781 386.082031 C 195.761719 385.035156 216.449219 381.207031 235.734375 374.59375 C 249.726562 369.195312 264.667969 358.863281 280.566406 343.59375 C 264.070312 357.449219 249.804688 366.410156 237.78125 370.46875 C 215.253906 377.289062 194.386719 380.792969 175.183594 380.984375 C 163.164062 382.128906 145.90625 378.199219 123.410156 369.191406 C 106.976562 362.496094 93.328125 354.0625 82.46875 343.886719 C 73.789062 335.617188 67.152344 327.859375 62.566406 320.617188 C 76.074219 336.011719 95.476562 350.542969 120.769531 364.199219 C 132.917969 370.570312 144.96875 375.046875 156.921875 377.636719 C 159.992188 378.253906 161.726562 378.460938 162.117188 378.257812 C 162.332031 378.179688 162.308594 378.03125 162.046875 377.808594 C 162.578125 378.160156 163.355469 377.796875 164.378906 376.71875 C 165.230469 375.625 165.78125 374.558594 166.027344 373.515625 C 150.289062 373.550781 125.78125 363.4375 92.503906 343.179688 C 73.464844 329.710938 58.984375 313.710938 49.0625 295.171875 C 39.578125 274.027344 37.003906 248.699219 41.332031 219.199219 C 44.484375 196.308594 55.144531 173.273438 73.320312 150.097656 " fill-opacity="1" fill-rule="nonzero"/></g></g></g></svg>