<svg xmlns="http://www.w3.org/2000/svg" xmlns:xlink="http://www.w3.org/1999/xlink" width="500" zoomAndPan="magnify" viewBox="0 0 375 374.999991" height="500" preserveAspectRatio="xMidYMid meet" version="1.0"><defs><clipPath id="9d434c8b18"><path d="M 47.835938 141 L 305.835938 141 L 305.835938 290.363281 L 47.835938 290.363281 Z M 47.835938 141 " clip-rule="nonzero"/></clipPath><clipPath id="9dab6b4c3d"><path d="M 16 89 L 339 89 L 339 277 L 16 277 Z M 16 89 " clip-rule="nonzero"/></clipPath><clipPath id="1af3d9ff3f"><path d="M 11.476562 93.308594 L 358.613281 84.414062 L 363.316406 268.101562 L 16.183594 276.996094 Z M 11.476562 93.308594 " clip-rule="nonzero"/></clipPath><clipPath id="5e12d6ec1e"><path d="M 11.476562 93.308594 L 358.613281 84.414062 L 366.621094 397.0625 L 19.484375 405.953125 Z M 11.476562 93.308594 " clip-rule="nonzero"/></clipPath><clipPath id="89719e512d"><path d="M 99 213 L 164 213 L 164 257 L 99 257 Z M 99 213 " clip-rule="nonzero"/></clipPath><clipPath id="a9ec92fd4d"><path d="M 97.847656 237.484375 L 149.148438 195.960938 L 178.40625 232.101562 L 127.105469 273.628906 Z M 97.847656 237.484375 " clip-rule="nonzero"/></clipPath><clipPath id="078bb06a9a"><path d="M 97.847656 237.484375 L 149.148438 195.960938 L 178.40625 232.101562 L 127.105469 273.628906 Z M 97.847656 237.484375 " clip-rule="nonzero"/></clipPath></defs><path fill="#ffffff" d="M 156.578125 201.597656 C 155.128906 200.851562 154.507812 199.613281 154.535156 197.503906 C 154.5625 195.472656 156.859375 182.019531 157.664062 179.203125 C 158.316406 176.914062 159.667969 175.46875 161.671875 174.917969 C 162.558594 174.675781 166.355469 173.875 170.109375 173.140625 C 177.773438 171.640625 178.238281 171.660156 179.25 173.542969 C 179.816406 174.59375 179.835938 174.890625 179.496094 177.140625 C 179.292969 178.488281 178.574219 183.347656 177.894531 187.933594 C 177.210938 192.519531 176.433594 196.703125 176.164062 197.226562 C 175.601562 198.316406 174.511719 199.25 173.242188 199.734375 C 172.398438 200.058594 159.226562 202.003906 157.957031 201.992188 C 157.613281 201.988281 156.992188 201.808594 156.578125 201.597656 Z M 167.277344 190.070312 C 176.054688 188.492188 176.597656 188.355469 176.597656 187.726562 L 176.597656 187.0625 L 172.761719 187.761719 C 170.648438 188.148438 166.878906 188.839844 164.378906 189.292969 C 161.882812 189.75 159.539062 190.195312 159.175781 190.285156 C 158.515625 190.449219 158.515625 190.429688 158.917969 188.152344 C 160 182.085938 160.625 179.605469 161.21875 179.011719 C 161.667969 178.5625 163.546875 178.03125 168.085938 177.058594 C 176.195312 175.328125 177.117188 175.195312 177.699219 175.679688 C 178.082031 176 178.164062 175.96875 178.164062 175.503906 C 178.164062 174.714844 177.253906 173.796875 176.472656 173.800781 C 175.195312 173.804688 162.140625 176.625 161.234375 177.09375 C 160.730469 177.355469 160.109375 177.972656 159.855469 178.464844 C 159.476562 179.195312 157.175781 190.566406 157.175781 191.707031 C 157.175781 191.886719 157.351562 191.96875 157.566406 191.890625 C 157.78125 191.8125 162.152344 190.992188 167.277344 190.070312 Z M 167.277344 190.070312 " fill-opacity="1" fill-rule="nonzero"/><path fill="#ffffff" d="M 128.34375 205.167969 C 126.671875 203.496094 126.710938 202.707031 129.011719 190.714844 C 130.347656 183.761719 130.957031 182.019531 132.425781 180.96875 C 133.246094 180.378906 146.152344 177.558594 148.027344 177.558594 C 149.480469 177.558594 150.597656 178.734375 150.597656 180.277344 C 150.597656 182.257812 147.460938 200.492188 146.925781 201.621094 C 145.957031 203.660156 144.863281 204.0625 137.4375 205.113281 C 133.734375 205.636719 130.375 206.066406 129.972656 206.066406 C 129.570312 206.066406 128.839844 205.660156 128.34375 205.167969 Z M 137.324219 195.09375 C 148.039062 193.121094 147.464844 193.265625 147.464844 192.539062 C 147.464844 191.96875 147.335938 191.921875 146.289062 192.128906 C 138.015625 193.753906 131.171875 194.9375 131.171875 194.742188 C 131.171875 194.191406 133.089844 185.328125 133.367188 184.601562 C 133.761719 183.558594 134.050781 183.464844 141.820312 181.914062 C 148.261719 180.625 148.503906 180.601562 148.914062 181.164062 C 149.328125 181.730469 149.34375 181.730469 149.34375 181.121094 C 149.34375 180.023438 148.582031 179.328125 147.425781 179.371094 C 145.625 179.441406 134.195312 181.960938 133.417969 182.460938 C 132.359375 183.140625 131.976562 184.300781 130.890625 190.152344 C 129.835938 195.820312 129.777344 196.355469 130.195312 196.355469 C 130.347656 196.355469 133.554688 195.785156 137.324219 195.09375 Z M 137.324219 195.09375 " fill-opacity="1" fill-rule="nonzero"/><path fill="#ffffff" d="M 103.511719 209.195312 C 103.070312 208.847656 102.542969 208.066406 102.34375 207.464844 C 101.921875 206.175781 102.054688 205.21875 104.085938 195.011719 C 105.546875 187.671875 106.035156 186.414062 107.757812 185.605469 C 109.289062 184.886719 121.621094 182.464844 122.558594 182.699219 C 123.054688 182.824219 123.554688 183.308594 123.871094 183.976562 C 124.359375 185 124.34375 185.300781 123.519531 190 C 120.738281 205.929688 120.675781 206.15625 118.777344 207.332031 C 118.101562 207.75 115.851562 208.210938 111.257812 208.875 C 107.648438 209.398438 104.613281 209.824219 104.507812 209.824219 C 104.398438 209.824219 103.953125 209.542969 103.511719 209.195312 Z M 121.066406 197.625 C 121.113281 197.613281 121.148438 197.324219 121.148438 196.976562 C 121.148438 196.480469 120.992188 196.378906 120.441406 196.5 C 118.328125 196.980469 106.28125 199.136719 106.195312 199.050781 C 106.035156 198.890625 107.996094 189.714844 108.320312 189.113281 C 108.671875 188.457031 108.699219 188.449219 113.472656 187.421875 C 121.488281 185.691406 121.886719 185.640625 122.320312 186.230469 C 122.671875 186.707031 122.714844 186.679688 122.714844 185.980469 C 122.714844 184.984375 122.171875 184.449219 121.160156 184.449219 C 120.257812 184.449219 110.585938 186.472656 108.972656 186.996094 C 108.183594 187.253906 107.78125 187.664062 107.351562 188.636719 C 106.859375 189.761719 104.855469 199.039062 104.855469 200.203125 C 104.855469 200.527344 106.710938 200.28125 112.921875 199.132812 C 117.359375 198.3125 121.023438 197.632812 121.066406 197.625 Z M 121.066406 197.625 " fill-opacity="1" fill-rule="nonzero"/><path fill="#ffffff" d="M 80.652344 212.621094 C 79.910156 212.1875 79.164062 210.675781 79.167969 209.605469 C 79.171875 208.511719 81.855469 194.40625 82.347656 192.910156 C 83.234375 190.207031 83.738281 189.964844 91.78125 188.351562 C 100.457031 186.617188 100.28125 186.304688 97.980469 199.3125 C 96.316406 208.707031 95.960938 209.84375 94.355469 210.898438 C 93.875 211.210938 91.460938 211.703125 88.015625 212.183594 C 81.800781 213.050781 81.429688 213.070312 80.652344 212.621094 Z M 88.996094 202.933594 C 92.753906 202.246094 95.957031 201.679688 96.113281 201.679688 C 96.269531 201.679688 96.398438 201.398438 96.398438 201.054688 C 96.398438 200.710938 96.289062 200.429688 96.160156 200.433594 C 96.03125 200.441406 93.035156 200.984375 89.503906 201.644531 C 85.972656 202.304688 83.050781 202.824219 83.015625 202.796875 C 82.890625 202.707031 84.792969 194.3125 85.089844 193.644531 C 85.460938 192.808594 86.214844 192.570312 92.453125 191.320312 C 97.242188 190.359375 97.457031 190.34375 97.859375 190.890625 C 98.25 191.425781 98.277344 191.425781 98.277344 190.910156 C 98.277344 190.609375 98.121094 190.070312 97.929688 189.714844 C 97.628906 189.148438 97.390625 189.09375 95.957031 189.261719 C 94.316406 189.453125 88.164062 190.746094 85.980469 191.351562 C 84.398438 191.792969 84.078125 192.523438 82.917969 198.273438 C 82.386719 200.921875 81.878906 203.335938 81.789062 203.636719 C 81.703125 203.941406 81.75 204.1875 81.898438 204.1875 C 82.042969 204.1875 85.238281 203.621094 88.996094 202.933594 Z M 88.996094 202.933594 " fill-opacity="1" fill-rule="nonzero"/><path fill="#ffffff" d="M 280.996094 226.402344 C 278.585938 225.910156 276.429688 223.722656 274.617188 219.917969 C 271.308594 212.984375 273.089844 205.753906 278.109375 205.753906 C 281.074219 205.753906 283.539062 208.335938 285.207031 213.1875 C 285.886719 215.160156 286.046875 216.214844 286.0625 218.753906 C 286.105469 224.683594 284.492188 227.117188 280.996094 226.402344 Z M 280.996094 226.402344 " fill-opacity="1" fill-rule="nonzero"/><path fill="#ffffff" d="M 259.902344 242.066406 C 259.1875 241.839844 258.0625 241.203125 257.40625 240.648438 C 252.730469 236.714844 254.066406 228.875 259.726562 227.027344 C 264.582031 225.441406 269.554688 229.277344 269.488281 234.5625 C 269.464844 236.566406 269.042969 237.773438 267.753906 239.515625 C 266.09375 241.761719 262.578125 242.902344 259.902344 242.066406 Z M 263.652344 240.792969 C 268.238281 239.535156 269.582031 232.761719 265.882812 229.566406 C 262.976562 227.054688 258.667969 227.816406 256.75 231.175781 C 256.167969 232.195312 256.03125 232.820312 256.039062 234.417969 C 256.046875 236.75 256.75 238.332031 258.328125 239.570312 C 260.070312 240.9375 261.726562 241.320312 263.652344 240.792969 Z M 258.296875 240.554688 C 257.582031 240.328125 256.457031 239.691406 255.796875 239.136719 C 251.125 235.203125 252.460938 227.367188 258.121094 225.515625 C 262.976562 223.929688 267.949219 227.765625 267.882812 233.050781 C 267.859375 235.054688 267.4375 236.261719 266.148438 238.003906 C 264.488281 240.25 260.972656 241.390625 258.296875 240.554688 Z M 262.046875 239.28125 C 266.632812 238.023438 267.976562 231.253906 264.277344 228.054688 C 261.367188 225.542969 257.058594 226.304688 255.144531 229.664062 C 254.5625 230.683594 254.425781 231.308594 254.433594 232.90625 C 254.441406 235.238281 255.144531 236.820312 256.722656 238.058594 C 258.464844 239.425781 260.121094 239.808594 262.046875 239.28125 Z M 262.046875 239.28125 " fill-opacity="1" fill-rule="nonzero"/><path fill="#ffffff" d="M 184.429688 217.046875 C 184.171875 216.871094 183.460938 216.726562 182.847656 216.722656 C 181.574219 216.71875 180.984375 216.261719 180.984375 215.285156 C 180.984375 214.351562 181.652344 213.875 183.242188 213.671875 C 183.984375 213.578125 184.96875 213.308594 185.433594 213.070312 C 187.480469 212.039062 191.011719 213.03125 191.011719 214.640625 C 191.011719 215.050781 190.78125 215.578125 190.503906 215.808594 C 189.183594 216.90625 185.371094 217.683594 184.429688 217.046875 Z M 189.730469 214.964844 C 190.117188 214.585938 189.191406 214.523438 186.195312 214.714844 C 184.363281 214.832031 182.863281 215.015625 182.863281 215.121094 C 182.863281 215.324219 189.515625 215.175781 189.730469 214.964844 Z M 189.730469 214.964844 " fill-opacity="1" fill-rule="nonzero"/><path fill="#ffffff" d="M 59.742188 225.832031 C 59.085938 225.378906 59.675781 224.503906 60.863281 224.164062 C 62.542969 223.683594 68.335938 223.492188 69.078125 223.890625 C 69.9375 224.351562 69.964844 225.050781 69.136719 225.492188 C 68.257812 225.964844 60.34375 226.25 59.742188 225.832031 Z M 59.742188 225.832031 " fill-opacity="1" fill-rule="nonzero"/><path fill="#ffffff" d="M 64.847656 199.078125 C 64.191406 198.625 64.78125 197.746094 65.96875 197.410156 C 67.648438 196.929688 73.441406 196.738281 74.183594 197.136719 C 75.042969 197.59375 75.070312 198.292969 74.242188 198.738281 C 73.363281 199.207031 65.449219 199.496094 64.847656 199.078125 Z M 64.847656 199.078125 " fill-opacity="1" fill-rule="nonzero"/><path fill="#ffffff" d="M 63.980469 203.753906 C 63.328125 203.300781 63.917969 202.421875 65.101562 202.082031 C 66.78125 201.605469 72.574219 201.410156 73.320312 201.808594 C 74.179688 202.269531 74.203125 202.96875 73.375 203.410156 C 72.496094 203.882812 64.582031 204.167969 63.980469 203.753906 Z M 63.980469 203.753906 " fill-opacity="1" fill-rule="nonzero"/><path fill="#ffffff" d="M 62.945312 208.945312 C 62.289062 208.492188 62.878906 207.617188 64.0625 207.277344 C 65.742188 206.796875 71.535156 206.605469 72.28125 207.003906 C 73.140625 207.464844 73.164062 208.164062 72.335938 208.605469 C 71.457031 209.074219 63.542969 209.363281 62.945312 208.945312 Z M 62.945312 208.945312 " fill-opacity="1" fill-rule="nonzero"/><path fill="#ffffff" d="M 59.59375 228.324219 C 59.050781 227.441406 60.269531 226.984375 64.019531 226.667969 C 67.890625 226.339844 69.453125 226.574219 69.453125 227.484375 C 69.453125 228.121094 68.53125 228.296875 63.941406 228.515625 C 60.828125 228.667969 59.777344 228.621094 59.59375 228.324219 Z M 59.59375 228.324219 " fill-opacity="1" fill-rule="nonzero"/><path fill="#ffffff" d="M 77.738281 231.421875 C 77.738281 230.625 78.578125 230.289062 81.691406 229.832031 C 88.585938 228.828125 91.523438 228.910156 91.523438 230.101562 C 91.523438 230.734375 91.058594 230.839844 85.929688 231.378906 C 80.15625 231.988281 77.738281 232.003906 77.738281 231.421875 Z M 77.738281 231.421875 " fill-opacity="1" fill-rule="nonzero"/><path fill="#ffffff" d="M 77.707031 228.289062 C 77.707031 227.488281 78.542969 227.152344 81.65625 226.699219 C 88.554688 225.695312 91.492188 225.773438 91.492188 226.96875 C 91.492188 227.597656 91.023438 227.703125 85.898438 228.246094 C 80.121094 228.855469 77.707031 228.867188 77.707031 228.289062 Z M 77.707031 228.289062 " fill-opacity="1" fill-rule="nonzero"/><path fill="#ffffff" d="M 77.535156 224.652344 C 77.535156 223.851562 78.371094 223.515625 81.484375 223.0625 C 88.382812 222.058594 91.320312 222.136719 91.320312 223.332031 C 91.320312 223.960938 90.851562 224.070312 85.726562 224.609375 C 79.949219 225.21875 77.535156 225.230469 77.535156 224.652344 Z M 77.535156 224.652344 " fill-opacity="1" fill-rule="nonzero"/><path fill="#ffffff" d="M 59.535156 230.636719 C 59.429688 230.367188 59.476562 230.019531 59.632812 229.859375 C 60.566406 228.925781 68.441406 228.5625 69.152344 229.417969 C 69.839844 230.25 69.035156 230.589844 65.785156 230.851562 C 60.945312 231.242188 59.75 231.199219 59.535156 230.636719 Z M 59.535156 230.636719 " fill-opacity="1" fill-rule="nonzero"/><path fill="#ffffff" d="M 59.429688 232.902344 C 59.429688 232.304688 60.726562 231.792969 63.136719 231.445312 C 66.421875 230.96875 68.03125 231.046875 68.871094 231.730469 C 69.277344 232.058594 69.515625 232.421875 69.398438 232.539062 C 69.058594 232.882812 65.128906 233.300781 62.167969 233.3125 C 60.082031 233.320312 59.429688 233.222656 59.429688 232.902344 Z M 59.429688 232.902344 " fill-opacity="1" fill-rule="nonzero"/><path fill="#ffffff" d="M 59.976562 238.785156 C 59.460938 238.253906 59.769531 237.457031 60.570312 237.253906 C 62.402344 236.796875 67.644531 236.511719 68.539062 236.824219 C 69.640625 237.207031 69.726562 237.933594 68.722656 238.316406 C 67.734375 238.691406 60.273438 239.09375 59.976562 238.785156 Z M 59.976562 238.785156 " fill-opacity="1" fill-rule="nonzero"/><path fill="#ffffff" d="M 60.132812 241.261719 C 59.40625 240.96875 59.734375 240.1875 60.761719 239.757812 C 61.320312 239.523438 63.1875 239.234375 64.910156 239.113281 C 67.785156 238.910156 68.109375 238.945312 68.828125 239.53125 C 69.390625 239.992188 69.515625 240.265625 69.273438 240.515625 C 68.757812 241.039062 61.132812 241.664062 60.132812 241.261719 Z M 60.132812 241.261719 " fill-opacity="1" fill-rule="nonzero"/><path fill="#ffffff" d="M 59.742188 243.121094 C 59.742188 242.320312 61.425781 241.808594 64.855469 241.566406 C 66.917969 241.421875 67.648438 241.488281 68.449219 241.902344 C 70.589844 243.011719 69.5625 243.40625 64.050781 243.589844 C 59.933594 243.726562 59.742188 243.703125 59.742188 243.121094 Z M 59.742188 243.121094 " fill-opacity="1" fill-rule="nonzero"/><path fill="#ffffff" d="M 60.621094 246.152344 C 60.222656 246.058594 59.898438 245.777344 59.898438 245.527344 C 59.898438 244.488281 65.847656 243.5625 67.992188 244.269531 C 69.125 244.644531 69.480469 245.292969 68.785156 245.722656 C 68.316406 246.015625 61.539062 246.371094 60.621094 246.152344 Z M 60.621094 246.152344 " fill-opacity="1" fill-rule="nonzero"/><path fill="#ffffff" d="M 83.863281 266.53125 C 82.710938 265.375 83.359375 262.457031 84.773438 262.457031 C 86.390625 262.457031 87.097656 265.496094 85.738281 266.597656 C 84.863281 267.308594 84.632812 267.300781 83.863281 266.53125 Z M 85.417969 265.300781 C 85.84375 264.507812 85.515625 263.710938 84.769531 263.710938 C 84.324219 263.710938 84.179688 263.9375 84.179688 264.625 C 84.179688 265.394531 84.335938 265.625 85.027344 265.878906 C 85.066406 265.894531 85.242188 265.632812 85.417969 265.300781 Z M 85.417969 265.300781 " fill-opacity="1" fill-rule="nonzero"/><path fill="#ffffff" d="M 196.9375 267.496094 C 196.1875 266.746094 196.023438 266.316406 196.023438 265.121094 C 196.023438 263.929688 196.1875 263.496094 196.9375 262.746094 C 198.050781 261.632812 198.84375 261.59375 200 262.589844 C 200.769531 263.25 200.878906 263.5625 200.878906 265.121094 C 200.878906 266.679688 200.769531 266.992188 200 267.65625 C 198.84375 268.648438 198.050781 268.609375 196.9375 267.496094 Z M 199.476562 265.726562 C 199.878906 264.667969 199.367188 263.710938 198.394531 263.710938 C 197.65625 263.710938 197.277344 264.230469 197.277344 265.242188 C 197.277344 266.613281 198.996094 266.992188 199.476562 265.726562 Z M 199.476562 265.726562 " fill-opacity="1" fill-rule="nonzero"/><path fill="#ffffff" d="M 198.257812 280.296875 C 193.679688 279.382812 189.769531 275.226562 188.34375 269.757812 C 187.742188 267.453125 187.746094 263.09375 188.351562 260.777344 C 189.527344 256.25 192.316406 252.582031 195.777344 251.003906 C 197.410156 250.261719 198.175781 250.105469 200.253906 250.097656 C 202.417969 250.085938 203.007812 250.210938 204.585938 251.011719 C 207.882812 252.679688 210.753906 256.476562 211.859375 260.621094 C 212.433594 262.78125 212.433594 267.773438 211.859375 269.9375 C 210 276.914062 204.050781 281.449219 198.257812 280.296875 Z M 201.976562 278.460938 C 202.582031 278.289062 202.328125 278.195312 200.855469 278.058594 C 197.191406 277.714844 194.277344 275.402344 192.328125 271.300781 C 191.308594 269.152344 191.167969 268.558594 191.0625 265.871094 C 190.777344 258.824219 193.980469 253.960938 200.09375 252.144531 C 201.082031 251.851562 201.019531 251.835938 199.480469 251.988281 C 194.4375 252.488281 190.667969 256.683594 189.707031 262.851562 C 188.835938 268.46875 191.269531 274.730469 195.292969 277.214844 C 197.40625 278.523438 200.050781 279.015625 201.976562 278.460938 Z M 204.375 274.964844 C 208.335938 273.050781 210.804688 267.425781 209.804688 262.601562 C 208.4375 255.972656 203.089844 252.390625 198.058594 254.738281 C 196.179688 255.609375 194.65625 257.261719 193.546875 259.625 C 192.820312 261.179688 192.734375 261.738281 192.734375 264.964844 C 192.734375 267.996094 192.839844 268.800781 193.410156 270.03125 C 194.300781 271.957031 196.492188 274.316406 198.058594 275.03125 C 199.804688 275.828125 202.65625 275.796875 204.375 274.964844 Z M 204.375 274.964844 " fill-opacity="1" fill-rule="nonzero"/><g clip-path="url(#9d434c8b18)"><path fill="#ffffff" d="M 174.09375 290.464844 C 172.972656 290.410156 167.332031 290.210938 161.5625 290.027344 C 139.550781 289.324219 100.644531 287.542969 79.324219 286.261719 C 67.382812 285.542969 50.71875 284.414062 50.03125 284.277344 C 48.828125 284.035156 59.324219 283.445312 73.746094 282.941406 L 79.761719 282.730469 L 78.550781 281.855469 C 77.023438 280.75 75.34375 278.558594 74.148438 276.109375 C 73.125 274.023438 71.960938 269.828125 71.960938 268.242188 C 71.960938 267.691406 71.871094 266.796875 71.765625 266.257812 C 71.597656 265.421875 71.429688 265.277344 70.632812 265.277344 C 70.085938 265.277344 69.300781 265.613281 68.738281 266.089844 C 67.800781 266.875 67.671875 266.894531 63.921875 266.804688 C 60.164062 266.714844 60.050781 266.730469 59.203125 267.515625 C 57.921875 268.695312 57.445312 268.78125 53.480469 268.539062 C 49.953125 268.320312 49.851562 268.292969 48.855469 267.296875 L 47.835938 266.28125 L 47.835938 262.882812 C 47.835938 260.035156 47.941406 259.316406 48.464844 258.457031 C 49.183594 257.277344 50.160156 256.820312 51.964844 256.820312 C 53.1875 256.820312 53.226562 256.785156 53.046875 255.957031 C 49.578125 240.105469 50.652344 220.457031 55.832031 204.960938 C 57.152344 201.015625 59.410156 196.074219 61.113281 193.414062 C 62.234375 191.664062 62.269531 191.519531 61.96875 190.109375 C 61.414062 187.527344 62.160156 186.109375 65.140625 184.085938 C 67.460938 182.507812 72.894531 179.914062 77.15625 178.347656 L 80.3125 177.1875 L 80.679688 174.847656 C 81.628906 168.738281 85.390625 163.496094 91.820312 159.332031 C 95.011719 157.265625 114.316406 151.195312 131.328125 146.90625 C 154.265625 141.125 163.4375 140.46875 176.171875 143.695312 C 181.992188 145.171875 188.007812 147.367188 192.640625 149.707031 L 194.519531 150.65625 L 198.480469 150.167969 C 221.257812 147.359375 234.011719 147.558594 247.246094 150.921875 C 260.882812 154.390625 272.664062 160.488281 280.40625 168.09375 C 284.519531 172.128906 285.222656 173.921875 283.882812 176.914062 L 283.035156 178.800781 L 287.539062 188.050781 L 292.046875 197.296875 L 292.621094 196.511719 C 293.28125 195.609375 293.832031 195.523438 294.527344 196.21875 C 294.902344 196.59375 295.019531 197.371094 295.015625 199.429688 C 295.011719 200.925781 294.890625 202.34375 294.738281 202.582031 C 294.5625 202.859375 294.746094 203.621094 295.253906 204.734375 C 295.6875 205.679688 296.4375 208.449219 296.925781 210.882812 C 298.65625 219.570312 299.390625 229.304688 299.496094 244.914062 L 299.5625 255.097656 L 301.148438 255.257812 C 303.003906 255.441406 304.210938 256.148438 305.058594 257.542969 C 305.578125 258.386719 305.671875 259.128906 305.671875 262.332031 C 305.671875 265.75 305.601562 266.230469 304.964844 267.191406 C 303.601562 269.234375 303.210938 269.304688 291.246094 269.667969 C 285.3125 269.847656 279.773438 270.027344 278.941406 270.066406 L 277.429688 270.132812 L 276.425781 272.808594 C 274.207031 278.710938 270.347656 282.894531 265.136719 285.039062 C 263.941406 285.53125 264.03125 285.542969 269.992188 285.742188 C 284.058594 286.210938 295.632812 286.703125 295.515625 286.820312 C 295.269531 287.0625 275.6875 288.746094 267.453125 289.230469 C 250.390625 290.234375 242.976562 290.394531 209.964844 290.480469 C 191.355469 290.53125 175.210938 290.523438 174.089844 290.464844 Z M 250.222656 284.863281 C 250.222656 284.78125 249.480469 284.339844 248.578125 283.878906 C 245.125 282.132812 240.667969 276.554688 239.558594 272.597656 L 239.175781 271.230469 L 234.75 271.230469 C 230.695312 271.226562 230.238281 271.171875 229.257812 270.523438 C 227.234375 269.195312 226.878906 269.046875 225.742188 269.042969 C 224.625 269.039062 224.597656 269.066406 224.382812 270.503906 C 223.785156 274.492188 221.492188 279.621094 219.058594 282.398438 L 217.648438 284.011719 L 222.421875 284.195312 C 225.046875 284.296875 232.199219 284.5 238.316406 284.640625 C 244.433594 284.785156 249.613281 284.929688 249.832031 284.960938 C 250.046875 284.992188 250.222656 284.945312 250.222656 284.863281 Z M 184.691406 282.902344 C 182.648438 280.6875 180.386719 275.84375 179.617188 272.023438 L 179.234375 270.132812 L 165.679688 269.863281 C 158.226562 269.714844 152.054688 269.667969 151.964844 269.757812 C 151.878906 269.84375 151.589844 270.742188 151.328125 271.75 C 150.3125 275.652344 147.664062 279.828125 145.191406 281.433594 C 144.410156 281.9375 143.511719 282.519531 143.191406 282.726562 C 142.730469 283.019531 145.058594 283.113281 154.042969 283.160156 C 164.054688 283.214844 181.929688 283.53125 184.566406 283.703125 L 185.488281 283.761719 Z M 202.144531 283.277344 C 210.476562 281.125 215.816406 270.730469 213.722656 260.734375 C 213.058594 257.554688 211.066406 253.738281 208.816406 251.332031 C 203.394531 245.535156 195.613281 245.410156 189.890625 251.023438 C 186.363281 254.484375 184.449219 259.613281 184.4375 265.621094 C 184.425781 271.105469 186.15625 275.773438 189.484375 279.238281 C 193.171875 283.074219 197.539062 284.46875 202.144531 283.277344 Z M 132.113281 283.007812 C 132.113281 282.9375 131.5 282.523438 130.75 282.082031 C 127.816406 280.363281 124.246094 275.378906 123.746094 272.308594 C 123.621094 271.546875 123.433594 271.25 123.140625 271.359375 C 122.90625 271.449219 121.480469 271.765625 119.972656 272.0625 C 116.992188 272.648438 108.402344 272.84375 105.714844 272.386719 C 104.421875 272.164062 104.199219 272.207031 104.035156 272.699219 C 102.828125 276.292969 100.367188 279.988281 98.09375 281.621094 L 96.640625 282.664062 L 113.671875 282.828125 C 123.039062 282.914062 131.019531 283.019531 131.40625 283.0625 C 131.792969 283.101562 132.113281 283.078125 132.113281 283.007812 Z M 89.101562 278.765625 C 92.019531 277.4375 94.652344 273.6875 95.648438 269.429688 C 96.3125 266.589844 96.132812 262.351562 95.28125 260.898438 C 94.316406 259.246094 93.863281 259.339844 94.386719 261.082031 C 95.042969 263.261719 94.957031 267.621094 94.210938 270.035156 C 92.175781 276.625 86.527344 279.097656 82.207031 275.292969 C 78.089844 271.667969 76.972656 263.601562 79.816406 258.027344 C 80.609375 256.472656 80.59375 256.421875 79.402344 256.660156 C 77.058594 257.132812 75.902344 260.035156 75.902344 265.433594 C 75.902344 269.03125 76.386719 271.363281 77.65625 273.851562 C 78.539062 275.582031 80.855469 277.964844 82.398438 278.726562 C 84.125 279.582031 87.257812 279.597656 89.101562 278.765625 Z M 86.664062 275.1875 C 83.792969 274.414062 81.808594 272.089844 80.863281 268.40625 C 79.851562 264.460938 80.902344 259.632812 83.335938 257.054688 C 84.09375 256.253906 84.105469 256.191406 83.519531 256.191406 C 82.621094 256.191406 81.148438 257.9375 80.34375 259.949219 C 79.34375 262.445312 79.351562 267.808594 80.351562 270.316406 C 81.699219 273.683594 84.015625 275.613281 86.683594 275.589844 L 88.09375 275.574219 Z M 89.128906 272.667969 C 91.445312 271.457031 92.699219 269.125 92.886719 265.679688 C 93.175781 260.359375 90.886719 256.820312 87.148438 256.820312 C 85.046875 256.820312 83.445312 258.101562 82.246094 260.738281 C 80.859375 263.789062 81.476562 269.078125 83.484375 271.34375 C 84.972656 273.019531 87.378906 273.582031 89.128906 272.667969 Z M 272.914062 266.6875 C 293.421875 266.253906 297.835938 266.09375 299.679688 265.714844 C 300.40625 265.566406 300.40625 265.550781 299.835938 264.914062 C 299.105469 264.105469 296.339844 262.699219 293.808594 261.84375 C 285.640625 259.09375 274.160156 259.195312 259.5625 262.152344 C 254.378906 263.203125 239.785156 266.550781 239.101562 266.84375 C 238.152344 267.253906 248.347656 267.207031 272.914062 266.6875 Z M 178.792969 265.90625 L 178.792969 264.964844 L 141.039062 264.964844 C 115.472656 264.964844 103.289062 265.070312 103.289062 265.285156 C 103.289062 265.460938 103.644531 265.742188 104.082031 265.910156 C 104.769531 266.171875 137.398438 266.609375 169.785156 266.792969 L 178.792969 266.84375 Z M 226.417969 263.164062 C 226.421875 261.757812 226.628906 260.601562 227.03125 259.71875 L 227.632812 258.386719 L 224.4375 258.378906 C 220.683594 258.371094 219.226562 257.863281 217.71875 256.03125 C 217.144531 255.335938 215.421875 251.703125 213.53125 247.207031 C 210.117188 239.089844 209.089844 237.410156 207.148438 236.769531 C 206.339844 236.503906 203.113281 236.496094 194.484375 236.746094 C 188.117188 236.929688 181.980469 237.082031 180.847656 237.082031 L 178.792969 237.082031 L 178.789062 233.085938 C 178.789062 230.890625 178.945312 224.1875 179.136719 218.1875 C 179.328125 212.191406 179.433594 207.234375 179.371094 207.179688 C 179.261719 207.074219 163.101562 209.121094 147.460938 211.21875 C 142.894531 211.832031 134.296875 212.972656 128.351562 213.75 C 122.40625 214.527344 113.3125 215.726562 108.144531 216.414062 C 93.007812 218.421875 80.78125 220 67.816406 221.609375 C 58.1875 222.804688 55.640625 223.214844 55.480469 223.597656 C 55.367188 223.863281 55.203125 227.886719 55.117188 232.542969 C 54.949219 241.5625 55.304688 246.144531 56.640625 252.277344 C 57.566406 256.535156 57.777344 257.019531 58.988281 257.738281 C 60.316406 258.519531 60.992188 260.003906 60.992188 262.136719 L 60.992188 263.710938 L 67.117188 263.710938 L 68.628906 257.613281 C 69.460938 254.261719 70.34375 251.351562 70.585938 251.148438 C 70.90625 250.882812 74.589844 250.734375 83.546875 250.621094 L 96.0625 250.464844 L 101.679688 262.144531 L 138.472656 262.144531 C 167.527344 262.144531 175.335938 262.0625 175.589844 261.753906 C 175.765625 261.539062 176.253906 260.515625 176.675781 259.480469 C 177.097656 258.449219 178.835938 254.5 180.535156 250.710938 C 183.132812 244.925781 183.859375 243.585938 185.066406 242.375 C 186.996094 240.433594 187.984375 240.253906 197.117188 240.144531 C 204.066406 240.066406 204.730469 240.105469 205.878906 240.675781 C 208.746094 242.09375 209.9375 243.933594 213.195312 251.964844 C 217.105469 261.585938 218.273438 264.195312 218.921875 264.730469 C 219.464844 265.179688 220.210938 265.277344 223 265.277344 L 226.410156 265.277344 Z M 230.28125 256.347656 C 231.054688 256.023438 232.511719 255.878906 234.972656 255.878906 C 236.9375 255.878906 239.195312 255.789062 239.996094 255.679688 L 241.449219 255.480469 L 241.449219 251.179688 L 238.605469 251.179688 L 238.695312 248.753906 L 238.785156 246.324219 L 240.117188 246.226562 L 241.449219 246.132812 L 241.449219 241.371094 C 241.449219 234.378906 240.890625 223.917969 240.179688 217.582031 C 239.289062 209.65625 239.441406 210.140625 237.84375 210.140625 C 236.308594 210.140625 236.136719 209.832031 236.128906 207.085938 L 236.125 205.441406 L 237.375 205.441406 C 238.703125 205.441406 238.957031 205.046875 238.238281 204.109375 C 237.222656 202.792969 223.519531 202.398438 212.15625 203.355469 C 206.070312 203.871094 194.652344 205.109375 185.335938 206.269531 L 180.757812 206.835938 L 180.5625 210.917969 C 180.453125 213.160156 180.269531 219.679688 180.152344 225.402344 L 179.945312 235.8125 L 183.988281 235.644531 C 195.164062 235.179688 206.265625 235 207.230469 235.265625 C 208.636719 235.652344 210.441406 237.328125 211.449219 239.179688 C 211.898438 240.007812 213.410156 243.433594 214.808594 246.789062 C 219.039062 256.941406 218.910156 256.816406 225.042969 256.816406 C 227.992188 256.820312 229.472656 256.6875 230.28125 256.347656 Z M 256.019531 254.953125 C 264.589844 254.570312 279.503906 254.421875 288.601562 254.621094 L 295.492188 254.773438 L 295.441406 247.328125 L 295.390625 239.878906 L 294.277344 238.652344 C 291.507812 235.582031 291.53125 228.550781 294.324219 226.023438 C 294.945312 225.464844 294.941406 225.445312 293.875 223.359375 C 293.15625 221.949219 292.730469 220.59375 292.578125 219.222656 L 292.355469 217.1875 L 290.691406 220.949219 C 288.628906 225.605469 286.742188 231.195312 284.828125 238.335938 C 283.164062 244.527344 283.066406 244.773438 282.1875 245.003906 C 281.015625 245.308594 280.367188 244.300781 279.507812 240.839844 C 276.878906 230.269531 272.378906 222.550781 265.351562 216.558594 C 260.378906 212.3125 254.242188 208.65625 248.570312 206.558594 C 245.644531 205.472656 239.859375 203.792969 239.679688 203.972656 C 239.632812 204.019531 239.867188 205.578125 240.203125 207.4375 C 241.789062 216.230469 242.570312 226.90625 242.886719 244.09375 L 243.097656 255.648438 L 246.113281 255.453125 C 247.769531 255.34375 252.226562 255.121094 256.019531 254.953125 Z M 283.382812 234.570312 C 285.5625 226.257812 288.09375 219.144531 291.285156 212.382812 C 292.132812 210.582031 292.828125 208.800781 292.828125 208.429688 C 292.828125 207.539062 291.714844 204.269531 291.019531 203.121094 C 290.496094 202.257812 290.117188 202.128906 283.425781 200.59375 C 279.550781 199.703125 276.085938 198.8125 275.722656 198.617188 C 274.792969 198.113281 274.378906 197.414062 270.191406 189.304688 C 268.144531 185.34375 266.332031 181.960938 266.164062 181.789062 C 265.867188 181.484375 267.15625 184.507812 270.046875 190.898438 C 271.707031 194.5625 272.054688 195.996094 271.523438 196.988281 C 271.179688 197.628906 270.988281 197.671875 269.222656 197.507812 C 268.164062 197.410156 265.535156 197.039062 263.378906 196.6875 C 257.328125 195.699219 252.601562 195.121094 246.539062 194.625 C 239.449219 194.042969 236.640625 194.023438 236.863281 194.554688 C 236.957031 194.769531 237.410156 196.160156 237.875 197.640625 L 238.714844 200.339844 L 241.214844 200.875 C 247.214844 202.164062 255.058594 205.566406 260.707031 209.332031 C 271.84375 216.75 278.542969 226.046875 281.570312 238.289062 C 281.753906 239.039062 281.953125 239.601562 282.007812 239.542969 C 282.066406 239.480469 282.683594 237.246094 283.382812 234.570312 Z M 295.628906 232.773438 C 295.613281 230.601562 295.507812 229.628906 295.335938 230.03125 C 294.875 231.105469 295.035156 236.140625 295.53125 236.140625 C 295.597656 236.140625 295.640625 234.625 295.628906 232.773438 Z M 294.707031 219.992188 C 294.332031 217.640625 294.179688 217.25 293.746094 217.515625 C 293.390625 217.734375 293.695312 219.933594 294.285156 221.386719 C 294.921875 222.960938 295.09375 222.40625 294.707031 219.996094 Z M 79.949219 217.820312 C 91.046875 216.324219 135.992188 210.148438 147.148438 208.585938 C 150.683594 208.089844 159.140625 206.960938 165.945312 206.070312 C 172.753906 205.183594 178.621094 204.398438 178.984375 204.328125 C 179.554688 204.214844 179.667969 203.914062 179.808594 202.164062 C 179.910156 200.90625 180.222656 199.707031 180.636719 199.007812 C 181.027344 198.34375 181.296875 197.347656 181.296875 196.570312 C 181.296875 194.707031 182.125 187.789062 182.878906 183.351562 C 183.597656 179.128906 185.46875 171.578125 186.007812 170.742188 C 186.292969 170.292969 186.328125 170.285156 186.203125 170.707031 C 184.707031 175.601562 182.238281 191.40625 182.238281 196.097656 C 182.238281 197.355469 182.042969 198.21875 181.574219 199.007812 C 181.164062 199.707031 180.847656 200.910156 180.746094 202.175781 C 180.585938 204.203125 180.589844 204.21875 181.332031 204.054688 C 182.589844 203.777344 194.183594 202.375 202.132812 201.539062 C 218.074219 199.863281 227.941406 199.308594 233.445312 199.773438 C 235.503906 199.949219 237.234375 200.046875 237.285156 199.996094 C 237.339844 199.941406 236.921875 198.574219 236.363281 196.953125 L 235.339844 194.003906 L 234.085938 194.003906 C 233.316406 194.003906 232.820312 194.15625 232.796875 194.394531 C 232.773438 194.613281 232.738281 195.5625 232.71875 196.511719 C 232.679688 198.128906 232.628906 198.234375 231.894531 198.234375 C 231.132812 198.234375 231.113281 198.171875 231.113281 196.027344 L 231.113281 193.824219 L 227.429688 194.007812 C 218.398438 194.464844 208.875 195.386719 192.996094 197.34375 C 186.65625 198.128906 185.898438 198.035156 185.546875 196.433594 C 185.351562 195.550781 187.339844 181.898438 188.519531 176.003906 C 189.210938 172.542969 190.191406 170.457031 191.542969 169.542969 C 192.933594 168.609375 205.464844 166.054688 214.445312 164.875 C 223.359375 163.707031 225.53125 164.542969 227.441406 169.882812 C 227.871094 171.085938 229.882812 175.953125 231.914062 180.691406 C 235.09375 188.105469 235.605469 189.535156 235.59375 190.949219 C 235.585938 191.9375 235.722656 192.605469 235.933594 192.621094 C 239.222656 192.871094 243.328125 193.027344 243.324219 192.90625 C 243.324219 192.820312 242.839844 192.4375 242.246094 192.054688 C 241.65625 191.671875 240.804688 190.726562 240.351562 189.957031 C 239.898438 189.183594 237.339844 183.503906 234.660156 177.335938 C 230.054688 166.714844 229.800781 166.035156 229.929688 164.480469 L 230.066406 162.839844 L 227.378906 161.972656 C 222.835938 160.511719 220.730469 160.691406 206.363281 163.742188 C 194.753906 166.210938 152.628906 174.648438 97.648438 185.523438 C 62.613281 192.449219 65.683594 191.78125 65.011719 192.644531 C 63.789062 194.207031 60.3125 201.703125 59.144531 205.28125 C 57.835938 209.300781 56.382812 215.835938 56.085938 219.042969 L 55.902344 220.996094 L 62.597656 220.128906 C 66.28125 219.648438 74.089844 218.609375 79.949219 217.820312 Z M 288.445312 199.523438 C 288.445312 198.8125 278.566406 180.28125 277.984375 179.902344 C 276.808594 179.140625 263.902344 173.484375 263.726562 173.660156 C 263.203125 174.183594 264.820312 175.152344 269.832031 177.320312 C 272.917969 178.65625 275.933594 179.992188 276.539062 180.296875 C 277.515625 180.789062 278.035156 181.640625 281.355469 188.207031 C 283.398438 192.257812 284.949219 195.457031 284.800781 195.316406 C 284.648438 195.175781 282.90625 192.929688 280.925781 190.324219 C 278.941406 187.71875 276.96875 185.328125 276.535156 185.011719 C 275.839844 184.503906 275.359375 184.460938 272.539062 184.648438 L 269.332031 184.855469 L 272.167969 190.371094 C 273.726562 193.402344 275.242188 196.125 275.535156 196.414062 C 275.839844 196.71875 277.410156 197.21875 279.203125 197.582031 C 280.925781 197.929688 283.601562 198.558594 285.152344 198.976562 C 288.539062 199.886719 288.445312 199.871094 288.445312 199.523438 Z M 190.886719 185.542969 C 191.78125 179.6875 192.609375 174.519531 192.726562 174.0625 C 193.050781 172.820312 194.105469 172 196.027344 171.503906 C 199.535156 170.601562 211.355469 168.351562 211.554688 168.546875 C 211.667969 168.660156 212.703125 174.253906 213.855469 180.980469 C 215.007812 187.703125 216.015625 193.265625 216.089844 193.339844 C 216.210938 193.453125 229.515625 192.425781 230.785156 192.203125 C 231.054688 192.152344 230.347656 191.359375 229.0625 190.265625 C 226.902344 188.429688 226.882812 188.421875 226.78125 189.25 C 226.6875 190.066406 226.628906 190.089844 224.535156 190.089844 C 221.511719 190.089844 221.398438 189.929688 221.398438 185.660156 C 221.398438 181.234375 221.523438 181.003906 223.894531 181.003906 C 226.34375 181.003906 226.726562 181.402344 226.726562 183.964844 L 226.726562 185.941406 L 228.214844 187.152344 C 229.410156 188.128906 229.570312 188.199219 229.035156 187.507812 C 228.554688 186.894531 228.304688 185.976562 228.140625 184.242188 C 227.847656 181.128906 227.113281 180.269531 224.472656 179.957031 C 222.445312 179.71875 221.28125 180.050781 220.769531 181.011719 C 220.316406 181.859375 220.472656 189.914062 220.949219 190.394531 C 221.132812 190.578125 222.191406 190.894531 223.300781 191.101562 L 225.316406 191.476562 L 222.652344 191.699219 C 221.1875 191.824219 219.460938 192.007812 218.816406 192.109375 C 218.167969 192.207031 217.640625 192.222656 217.640625 192.140625 C 217.640625 192.058594 216.722656 186.992188 215.605469 180.882812 C 214.484375 174.773438 213.566406 169.550781 213.566406 169.28125 C 213.566406 168.878906 213.945312 168.785156 215.523438 168.796875 C 217.847656 168.808594 221.949219 169.496094 223.003906 170.050781 L 223.75 170.441406 L 223.125 169.738281 C 222.15625 168.652344 221.019531 168.1875 218.199219 167.738281 L 215.605469 167.328125 L 218.292969 167.09375 C 221.945312 166.773438 223.085938 167.027344 224.257812 168.429688 C 225.242188 169.609375 228.132812 176.082031 233.542969 189.226562 C 233.984375 190.300781 233.980469 190.453125 233.507812 190.976562 C 232.8125 191.742188 232.855469 192.28125 233.613281 192.28125 C 234.652344 192.28125 234.671875 191.058594 233.675781 188.671875 C 233.175781 187.46875 231.1875 182.679688 229.257812 178.027344 C 225.15625 168.128906 225.253906 168.335938 224.261719 167.347656 C 223.183594 166.265625 222.53125 166.171875 217.527344 166.367188 C 212.808594 166.550781 209.839844 167.035156 200.875 169.082031 C 194.269531 170.589844 192.785156 171.210938 191.984375 172.8125 C 191.207031 174.367188 191.203125 174.378906 189.601562 184.882812 C 188.011719 195.332031 187.925781 196.453125 188.726562 196.296875 C 189.179688 196.210938 189.511719 194.554688 190.886719 185.542969 Z M 269.644531 195.605469 C 269.644531 195.539062 267.695312 191.488281 265.308594 186.601562 C 262.925781 181.710938 260.386719 176.488281 259.667969 174.988281 C 258.070312 171.648438 257.25 170.972656 253.511719 169.925781 C 246.378906 167.925781 231.921875 164.085938 231.539062 164.085938 C 231.304688 164.085938 231.113281 164.34375 231.113281 164.65625 C 231.113281 165.140625 232.957031 165.730469 243.40625 168.582031 C 250.171875 170.425781 256.054688 172.191406 256.484375 172.507812 C 257.28125 173.089844 263.339844 185.535156 262.992188 185.882812 C 262.898438 185.976562 260.160156 186.535156 256.914062 187.125 C 250.609375 188.265625 250.222656 188.441406 250.222656 190.160156 C 250.222656 191.019531 250.960938 192.503906 251.625 192.980469 C 251.800781 193.109375 252.464844 193.214844 253.097656 193.214844 C 254.316406 193.222656 265.160156 194.867188 267.296875 195.371094 C 268.679688 195.695312 269.644531 195.792969 269.644531 195.605469 Z M 90.757812 182.285156 C 109.851562 178.511719 123.261719 175.917969 161.246094 168.65625 C 187.015625 163.726562 209.378906 159.730469 218.738281 158.382812 C 223.003906 157.765625 236.808594 157.871094 241.921875 158.558594 C 251.808594 159.886719 262.132812 162.484375 269.019531 165.371094 C 272.976562 167.03125 272.824219 166.6875 268.390625 163.945312 C 256.960938 156.875 243.460938 152.878906 228.136719 152.023438 C 213.457031 151.203125 182.003906 155.894531 144.277344 164.53125 C 119.371094 170.234375 82.375 180.28125 74.835938 183.390625 C 69.917969 185.417969 69.585938 186.210938 73.9375 185.511719 C 75.347656 185.285156 82.917969 183.832031 90.757812 182.285156 Z M 90.550781 173.339844 C 114.027344 166.441406 141.265625 159.957031 163.597656 155.949219 C 167.558594 155.238281 170.945312 154.59375 171.117188 154.511719 C 171.703125 154.242188 163.925781 154.691406 159.679688 155.175781 C 150.199219 156.253906 137.5 158.496094 129.511719 160.503906 C 123.441406 162.027344 113.792969 164.796875 102.191406 168.347656 C 87.910156 172.71875 84.804688 173.78125 84.804688 174.292969 C 84.804688 174.957031 85.375 174.863281 90.550781 173.339844 Z M 98.863281 167.824219 C 113.320312 163.789062 122.417969 161.28125 126.152344 160.292969 C 130.640625 159.109375 128.394531 159.269531 121.386719 160.636719 C 112.765625 162.320312 106.898438 163.683594 99.964844 165.621094 C 88.171875 168.914062 85.117188 170.023438 85.117188 171.027344 C 85.117188 171.582031 86.816406 171.1875 98.863281 167.824219 Z M 91.9375 165.519531 C 104.191406 161.605469 120 156.988281 132.738281 153.601562 C 143.070312 150.855469 148.476562 149.144531 152.003906 147.503906 C 154.78125 146.210938 155.621094 145.488281 155.027344 144.894531 C 153.292969 143.160156 128.148438 149.132812 105.011719 156.773438 C 101.050781 158.078125 96.960938 159.535156 95.925781 160.003906 C 94.128906 160.820312 89.066406 164.511719 87.8125 165.921875 C 87.222656 166.582031 87.222656 166.59375 87.894531 166.59375 C 88.269531 166.59375 90.089844 166.109375 91.9375 165.519531 Z M 91.9375 165.519531 " fill-opacity="1" fill-rule="nonzero"/></g><g clip-path="url(#9dab6b4c3d)"><g clip-path="url(#1af3d9ff3f)"><g clip-path="url(#5e12d6ec1e)"><path fill="#ffffff" d="M 74.589844 137.027344 C 70.960938 140.191406 67.636719 143.578125 64.605469 147.179688 C 66.066406 145.59375 67.578125 144.003906 69.144531 142.402344 C 70.519531 140.992188 72.332031 139.199219 74.589844 137.027344 M 59.574219 140.332031 C 57.117188 142.648438 54.941406 144.84375 53.042969 146.921875 C 51.148438 148.996094 49.460938 151 47.976562 152.929688 C 51.34375 148.917969 55.210938 144.71875 59.574219 140.332031 M 322.625 206.75 L 322.582031 207.414062 L 322.582031 208.078125 L 322.632812 208.75 L 322.746094 209.429688 L 322.921875 210.117188 L 323.167969 210.816406 L 323.492188 211.527344 L 323.902344 212.257812 L 324.398438 213 L 324.992188 213.765625 L 325.6875 214.550781 L 326.496094 215.355469 C 325.390625 212.796875 324.101562 209.925781 322.625 206.75 M 173.5625 89.269531 L 171.464844 89.339844 C 127.722656 92.355469 90.453125 109.324219 59.660156 140.25 C 92.0625 110.335938 128.882812 94.421875 170.121094 92.511719 C 191.617188 92.109375 210.003906 94.882812 225.285156 100.839844 C 248.128906 109.3125 266.480469 119.734375 280.34375 132.101562 C 290.429688 141.085938 297.976562 149.09375 302.984375 156.132812 C 290.425781 139.375 271.722656 125.101562 246.871094 113.3125 C 219.878906 101.734375 193.679688 96.277344 168.273438 96.929688 C 133.894531 97.136719 102.683594 110.484375 74.640625 136.976562 C 103.671875 112.566406 136.53125 101.226562 173.21875 102.960938 C 215.886719 105.722656 251.996094 120.050781 281.558594 145.933594 C 297.671875 160.398438 311.363281 180.664062 322.625 206.738281 C 324.496094 199.992188 324.972656 195.957031 324.058594 194.628906 C 328.585938 207.125 331.417969 220.148438 332.550781 233.691406 C 336.378906 271.976562 325.308594 308.429688 299.335938 343.054688 C 342.101562 292.175781 349.597656 236.492188 321.824219 176.007812 C 306.808594 147.179688 287.523438 126.324219 263.972656 113.4375 C 234.507812 96.808594 204.371094 88.753906 173.5625 89.269531 M 299.285156 343.109375 L 298.207031 344.332031 C 294.960938 348.027344 291.472656 351.769531 287.746094 355.558594 L 290.28125 353.421875 L 290.832031 352.933594 C 290.992188 352.816406 291.628906 352.179688 292.746094 351.019531 C 293.679688 350.023438 294.695312 348.859375 295.800781 347.527344 L 297.5 345.425781 L 299.285156 343.109375 M 64.550781 147.238281 L 61.898438 150.175781 C 31.804688 185.707031 18.996094 225.054688 23.46875 268.226562 C 18.011719 249.753906 17.773438 230.296875 22.757812 209.847656 C 27.519531 188.230469 35.910156 169.277344 47.925781 152.992188 C 27.960938 177.128906 17.445312 207.648438 16.378906 244.546875 C 16.492188 251.199219 17.816406 259.496094 20.351562 269.445312 C 29.105469 297.730469 34.1875 312.730469 35.597656 314.445312 C 44.964844 334.371094 55.789062 349.753906 68.0625 360.597656 C 83.746094 374.539062 100.890625 384.863281 119.492188 391.570312 C 138.277344 398.8125 155.984375 402.070312 172.613281 401.339844 C 196.394531 400.214844 218.671875 396.089844 239.4375 388.96875 C 254.503906 383.15625 270.59375 372.03125 287.714844 355.589844 C 269.949219 370.511719 254.589844 380.15625 241.640625 384.53125 C 217.382812 391.871094 194.914062 395.644531 174.234375 395.851562 C 161.296875 397.085938 142.714844 392.851562 118.488281 383.152344 C 100.792969 375.945312 86.097656 366.863281 74.40625 355.90625 C 65.058594 347 57.914062 338.648438 52.972656 330.851562 C 67.519531 347.429688 88.410156 363.070312 115.644531 377.78125 C 128.726562 384.636719 141.703125 389.460938 154.570312 392.25 C 157.882812 392.914062 159.746094 393.136719 160.167969 392.914062 C 160.402344 392.832031 160.375 392.671875 160.089844 392.433594 C 160.664062 392.808594 161.5 392.417969 162.601562 391.257812 C 163.523438 390.082031 164.117188 388.933594 164.378906 387.808594 C 147.429688 387.847656 121.039062 376.960938 85.207031 355.144531 C 64.707031 340.644531 49.117188 323.410156 38.433594 303.453125 C 28.222656 280.679688 25.449219 253.410156 30.109375 221.644531 C 33.503906 196.996094 44.984375 172.191406 64.550781 147.238281 " fill-opacity="1" fill-rule="nonzero"/></g></g></g><g clip-path="url(#89719e512d)"><g clip-path="url(#a9ec92fd4d)"><g clip-path="url(#078bb06a9a)"><path fill="#ffffff" d="M 144.089844 241.34375 L 142.617188 240.699219 C 142.617188 240.699219 143.070312 241.390625 143.316406 241.476562 C 143.503906 241.542969 144.089844 241.34375 144.089844 241.34375 Z M 163 213.035156 C 161.699219 219.054688 156.546875 223.957031 148.53125 230.207031 C 144.46875 233.371094 142.230469 236.582031 141.039062 239.421875 C 142.308594 240.148438 143.695312 239.832031 144.863281 240.929688 C 146.128906 242.117188 147.332031 243 146.660156 244.046875 C 146.453125 243.472656 145.019531 242.964844 143.539062 243.972656 C 141.921875 245.070312 141.113281 254.234375 147.652344 256.714844 C 142.207031 251.109375 145.925781 246.933594 153.824219 242.046875 C 163.101562 236.308594 163.105469 230.597656 163.105469 230.597656 C 161.222656 234.269531 154.597656 236.878906 154.597656 236.878906 C 163.714844 232.039062 163.246094 224.039062 163.246094 224.039062 C 160.441406 229.648438 153.121094 232.136719 153.121094 232.136719 C 164.738281 223.910156 163 213.035156 163 213.035156 Z M 121.148438 240.269531 C 110.988281 240.695312 103.890625 240.292969 99 236.546875 C 99 236.546875 104.71875 245.960938 118.894531 244.710938 C 118.894531 244.710938 111.707031 247.554688 105.9375 245.09375 C 105.9375 245.09375 110.757812 251.496094 120.839844 249.28125 C 120.839844 249.28125 114.101562 251.582031 110.289062 250.003906 C 110.289062 250.003906 116.332031 255.375 124.195312 251.429688 C 127.949219 249.546875 134.960938 245.582031 139.53125 249.167969 C 139.53125 249.167969 136.03125 239.644531 121.148438 240.269531 " fill-opacity="1" fill-rule="nonzero"/></g></g></g></svg>