<svg xmlns="http://www.w3.org/2000/svg" xmlns:xlink="http://www.w3.org/1999/xlink" width="500" zoomAndPan="magnify" viewBox="0 0 375 374.999991" height="500" preserveAspectRatio="xMidYMid meet" version="1.0"><defs><clipPath id="10ea75b353"><path d="M 47.835938 141 L 305.835938 141 L 305.835938 290.363281 L 47.835938 290.363281 Z M 47.835938 141 " clip-rule="nonzero"/></clipPath><clipPath id="6e0e72cd48"><path d="M 16 89 L 339 89 L 339 277 L 16 277 Z M 16 89 " clip-rule="nonzero"/></clipPath><clipPath id="1427b9dcb9"><path d="M 11.476562 93.308594 L 358.613281 84.414062 L 363.316406 268.101562 L 16.183594 276.996094 Z M 11.476562 93.308594 " clip-rule="nonzero"/></clipPath><clipPath id="35b2a76d92"><path d="M 11.476562 93.308594 L 358.613281 84.414062 L 363.316406 268.101562 L 16.183594 276.996094 Z M 11.476562 93.308594 " clip-rule="nonzero"/></clipPath><clipPath id="93708c16a6"><path d="M 11.476562 93.308594 L 358.613281 84.414062 L 366.621094 397.0625 L 19.484375 405.953125 Z M 11.476562 93.308594 " clip-rule="nonzero"/></clipPath><clipPath id="17944e3a24"><path d="M 99 213 L 164 213 L 164 257 L 99 257 Z M 99 213 " clip-rule="nonzero"/></clipPath><clipPath id="b884e4883d"><path d="M 97.847656 237.484375 L 149.148438 195.960938 L 178.40625 232.101562 L 127.105469 273.628906 Z M 97.847656 237.484375 " clip-rule="nonzero"/></clipPath><clipPath id="11c4c41e04"><path d="M 97.847656 237.484375 L 149.148438 195.960938 L 178.40625 232.101562 L 127.105469 273.628906 Z M 97.847656 237.484375 " clip-rule="nonzero"/></clipPath></defs><path fill="#000000" d="M 156.625 201.507812 C 155.171875 200.761719 154.554688 199.527344 154.582031 197.421875 C 154.605469 195.390625 156.90625 181.957031 157.707031 179.144531 C 158.359375 176.859375 159.710938 175.417969 161.71875 174.867188 C 162.605469 174.625 166.402344 173.824219 170.15625 173.089844 C 177.828125 171.59375 178.289062 171.613281 179.304688 173.496094 C 179.871094 174.542969 179.890625 174.835938 179.550781 177.085938 C 179.347656 178.433594 178.625 183.28125 177.945312 187.863281 C 177.265625 192.445312 176.488281 196.621094 176.214844 197.140625 C 175.652344 198.230469 174.566406 199.164062 173.296875 199.648438 C 172.449219 199.96875 159.269531 201.910156 158.003906 201.898438 C 157.660156 201.894531 157.039062 201.71875 156.625 201.507812 Z M 167.328125 189.996094 C 176.105469 188.421875 176.652344 188.285156 176.652344 187.65625 L 176.652344 186.992188 L 172.8125 187.691406 C 170.699219 188.078125 166.929688 188.765625 164.429688 189.222656 C 161.929688 189.675781 159.585938 190.121094 159.21875 190.210938 C 158.5625 190.375 158.558594 190.355469 158.964844 188.082031 C 160.046875 182.023438 160.671875 179.550781 161.265625 178.957031 C 161.714844 178.507812 163.59375 177.972656 168.136719 177.007812 C 176.25 175.277344 177.167969 175.144531 177.75 175.628906 C 178.136719 175.945312 178.21875 175.914062 178.21875 175.453125 C 178.21875 174.664062 177.304688 173.746094 176.523438 173.75 C 175.246094 173.753906 162.1875 176.570312 161.28125 177.039062 C 160.777344 177.300781 160.15625 177.914062 159.902344 178.40625 C 159.523438 179.140625 157.21875 190.492188 157.21875 191.628906 C 157.21875 191.8125 157.394531 191.894531 157.613281 191.816406 C 157.828125 191.734375 162.199219 190.917969 167.328125 189.996094 Z M 167.328125 189.996094 " fill-opacity="1" fill-rule="nonzero"/><path fill="#000000" d="M 128.378906 205.070312 C 126.707031 203.402344 126.742188 202.613281 129.046875 190.640625 C 130.382812 183.695312 130.992188 181.957031 132.460938 180.90625 C 133.28125 180.320312 146.191406 177.5 148.066406 177.5 C 149.523438 177.5 150.636719 178.679688 150.636719 180.21875 C 150.636719 182.195312 147.5 200.40625 146.964844 201.53125 C 145.996094 203.566406 144.902344 203.96875 137.472656 205.019531 C 133.769531 205.539062 130.40625 205.96875 130.007812 205.96875 C 129.605469 205.96875 128.871094 205.566406 128.378906 205.070312 Z M 137.359375 195.011719 C 148.078125 193.042969 147.503906 193.1875 147.503906 192.460938 C 147.503906 191.890625 147.378906 191.847656 146.328125 192.050781 C 138.054688 193.671875 131.207031 194.855469 131.207031 194.664062 C 131.207031 194.113281 133.125 185.261719 133.402344 184.535156 C 133.796875 183.496094 134.085938 183.402344 141.859375 181.851562 C 148.304688 180.566406 148.542969 180.542969 148.957031 181.105469 C 149.371094 181.667969 149.382812 181.667969 149.382812 181.0625 C 149.382812 179.964844 148.625 179.269531 147.464844 179.3125 C 145.664062 179.382812 134.230469 181.898438 133.453125 182.398438 C 132.394531 183.078125 132.011719 184.238281 130.925781 190.078125 C 129.871094 195.738281 129.8125 196.269531 130.230469 196.269531 C 130.382812 196.269531 133.589844 195.703125 137.359375 195.011719 Z M 137.359375 195.011719 " fill-opacity="1" fill-rule="nonzero"/><path fill="#000000" d="M 103.535156 209.09375 C 103.089844 208.746094 102.566406 207.96875 102.367188 207.363281 C 101.941406 206.078125 102.078125 205.121094 104.109375 194.933594 C 105.570312 187.601562 106.058594 186.347656 107.78125 185.539062 C 109.3125 184.820312 121.652344 182.402344 122.585938 182.636719 C 123.085938 182.761719 123.582031 183.246094 123.902344 183.914062 C 124.390625 184.933594 124.375 185.234375 123.550781 189.925781 C 120.765625 205.832031 120.703125 206.058594 118.804688 207.230469 C 118.132812 207.648438 115.878906 208.109375 111.28125 208.773438 C 107.675781 209.292969 104.636719 209.722656 104.53125 209.722656 C 104.421875 209.722656 103.976562 209.4375 103.535156 209.09375 Z M 121.097656 197.539062 C 121.140625 197.53125 121.175781 197.238281 121.175781 196.890625 C 121.175781 196.398438 121.023438 196.292969 120.472656 196.417969 C 118.355469 196.894531 106.304688 199.046875 106.21875 198.964844 C 106.058594 198.804688 108.023438 189.644531 108.34375 189.039062 C 108.695312 188.386719 108.722656 188.378906 113.496094 187.351562 C 121.519531 185.625 121.914062 185.574219 122.351562 186.164062 C 122.703125 186.636719 122.742188 186.613281 122.742188 185.914062 C 122.742188 184.917969 122.203125 184.382812 121.191406 184.382812 C 120.289062 184.382812 110.609375 186.402344 109 186.925781 C 108.210938 187.183594 107.804688 187.59375 107.375 188.5625 C 106.882812 189.6875 104.878906 198.953125 104.878906 200.113281 C 104.878906 200.4375 106.734375 200.191406 112.949219 199.042969 C 117.386719 198.226562 121.054688 197.546875 121.097656 197.539062 Z M 121.097656 197.539062 " fill-opacity="1" fill-rule="nonzero"/><path fill="#000000" d="M 80.667969 212.511719 C 79.921875 212.082031 79.179688 210.570312 79.179688 209.503906 C 79.183594 208.410156 81.871094 194.324219 82.359375 192.832031 C 83.246094 190.132812 83.75 189.890625 91.796875 188.28125 C 100.480469 186.546875 100.304688 186.238281 98 199.222656 C 96.335938 208.609375 95.980469 209.742188 94.375 210.792969 C 93.894531 211.105469 91.476562 211.597656 88.03125 212.074219 C 81.816406 212.941406 81.441406 212.964844 80.667969 212.511719 Z M 89.011719 202.839844 C 92.773438 202.152344 95.976562 201.589844 96.132812 201.589844 C 96.289062 201.589844 96.417969 201.308594 96.417969 200.964844 C 96.417969 200.621094 96.3125 200.339844 96.179688 200.347656 C 96.050781 200.351562 93.054688 200.894531 89.519531 201.554688 C 85.988281 202.210938 83.066406 202.730469 83.03125 202.707031 C 82.90625 202.617188 84.808594 194.234375 85.105469 193.566406 C 85.476562 192.730469 86.230469 192.492188 92.472656 191.246094 C 97.261719 190.285156 97.480469 190.269531 97.878906 190.816406 C 98.269531 191.347656 98.296875 191.351562 98.296875 190.835938 C 98.296875 190.535156 98.140625 189.996094 97.953125 189.640625 C 97.648438 189.074219 97.410156 189.019531 95.976562 189.1875 C 94.335938 189.382812 88.179688 190.667969 85.996094 191.277344 C 84.414062 191.71875 84.089844 192.445312 82.933594 198.1875 C 82.402344 200.832031 81.890625 203.242188 81.804688 203.542969 C 81.714844 203.84375 81.761719 204.09375 81.910156 204.09375 C 82.058594 204.09375 85.253906 203.527344 89.011719 202.839844 Z M 89.011719 202.839844 " fill-opacity="1" fill-rule="nonzero"/><path fill="#000000" d="M 281.09375 226.277344 C 278.679688 225.78125 276.523438 223.597656 274.710938 219.800781 C 271.398438 212.878906 273.183594 205.65625 278.203125 205.65625 C 281.167969 205.65625 283.636719 208.234375 285.304688 213.078125 C 285.984375 215.050781 286.144531 216.101562 286.160156 218.636719 C 286.199219 224.558594 284.589844 226.988281 281.09375 226.277344 Z M 281.09375 226.277344 " fill-opacity="1" fill-rule="nonzero"/><path fill="#000000" d="M 259.992188 241.914062 C 259.273438 241.6875 258.148438 241.054688 257.488281 240.5 C 252.816406 236.570312 254.152344 228.746094 259.8125 226.898438 C 264.671875 225.316406 269.644531 229.144531 269.582031 234.421875 C 269.554688 236.425781 269.132812 237.628906 267.84375 239.367188 C 266.179688 241.609375 262.664062 242.75 259.992188 241.914062 Z M 263.742188 240.644531 C 268.328125 239.390625 269.675781 232.625 265.972656 229.433594 C 263.0625 226.925781 258.753906 227.683594 256.832031 231.042969 C 256.253906 232.058594 256.117188 232.683594 256.121094 234.28125 C 256.132812 236.605469 256.835938 238.1875 258.414062 239.421875 C 260.15625 240.789062 261.816406 241.167969 263.742188 240.644531 Z M 258.382812 240.40625 C 257.667969 240.179688 256.542969 239.542969 255.882812 238.992188 C 251.210938 235.0625 252.546875 227.238281 258.207031 225.390625 C 263.066406 223.804688 268.039062 227.636719 267.972656 232.914062 C 267.949219 234.914062 267.527344 236.121094 266.238281 237.859375 C 264.574219 240.101562 261.058594 241.242188 258.382812 240.40625 Z M 262.136719 239.132812 C 266.722656 237.878906 268.066406 231.117188 264.367188 227.925781 C 261.457031 225.417969 257.144531 226.175781 255.226562 229.535156 C 254.648438 230.550781 254.507812 231.175781 254.515625 232.769531 C 254.527344 235.097656 255.230469 236.679688 256.804688 237.914062 C 258.550781 239.28125 260.210938 239.660156 262.136719 239.132812 Z M 262.136719 239.132812 " fill-opacity="1" fill-rule="nonzero"/><path fill="#000000" d="M 184.488281 216.933594 C 184.226562 216.757812 183.515625 216.613281 182.902344 216.609375 C 181.628906 216.605469 181.039062 216.148438 181.039062 215.171875 C 181.039062 214.242188 181.707031 213.765625 183.300781 213.5625 C 184.039062 213.46875 185.023438 213.199219 185.488281 212.964844 C 187.535156 211.933594 191.070312 212.925781 191.070312 214.527344 C 191.070312 214.941406 190.839844 215.464844 190.5625 215.695312 C 189.242188 216.792969 185.425781 217.566406 184.488281 216.933594 Z M 189.789062 214.855469 C 190.175781 214.476562 189.25 214.410156 186.25 214.605469 C 184.417969 214.722656 182.917969 214.90625 182.917969 215.007812 C 182.917969 215.214844 189.574219 215.066406 189.789062 214.855469 Z M 189.789062 214.855469 " fill-opacity="1" fill-rule="nonzero"/><path fill="#000000" d="M 59.746094 225.707031 C 59.089844 225.253906 59.679688 224.378906 60.867188 224.039062 C 62.546875 223.5625 68.34375 223.371094 69.089844 223.765625 C 69.949219 224.226562 69.972656 224.925781 69.144531 225.367188 C 68.265625 225.835938 60.347656 226.121094 59.746094 225.707031 Z M 59.746094 225.707031 " fill-opacity="1" fill-rule="nonzero"/><path fill="#000000" d="M 64.855469 198.992188 C 64.199219 198.539062 64.789062 197.664062 65.976562 197.324219 C 67.65625 196.84375 73.449219 196.652344 74.195312 197.050781 C 75.054688 197.511719 75.082031 198.207031 74.25 198.652344 C 73.375 199.121094 65.457031 199.40625 64.855469 198.992188 Z M 64.855469 198.992188 " fill-opacity="1" fill-rule="nonzero"/><path fill="#000000" d="M 63.988281 203.660156 C 63.332031 203.207031 63.921875 202.332031 65.109375 201.992188 C 66.789062 201.511719 72.585938 201.320312 73.332031 201.71875 C 74.191406 202.179688 74.214844 202.875 73.386719 203.320312 C 72.507812 203.789062 64.589844 204.074219 63.988281 203.660156 Z M 63.988281 203.660156 " fill-opacity="1" fill-rule="nonzero"/><path fill="#000000" d="M 62.949219 208.84375 C 62.292969 208.390625 62.882812 207.515625 64.070312 207.179688 C 65.75 206.699219 71.546875 206.507812 72.292969 206.90625 C 73.152344 207.363281 73.175781 208.0625 72.347656 208.503906 C 71.46875 208.972656 63.550781 209.261719 62.949219 208.84375 Z M 62.949219 208.84375 " fill-opacity="1" fill-rule="nonzero"/><path fill="#000000" d="M 59.601562 228.195312 C 59.054688 227.3125 60.273438 226.855469 64.027344 226.539062 C 67.898438 226.210938 69.460938 226.445312 69.460938 227.351562 C 69.460938 227.992188 68.539062 228.164062 63.945312 228.386719 C 60.835938 228.535156 59.78125 228.492188 59.601562 228.195312 Z M 59.601562 228.195312 " fill-opacity="1" fill-rule="nonzero"/><path fill="#000000" d="M 77.75 231.289062 C 77.75 230.492188 78.589844 230.152344 81.703125 229.699219 C 88.601562 228.699219 91.542969 228.777344 91.542969 229.96875 C 91.542969 230.601562 91.074219 230.707031 85.945312 231.246094 C 80.167969 231.855469 77.75 231.867188 77.75 231.289062 Z M 77.75 231.289062 " fill-opacity="1" fill-rule="nonzero"/><path fill="#000000" d="M 77.71875 228.15625 C 77.71875 227.359375 78.558594 227.023438 81.671875 226.570312 C 88.570312 225.566406 91.511719 225.648438 91.511719 226.839844 C 91.511719 227.46875 91.042969 227.574219 85.914062 228.117188 C 80.136719 228.722656 77.71875 228.734375 77.71875 228.15625 Z M 77.71875 228.15625 " fill-opacity="1" fill-rule="nonzero"/><path fill="#000000" d="M 77.546875 224.527344 C 77.546875 223.730469 78.382812 223.394531 81.5 222.941406 C 88.398438 221.9375 91.335938 222.015625 91.335938 223.210938 C 91.335938 223.839844 90.871094 223.945312 85.742188 224.484375 C 79.960938 225.09375 77.546875 225.105469 77.546875 224.527344 Z M 77.546875 224.527344 " fill-opacity="1" fill-rule="nonzero"/><path fill="#000000" d="M 59.539062 230.503906 C 59.433594 230.234375 59.480469 229.886719 59.636719 229.726562 C 60.570312 228.796875 68.449219 228.433594 69.160156 229.289062 C 69.847656 230.113281 69.046875 230.457031 65.792969 230.71875 C 60.953125 231.105469 59.753906 231.066406 59.539062 230.503906 Z M 59.539062 230.503906 " fill-opacity="1" fill-rule="nonzero"/><path fill="#000000" d="M 59.433594 232.765625 C 59.433594 232.167969 60.730469 231.65625 63.140625 231.308594 C 66.429688 230.835938 68.039062 230.914062 68.878906 231.59375 C 69.285156 231.921875 69.523438 232.289062 69.410156 232.402344 C 69.070312 232.742188 65.136719 233.164062 62.175781 233.175781 C 60.085938 233.183594 59.433594 233.085938 59.433594 232.765625 Z M 59.433594 232.765625 " fill-opacity="1" fill-rule="nonzero"/><path fill="#000000" d="M 59.980469 238.640625 C 59.464844 238.109375 59.773438 237.3125 60.574219 237.113281 C 62.410156 236.652344 67.652344 236.371094 68.550781 236.683594 C 69.648438 237.066406 69.738281 237.789062 68.730469 238.171875 C 67.742188 238.546875 60.277344 238.945312 59.980469 238.640625 Z M 59.980469 238.640625 " fill-opacity="1" fill-rule="nonzero"/><path fill="#000000" d="M 60.136719 241.109375 C 59.414062 240.820312 59.738281 240.039062 60.765625 239.613281 C 61.324219 239.378906 63.195312 239.089844 64.917969 238.96875 C 67.792969 238.765625 68.117188 238.800781 68.835938 239.382812 C 69.398438 239.84375 69.523438 240.121094 69.28125 240.367188 C 68.765625 240.890625 61.136719 241.511719 60.136719 241.109375 Z M 60.136719 241.109375 " fill-opacity="1" fill-rule="nonzero"/><path fill="#000000" d="M 59.746094 242.96875 C 59.746094 242.167969 61.429688 241.660156 64.863281 241.417969 C 66.925781 241.273438 67.65625 241.339844 68.457031 241.753906 C 70.601562 242.859375 69.570312 243.253906 64.054688 243.4375 C 59.941406 243.574219 59.746094 243.550781 59.746094 242.96875 Z M 59.746094 242.96875 " fill-opacity="1" fill-rule="nonzero"/><path fill="#000000" d="M 60.625 245.996094 C 60.226562 245.902344 59.902344 245.621094 59.902344 245.371094 C 59.902344 244.332031 65.855469 243.410156 68 244.117188 C 69.132812 244.488281 69.488281 245.140625 68.792969 245.566406 C 68.324219 245.859375 61.542969 246.214844 60.625 245.996094 Z M 60.625 245.996094 " fill-opacity="1" fill-rule="nonzero"/><path fill="#000000" d="M 83.878906 266.34375 C 82.722656 265.191406 83.375 262.277344 84.789062 262.277344 C 86.40625 262.277344 87.113281 265.3125 85.753906 266.410156 C 84.878906 267.121094 84.648438 267.113281 83.878906 266.34375 Z M 85.433594 265.117188 C 85.859375 264.324219 85.53125 263.527344 84.785156 263.527344 C 84.339844 263.527344 84.191406 263.753906 84.191406 264.441406 C 84.191406 265.207031 84.351562 265.4375 85.042969 265.695312 C 85.082031 265.707031 85.257812 265.449219 85.433594 265.117188 Z M 85.433594 265.117188 " fill-opacity="1" fill-rule="nonzero"/><path fill="#000000" d="M 197 267.308594 C 196.25 266.558594 196.082031 266.128906 196.082031 264.9375 C 196.082031 263.746094 196.25 263.316406 197 262.566406 C 198.113281 261.453125 198.90625 261.414062 200.0625 262.40625 C 200.832031 263.070312 200.941406 263.378906 200.941406 264.9375 C 200.941406 266.492188 200.832031 266.804688 200.0625 267.464844 C 198.90625 268.460938 198.113281 268.417969 197 267.308594 Z M 199.539062 265.542969 C 199.941406 264.484375 199.429688 263.527344 198.457031 263.527344 C 197.71875 263.527344 197.335938 264.046875 197.335938 265.054688 C 197.335938 266.425781 199.058594 266.804688 199.539062 265.542969 Z M 199.539062 265.542969 " fill-opacity="1" fill-rule="nonzero"/><path fill="#000000" d="M 198.320312 280.085938 C 193.738281 279.179688 189.828125 275.027344 188.402344 269.566406 C 187.800781 267.261719 187.804688 262.910156 188.40625 260.597656 C 189.585938 256.078125 192.378906 252.414062 195.839844 250.839844 C 197.46875 250.097656 198.238281 249.941406 200.316406 249.933594 C 202.484375 249.921875 203.070312 250.046875 204.648438 250.847656 C 207.949219 252.511719 210.824219 256.304688 211.925781 260.441406 C 212.5 262.601562 212.5 267.585938 211.925781 269.746094 C 210.066406 276.714844 204.113281 281.238281 198.320312 280.085938 Z M 202.039062 278.257812 C 202.644531 278.085938 202.390625 277.992188 200.917969 277.855469 C 197.253906 277.511719 194.335938 275.203125 192.386719 271.105469 C 191.367188 268.960938 191.226562 268.371094 191.121094 265.6875 C 190.835938 258.648438 194.039062 253.792969 200.15625 251.980469 C 201.144531 251.6875 201.082031 251.671875 199.542969 251.824219 C 194.5 252.324219 190.726562 256.511719 189.765625 262.667969 C 188.894531 268.277344 191.328125 274.53125 195.355469 277.011719 C 197.46875 278.316406 200.113281 278.808594 202.039062 278.257812 Z M 204.441406 274.765625 C 208.398438 272.851562 210.871094 267.238281 209.871094 262.421875 C 208.503906 255.800781 203.152344 252.226562 198.117188 254.566406 C 196.242188 255.4375 194.714844 257.089844 193.609375 259.449219 C 192.878906 261 192.792969 261.558594 192.792969 264.78125 C 192.792969 267.808594 192.898438 268.609375 193.46875 269.839844 C 194.359375 271.761719 196.554688 274.117188 198.121094 274.832031 C 199.867188 275.625 202.71875 275.597656 204.441406 274.765625 Z M 204.441406 274.765625 " fill-opacity="1" fill-rule="nonzero"/><g clip-path="url(#10ea75b353)"><path fill="#000000" d="M 174.144531 290.242188 C 173.023438 290.1875 167.382812 289.988281 161.609375 289.804688 C 139.589844 289.105469 100.667969 287.324219 79.335938 286.042969 C 67.390625 285.328125 50.71875 284.199219 50.03125 284.0625 C 48.828125 283.824219 59.328125 283.234375 73.757812 282.730469 L 79.773438 282.519531 L 78.566406 281.648438 C 77.035156 280.542969 75.355469 278.351562 74.160156 275.910156 C 73.136719 273.824219 71.96875 269.636719 71.96875 268.054688 C 71.96875 267.5 71.882812 266.609375 71.773438 266.070312 C 71.605469 265.238281 71.441406 265.09375 70.644531 265.09375 C 70.097656 265.09375 69.3125 265.429688 68.746094 265.902344 C 67.808594 266.6875 67.679688 266.707031 63.929688 266.617188 C 60.167969 266.527344 60.054688 266.542969 59.207031 267.328125 C 57.925781 268.507812 57.449219 268.59375 53.484375 268.347656 C 49.953125 268.132812 49.851562 268.105469 48.855469 267.109375 L 47.835938 266.09375 L 47.835938 262.699219 C 47.835938 259.859375 47.941406 259.136719 48.464844 258.28125 C 49.183594 257.105469 50.164062 256.648438 51.96875 256.648438 C 53.1875 256.648438 53.230469 256.613281 53.046875 255.785156 C 49.582031 239.957031 50.65625 220.335938 55.835938 204.863281 C 57.15625 200.925781 59.417969 195.992188 61.117188 193.335938 C 62.238281 191.589844 62.277344 191.445312 61.972656 190.035156 C 61.417969 187.457031 62.164062 186.042969 65.148438 184.019531 C 67.472656 182.445312 72.902344 179.855469 77.167969 178.292969 L 80.328125 177.132812 L 80.691406 174.796875 C 81.640625 168.695312 85.40625 163.464844 91.839844 159.304688 C 95.03125 157.242188 114.34375 151.175781 131.363281 146.894531 C 154.308594 141.125 163.484375 140.46875 176.222656 143.691406 C 182.046875 145.167969 188.066406 147.359375 192.699219 149.691406 L 194.578125 150.640625 L 198.542969 150.152344 C 221.328125 147.351562 234.089844 147.546875 247.328125 150.90625 C 260.96875 154.371094 272.753906 160.460938 280.503906 168.050781 C 284.613281 172.082031 285.320312 173.871094 283.976562 176.863281 L 283.128906 178.746094 L 287.636719 187.980469 L 292.144531 197.210938 L 292.71875 196.429688 C 293.382812 195.527344 293.933594 195.441406 294.628906 196.136719 C 295.003906 196.507812 295.121094 197.289062 295.117188 199.34375 C 295.113281 200.835938 294.988281 202.253906 294.839844 202.488281 C 294.664062 202.765625 294.847656 203.527344 295.355469 204.636719 C 295.789062 205.585938 296.539062 208.347656 297.027344 210.777344 C 298.757812 219.453125 299.492188 229.171875 299.597656 244.757812 L 299.667969 254.925781 L 301.253906 255.085938 C 303.109375 255.273438 304.316406 255.976562 305.164062 257.367188 C 305.683594 258.210938 305.777344 258.953125 305.777344 262.152344 C 305.777344 265.566406 305.707031 266.042969 305.070312 267 C 303.707031 269.042969 303.316406 269.113281 291.347656 269.476562 C 285.40625 269.65625 279.867188 269.835938 279.035156 269.875 L 277.523438 269.941406 L 276.519531 272.613281 C 274.300781 278.507812 270.441406 282.679688 265.226562 284.824219 C 264.027344 285.316406 264.121094 285.328125 270.082031 285.527344 C 284.15625 285.996094 295.734375 286.484375 295.617188 286.601562 C 295.371094 286.847656 275.78125 288.527344 267.542969 289.011719 C 250.472656 290.011719 243.054688 290.171875 210.03125 290.257812 C 191.414062 290.308594 175.261719 290.300781 174.144531 290.242188 Z M 250.304688 284.648438 C 250.304688 284.566406 249.5625 284.125 248.660156 283.667969 C 245.203125 281.921875 240.746094 276.351562 239.636719 272.398438 L 239.253906 271.035156 L 234.828125 271.035156 C 230.769531 271.035156 230.3125 270.976562 229.332031 270.332031 C 227.308594 269.007812 226.953125 268.855469 225.816406 268.851562 C 224.699219 268.847656 224.671875 268.875 224.457031 270.3125 C 223.855469 274.296875 221.5625 279.414062 219.128906 282.1875 L 217.71875 283.796875 L 222.492188 283.980469 C 225.121094 284.082031 232.277344 284.285156 238.394531 284.429688 C 244.515625 284.574219 249.699219 284.714844 249.914062 284.746094 C 250.128906 284.777344 250.304688 284.734375 250.304688 284.648438 Z M 184.75 282.691406 C 182.707031 280.480469 180.441406 275.640625 179.671875 271.828125 L 179.289062 269.941406 L 165.730469 269.671875 C 158.269531 269.523438 152.097656 269.476562 152.007812 269.5625 C 151.921875 269.652344 151.632812 270.546875 151.371094 271.554688 C 150.351562 275.449219 147.703125 279.625 145.230469 281.222656 C 144.449219 281.730469 143.550781 282.308594 143.230469 282.515625 C 142.769531 282.808594 145.097656 282.902344 154.085938 282.949219 C 164.101562 283.003906 181.984375 283.320312 184.625 283.492188 L 185.542969 283.550781 Z M 202.207031 283.066406 C 210.542969 280.914062 215.882812 270.535156 213.792969 260.558594 C 213.125 257.378906 211.132812 253.570312 208.882812 251.164062 C 203.460938 245.378906 195.671875 245.253906 189.949219 250.859375 C 186.417969 254.316406 184.503906 259.433594 184.492188 265.433594 C 184.484375 270.910156 186.214844 275.574219 189.542969 279.03125 C 193.230469 282.863281 197.601562 284.257812 202.207031 283.066406 Z M 132.144531 282.796875 C 132.144531 282.726562 131.53125 282.3125 130.78125 281.875 C 127.847656 280.15625 124.277344 275.179688 123.777344 272.113281 C 123.652344 271.351562 123.464844 271.054688 123.171875 271.167969 C 122.9375 271.253906 121.511719 271.570312 120.003906 271.867188 C 117.023438 272.453125 108.425781 272.648438 105.738281 272.191406 C 104.445312 271.96875 104.222656 272.011719 104.058594 272.503906 C 102.851562 276.089844 100.390625 279.78125 98.113281 281.410156 L 96.660156 282.453125 L 113.699219 282.617188 C 123.070312 282.703125 131.054688 282.808594 131.441406 282.851562 C 131.828125 282.890625 132.144531 282.867188 132.144531 282.796875 Z M 89.117188 278.558594 C 92.035156 277.234375 94.671875 273.488281 95.667969 269.238281 C 96.332031 266.402344 96.152344 262.171875 95.300781 260.71875 C 94.335938 259.070312 93.878906 259.164062 94.40625 260.902344 C 95.0625 263.078125 94.976562 267.433594 94.230469 269.84375 C 92.195312 276.421875 86.542969 278.894531 82.21875 275.09375 C 78.101562 271.476562 76.984375 263.417969 79.828125 257.851562 C 80.621094 256.300781 80.605469 256.25 79.414062 256.488281 C 77.070312 256.960938 75.914062 259.859375 75.914062 265.25 C 75.914062 268.839844 76.398438 271.167969 77.667969 273.652344 C 78.554688 275.382812 80.871094 277.761719 82.414062 278.523438 C 84.140625 279.375 87.273438 279.394531 89.117188 278.558594 Z M 86.679688 274.988281 C 83.808594 274.214844 81.820312 271.894531 80.875 268.21875 C 79.867188 264.277344 80.917969 259.457031 83.351562 256.882812 C 84.105469 256.082031 84.121094 256.019531 83.535156 256.019531 C 82.636719 256.019531 81.164062 257.761719 80.355469 259.773438 C 79.359375 262.265625 79.363281 267.617188 80.363281 270.125 C 81.710938 273.488281 84.03125 275.414062 86.699219 275.386719 L 88.109375 275.375 Z M 89.144531 272.472656 C 91.464844 271.261719 92.71875 268.933594 92.90625 265.492188 C 93.195312 260.179688 90.902344 256.648438 87.164062 256.648438 C 85.0625 256.648438 83.460938 257.925781 82.257812 260.5625 C 80.871094 263.605469 81.492188 268.890625 83.5 271.148438 C 84.988281 272.820312 87.394531 273.386719 89.144531 272.472656 Z M 273.007812 266.5 C 293.523438 266.066406 297.9375 265.90625 299.78125 265.527344 C 300.507812 265.378906 300.511719 265.363281 299.9375 264.730469 C 299.207031 263.921875 296.441406 262.515625 293.910156 261.664062 C 285.738281 258.917969 274.253906 259.019531 259.648438 261.972656 C 254.464844 263.019531 239.863281 266.363281 239.179688 266.65625 C 238.230469 267.066406 248.429688 267.019531 273.007812 266.5 Z M 178.84375 265.71875 L 178.84375 264.78125 L 141.078125 264.78125 C 115.5 264.78125 103.3125 264.882812 103.3125 265.101562 C 103.3125 265.277344 103.667969 265.558594 104.105469 265.722656 C 104.792969 265.984375 137.4375 266.421875 169.835938 266.605469 L 178.84375 266.65625 Z M 226.492188 262.980469 C 226.496094 261.578125 226.699219 260.425781 227.101562 259.539062 L 227.707031 258.210938 L 224.511719 258.203125 C 220.753906 258.195312 219.296875 257.6875 217.789062 255.859375 C 217.214844 255.167969 215.488281 251.539062 213.597656 247.050781 C 210.183594 238.945312 209.15625 237.265625 207.210938 236.625 C 206.40625 236.359375 203.175781 236.355469 194.546875 236.605469 C 188.175781 236.789062 182.035156 236.9375 180.902344 236.9375 L 178.84375 236.9375 L 178.84375 232.949219 C 178.84375 230.757812 178.996094 224.0625 179.1875 218.074219 C 179.382812 212.082031 179.488281 207.136719 179.425781 207.078125 C 179.3125 206.976562 163.148438 209.019531 147.503906 211.117188 C 142.933594 211.726562 134.332031 212.863281 128.382812 213.640625 C 122.4375 214.417969 113.339844 215.617188 108.167969 216.300781 C 93.027344 218.308594 80.792969 219.878906 67.824219 221.488281 C 58.191406 222.683594 55.644531 223.09375 55.480469 223.472656 C 55.367188 223.738281 55.207031 227.757812 55.121094 232.40625 C 54.953125 241.410156 55.308594 245.988281 56.644531 252.109375 C 57.570312 256.363281 57.78125 256.847656 58.996094 257.5625 C 60.320312 258.34375 61 259.828125 61 261.953125 L 61 263.527344 L 67.125 263.527344 L 68.636719 257.441406 C 69.46875 254.09375 70.351562 251.1875 70.597656 250.984375 C 70.914062 250.71875 74.601562 250.570312 83.5625 250.457031 L 96.082031 250.300781 L 98.894531 256.132812 L 101.703125 261.964844 L 138.511719 261.964844 C 167.578125 261.964844 175.386719 261.882812 175.640625 261.574219 C 175.816406 261.359375 176.304688 260.339844 176.726562 259.304688 C 177.152344 258.273438 178.886719 254.332031 180.589844 250.546875 C 183.1875 244.769531 183.914062 243.433594 185.121094 242.222656 C 187.054688 240.285156 188.042969 240.105469 197.179688 240 C 204.128906 239.917969 204.796875 239.957031 205.945312 240.527344 C 208.8125 241.945312 210.003906 243.777344 213.265625 251.796875 C 217.175781 261.40625 218.34375 264.011719 218.992188 264.546875 C 219.535156 264.992188 220.28125 265.09375 223.070312 265.09375 L 226.484375 265.09375 Z M 230.355469 256.175781 C 231.132812 255.855469 232.585938 255.707031 235.050781 255.707031 C 237.015625 255.707031 239.273438 255.617188 240.074219 255.507812 L 241.527344 255.308594 L 241.527344 251.015625 L 238.683594 251.015625 L 238.773438 248.589844 L 238.863281 246.167969 L 240.195312 246.070312 L 241.527344 245.976562 L 241.527344 241.222656 C 241.527344 234.238281 240.96875 223.796875 240.257812 217.464844 C 239.367188 209.550781 239.519531 210.035156 237.921875 210.035156 C 236.386719 210.035156 236.210938 209.730469 236.207031 206.984375 L 236.199219 205.34375 L 237.453125 205.34375 C 238.78125 205.34375 239.035156 204.949219 238.316406 204.015625 C 237.300781 202.699219 223.59375 202.304688 212.222656 203.261719 C 206.132812 203.777344 194.710938 205.015625 185.394531 206.171875 L 180.8125 206.738281 L 180.617188 210.8125 C 180.507812 213.050781 180.324219 219.5625 180.207031 225.277344 L 180 235.671875 L 184.042969 235.503906 C 195.226562 235.039062 206.328125 234.859375 207.296875 235.125 C 208.703125 235.511719 210.507812 237.1875 211.515625 239.035156 C 211.964844 239.859375 213.480469 243.277344 214.878906 246.632812 C 219.109375 256.769531 218.980469 256.644531 225.113281 256.644531 C 228.066406 256.648438 229.546875 256.515625 230.355469 256.175781 Z M 256.101562 254.78125 C 264.679688 254.402344 279.597656 254.25 288.699219 254.453125 L 295.59375 254.605469 L 295.542969 247.167969 L 295.492188 239.734375 L 294.378906 238.503906 C 291.605469 235.441406 291.632812 228.417969 294.425781 225.894531 C 295.046875 225.335938 295.042969 225.320312 293.976562 223.238281 C 293.253906 221.828125 292.828125 220.472656 292.679688 219.109375 L 292.453125 217.074219 L 290.789062 220.828125 C 288.726562 225.476562 286.839844 231.058594 284.921875 238.191406 C 283.261719 244.375 283.164062 244.617188 282.28125 244.847656 C 281.109375 245.152344 280.460938 244.148438 279.601562 240.691406 C 276.96875 230.136719 272.46875 222.429688 265.441406 216.445312 C 260.464844 212.207031 254.328125 208.554688 248.652344 206.457031 C 245.722656 205.378906 239.9375 203.699219 239.757812 203.878906 C 239.710938 203.925781 239.949219 205.484375 240.28125 207.339844 C 241.871094 216.117188 242.652344 226.777344 242.964844 243.941406 L 243.179688 255.480469 L 246.195312 255.28125 C 247.851562 255.175781 252.3125 254.949219 256.101562 254.78125 Z M 283.480469 234.429688 C 285.660156 226.132812 288.191406 219.027344 291.382812 212.273438 C 292.234375 210.476562 292.929688 208.699219 292.929688 208.328125 C 292.929688 207.4375 291.816406 204.175781 291.117188 203.027344 C 290.59375 202.164062 290.214844 202.039062 283.519531 200.503906 C 279.644531 199.613281 276.179688 198.726562 275.816406 198.53125 C 274.886719 198.027344 274.46875 197.332031 270.28125 189.234375 C 268.234375 185.277344 266.421875 181.898438 266.253906 181.726562 C 265.957031 181.425781 267.246094 184.441406 270.140625 190.824219 C 271.796875 194.480469 272.144531 195.914062 271.613281 196.90625 C 271.269531 197.546875 271.078125 197.589844 269.3125 197.421875 C 268.253906 197.324219 265.625 196.957031 263.46875 196.605469 C 257.414062 195.617188 252.683594 195.039062 246.621094 194.542969 C 239.527344 193.964844 236.71875 193.945312 236.941406 194.472656 C 237.035156 194.6875 237.488281 196.074219 237.949219 197.558594 L 238.792969 200.25 L 241.292969 200.785156 C 247.296875 202.074219 255.144531 205.46875 260.792969 209.226562 C 271.9375 216.636719 278.636719 225.917969 281.664062 238.144531 C 281.847656 238.890625 282.046875 239.457031 282.105469 239.394531 C 282.160156 239.335938 282.78125 237.101562 283.480469 234.429688 Z M 295.726562 232.636719 C 295.714844 230.46875 295.609375 229.496094 295.4375 229.898438 C 294.976562 230.972656 295.136719 236 295.632812 236 C 295.699219 236 295.742188 234.488281 295.726562 232.636719 Z M 294.808594 219.875 C 294.433594 217.527344 294.28125 217.132812 293.847656 217.402344 C 293.492188 217.621094 293.796875 219.816406 294.386719 221.265625 C 295.023438 222.839844 295.195312 222.285156 294.808594 219.875 Z M 79.960938 217.707031 C 91.0625 216.210938 136.027344 210.042969 147.191406 208.484375 C 150.722656 207.988281 159.1875 206.859375 165.996094 205.976562 C 172.804688 205.089844 178.671875 204.304688 179.039062 204.234375 C 179.609375 204.121094 179.722656 203.820312 179.863281 202.074219 C 179.964844 200.816406 180.277344 199.617188 180.6875 198.921875 C 181.082031 198.257812 181.351562 197.261719 181.351562 196.484375 C 181.351562 194.625 182.179688 187.71875 182.933594 183.289062 C 183.652344 179.070312 185.523438 171.53125 186.0625 170.699219 C 186.351562 170.25 186.386719 170.242188 186.257812 170.660156 C 184.761719 175.550781 182.292969 191.332031 182.292969 196.015625 C 182.292969 197.269531 182.097656 198.132812 181.628906 198.921875 C 181.21875 199.621094 180.902344 200.820312 180.800781 202.085938 C 180.640625 204.109375 180.644531 204.125 181.386719 203.960938 C 182.648438 203.683594 194.242188 202.28125 202.195312 201.449219 C 218.144531 199.773438 228.015625 199.21875 233.523438 199.6875 C 235.582031 199.859375 237.3125 199.960938 237.363281 199.90625 C 237.417969 199.855469 237 198.488281 236.4375 196.867188 L 235.417969 193.925781 L 234.164062 193.925781 C 233.390625 193.925781 232.894531 194.074219 232.871094 194.316406 C 232.847656 194.53125 232.8125 195.480469 232.792969 196.429688 C 232.753906 198.042969 232.707031 198.148438 231.96875 198.148438 C 231.207031 198.148438 231.1875 198.085938 231.1875 195.945312 L 231.1875 193.742188 L 227.503906 193.929688 C 218.46875 194.382812 208.941406 195.304688 193.054688 197.261719 C 186.714844 198.042969 185.953125 197.949219 185.601562 196.351562 C 185.40625 195.46875 187.394531 181.835938 188.578125 175.949219 C 189.269531 172.496094 190.25 170.410156 191.605469 169.5 C 192.992188 168.566406 205.53125 166.015625 214.511719 164.839844 C 223.429688 163.671875 225.605469 164.507812 227.511719 169.835938 C 227.945312 171.042969 229.960938 175.898438 231.988281 180.628906 C 235.167969 188.035156 235.679688 189.460938 235.671875 190.875 C 235.664062 191.863281 235.800781 192.527344 236.007812 192.542969 C 239.300781 192.792969 243.410156 192.949219 243.40625 192.832031 C 243.402344 192.746094 242.917969 192.363281 242.328125 191.980469 C 241.738281 191.597656 240.882812 190.652344 240.429688 189.882812 C 239.976562 189.109375 237.414062 183.441406 234.738281 177.28125 C 230.128906 166.675781 229.878906 165.996094 230.003906 164.445312 L 230.140625 162.804688 L 227.449219 161.941406 C 222.90625 160.484375 220.800781 160.660156 206.425781 163.710938 C 194.8125 166.171875 152.671875 174.597656 97.671875 185.457031 C 62.621094 192.375 65.691406 191.703125 65.019531 192.566406 C 63.796875 194.128906 60.316406 201.609375 59.148438 205.1875 C 57.84375 209.199219 56.386719 215.726562 56.085938 218.925781 L 55.90625 220.878906 L 62.605469 220.007812 C 66.289062 219.53125 74.101562 218.496094 79.960938 217.707031 Z M 288.542969 199.4375 C 288.542969 198.722656 278.660156 180.222656 278.078125 179.84375 C 276.902344 179.082031 263.988281 173.4375 263.816406 173.609375 C 263.292969 174.132812 264.910156 175.101562 269.925781 177.265625 C 273.011719 178.597656 276.027344 179.933594 276.632812 180.238281 C 277.609375 180.726562 278.128906 181.578125 281.449219 188.136719 C 283.496094 192.179688 285.046875 195.375 284.898438 195.234375 C 284.746094 195.097656 283.003906 192.851562 281.019531 190.25 C 279.039062 187.648438 277.0625 185.261719 276.628906 184.945312 C 275.933594 184.441406 275.453125 184.394531 272.632812 184.582031 L 269.421875 184.789062 L 272.261719 190.296875 C 273.820312 193.324219 275.335938 196.039062 275.628906 196.332031 C 275.933594 196.636719 277.503906 197.132812 279.296875 197.496094 C 281.019531 197.84375 283.699219 198.472656 285.25 198.886719 C 288.636719 199.796875 288.542969 199.78125 288.542969 199.4375 Z M 190.945312 185.476562 C 191.839844 179.628906 192.667969 174.46875 192.785156 174.011719 C 193.109375 172.773438 194.167969 171.953125 196.085938 171.460938 C 199.597656 170.554688 211.421875 168.308594 211.621094 168.507812 C 211.734375 168.621094 212.773438 174.207031 213.925781 180.917969 C 215.078125 187.632812 216.082031 193.1875 216.160156 193.257812 C 216.28125 193.375 229.589844 192.347656 230.863281 192.125 C 231.132812 192.078125 230.421875 191.28125 229.136719 190.191406 C 226.976562 188.359375 226.953125 188.351562 226.855469 189.179688 C 226.757812 189.996094 226.703125 190.015625 224.605469 190.015625 C 221.582031 190.015625 221.46875 189.855469 221.46875 185.59375 C 221.46875 181.171875 221.59375 180.941406 223.964844 180.941406 C 226.417969 180.941406 226.796875 181.339844 226.796875 183.898438 L 226.796875 185.871094 L 228.289062 187.082031 C 229.484375 188.058594 229.644531 188.128906 229.109375 187.4375 C 228.628906 186.824219 228.375 185.910156 228.214844 184.175781 C 227.921875 181.070312 227.183594 180.210938 224.546875 179.898438 C 222.515625 179.660156 221.351562 179.992188 220.839844 180.953125 C 220.386719 181.796875 220.542969 189.839844 221.023438 190.320312 C 221.207031 190.5 222.261719 190.820312 223.371094 191.027344 L 225.386719 191.398438 L 222.722656 191.625 C 221.257812 191.75 219.53125 191.929688 218.882812 192.03125 C 218.238281 192.128906 217.710938 192.144531 217.710938 192.0625 C 217.710938 191.980469 216.792969 186.921875 215.671875 180.820312 C 214.550781 174.722656 213.636719 169.507812 213.636719 169.238281 C 213.636719 168.839844 214.011719 168.746094 215.59375 168.753906 C 217.914062 168.765625 222.019531 169.453125 223.074219 170.007812 L 223.820312 170.398438 L 223.195312 169.695312 C 222.226562 168.609375 221.089844 168.148438 218.269531 167.699219 L 215.671875 167.285156 L 218.363281 167.050781 C 222.019531 166.734375 223.15625 166.988281 224.332031 168.390625 C 225.316406 169.566406 228.207031 176.027344 233.617188 189.15625 C 234.0625 190.226562 234.058594 190.378906 233.585938 190.902344 C 232.890625 191.667969 232.929688 192.203125 233.6875 192.203125 C 234.726562 192.203125 234.75 190.980469 233.753906 188.601562 C 233.25 187.398438 231.261719 182.617188 229.332031 177.972656 C 225.226562 168.085938 225.324219 168.296875 224.335938 167.308594 C 223.253906 166.226562 222.601562 166.132812 217.597656 166.328125 C 212.878906 166.511719 209.90625 166.996094 200.9375 169.039062 C 194.328125 170.542969 192.84375 171.167969 192.042969 172.765625 C 191.265625 174.316406 191.261719 174.328125 189.660156 184.816406 C 188.070312 195.25 187.984375 196.367188 188.785156 196.214844 C 189.238281 196.128906 189.570312 194.476562 190.945312 185.476562 Z M 269.738281 195.523438 C 269.738281 195.457031 267.785156 191.410156 265.398438 186.53125 C 263.011719 181.652344 260.472656 176.433594 259.753906 174.933594 C 258.15625 171.601562 257.335938 170.925781 253.597656 169.882812 C 246.460938 167.886719 231.996094 164.050781 231.613281 164.050781 C 231.378906 164.050781 231.1875 164.304688 231.1875 164.621094 C 231.1875 165.101562 233.03125 165.691406 243.488281 168.539062 C 250.253906 170.382812 256.140625 172.144531 256.570312 172.457031 C 257.367188 173.042969 263.425781 185.46875 263.082031 185.8125 C 262.984375 185.910156 260.246094 186.46875 257 187.054688 C 250.695312 188.195312 250.304688 188.371094 250.304688 190.085938 C 250.304688 190.941406 251.042969 192.429688 251.707031 192.902344 C 251.882812 193.03125 252.546875 193.136719 253.183594 193.136719 C 254.398438 193.144531 265.25 194.785156 267.386719 195.289062 C 268.769531 195.613281 269.738281 195.710938 269.738281 195.523438 Z M 90.773438 182.222656 C 109.878906 178.453125 123.292969 175.863281 161.292969 168.613281 C 187.070312 163.691406 209.445312 159.703125 218.804688 158.355469 C 223.078125 157.742188 236.886719 157.847656 242 158.53125 C 251.894531 159.859375 262.222656 162.449219 269.109375 165.335938 C 273.070312 166.992188 272.917969 166.648438 268.480469 163.910156 C 257.046875 156.851562 243.542969 152.859375 228.207031 152.003906 C 213.527344 151.1875 182.058594 155.875 144.316406 164.496094 C 119.398438 170.191406 82.390625 180.222656 74.84375 183.328125 C 69.929688 185.351562 69.59375 186.140625 73.949219 185.445312 C 75.359375 185.21875 82.933594 183.769531 90.773438 182.222656 Z M 90.570312 173.292969 C 114.054688 166.402344 141.304688 159.925781 163.644531 155.925781 C 167.609375 155.21875 170.996094 154.570312 171.167969 154.492188 C 171.753906 154.222656 163.972656 154.671875 159.726562 155.152344 C 150.242188 156.230469 137.539062 158.46875 129.542969 160.472656 C 123.472656 161.996094 113.820312 164.761719 102.214844 168.304688 C 87.925781 172.671875 84.820312 173.730469 84.820312 174.242188 C 84.820312 174.90625 85.390625 174.8125 90.570312 173.292969 Z M 98.882812 167.785156 C 113.347656 163.753906 122.449219 161.25 126.1875 160.261719 C 130.671875 159.082031 128.429688 159.242188 121.417969 160.609375 C 112.792969 162.289062 106.925781 163.648438 99.984375 165.582031 C 88.1875 168.871094 85.132812 169.980469 85.132812 170.980469 C 85.132812 171.539062 86.832031 171.144531 98.882812 167.785156 Z M 91.957031 165.480469 C 104.210938 161.574219 120.027344 156.964844 132.773438 153.582031 C 143.109375 150.839844 148.519531 149.132812 152.046875 147.492188 C 154.824219 146.203125 155.664062 145.480469 155.070312 144.886719 C 153.335938 143.15625 128.183594 149.121094 105.035156 156.746094 C 101.070312 158.054688 96.980469 159.507812 95.945312 159.976562 C 94.148438 160.789062 89.085938 164.476562 87.828125 165.882812 C 87.238281 166.546875 87.238281 166.554688 87.910156 166.554688 C 88.285156 166.554688 90.105469 166.070312 91.957031 165.480469 Z M 91.957031 165.480469 " fill-opacity="1" fill-rule="nonzero"/></g><g clip-path="url(#6e0e72cd48)"><g clip-path="url(#1427b9dcb9)"><g clip-path="url(#35b2a76d92)"><g clip-path="url(#93708c16a6)"><path fill="#000000" d="M 74.550781 137.03125 C 70.925781 140.199219 67.601562 143.582031 64.574219 147.183594 C 66.03125 145.601562 67.542969 144.007812 69.109375 142.410156 C 70.484375 140.996094 72.296875 139.203125 74.550781 137.03125 M 59.542969 140.335938 L 59.542969 140.339844 C 57.089844 142.652344 54.914062 144.851562 53.019531 146.925781 C 51.125 149.003906 49.4375 151.007812 47.953125 152.9375 C 51.324219 148.925781 55.1875 144.726562 59.542969 140.335938 M 322.4375 206.769531 L 322.394531 207.433594 L 322.394531 208.097656 L 322.449219 208.769531 L 322.558594 209.449219 L 322.734375 210.136719 L 322.980469 210.835938 L 323.304688 211.546875 L 323.714844 212.277344 L 324.210938 213.019531 L 324.804688 213.785156 L 325.5 214.566406 L 326.304688 215.375 C 325.203125 212.816406 323.914062 209.945312 322.4375 206.769531 M 173.460938 89.273438 L 171.371094 89.339844 C 127.652344 92.359375 90.40625 109.328125 59.632812 140.253906 C 92.015625 110.339844 128.8125 94.425781 170.023438 92.515625 C 191.507812 92.113281 209.886719 94.886719 225.15625 100.84375 C 247.984375 109.320312 266.328125 119.742188 280.183594 132.109375 C 290.261719 141.09375 297.804688 149.105469 302.808594 156.144531 C 290.257812 139.382812 271.5625 125.109375 246.726562 113.316406 C 219.753906 101.742188 193.570312 96.277344 168.175781 96.933594 C 133.820312 97.136719 102.628906 110.488281 74.605469 136.984375 C 103.617188 112.570312 136.457031 101.230469 173.121094 102.964844 C 215.761719 105.730469 251.851562 120.058594 281.394531 145.945312 C 297.5 160.410156 311.179688 180.679688 322.441406 206.757812 C 324.308594 200.011719 324.785156 195.972656 323.871094 194.644531 C 328.394531 207.144531 331.226562 220.167969 332.359375 233.714844 C 336.1875 272 325.121094 308.460938 299.164062 343.085938 C 341.90625 292.203125 349.398438 236.515625 321.636719 176.023438 C 306.628906 147.191406 287.359375 126.332031 263.820312 113.441406 C 234.375 96.8125 204.253906 88.757812 173.460938 89.273438 M 299.117188 343.144531 L 298.039062 344.367188 C 294.792969 348.0625 291.308594 351.804688 287.582031 355.59375 L 290.117188 353.457031 L 290.667969 352.96875 C 290.828125 352.851562 291.464844 352.214844 292.578125 351.054688 C 293.511719 350.058594 294.527344 348.894531 295.632812 347.5625 L 297.332031 345.457031 L 299.117188 343.144531 M 64.519531 147.246094 L 61.871094 150.183594 C 31.792969 185.71875 18.992188 225.070312 23.464844 268.246094 C 18.007812 249.773438 17.773438 230.3125 22.753906 209.859375 C 27.511719 188.238281 35.898438 169.285156 47.90625 153 C 27.953125 177.140625 17.441406 207.660156 16.378906 244.566406 C 16.492188 251.214844 17.8125 259.515625 20.347656 269.464844 C 29.097656 297.753906 34.179688 312.757812 35.585938 314.472656 C 44.949219 334.398438 55.765625 349.785156 68.035156 360.628906 C 83.707031 374.570312 100.839844 384.898438 119.433594 391.609375 C 138.207031 398.847656 155.902344 402.105469 172.519531 401.378906 C 196.289062 400.25 218.550781 396.128906 239.304688 389.007812 C 254.363281 383.195312 270.441406 372.066406 287.550781 355.625 C 269.796875 370.546875 254.449219 380.195312 241.507812 384.566406 C 217.265625 391.910156 194.808594 395.683594 174.144531 395.890625 C 161.210938 397.121094 142.640625 392.890625 118.429688 383.1875 C 100.742188 375.980469 86.058594 366.894531 74.371094 355.9375 C 65.03125 347.03125 57.890625 338.675781 52.953125 330.878906 C 67.492188 347.457031 88.367188 363.101562 115.585938 377.8125 C 128.660156 384.671875 141.628906 389.496094 154.492188 392.285156 C 157.796875 392.949219 159.664062 393.171875 160.085938 392.953125 C 160.316406 392.871094 160.289062 392.707031 160.007812 392.46875 C 160.578125 392.847656 161.414062 392.453125 162.515625 391.292969 C 163.4375 390.117188 164.027344 388.96875 164.292969 387.847656 C 147.355469 387.882812 120.980469 376.992188 85.167969 355.175781 C 64.679688 340.671875 49.097656 323.4375 38.421875 303.476562 C 28.214844 280.703125 25.441406 253.429688 30.101562 221.660156 C 33.492188 197.007812 44.964844 172.203125 64.519531 147.246094 " fill-opacity="1" fill-rule="nonzero"/></g></g></g></g><g clip-path="url(#17944e3a24)"><g clip-path="url(#b884e4883d)"><g clip-path="url(#11c4c41e04)"><path fill="#000000" d="M 144.089844 241.34375 L 142.617188 240.699219 C 142.617188 240.699219 143.070312 241.390625 143.316406 241.476562 C 143.503906 241.542969 144.089844 241.34375 144.089844 241.34375 Z M 163 213.035156 C 161.699219 219.054688 156.546875 223.957031 148.53125 230.207031 C 144.46875 233.371094 142.230469 236.582031 141.039062 239.421875 C 142.308594 240.148438 143.695312 239.832031 144.863281 240.929688 C 146.128906 242.117188 147.332031 243 146.660156 244.046875 C 146.453125 243.472656 145.019531 242.964844 143.539062 243.972656 C 141.921875 245.070312 141.113281 254.234375 147.652344 256.714844 C 142.207031 251.109375 145.925781 246.933594 153.824219 242.046875 C 163.101562 236.308594 163.105469 230.597656 163.105469 230.597656 C 161.222656 234.269531 154.597656 236.878906 154.597656 236.878906 C 163.714844 232.039062 163.246094 224.039062 163.246094 224.039062 C 160.441406 229.648438 153.121094 232.136719 153.121094 232.136719 C 164.738281 223.910156 163 213.035156 163 213.035156 Z M 121.148438 240.269531 C 110.988281 240.695312 103.890625 240.292969 99 236.546875 C 99 236.546875 104.71875 245.960938 118.894531 244.710938 C 118.894531 244.710938 111.707031 247.554688 105.9375 245.09375 C 105.9375 245.09375 110.757812 251.496094 120.839844 249.28125 C 120.839844 249.28125 114.101562 251.582031 110.289062 250.003906 C 110.289062 250.003906 116.332031 255.375 124.195312 251.429688 C 127.949219 249.546875 134.960938 245.582031 139.53125 249.167969 C 139.53125 249.167969 136.03125 239.644531 121.148438 240.269531 " fill-opacity="1" fill-rule="nonzero"/></g></g></g></svg>