<svg xmlns="http://www.w3.org/2000/svg" xmlns:xlink="http://www.w3.org/1999/xlink" width="500" zoomAndPan="magnify" viewBox="0 0 375 374.999991" height="500" preserveAspectRatio="xMidYMid meet" version="1.0"><defs><g/><clipPath id="112ae3f46d"><path d="M 112.5 101.300781 L 262.5 101.300781 L 262.5 214.550781 L 112.5 214.550781 Z M 112.5 101.300781 " clip-rule="nonzero"/></clipPath><clipPath id="d37482513c"><path d="M 73.585938 68.765625 L 294.835938 68.765625 L 294.835938 200.765625 L 73.585938 200.765625 Z M 73.585938 68.765625 " clip-rule="nonzero"/></clipPath></defs><g clip-path="url(#112ae3f46d)"><path fill="#ffffff" d="M 124.226562 192.738281 C 124.015625 191.449219 123.777344 190.160156 123.59375 188.898438 C 123.445312 187.640625 123.355469 186.351562 123.234375 185 C 123.054688 185 122.847656 185 122.636719 185 C 121.945312 184.972656 121.195312 185.0625 120.535156 184.910156 C 117.507812 184.160156 115.289062 182.421875 114.210938 179.421875 C 113.757812 178.132812 113.550781 176.816406 113.339844 175.464844 C 112.621094 170.96875 112.5 166.46875 112.679688 161.910156 C 112.828125 158.042969 113.21875 154.203125 113.878906 150.394531 C 114.628906 146.078125 115.679688 141.820312 117.328125 137.742188 C 117.835938 136.480469 118.4375 135.222656 119.128906 134.050781 C 119.90625 132.730469 120.867188 131.621094 122.125 130.753906 C 122.546875 130.453125 122.816406 130.152344 122.964844 129.644531 C 124.046875 126.40625 125.15625 123.136719 126.234375 119.898438 C 126.5625 118.878906 126.894531 117.859375 127.285156 116.867188 C 127.644531 115.9375 128.125 115.070312 128.785156 114.320312 C 129.53125 113.480469 130.433594 112.941406 131.542969 112.609375 C 133.339844 112.101562 135.109375 111.5 136.910156 110.960938 C 141.886719 109.402344 146.867188 107.8125 151.84375 106.253906 C 154.875 105.292969 157.933594 104.332031 160.960938 103.375 C 161.710938 103.132812 162.429688 102.925781 163.210938 102.863281 C 163.597656 102.835938 163.960938 102.65625 164.347656 102.59375 C 165.699219 102.324219 167.078125 102.054688 168.457031 101.875 C 171.605469 101.425781 174.785156 101.335938 177.964844 101.425781 C 181.441406 101.515625 184.921875 101.90625 188.339844 102.535156 C 195.117188 103.792969 201.59375 105.921875 207.773438 109.011719 C 212.988281 111.621094 217.757812 114.828125 221.984375 118.878906 C 223.933594 120.765625 225.734375 122.777344 227.234375 125.054688 C 227.355469 125.234375 227.445312 125.386719 227.535156 125.566406 C 227.5625 125.625 227.535156 125.773438 227.472656 125.804688 C 227.382812 125.835938 227.265625 125.835938 227.203125 125.804688 C 227.113281 125.746094 227.054688 125.65625 226.996094 125.566406 C 221.894531 119.328125 215.539062 114.738281 208.371094 111.230469 C 202.074219 108.140625 195.445312 106.011719 188.519531 104.8125 C 184.832031 104.183594 181.113281 103.824219 177.363281 103.855469 C 175.292969 103.882812 173.226562 104.035156 171.15625 104.152344 C 171.007812 104.152344 170.828125 104.214844 170.617188 104.242188 C 170.738281 104.332031 170.796875 104.421875 170.886719 104.453125 C 175.714844 107.003906 178.894531 110.960938 180.933594 115.910156 C 181.53125 117.378906 182.070312 118.90625 182.402344 120.46875 C 182.433594 120.675781 182.492188 120.886719 182.492188 121.097656 C 182.492188 121.1875 182.402344 121.308594 182.3125 121.335938 C 182.222656 121.367188 182.101562 121.277344 182.042969 121.21875 C 181.953125 121.035156 181.863281 120.828125 181.800781 120.617188 C 179.824219 115.371094 176.523438 111.171875 171.90625 107.992188 C 170.46875 107.003906 168.90625 106.28125 167.289062 105.683594 C 166.207031 105.292969 165.160156 105.054688 164.019531 105.082031 C 163.148438 105.113281 162.308594 105.203125 161.46875 105.472656 C 157.960938 106.582031 154.453125 107.691406 150.945312 108.800781 C 145.9375 110.390625 140.957031 111.949219 135.949219 113.539062 C 134.511719 113.988281 133.101562 114.441406 131.664062 114.890625 C 130.554688 115.25 129.953125 116.117188 129.53125 117.109375 C 129.203125 117.859375 128.933594 118.609375 128.664062 119.386719 C 127.613281 122.476562 126.5625 125.566406 125.515625 128.652344 C 125.453125 128.863281 125.394531 129.042969 125.304688 129.34375 C 125.785156 129.285156 126.175781 129.222656 126.5625 129.195312 C 131.03125 128.503906 135.472656 127.8125 139.9375 127.15625 C 143.476562 126.613281 147.046875 126.136719 150.585938 125.65625 C 153.792969 125.207031 156.972656 124.785156 160.179688 124.394531 C 163.390625 124.003906 166.597656 123.644531 169.808594 123.316406 C 171.847656 123.105469 173.855469 122.925781 175.894531 122.957031 C 176.074219 122.957031 176.253906 122.957031 176.40625 122.957031 C 176.496094 123.226562 176.34375 123.257812 176.195312 123.257812 C 174.753906 123.464844 173.316406 123.707031 171.875 123.914062 C 168.789062 124.367188 165.699219 124.816406 162.609375 125.296875 C 159.042969 125.835938 155.472656 126.375 151.933594 126.976562 C 148.726562 127.484375 145.515625 128.023438 142.339844 128.5625 C 138.949219 129.132812 135.589844 129.703125 132.203125 130.332031 C 130.074219 130.722656 127.972656 131.203125 125.84375 131.5625 C 123.625 131.921875 122.097656 133.242188 120.957031 135.070312 C 119.996094 136.601562 119.335938 138.28125 118.707031 139.988281 C 117.269531 143.949219 116.367188 147.996094 115.707031 152.164062 C 115.230469 155.253906 114.898438 158.402344 114.777344 161.519531 C 114.628906 165.148438 114.628906 168.777344 115.050781 172.375 C 115.230469 173.90625 115.46875 175.40625 115.738281 176.933594 C 115.859375 177.5625 116.039062 178.195312 116.21875 178.824219 C 116.308594 179.125 116.429688 179.394531 116.578125 179.664062 C 117.449219 181.222656 118.859375 182.121094 120.535156 182.753906 C 120.566406 182.542969 120.597656 182.390625 120.597656 182.242188 C 120.597656 180.53125 120.746094 178.855469 121.015625 177.175781 C 121.285156 175.613281 121.675781 174.117188 122.335938 172.675781 C 122.726562 171.867188 123.175781 171.117188 123.804688 170.488281 C 125.035156 169.257812 126.65625 169.167969 128.003906 170.246094 C 128.8125 170.90625 129.414062 171.714844 129.921875 172.617188 C 130.882812 174.296875 131.511719 176.125 131.933594 178.015625 C 132.230469 179.421875 132.441406 180.863281 132.652344 182.273438 C 132.710938 182.722656 132.710938 183.203125 132.773438 183.683594 C 133.011719 185.089844 133.792969 186.050781 135.199219 186.410156 C 136.851562 186.832031 138.5 187.28125 140.179688 187.730469 C 144.707031 188.898438 149.207031 190.070312 153.734375 191.207031 C 157.152344 192.078125 160.570312 192.976562 163.988281 193.847656 C 164.140625 193.878906 164.257812 193.90625 164.4375 193.9375 C 164.4375 193.816406 164.46875 193.699219 164.46875 193.609375 C 164.167969 191.179688 164.019531 188.71875 164.109375 186.261719 C 164.199219 183.832031 164.5 181.402344 165.160156 179.0625 C 165.519531 177.804688 166 176.574219 166.71875 175.433594 C 167.109375 174.804688 167.558594 174.234375 168.128906 173.757812 C 169.539062 172.554688 171.097656 172.316406 172.804688 172.976562 C 173.824219 173.367188 174.664062 174.027344 175.414062 174.746094 C 176.792969 176.066406 177.84375 177.65625 178.742188 179.304688 C 180.121094 181.792969 181.113281 184.433594 181.863281 187.191406 C 182.28125 188.691406 182.550781 190.21875 182.972656 191.71875 C 183.839844 194.957031 186.03125 196.847656 189.238281 197.597656 C 190.257812 197.835938 191.308594 197.835938 192.359375 197.957031 C 199.226562 198.734375 206.09375 198.855469 212.988281 198.734375 C 216.199219 198.675781 219.40625 198.585938 222.617188 198.464844 C 224.804688 198.375 226.964844 198.226562 229.152344 198.078125 C 230.800781 197.984375 232.421875 197.867188 234.070312 197.714844 C 236.199219 197.535156 238.300781 197.328125 240.429688 197.117188 C 242.679688 196.875 244.898438 196.636719 247.144531 196.308594 C 249.457031 195.976562 251.765625 195.585938 254.074219 195.199219 C 254.253906 195.167969 254.433594 195.136719 254.613281 195.105469 C 254.972656 195.078125 255.304688 194.925781 255.601562 194.71875 C 256.261719 194.269531 256.53125 193.667969 256.414062 192.859375 C 256.292969 192.046875 256.171875 191.238281 256.171875 190.429688 C 256.140625 188.929688 256.59375 187.550781 257.402344 186.289062 C 258.152344 185.152344 258.839844 183.953125 259.5625 182.78125 C 260.28125 181.582031 260.371094 180.261719 260.039062 178.882812 C 259.832031 178.882812 259.621094 178.855469 259.410156 178.882812 C 257.070312 179.09375 254.703125 179.332031 252.363281 179.511719 C 249.15625 179.753906 245.917969 179.933594 242.707031 180.113281 C 240.609375 180.234375 238.480469 180.292969 236.378906 180.382812 C 232.511719 180.53125 228.644531 180.683594 224.746094 180.742188 C 219.015625 180.832031 213.257812 180.832031 207.53125 180.894531 C 206.242188 180.894531 204.953125 180.773438 203.664062 180.625 C 202.824219 180.535156 202.015625 180.203125 201.292969 179.753906 C 200.816406 179.453125 200.605469 179.183594 200.363281 178.703125 C 200.574219 178.492188 200.84375 178.523438 201.113281 178.523438 C 202.433594 178.554688 203.753906 178.644531 205.074219 178.644531 C 209.871094 178.675781 214.667969 178.675781 219.46875 178.644531 C 222.347656 178.644531 225.226562 178.554688 228.132812 178.464844 C 230.53125 178.402344 232.933594 178.3125 235.332031 178.222656 C 238.390625 178.105469 241.417969 177.984375 244.476562 177.804688 C 246.9375 177.683594 249.394531 177.503906 251.882812 177.324219 C 253.804688 177.175781 255.691406 177.023438 257.582031 176.84375 C 258.542969 176.753906 259.5 176.605469 260.492188 176.515625 C 261.300781 176.425781 261.78125 176.726562 261.988281 177.503906 C 262.320312 178.613281 262.5 179.753906 262.410156 180.921875 C 262.320312 182.03125 261.929688 183.082031 261.359375 184.011719 C 260.761719 185.03125 260.101562 186.050781 259.5 187.070312 C 258.992188 187.878906 258.542969 188.71875 258.421875 189.710938 C 258.332031 190.550781 258.390625 191.390625 258.542969 192.226562 C 258.839844 194.117188 258.210938 195.46875 256.59375 196.425781 C 255.691406 196.964844 254.703125 197.238281 253.683594 197.417969 C 250.386719 197.984375 247.117188 198.496094 243.789062 198.855469 C 241.296875 199.125 238.808594 199.367188 236.320312 199.636719 C 236.171875 199.664062 235.992188 199.695312 235.78125 199.726562 C 235.359375 201.792969 234.671875 203.742188 233.203125 205.421875 C 233.921875 205.574219 234.550781 205.722656 235.210938 205.871094 C 239.320312 206.773438 243.398438 207.671875 247.507812 208.570312 C 249.515625 209.023438 251.523438 209.441406 253.535156 209.890625 C 253.5625 209.890625 253.59375 209.890625 253.652344 209.921875 C 253.832031 209.953125 254.042969 210.011719 254.042969 210.222656 C 254.042969 210.492188 253.804688 210.492188 253.59375 210.492188 C 253.023438 210.519531 252.453125 210.550781 251.855469 210.582031 C 249.816406 210.699219 247.777344 210.792969 245.765625 210.910156 C 243.546875 211.03125 241.328125 211.121094 239.109375 211.242188 C 237.128906 211.332031 235.152344 211.449219 233.171875 211.570312 C 231.132812 211.691406 229.0625 211.78125 227.023438 211.902344 C 225.046875 211.992188 223.066406 212.109375 221.085938 212.230469 C 219.40625 212.320312 217.699219 212.441406 216.019531 212.53125 C 214.25 212.621094 212.449219 212.710938 210.679688 212.800781 C 209 212.890625 207.320312 212.980469 205.671875 213.070312 C 203.992188 213.160156 202.3125 213.25 200.664062 213.339844 C 198.65625 213.460938 196.644531 213.550781 194.605469 213.671875 C 192.386719 213.789062 190.140625 213.878906 187.917969 214 C 186.871094 214.058594 185.820312 214.03125 184.800781 214.210938 C 184.140625 214.328125 183.570312 214.148438 182.972656 213.96875 C 176.824219 212.230469 170.648438 210.402344 164.46875 208.570312 C 156.164062 206.113281 147.855469 203.683594 139.519531 201.226562 C 132.171875 199.066406 124.824219 196.875 117.476562 194.71875 C 117.238281 194.65625 117 194.597656 116.757812 194.507812 C 116.609375 194.449219 116.429688 194.359375 116.488281 194.175781 C 116.519531 194.085938 116.699219 193.96875 116.816406 193.9375 C 117.328125 193.847656 117.835938 193.757812 118.378906 193.699219 C 120.265625 193.398438 122.15625 193.128906 124.046875 192.828125 C 124.105469 192.796875 124.164062 192.769531 124.226562 192.738281 Z M 170.167969 194.359375 C 170.257812 195.738281 170.347656 197.085938 170.46875 198.4375 C 170.585938 199.546875 170.796875 200.625 171.214844 201.644531 C 171.367188 202.003906 171.546875 202.363281 171.785156 202.664062 C 172.144531 203.144531 172.535156 203.144531 172.957031 202.664062 C 172.984375 202.632812 173.046875 202.574219 173.046875 202.542969 C 173.316406 201.914062 173.617188 201.285156 173.855469 200.65625 C 173.914062 200.535156 173.855469 200.386719 173.824219 200.234375 C 173.375 198.285156 173.195312 196.335938 173.253906 194.328125 C 173.285156 192.136719 173.496094 189.980469 174.125 187.851562 C 174.15625 187.730469 174.183594 187.550781 174.15625 187.429688 C 174.003906 186.679688 173.765625 185.929688 173.34375 185.269531 C 172.867188 184.492188 172.386719 184.492188 171.875 185.210938 C 171.757812 185.359375 171.667969 185.542969 171.578125 185.722656 C 171.394531 186.140625 171.214844 186.5625 171.097656 186.980469 C 170.40625 189.410156 170.195312 191.867188 170.167969 194.359375 Z M 125.753906 184.132812 C 125.695312 185.601562 125.90625 187.699219 126.234375 188.929688 C 126.382812 189.53125 126.59375 190.097656 126.835938 190.667969 C 126.953125 190.96875 127.164062 191.207031 127.375 191.449219 C 127.554688 191.660156 127.792969 191.71875 128.0625 191.597656 C 128.511719 191.390625 129.171875 190.070312 129.082031 189.589844 C 129.082031 189.53125 129.054688 189.441406 129.023438 189.378906 C 128.574219 188.121094 128.363281 186.832031 128.304688 185.511719 C 128.214844 183.59375 128.304688 181.703125 128.902344 179.84375 C 128.933594 179.753906 128.992188 179.632812 128.964844 179.542969 C 128.785156 178.914062 128.542969 178.3125 128.0625 177.863281 C 127.792969 177.59375 127.523438 177.59375 127.253906 177.894531 C 127.042969 178.132812 126.804688 178.402344 126.714844 178.675781 C 126.472656 179.304688 126.234375 179.964844 126.085938 180.625 C 125.84375 181.824219 125.753906 183.082031 125.753906 184.132812 Z M 229.152344 130.753906 C 229.8125 131.414062 230.472656 132.042969 231.074219 132.730469 C 236.289062 138.339844 241.089844 144.277344 245.4375 150.574219 C 245.738281 151.023438 246.035156 151.476562 246.367188 151.925781 C 246.457031 152.042969 246.636719 152.195312 246.785156 152.195312 C 247.386719 152.253906 247.984375 152.253906 248.554688 152.253906 C 248.945312 152.253906 249.125 152.015625 249.003906 151.65625 C 248.914062 151.386719 248.796875 151.113281 248.644531 150.875 C 247.296875 148.777344 245.976562 146.675781 244.566406 144.609375 C 240.96875 139.449219 236.921875 134.652344 232.300781 130.394531 C 231.550781 129.703125 230.800781 129.042969 230.023438 128.414062 C 229.542969 128.023438 228.972656 127.664062 228.375 127.484375 C 226.84375 127.003906 225.285156 126.613281 223.726562 126.253906 C 220.398438 125.476562 217.039062 124.816406 213.648438 124.394531 C 211.371094 124.097656 209.0625 123.796875 206.78125 123.585938 C 205.074219 123.40625 203.332031 123.316406 201.59375 123.226562 C 199.375 123.136719 197.15625 123.046875 194.9375 123.015625 C 192.71875 122.984375 190.5 123.046875 188.28125 123.078125 C 187.738281 123.078125 187.199219 123.167969 186.691406 123.40625 C 185.820312 123.824219 185.371094 124.546875 185.460938 125.503906 C 185.492188 125.925781 185.609375 126.34375 185.761719 126.765625 C 186.300781 128.175781 186.871094 129.554688 187.378906 130.933594 C 189.210938 135.910156 190.828125 140.949219 192.238281 146.046875 C 192.449219 146.796875 192.6875 147.515625 192.957031 148.265625 C 193.40625 149.496094 194.335938 150.035156 195.625 150.09375 C 197.425781 150.15625 199.226562 150.214844 201.023438 150.304688 C 203.242188 150.394531 205.492188 150.515625 207.710938 150.605469 C 210.742188 150.726562 213.769531 150.84375 216.796875 150.964844 C 218.957031 151.054688 221.117188 151.175781 223.277344 151.265625 C 226.246094 151.386719 229.214844 151.503906 232.183594 151.625 C 234.011719 151.683594 235.871094 151.773438 237.699219 151.835938 C 239.140625 151.894531 240.578125 151.984375 242.019531 152.015625 C 242.589844 152.042969 243.15625 152.015625 243.816406 152.015625 C 239.410156 144.367188 234.042969 137.53125 228.523438 130.722656 C 228.851562 130.421875 229.003906 130.601562 229.152344 130.753906 Z M 136.25 176.816406 C 135.378906 176.695312 134.542969 176.542969 133.703125 176.484375 C 133.191406 176.453125 132.863281 176.273438 132.742188 175.734375 C 132.710938 175.554688 132.621094 175.40625 132.5625 175.195312 C 133.222656 175.074219 133.792969 175.253906 134.390625 175.285156 C 134.992188 175.316406 135.5625 175.375 136.191406 175.433594 C 136.191406 173.605469 136.191406 171.808594 136.191406 169.976562 C 135.921875 169.949219 135.710938 169.886719 135.472656 169.886719 C 133.523438 169.738281 131.542969 169.585938 129.59375 169.4375 C 129.324219 169.40625 129.082031 169.347656 128.84375 169.167969 C 128.511719 168.929688 128.183594 168.6875 127.734375 168.386719 C 128.753906 168.296875 129.652344 168.449219 130.582031 168.449219 C 131.511719 168.476562 132.410156 168.507812 133.339844 168.539062 C 134.269531 168.566406 135.199219 168.628906 136.191406 168.65625 C 136.25 166.859375 136.339844 165.148438 136.402344 163.351562 C 136.21875 163.320312 136.039062 163.320312 135.859375 163.320312 C 133.132812 163.199219 130.433594 163.109375 127.703125 162.988281 C 124.707031 162.871094 121.734375 162.71875 118.738281 162.570312 C 118.527344 162.570312 118.167969 162.628906 118.199219 162.300781 C 118.226562 162.03125 118.527344 162.089844 118.738281 162.089844 C 123.027344 162.121094 127.285156 162.121094 131.574219 162.152344 C 133.011719 162.152344 134.453125 162.179688 135.890625 162.179688 C 136.070312 162.179688 136.25 162.179688 136.492188 162.179688 C 136.640625 160.410156 136.789062 158.671875 136.941406 156.902344 C 136.761719 156.902344 136.582031 156.871094 136.429688 156.871094 C 131.933594 156.84375 127.402344 156.8125 122.90625 156.78125 C 121.585938 156.78125 120.265625 156.722656 118.949219 156.691406 C 118.765625 156.691406 118.585938 156.722656 118.46875 156.542969 C 118.527344 156.304688 118.707031 156.332031 118.859375 156.332031 C 119.367188 156.304688 119.878906 156.273438 120.355469 156.242188 C 124.855469 156.121094 129.324219 156.003906 133.820312 155.882812 C 134.871094 155.851562 135.921875 155.824219 137 155.761719 C 137.058594 155.375 137.121094 155.011719 137.148438 154.652344 C 137.628906 150.574219 138.257812 146.558594 139.128906 142.539062 C 139.757812 139.597656 140.480469 136.660156 141.378906 133.8125 C 141.527344 133.363281 141.648438 132.914062 141.796875 132.460938 C 142.097656 131.710938 142.609375 131.203125 143.386719 130.992188 C 143.925781 130.84375 144.46875 130.722656 145.007812 130.632812 C 147.257812 130.273438 149.535156 129.945312 151.785156 129.582031 C 154.035156 129.222656 156.253906 128.863281 158.5 128.503906 C 159.371094 128.355469 160.242188 128.203125 161.109375 128.113281 C 161.5 128.085938 161.949219 128.113281 162.339844 128.203125 C 162.820312 128.324219 163.148438 128.683594 163.210938 129.195312 C 163.269531 129.554688 163.269531 129.914062 163.238281 130.273438 C 163.148438 131.652344 162.640625 132.941406 162.28125 134.261719 C 161.199219 138.21875 160.390625 142.207031 159.730469 146.257812 C 159.191406 149.464844 158.769531 152.675781 158.472656 155.914062 C 158.230469 158.613281 158.023438 161.3125 157.902344 164.011719 C 157.78125 167.039062 157.722656 170.066406 157.722656 173.097656 C 157.722656 176.875 157.960938 180.652344 158.351562 184.429688 C 158.472656 185.601562 158.652344 186.742188 158.769531 187.910156 C 158.863281 188.960938 158.320312 189.441406 157.273438 189.230469 C 156.074219 188.988281 154.871094 188.71875 153.671875 188.449219 C 148.367188 187.28125 143.058594 186.082031 137.75 184.910156 C 136.941406 184.730469 136.640625 184.429688 136.582031 183.59375 C 136.429688 181.492188 136.308594 179.394531 136.160156 177.265625 C 136.28125 177.144531 136.28125 177.023438 136.25 176.816406 Z M 138.859375 182.84375 C 139.039062 182.902344 139.21875 182.960938 139.398438 182.992188 C 141.046875 183.351562 142.699219 183.710938 144.347656 184.101562 C 148.246094 184.972656 152.144531 185.839844 156.042969 186.710938 C 156.191406 186.742188 156.34375 186.742188 156.550781 186.769531 C 155.082031 174.984375 155.503906 163.261719 156.882812 151.476562 C 151.632812 151.65625 146.476562 151.835938 141.226562 152.015625 C 141.257812 151.683594 141.257812 151.414062 141.289062 151.144531 C 141.347656 150.636719 141.378906 150.15625 141.4375 149.644531 C 141.738281 147.125 142.007812 144.636719 142.367188 142.148438 C 142.757812 139.507812 143.296875 136.871094 143.777344 134.230469 C 143.808594 134.082031 143.808594 133.902344 143.808594 133.691406 C 143.449219 133.78125 143.449219 134.023438 143.386719 134.203125 C 143.027344 135.460938 142.699219 136.691406 142.367188 137.949219 C 141.4375 141.488281 140.660156 145.058594 140.089844 148.6875 C 139.847656 150.335938 139.667969 151.984375 139.488281 153.632812 C 139.398438 154.324219 139.339844 154.984375 139.277344 155.734375 C 139.519531 155.734375 139.699219 155.734375 139.878906 155.734375 C 141.679688 155.703125 143.476562 155.644531 145.277344 155.582031 C 148.035156 155.492188 150.792969 155.375 153.554688 155.253906 C 153.703125 155.253906 153.882812 155.222656 154.035156 155.253906 C 154.542969 155.3125 154.902344 155.703125 154.902344 156.214844 C 154.902344 156.664062 154.542969 157.050781 154.0625 157.113281 C 153.945312 157.113281 153.851562 157.113281 153.734375 157.113281 C 149.117188 157.023438 144.496094 156.960938 139.878906 156.871094 C 139.640625 156.871094 139.429688 156.871094 139.128906 156.871094 C 138.917969 158.640625 138.769531 160.410156 138.679688 162.210938 C 139.609375 162.210938 140.449219 162.210938 141.289062 162.210938 C 145.15625 162.210938 149.054688 162.210938 152.921875 162.210938 C 153.074219 162.210938 153.253906 162.210938 153.402344 162.242188 C 153.851562 162.359375 154.152344 162.75 154.152344 163.171875 C 154.125 163.621094 153.792969 163.980469 153.34375 164.070312 C 153.195312 164.101562 153.015625 164.101562 152.863281 164.070312 C 152.503906 164.039062 152.144531 164.011719 151.785156 163.980469 C 149.175781 163.859375 146.597656 163.738281 143.988281 163.621094 C 142.609375 163.558594 141.199219 163.5 139.820312 163.441406 C 139.398438 163.410156 139.007812 163.441406 138.589844 163.441406 C 138.410156 164.519531 138.289062 168.207031 138.410156 168.71875 C 138.558594 168.71875 138.710938 168.746094 138.890625 168.746094 C 140 168.808594 141.078125 168.835938 142.1875 168.898438 C 145.515625 169.019531 148.816406 169.136719 152.144531 169.257812 C 152.355469 169.257812 152.535156 169.257812 152.742188 169.289062 C 153.3125 169.378906 153.671875 169.796875 153.644531 170.335938 C 153.613281 170.878906 153.222656 171.265625 152.652344 171.265625 C 152.355469 171.265625 152.085938 171.238281 151.785156 171.207031 C 149.894531 171.027344 147.976562 170.847656 146.085938 170.695312 C 143.957031 170.515625 141.859375 170.367188 139.730469 170.1875 C 139.277344 170.15625 138.828125 170.128906 138.378906 170.097656 C 138.378906 171.957031 138.378906 173.726562 138.378906 175.554688 C 138.53125 175.585938 138.648438 175.644531 138.769531 175.644531 C 141.109375 175.855469 143.476562 176.09375 145.816406 176.304688 C 148.125 176.515625 150.40625 176.664062 152.714844 176.875 C 152.894531 176.875 153.074219 176.933594 153.222656 176.996094 C 153.671875 177.175781 153.945312 177.65625 153.882812 178.132812 C 153.824219 178.613281 153.433594 178.972656 152.921875 179.035156 C 152.714844 179.0625 152.503906 179.035156 152.265625 179.003906 C 150.644531 178.765625 149.054688 178.523438 147.4375 178.285156 C 144.796875 177.925781 142.1875 177.5625 139.550781 177.234375 C 139.1875 177.175781 138.800781 177.144531 138.378906 177.113281 C 138.53125 179.0625 138.679688 180.953125 138.859375 182.84375 Z M 169.65625 151.773438 C 174.335938 151.746094 179.042969 151.714844 183.722656 151.683594 C 185.070312 151.683594 186.421875 151.683594 187.769531 151.683594 C 189.148438 151.683594 189.960938 150.875 189.929688 149.496094 C 189.929688 149.34375 189.898438 149.164062 189.867188 149.015625 C 189.71875 148.417969 189.570312 147.816406 189.417969 147.246094 C 188.460938 143.496094 187.378906 139.78125 186.089844 136.121094 C 185.191406 133.542969 184.230469 130.964844 183.089844 128.472656 C 182.730469 127.664062 182.222656 126.945312 181.5625 126.316406 C 180.992188 125.773438 180.304688 125.414062 179.464844 125.445312 C 178.804688 125.476562 178.144531 125.59375 177.484375 125.683594 C 175.835938 125.894531 174.15625 126.105469 172.507812 126.316406 C 171.667969 126.40625 170.828125 126.496094 169.988281 126.644531 C 169.085938 126.792969 168.398438 127.246094 168.039062 128.113281 C 167.886719 128.503906 167.707031 128.925781 167.617188 129.34375 C 167.226562 130.875 166.867188 132.371094 166.539062 133.933594 C 165.820312 137.199219 165.308594 140.527344 164.949219 143.859375 C 164.800781 145.265625 164.679688 146.707031 164.558594 148.117188 C 164.5 148.925781 164.589844 149.707031 164.917969 150.425781 C 165.367188 151.355469 166.148438 151.746094 167.136719 151.863281 C 167.167969 151.625 167.167969 151.476562 167.167969 151.292969 C 167.289062 148.207031 167.527344 145.085938 167.859375 142.027344 C 168.277344 138.339844 168.847656 134.679688 169.539062 131.023438 C 169.628906 130.601562 169.71875 130.183594 169.808594 129.761719 C 169.867188 129.523438 169.957031 129.34375 170.316406 129.464844 C 169.417969 136.871094 168.789062 144.308594 168.789062 151.863281 C 169.207031 151.773438 169.445312 151.773438 169.65625 151.773438 Z M 123.234375 152.644531 C 124.707031 152.585938 126.203125 152.554688 127.675781 152.496094 C 128.902344 152.433594 130.164062 152.375 131.390625 152.34375 C 132.320312 152.316406 133.25 152.253906 134.210938 152.285156 C 135.320312 152.316406 136.070312 151.804688 136.371094 150.726562 C 136.460938 150.425781 136.492188 150.125 136.550781 149.824219 C 136.96875 147.816406 137.359375 145.808594 137.78125 143.796875 C 138.46875 140.46875 139.1875 137.140625 140.269531 133.902344 C 140.390625 133.542969 140.449219 133.121094 140.480469 132.730469 C 140.507812 132.011719 140.148438 131.652344 139.550781 131.652344 C 139.339844 131.652344 139.160156 131.621094 138.949219 131.652344 C 137 131.953125 135.019531 132.253906 133.070312 132.582031 C 130.433594 133.003906 127.792969 133.421875 125.183594 133.84375 C 124.464844 133.960938 123.777344 134.113281 123.085938 134.261719 C 122.636719 134.382812 122.277344 134.652344 122.007812 135.042969 C 121.644531 135.550781 121.316406 136.03125 121.105469 136.628906 C 120.808594 137.53125 120.445312 138.398438 120.148438 139.269531 C 119.039062 142.660156 118.316406 146.136719 117.65625 149.617188 C 117.539062 150.246094 117.539062 150.90625 117.746094 151.535156 C 117.988281 152.316406 118.46875 152.703125 119.277344 152.765625 C 119.695312 152.792969 120.148438 152.734375 120.566406 152.734375 C 120.597656 152.585938 120.625 152.496094 120.65625 152.375 C 120.925781 150.035156 121.347656 147.726562 121.855469 145.445312 C 122.457031 142.75 123.117188 140.050781 123.984375 137.410156 C 124.046875 137.261719 124.046875 137.109375 124.136719 137.019531 C 124.195312 136.929688 124.316406 136.902344 124.40625 136.839844 C 124.433594 136.929688 124.496094 137.019531 124.496094 137.109375 C 124.496094 137.230469 124.464844 137.320312 124.433594 137.441406 C 124.015625 139.507812 123.535156 141.609375 123.175781 143.679688 C 122.816406 145.777344 122.574219 147.875 122.335938 150.003906 C 122.246094 150.84375 122.214844 151.714844 122.15625 152.675781 C 122.605469 152.644531 122.9375 152.675781 123.234375 152.644531 Z M 256.324219 185.511719 C 253.5625 185.78125 250.835938 186.082031 248.074219 186.289062 C 245.316406 186.5 242.558594 186.621094 239.800781 186.742188 C 236.199219 186.890625 232.632812 186.980469 229.035156 187.070312 C 224.296875 187.160156 219.585938 187.21875 214.847656 187.308594 C 214.160156 187.308594 213.441406 187.308594 212.75 187.308594 C 212.628906 187.308594 212.539062 187.28125 212.421875 187.25 C 212.539062 187.101562 212.628906 187.011719 212.78125 186.980469 C 213.050781 186.949219 213.320312 186.921875 213.589844 186.890625 C 215.570312 186.800781 217.546875 186.742188 219.527344 186.652344 C 222.375 186.53125 225.226562 186.441406 228.074219 186.320312 C 230.710938 186.199219 233.382812 186.109375 236.019531 185.960938 C 240.128906 185.722656 244.265625 185.421875 248.375 185.121094 C 251.285156 184.910156 254.132812 184.492188 257.070312 183.980469 C 257.191406 183.5625 257.34375 183.113281 257.433594 182.664062 C 257.550781 182.210938 257.34375 181.972656 256.863281 182.003906 C 256.351562 182.03125 255.8125 182.09375 255.304688 182.152344 C 254.34375 182.242188 253.414062 182.363281 252.453125 182.453125 C 251.316406 182.542969 250.144531 182.601562 249.003906 182.691406 C 247.234375 182.8125 245.4375 182.960938 243.667969 183.082031 C 242.167969 183.171875 240.640625 183.261719 239.140625 183.351562 C 237.371094 183.441406 235.601562 183.5625 233.863281 183.652344 C 232.363281 183.710938 230.863281 183.742188 229.363281 183.800781 C 226.515625 183.890625 223.664062 184.011719 220.816406 184.070312 C 217.609375 184.132812 214.398438 184.101562 211.191406 184.132812 C 210.769531 184.132812 210.351562 184.101562 209.960938 184.132812 C 209.421875 184.132812 209.300781 184.28125 209.359375 184.820312 C 209.421875 185.300781 209.511719 185.75 209.570312 186.199219 C 209.839844 187.671875 210.140625 189.140625 210.742188 190.519531 C 211.308594 191.867188 212.300781 192.648438 213.738281 192.859375 C 214.488281 192.976562 215.269531 193.007812 216.046875 193.039062 C 217.277344 193.097656 218.539062 193.15625 219.765625 193.15625 C 223.15625 193.128906 226.542969 193.097656 229.933594 193.039062 C 231.582031 193.007812 233.203125 192.859375 234.851562 192.738281 C 236.410156 192.617188 237.941406 192.527344 239.5 192.378906 C 241.449219 192.199219 243.398438 191.988281 245.347656 191.75 C 247.476562 191.480469 249.605469 191.179688 251.734375 190.878906 C 252.875 190.730469 253.804688 190.21875 254.613281 189.410156 C 254.792969 189.230469 254.941406 188.988281 255.183594 188.691406 C 254.851562 188.71875 254.671875 188.75 254.492188 188.75 C 253.355469 188.871094 252.242188 189.050781 251.105469 189.140625 C 247.6875 189.351562 244.265625 189.53125 240.847656 189.679688 C 237.578125 189.828125 234.3125 189.949219 231.074219 190.007812 C 226.394531 190.097656 221.6875 190.097656 217.007812 190.128906 C 216.078125 190.128906 215.179688 190.097656 214.25 190.097656 C 214.070312 190.097656 213.859375 190.160156 213.679688 189.859375 C 213.917969 189.828125 214.070312 189.800781 214.25 189.800781 C 216.886719 189.738281 219.527344 189.679688 222.136719 189.589844 C 226.003906 189.441406 229.84375 189.257812 233.710938 189.078125 C 236.859375 188.929688 240.007812 188.75 243.15625 188.539062 C 246.15625 188.328125 249.15625 188.058594 252.152344 187.761719 C 253.324219 187.640625 254.464844 187.402344 255.632812 187.191406 C 255.78125 187.160156 256.023438 187.070312 256.082031 186.949219 C 256.292969 186.53125 256.441406 186.050781 256.621094 185.601562 C 256.414062 185.542969 256.382812 185.511719 256.324219 185.511719 Z M 202.074219 177.113281 C 203.902344 177.175781 205.761719 177.234375 207.59375 177.265625 C 210.199219 177.292969 212.78125 177.324219 215.390625 177.324219 C 216.136719 177.324219 216.859375 177.292969 217.609375 177.234375 C 218.566406 177.175781 218.988281 176.515625 218.71875 175.613281 C 218.6875 175.554688 218.6875 175.523438 218.65625 175.464844 C 217.878906 173.394531 217.097656 171.328125 216.257812 169.257812 C 216.046875 168.71875 215.75 168.238281 215.390625 167.757812 C 214.789062 166.980469 213.980469 166.410156 213.109375 165.960938 C 211.371094 165 209.480469 164.699219 207.53125 164.578125 C 206.210938 164.488281 204.863281 164.460938 203.542969 164.398438 C 201.894531 164.308594 200.273438 164.25 198.625 164.160156 C 197.214844 164.101562 195.808594 164.011719 194.425781 163.949219 C 193.496094 163.917969 192.566406 163.859375 191.609375 163.859375 C 190.859375 163.859375 190.46875 164.28125 190.5 165.03125 C 190.527344 166.050781 190.527344 167.039062 190.558594 168.058594 C 190.589844 170.15625 190.617188 172.257812 190.707031 174.324219 C 190.707031 174.714844 190.828125 175.105469 190.980469 175.464844 C 191.21875 176.003906 191.636719 176.363281 192.269531 176.394531 C 194.066406 176.542969 195.898438 176.726562 197.695312 176.875 C 197.757812 176.875 197.816406 176.84375 197.90625 176.816406 C 197.9375 176.726562 197.9375 176.632812 197.9375 176.542969 C 198.085938 174.683594 198.207031 172.796875 198.355469 170.9375 C 198.445312 169.828125 198.566406 168.71875 198.683594 167.609375 C 198.714844 167.429688 198.777344 167.277344 198.835938 167.097656 C 199.164062 167.160156 199.195312 167.367188 199.226562 167.578125 C 199.253906 167.910156 199.316406 168.269531 199.34375 168.597656 C 199.613281 170.578125 199.886719 172.554688 200.125 174.535156 C 200.214844 175.34375 200.304688 176.15625 200.394531 176.996094 C 200.996094 177.023438 201.535156 177.085938 202.074219 177.113281 Z M 223.214844 172.464844 C 223.457031 172.40625 223.664062 172.375 223.90625 172.375 C 225.285156 172.285156 226.664062 172.167969 228.074219 172.136719 C 231.613281 171.988281 235.152344 171.867188 238.660156 171.714844 C 241.898438 171.597656 245.136719 171.476562 248.40625 171.386719 C 248.585938 171.386719 248.765625 171.355469 248.945312 171.355469 C 249.066406 170.667969 249.125 170.039062 249.125 169.347656 C 248.644531 169.347656 248.195312 169.347656 247.777344 169.347656 C 242.828125 169.316406 237.878906 169.289062 232.960938 169.257812 C 230.59375 169.226562 228.222656 169.199219 225.882812 169.167969 C 224.65625 169.167969 223.394531 169.199219 222.167969 169.199219 C 221.925781 169.199219 221.65625 169.257812 221.445312 168.929688 C 221.6875 168.867188 221.894531 168.777344 222.105469 168.746094 C 222.617188 168.6875 223.15625 168.65625 223.664062 168.65625 C 228.285156 168.597656 232.902344 168.539062 237.519531 168.449219 C 240.9375 168.359375 244.355469 168.207031 247.804688 168.089844 C 248.316406 168.058594 248.796875 168.027344 249.304688 168 C 249.367188 167.546875 249.367188 167.128906 249.183594 166.738281 C 248.976562 166.230469 248.617188 165.988281 248.046875 165.988281 C 247.746094 165.988281 247.445312 165.988281 247.117188 165.988281 C 238.179688 165.988281 229.242188 165.988281 220.335938 165.988281 C 219.945312 165.988281 219.558594 165.960938 219.136719 165.960938 C 218.835938 165.960938 218.566406 165.960938 218.269531 166.019531 C 217.488281 166.199219 217.1875 166.796875 217.488281 167.546875 C 217.578125 167.757812 217.699219 167.96875 217.757812 168.179688 C 218.539062 170.128906 219.289062 172.078125 220.066406 173.996094 C 220.488281 175.015625 221.207031 175.675781 222.347656 175.707031 C 223.546875 175.765625 224.714844 175.796875 225.914062 175.796875 C 227.894531 175.796875 229.84375 175.765625 231.820312 175.734375 C 233.980469 175.675781 236.140625 175.613281 238.300781 175.496094 C 241.027344 175.34375 243.757812 175.136719 246.488281 174.925781 C 247.445312 174.867188 248.164062 174.355469 248.617188 173.484375 C 248.734375 173.246094 248.855469 173.007812 248.707031 172.675781 C 248.527344 172.675781 248.375 172.675781 248.226562 172.675781 C 242.316406 172.675781 236.378906 172.675781 230.472656 172.707031 C 228.132812 172.707031 225.792969 172.796875 223.425781 172.855469 C 223.214844 172.855469 222.976562 172.976562 222.796875 172.644531 C 222.976562 172.585938 223.097656 172.496094 223.214844 172.464844 Z M 139.039062 125.296875 C 140.839844 124.996094 142.636719 124.664062 144.40625 124.367188 C 146.054688 124.097656 147.707031 123.824219 149.355469 123.527344 C 149.953125 123.40625 150.554688 123.257812 151.125 123.046875 C 151.933594 122.746094 152.382812 122.085938 152.59375 121.246094 C 153.042969 119.175781 153.523438 117.136719 153.972656 115.070312 C 154.214844 113.929688 154.484375 112.820312 154.691406 111.679688 C 154.84375 110.902344 154.394531 110.300781 153.613281 110.121094 C 153.015625 109.972656 152.472656 110.121094 151.902344 110.269531 C 148.964844 111.171875 146.054688 112.039062 143.117188 112.941406 C 141.917969 113.300781 140.75 113.71875 139.578125 114.078125 C 138.46875 114.441406 137.929688 115.21875 137.660156 116.300781 C 137.089844 118.578125 136.519531 120.855469 135.949219 123.105469 C 135.832031 123.585938 135.800781 124.066406 135.921875 124.546875 C 136.128906 125.234375 136.730469 125.566406 137.449219 125.386719 C 137.660156 124.425781 137.898438 123.464844 138.140625 122.507812 C 138.648438 120.4375 139.1875 118.398438 139.730469 116.328125 C 139.789062 116.148438 139.757812 115.9375 140 115.847656 C 140.238281 115.96875 140.179688 116.148438 140.148438 116.328125 C 139.730469 118.789062 139.308594 121.277344 138.917969 123.734375 C 138.828125 124.246094 138.769531 124.753906 138.710938 125.324219 C 138.828125 125.296875 138.949219 125.296875 139.039062 125.296875 Z M 257.191406 175.34375 C 257.550781 175.285156 257.820312 175.074219 257.941406 174.746094 C 258 174.566406 258.03125 174.355469 258.0625 174.175781 C 258.210938 172.046875 258.0625 169.917969 257.851562 167.816406 C 257.730469 166.558594 257.402344 165.359375 256.800781 164.25 C 255.363281 161.609375 253.863281 159.03125 252.183594 156.574219 C 251.882812 156.152344 251.554688 155.734375 251.222656 155.34375 C 251.164062 155.253906 251.042969 155.222656 250.953125 155.164062 C 250.925781 155.191406 250.894531 155.222656 250.863281 155.253906 C 250.984375 155.554688 251.074219 155.851562 251.222656 156.121094 C 252.152344 158.042969 253.054688 159.960938 253.804688 161.96875 C 254.164062 162.898438 254.433594 163.890625 254.761719 164.878906 C 254.464844 164.96875 254.222656 165.058594 254.011719 165.148438 C 253.535156 165.328125 253.023438 165.507812 252.574219 165.71875 C 251.734375 166.109375 251.285156 166.796875 251.195312 167.699219 C 250.984375 169.707031 250.804688 171.714844 250.625 173.726562 C 250.59375 174.175781 250.59375 174.65625 250.65625 175.136719 C 250.714844 175.796875 251.074219 176.035156 251.703125 176.003906 C 252.09375 175.976562 252.453125 175.945312 252.84375 175.914062 C 253.472656 175.855469 254.074219 175.796875 254.734375 175.707031 C 254.851562 175.015625 254.972656 174.386719 255.0625 173.757812 C 255.304688 171.925781 255.484375 170.066406 255.484375 168.207031 C 255.484375 168.027344 255.421875 167.847656 255.722656 167.699219 C 255.78125 167.789062 255.902344 167.878906 255.933594 168 C 255.992188 168.179688 256.023438 168.359375 256.023438 168.539062 C 256.113281 169.765625 256.203125 170.996094 256.261719 172.195312 C 256.324219 173.246094 256.351562 174.324219 256.382812 175.433594 C 256.652344 175.40625 256.921875 175.40625 257.191406 175.34375 Z M 180.664062 176.335938 C 180.273438 175.046875 179.824219 173.816406 179.164062 172.644531 C 178.503906 171.476562 177.695312 170.425781 176.675781 169.527344 C 174.367188 167.519531 171.695312 166.886719 168.699219 167.429688 C 168.066406 167.546875 167.4375 167.726562 166.777344 167.878906 C 166.75 167.789062 166.6875 167.667969 166.6875 167.578125 C 166.359375 165.539062 166.089844 163.46875 166.027344 161.402344 C 165.96875 159.183594 166.027344 156.933594 166.027344 154.683594 C 166.027344 154.535156 166.027344 154.355469 166.027344 154.203125 C 166.027344 154.054688 166 153.875 165.820312 153.875 C 165.699219 153.875 165.546875 153.992188 165.488281 154.113281 C 165.367188 154.382812 165.308594 154.683594 165.25 154.984375 C 165.070312 156.304688 164.859375 157.621094 164.738281 158.941406 C 164.378906 162.71875 164.199219 166.5 164.378906 170.277344 C 164.410156 170.578125 164.46875 170.878906 164.589844 171.148438 C 164.859375 171.714844 165.339844 171.835938 165.910156 171.566406 C 166.238281 171.417969 166.539062 171.207031 166.839844 171.027344 C 168.546875 169.976562 170.375 169.648438 172.355469 169.976562 C 174.484375 170.367188 176.222656 171.445312 177.722656 173.007812 C 178.683594 173.996094 179.433594 175.136719 180.121094 176.335938 C 180.214844 176.515625 180.363281 176.664062 180.511719 176.84375 C 180.722656 176.574219 180.722656 176.574219 180.664062 176.335938 Z M 201.925781 189.859375 C 202.074219 188.75 201.863281 187.699219 201.175781 186.800781 C 200.816406 186.320312 200.335938 185.960938 199.734375 185.839844 C 199.105469 185.722656 198.683594 185.960938 198.445312 186.53125 C 197.875 187.96875 197.816406 189.410156 198.324219 190.878906 C 198.566406 191.597656 198.957031 192.257812 199.554688 192.769531 C 200.542969 193.609375 201.863281 193.757812 202.945312 193.007812 C 203.394531 192.707031 203.8125 192.320312 204.082031 191.898438 C 205.28125 190.007812 205.433594 188.03125 204.53125 185.992188 C 204.171875 185.179688 203.574219 184.550781 202.734375 184.191406 C 201.953125 183.863281 201.175781 183.890625 200.394531 184.28125 C 200.425781 184.339844 200.425781 184.371094 200.425781 184.371094 C 200.453125 184.402344 200.484375 184.429688 200.515625 184.429688 C 201.894531 185.089844 202.613281 186.261719 202.882812 187.730469 C 203.035156 188.628906 202.972656 189.53125 202.523438 190.371094 C 202.402344 190.609375 202.253906 190.878906 201.894531 190.96875 C 201.714844 190.519531 201.863281 190.1875 201.925781 189.859375 Z M 233.652344 160.203125 C 232.632812 160.230469 231.640625 160.410156 230.773438 161.011719 C 229.902344 161.609375 229.871094 162.570312 230.710938 163.230469 C 231.132812 163.53125 231.613281 163.769531 232.09375 163.917969 C 233.230469 164.28125 234.402344 164.308594 235.570312 164.128906 C 236.351562 164.011719 237.128906 163.800781 237.761719 163.289062 C 238.480469 162.691406 238.507812 161.789062 237.761719 161.222656 C 237.398438 160.949219 236.980469 160.742188 236.558594 160.589844 C 235.8125 160.320312 235.03125 160.230469 234.222656 160.230469 C 234.070312 160.203125 233.863281 160.203125 233.652344 160.203125 Z M 170.4375 158.613281 C 171.816406 158.460938 173.226562 158.34375 174.605469 158.191406 C 174.816406 158.164062 175.023438 158.101562 175.234375 158.011719 C 175.476562 157.890625 175.476562 157.621094 175.234375 157.503906 C 175.054688 157.414062 174.84375 157.351562 174.636719 157.324219 C 172.867188 157.082031 171.066406 156.84375 169.296875 156.601562 C 169.117188 156.574219 168.90625 156.601562 168.726562 156.664062 C 167.976562 156.933594 167.796875 157.890625 168.367188 158.433594 C 168.636719 158.671875 168.9375 158.730469 169.265625 158.730469 C 169.65625 158.703125 170.046875 158.640625 170.4375 158.613281 Z M 118.378906 168.449219 C 119.996094 168.597656 121.644531 168.71875 123.265625 168.929688 C 123.925781 169.019531 124.226562 168.628906 124.644531 168.269531 C 122.785156 168.027344 118.199219 167.96875 117.71875 168.207031 C 117.867188 168.449219 118.136719 168.417969 118.378906 168.449219 Z M 118.046875 173.90625 C 117.898438 173.90625 117.71875 173.875 117.628906 174.117188 C 118.648438 174.414062 119.667969 174.535156 120.6875 174.683594 C 120.746094 174.476562 120.777344 174.324219 120.835938 174.085938 C 119.878906 174.027344 118.976562 173.964844 118.046875 173.90625 Z M 118.046875 173.90625 " fill-opacity="1" fill-rule="nonzero"/></g><g clip-path="url(#d37482513c)"><path fill="#ffffff" d="M 75.46875 200.617188 C 75.644531 200.550781 75.65625 200.359375 75.589844 198.269531 C 75.230469 186.808594 75.488281 181.175781 76.738281 173.214844 C 80.261719 150.703125 91.195312 129.40625 107.671875 112.945312 C 126.492188 94.148438 151.878906 82.074219 178.042969 79.480469 C 182.082031 79.078125 184.066406 78.988281 188.746094 78.988281 C 193.207031 78.988281 195.183594 79.074219 199.011719 79.421875 C 218.574219 81.210938 236.226562 87.578125 250.054688 97.835938 C 262.730469 107.238281 273.65625 120.359375 280.789062 134.742188 C 284.386719 142.003906 287.082031 149.847656 289.0625 158.835938 C 290.992188 167.597656 291.527344 173.957031 291.40625 186.664062 C 291.347656 192.84375 291.222656 195.136719 290.773438 198.132812 C 290.648438 198.949219 290.519531 199.875 290.484375 200.191406 C 290.421875 200.753906 290.425781 200.769531 290.695312 200.769531 C 290.933594 200.769531 291.003906 200.679688 291.199219 200.136719 C 291.769531 198.5625 292.027344 197.4375 292.582031 194.101562 C 293.355469 189.476562 293.660156 186.808594 293.855469 183.039062 C 293.921875 181.773438 294.019531 180.144531 294.078125 179.417969 C 294.652344 172.210938 293.921875 162.375 292.199219 154.035156 C 289.839844 142.621094 284.898438 130.082031 278.777344 119.976562 C 270.519531 106.34375 259.046875 94.867188 244.292969 85.484375 C 236.480469 80.519531 228.226562 76.59375 219.8125 73.839844 C 211.550781 71.136719 204 69.683594 194.785156 69.023438 C 192.277344 68.847656 184.339844 68.847656 181.777344 69.027344 C 172.40625 69.683594 164.597656 71.078125 156.308594 73.582031 C 142.007812 77.898438 128.492188 85.214844 116.878906 94.921875 C 108.074219 102.28125 100.292969 111.023438 93.738281 120.921875 C 83.242188 136.761719 76.609375 155.101562 74.539062 173.984375 C 73.578125 182.757812 73.699219 194.039062 74.816406 199.5625 C 74.996094 200.449219 75.171875 200.730469 75.46875 200.617188 Z M 75.46875 200.617188 " fill-opacity="1" fill-rule="nonzero"/></g><g fill="#ffffff" fill-opacity="1"><g transform="translate(44.431642, 258.413522)"><g><path d="M 3.953125 -32.90625 L 29 -32.90625 L 29 -26.3125 L 11.1875 -26.3125 L 11.1875 -19.3125 L 26.890625 -19.3125 L 26.890625 -12.734375 L 11.1875 -12.734375 L 11.1875 0 L 3.953125 0 Z M 3.953125 -32.90625 "/></g></g></g><g fill="#ffffff" fill-opacity="1"><g transform="translate(75.258476, 258.413522)"><g><path d="M 15.234375 -33.140625 L 21.90625 -33.140625 L 36 0 L 28.4375 0 L 25.421875 -7.375 L 11.515625 -7.375 L 8.5 0 L 1.125 0 Z M 22.84375 -13.765625 L 18.46875 -24.4375 L 14.09375 -13.765625 Z M 22.84375 -13.765625 "/></g></g></g><g fill="#ffffff" fill-opacity="1"><g transform="translate(112.382249, 258.413522)"><g><path d="M 3.953125 -32.90625 L 11.1875 -32.90625 L 11.1875 -6.578125 L 27.59375 -6.578125 L 27.59375 0 L 3.953125 0 Z M 3.953125 -32.90625 "/></g></g></g><g fill="#ffffff" fill-opacity="1"><g transform="translate(141.47037, 258.413522)"><g><path d="M 19.359375 0.5625 C 16.953125 0.5625 14.710938 0.125 12.640625 -0.75 C 10.578125 -1.625 8.789062 -2.820312 7.28125 -4.34375 C 5.78125 -5.863281 4.601562 -7.65625 3.75 -9.71875 C 2.90625 -11.789062 2.484375 -14.003906 2.484375 -16.359375 L 2.484375 -16.453125 C 2.484375 -18.796875 2.90625 -20.992188 3.75 -23.046875 C 4.601562 -25.097656 5.78125 -26.898438 7.28125 -28.453125 C 8.789062 -30.003906 10.59375 -31.226562 12.6875 -32.125 C 14.789062 -33.019531 17.109375 -33.46875 19.640625 -33.46875 C 21.179688 -33.46875 22.582031 -33.34375 23.84375 -33.09375 C 25.113281 -32.84375 26.265625 -32.492188 27.296875 -32.046875 C 28.335938 -31.609375 29.296875 -31.078125 30.171875 -30.453125 C 31.046875 -29.828125 31.863281 -29.140625 32.625 -28.390625 L 28.015625 -23.078125 C 26.722656 -24.234375 25.410156 -25.140625 24.078125 -25.796875 C 22.753906 -26.460938 21.257812 -26.796875 19.59375 -26.796875 C 18.21875 -26.796875 16.941406 -26.523438 15.765625 -25.984375 C 14.585938 -25.453125 13.578125 -24.71875 12.734375 -23.78125 C 11.890625 -22.84375 11.234375 -21.753906 10.765625 -20.515625 C 10.296875 -19.273438 10.0625 -17.953125 10.0625 -16.546875 L 10.0625 -16.453125 C 10.0625 -15.035156 10.296875 -13.703125 10.765625 -12.453125 C 11.234375 -11.203125 11.878906 -10.101562 12.703125 -9.15625 C 13.535156 -8.21875 14.539062 -7.472656 15.71875 -6.921875 C 16.894531 -6.378906 18.1875 -6.109375 19.59375 -6.109375 C 21.476562 -6.109375 23.066406 -6.453125 24.359375 -7.140625 C 25.660156 -7.828125 26.957031 -8.769531 28.25 -9.96875 L 32.859375 -5.3125 C 32.003906 -4.40625 31.125 -3.585938 30.21875 -2.859375 C 29.3125 -2.140625 28.316406 -1.519531 27.234375 -1 C 26.148438 -0.488281 24.96875 -0.101562 23.6875 0.15625 C 22.40625 0.425781 20.960938 0.5625 19.359375 0.5625 Z M 19.359375 0.5625 "/></g></g></g><g fill="#ffffff" fill-opacity="1"><g transform="translate(176.150555, 258.413522)"><g><path d="M 19.921875 0.5625 C 17.390625 0.5625 15.054688 0.117188 12.921875 -0.765625 C 10.796875 -1.660156 8.957031 -2.867188 7.40625 -4.390625 C 5.851562 -5.910156 4.644531 -7.695312 3.78125 -9.75 C 2.914062 -11.800781 2.484375 -14.003906 2.484375 -16.359375 L 2.484375 -16.453125 C 2.484375 -18.796875 2.921875 -20.992188 3.796875 -23.046875 C 4.679688 -25.097656 5.898438 -26.898438 7.453125 -28.453125 C 9.003906 -30.003906 10.851562 -31.226562 13 -32.125 C 15.144531 -33.019531 17.484375 -33.46875 20.015625 -33.46875 C 22.554688 -33.46875 24.890625 -33.019531 27.015625 -32.125 C 29.148438 -31.226562 30.992188 -30.019531 32.546875 -28.5 C 34.097656 -26.976562 35.300781 -25.191406 36.15625 -23.140625 C 37.019531 -21.085938 37.453125 -18.890625 37.453125 -16.546875 L 37.453125 -16.453125 C 37.453125 -14.097656 37.015625 -11.894531 36.140625 -9.84375 C 35.265625 -7.789062 34.050781 -5.988281 32.5 -4.4375 C 30.945312 -2.882812 29.097656 -1.660156 26.953125 -0.765625 C 24.804688 0.117188 22.460938 0.5625 19.921875 0.5625 Z M 20.015625 -6.109375 C 21.460938 -6.109375 22.796875 -6.375 24.015625 -6.90625 C 25.234375 -7.4375 26.273438 -8.171875 27.140625 -9.109375 C 28.003906 -10.054688 28.675781 -11.144531 29.15625 -12.375 C 29.644531 -13.613281 29.890625 -14.941406 29.890625 -16.359375 L 29.890625 -16.453125 C 29.890625 -17.859375 29.644531 -19.1875 29.15625 -20.4375 C 28.675781 -21.695312 27.988281 -22.796875 27.09375 -23.734375 C 26.195312 -24.671875 25.140625 -25.414062 23.921875 -25.96875 C 22.703125 -26.519531 21.367188 -26.796875 19.921875 -26.796875 C 18.453125 -26.796875 17.113281 -26.523438 15.90625 -25.984375 C 14.695312 -25.453125 13.660156 -24.71875 12.796875 -23.78125 C 11.941406 -22.84375 11.269531 -21.753906 10.78125 -20.515625 C 10.300781 -19.273438 10.0625 -17.953125 10.0625 -16.546875 L 10.0625 -16.453125 C 10.0625 -15.035156 10.300781 -13.703125 10.78125 -12.453125 C 11.269531 -11.203125 11.957031 -10.101562 12.84375 -9.15625 C 13.738281 -8.21875 14.789062 -7.472656 16 -6.921875 C 17.207031 -6.378906 18.546875 -6.109375 20.015625 -6.109375 Z M 20.015625 -6.109375 "/></g></g></g><g fill="#ffffff" fill-opacity="1"><g transform="translate(216.093855, 258.413522)"><g><path d="M 3.953125 -32.90625 L 10.625 -32.90625 L 26.03125 -12.640625 L 26.03125 -32.90625 L 33.1875 -32.90625 L 33.1875 0 L 27.03125 0 L 11.09375 -20.921875 L 11.09375 0 L 3.953125 0 Z M 3.953125 -32.90625 "/></g></g></g><g fill="#ffffff" fill-opacity="1"><g transform="translate(253.217639, 258.413522)"><g><path d="M 4.28125 -32.90625 L 11.515625 -32.90625 L 11.515625 0 L 4.28125 0 Z M 4.28125 -32.90625 "/></g></g></g><g fill="#ffffff" fill-opacity="1"><g transform="translate(269.007006, 258.413522)"><g><path d="M 3.953125 -32.90625 L 28.765625 -32.90625 L 28.765625 -26.46875 L 11.140625 -26.46875 L 11.140625 -19.78125 L 26.65625 -19.78125 L 26.65625 -13.34375 L 11.140625 -13.34375 L 11.140625 -6.4375 L 29 -6.4375 L 29 0 L 3.953125 0 Z M 3.953125 -32.90625 "/></g></g></g><g fill="#ffffff" fill-opacity="1"><g transform="translate(300.491714, 258.413522)"><g><path d="M 15.65625 0.46875 C 13.144531 0.46875 10.679688 0.0390625 8.265625 -0.8125 C 5.859375 -1.675781 3.664062 -3.003906 1.6875 -4.796875 L 5.96875 -9.921875 C 7.46875 -8.691406 9.007812 -7.71875 10.59375 -7 C 12.175781 -6.28125 13.910156 -5.921875 15.796875 -5.921875 C 17.296875 -5.921875 18.457031 -6.191406 19.28125 -6.734375 C 20.113281 -7.285156 20.53125 -8.050781 20.53125 -9.03125 L 20.53125 -9.125 C 20.53125 -9.59375 20.441406 -10.003906 20.265625 -10.359375 C 20.097656 -10.722656 19.769531 -11.0625 19.28125 -11.375 C 18.800781 -11.6875 18.128906 -12 17.265625 -12.3125 C 16.410156 -12.625 15.289062 -12.953125 13.90625 -13.296875 C 12.25 -13.703125 10.742188 -14.15625 9.390625 -14.65625 C 8.046875 -15.164062 6.90625 -15.785156 5.96875 -16.515625 C 5.03125 -17.253906 4.300781 -18.171875 3.78125 -19.265625 C 3.269531 -20.367188 3.015625 -21.734375 3.015625 -23.359375 L 3.015625 -23.453125 C 3.015625 -24.953125 3.296875 -26.304688 3.859375 -27.515625 C 4.421875 -28.722656 5.207031 -29.765625 6.21875 -30.640625 C 7.238281 -31.515625 8.453125 -32.1875 9.859375 -32.65625 C 11.273438 -33.132812 12.828125 -33.375 14.515625 -33.375 C 16.929688 -33.375 19.148438 -33.007812 21.171875 -32.28125 C 23.191406 -31.5625 25.050781 -30.53125 26.75 -29.1875 L 22.984375 -23.734375 C 21.515625 -24.734375 20.070312 -25.523438 18.65625 -26.109375 C 17.25 -26.691406 15.835938 -26.984375 14.421875 -26.984375 C 13.015625 -26.984375 11.957031 -26.707031 11.25 -26.15625 C 10.550781 -25.601562 10.203125 -24.921875 10.203125 -24.109375 L 10.203125 -24.015625 C 10.203125 -23.484375 10.300781 -23.019531 10.5 -22.625 C 10.707031 -22.238281 11.078125 -21.890625 11.609375 -21.578125 C 12.140625 -21.265625 12.867188 -20.960938 13.796875 -20.671875 C 14.722656 -20.390625 15.890625 -20.0625 17.296875 -19.6875 C 18.953125 -19.25 20.429688 -18.753906 21.734375 -18.203125 C 23.035156 -17.660156 24.128906 -17.003906 25.015625 -16.234375 C 25.910156 -15.472656 26.585938 -14.570312 27.046875 -13.53125 C 27.503906 -12.5 27.734375 -11.265625 27.734375 -9.828125 L 27.734375 -9.734375 C 27.734375 -8.097656 27.429688 -6.644531 26.828125 -5.375 C 26.234375 -4.113281 25.40625 -3.050781 24.34375 -2.1875 C 23.28125 -1.320312 22.007812 -0.660156 20.53125 -0.203125 C 19.0625 0.242188 17.4375 0.46875 15.65625 0.46875 Z M 15.65625 0.46875 "/></g></g></g><g fill="#ffffff" fill-opacity="1"><g transform="translate(104.273436, 290.513566)"><g><path d="M 9.328125 0.265625 C 8.148438 0.265625 7.082031 0.0507812 6.125 -0.375 C 5.164062 -0.800781 4.34375 -1.375 3.65625 -2.09375 C 2.96875 -2.820312 2.4375 -3.664062 2.0625 -4.625 C 1.6875 -5.59375 1.5 -6.601562 1.5 -7.65625 L 1.5 -7.703125 C 1.5 -8.753906 1.6875 -9.765625 2.0625 -10.734375 C 2.445312 -11.703125 2.984375 -12.546875 3.671875 -13.265625 C 4.359375 -13.992188 5.1875 -14.570312 6.15625 -15 C 7.125 -15.4375 8.195312 -15.65625 9.375 -15.65625 C 10.539062 -15.65625 11.601562 -15.441406 12.5625 -15.015625 C 13.53125 -14.597656 14.359375 -14.023438 15.046875 -13.296875 C 15.734375 -12.566406 16.265625 -11.722656 16.640625 -10.765625 C 17.015625 -9.804688 17.203125 -8.800781 17.203125 -7.75 L 17.203125 -7.703125 C 17.203125 -6.640625 17.007812 -5.625 16.625 -4.65625 C 16.25 -3.695312 15.710938 -2.851562 15.015625 -2.125 C 14.328125 -1.394531 13.5 -0.8125 12.53125 -0.375 C 11.570312 0.0507812 10.503906 0.265625 9.328125 0.265625 Z M 9.375 -1.34375 C 10.25 -1.34375 11.054688 -1.503906 11.796875 -1.828125 C 12.535156 -2.160156 13.171875 -2.613281 13.703125 -3.1875 C 14.234375 -3.757812 14.648438 -4.425781 14.953125 -5.1875 C 15.253906 -5.957031 15.40625 -6.78125 15.40625 -7.65625 L 15.40625 -7.703125 C 15.40625 -8.578125 15.253906 -9.398438 14.953125 -10.171875 C 14.648438 -10.941406 14.226562 -11.613281 13.6875 -12.1875 C 13.144531 -12.757812 12.5 -13.210938 11.75 -13.546875 C 11.007812 -13.890625 10.203125 -14.0625 9.328125 -14.0625 C 8.453125 -14.0625 7.640625 -13.894531 6.890625 -13.5625 C 6.148438 -13.226562 5.515625 -12.773438 4.984375 -12.203125 C 4.460938 -11.640625 4.050781 -10.972656 3.75 -10.203125 C 3.445312 -9.441406 3.296875 -8.625 3.296875 -7.75 L 3.296875 -7.703125 C 3.296875 -6.816406 3.445312 -5.988281 3.75 -5.21875 C 4.050781 -4.445312 4.472656 -3.773438 5.015625 -3.203125 C 5.554688 -2.640625 6.195312 -2.1875 6.9375 -1.84375 C 7.675781 -1.507812 8.488281 -1.34375 9.375 -1.34375 Z M 9.375 -1.34375 "/></g></g></g><g fill="#ffffff" fill-opacity="1"><g transform="translate(122.970105, 290.513566)"><g><path d="M 2.171875 -15.40625 L 3.8125 -15.40625 L 13.515625 -3.0625 L 13.515625 -15.40625 L 15.203125 -15.40625 L 15.203125 0 L 13.8125 0 L 3.875 -12.625 L 3.875 0 L 2.171875 0 Z M 2.171875 -15.40625 "/></g></g></g><g fill="#ffffff" fill-opacity="1"><g transform="translate(140.347008, 290.513566)"><g/></g></g><g fill="#ffffff" fill-opacity="1"><g transform="translate(146.945831, 290.513566)"><g><path d="M 6.1875 -13.796875 L 0.984375 -13.796875 L 0.984375 -15.40625 L 13.109375 -15.40625 L 13.109375 -13.796875 L 7.921875 -13.796875 L 7.921875 0 L 6.1875 0 Z M 6.1875 -13.796875 "/></g></g></g><g fill="#ffffff" fill-opacity="1"><g transform="translate(161.045317, 290.513566)"><g><path d="M 2.171875 -15.40625 L 3.921875 -15.40625 L 3.921875 -8.5625 L 12.796875 -8.5625 L 12.796875 -15.40625 L 14.546875 -15.40625 L 14.546875 0 L 12.796875 0 L 12.796875 -6.9375 L 3.921875 -6.9375 L 3.921875 0 L 2.171875 0 Z M 2.171875 -15.40625 "/></g></g></g><g fill="#ffffff" fill-opacity="1"><g transform="translate(177.762342, 290.513566)"><g><path d="M 2.171875 -15.40625 L 13.3125 -15.40625 L 13.3125 -13.8125 L 3.921875 -13.8125 L 3.921875 -8.5625 L 12.3125 -8.5625 L 12.3125 -6.96875 L 3.921875 -6.96875 L 3.921875 -1.578125 L 13.421875 -1.578125 L 13.421875 0 L 2.171875 0 Z M 2.171875 -15.40625 "/></g></g></g><g fill="#ffffff" fill-opacity="1"><g transform="translate(192.499711, 290.513566)"><g/></g></g><g fill="#ffffff" fill-opacity="1"><g transform="translate(199.098534, 290.513566)"><g><path d="M 2.171875 -15.40625 L 8.796875 -15.40625 C 9.753906 -15.40625 10.601562 -15.269531 11.34375 -15 C 12.082031 -14.726562 12.691406 -14.347656 13.171875 -13.859375 C 13.554688 -13.472656 13.847656 -13.023438 14.046875 -12.515625 C 14.253906 -12.003906 14.359375 -11.441406 14.359375 -10.828125 L 14.359375 -10.78125 C 14.359375 -10.132812 14.253906 -9.554688 14.046875 -9.046875 C 13.847656 -8.546875 13.5625 -8.109375 13.1875 -7.734375 C 12.8125 -7.359375 12.367188 -7.050781 11.859375 -6.8125 C 11.347656 -6.570312 10.789062 -6.398438 10.1875 -6.296875 L 14.921875 0 L 12.78125 0 L 8.3125 -5.984375 L 3.921875 -5.984375 L 3.921875 0 L 2.171875 0 Z M 8.640625 -7.546875 C 9.210938 -7.546875 9.738281 -7.617188 10.21875 -7.765625 C 10.707031 -7.910156 11.128906 -8.117188 11.484375 -8.390625 C 11.835938 -8.660156 12.113281 -8.988281 12.3125 -9.375 C 12.507812 -9.769531 12.609375 -10.21875 12.609375 -10.71875 L 12.609375 -10.765625 C 12.609375 -11.710938 12.257812 -12.453125 11.5625 -12.984375 C 10.875 -13.523438 9.910156 -13.796875 8.671875 -13.796875 L 3.921875 -13.796875 L 3.921875 -7.546875 Z M 8.640625 -7.546875 "/></g></g></g><g fill="#ffffff" fill-opacity="1"><g transform="translate(215.001701, 290.513566)"><g><path d="M 9.328125 0.265625 C 8.148438 0.265625 7.082031 0.0507812 6.125 -0.375 C 5.164062 -0.800781 4.34375 -1.375 3.65625 -2.09375 C 2.96875 -2.820312 2.4375 -3.664062 2.0625 -4.625 C 1.6875 -5.59375 1.5 -6.601562 1.5 -7.65625 L 1.5 -7.703125 C 1.5 -8.753906 1.6875 -9.765625 2.0625 -10.734375 C 2.445312 -11.703125 2.984375 -12.546875 3.671875 -13.265625 C 4.359375 -13.992188 5.1875 -14.570312 6.15625 -15 C 7.125 -15.4375 8.195312 -15.65625 9.375 -15.65625 C 10.539062 -15.65625 11.601562 -15.441406 12.5625 -15.015625 C 13.53125 -14.597656 14.359375 -14.023438 15.046875 -13.296875 C 15.734375 -12.566406 16.265625 -11.722656 16.640625 -10.765625 C 17.015625 -9.804688 17.203125 -8.800781 17.203125 -7.75 L 17.203125 -7.703125 C 17.203125 -6.640625 17.007812 -5.625 16.625 -4.65625 C 16.25 -3.695312 15.710938 -2.851562 15.015625 -2.125 C 14.328125 -1.394531 13.5 -0.8125 12.53125 -0.375 C 11.570312 0.0507812 10.503906 0.265625 9.328125 0.265625 Z M 9.375 -1.34375 C 10.25 -1.34375 11.054688 -1.503906 11.796875 -1.828125 C 12.535156 -2.160156 13.171875 -2.613281 13.703125 -3.1875 C 14.234375 -3.757812 14.648438 -4.425781 14.953125 -5.1875 C 15.253906 -5.957031 15.40625 -6.78125 15.40625 -7.65625 L 15.40625 -7.703125 C 15.40625 -8.578125 15.253906 -9.398438 14.953125 -10.171875 C 14.648438 -10.941406 14.226562 -11.613281 13.6875 -12.1875 C 13.144531 -12.757812 12.5 -13.210938 11.75 -13.546875 C 11.007812 -13.890625 10.203125 -14.0625 9.328125 -14.0625 C 8.453125 -14.0625 7.640625 -13.894531 6.890625 -13.5625 C 6.148438 -13.226562 5.515625 -12.773438 4.984375 -12.203125 C 4.460938 -11.640625 4.050781 -10.972656 3.75 -10.203125 C 3.445312 -9.441406 3.296875 -8.625 3.296875 -7.75 L 3.296875 -7.703125 C 3.296875 -6.816406 3.445312 -5.988281 3.75 -5.21875 C 4.050781 -4.445312 4.472656 -3.773438 5.015625 -3.203125 C 5.554688 -2.640625 6.195312 -2.1875 6.9375 -1.84375 C 7.675781 -1.507812 8.488281 -1.34375 9.375 -1.34375 Z M 9.375 -1.34375 "/></g></g></g><g fill="#ffffff" fill-opacity="1"><g transform="translate(233.69837, 290.513566)"><g><path d="M 7.875 -15.515625 L 9.5 -15.515625 L 16.515625 0 L 14.65625 0 L 12.84375 -4.0625 L 4.46875 -4.0625 L 2.640625 0 L 0.859375 0 Z M 12.171875 -5.625 L 8.671875 -13.484375 L 5.140625 -5.625 Z M 12.171875 -5.625 "/></g></g></g><g fill="#ffffff" fill-opacity="1"><g transform="translate(251.075273, 290.513566)"><g><path d="M 2.171875 -15.40625 L 7.53125 -15.40625 C 8.726562 -15.40625 9.828125 -15.207031 10.828125 -14.8125 C 11.835938 -14.425781 12.703125 -13.890625 13.421875 -13.203125 C 14.148438 -12.515625 14.710938 -11.703125 15.109375 -10.765625 C 15.503906 -9.835938 15.703125 -8.832031 15.703125 -7.75 L 15.703125 -7.703125 C 15.703125 -6.617188 15.503906 -5.601562 15.109375 -4.65625 C 14.710938 -3.71875 14.148438 -2.90625 13.421875 -2.21875 C 12.703125 -1.53125 11.835938 -0.988281 10.828125 -0.59375 C 9.828125 -0.195312 8.726562 0 7.53125 0 L 2.171875 0 Z M 3.921875 -13.796875 L 3.921875 -1.609375 L 7.53125 -1.609375 C 8.488281 -1.609375 9.363281 -1.757812 10.15625 -2.0625 C 10.957031 -2.375 11.628906 -2.800781 12.171875 -3.34375 C 12.722656 -3.882812 13.148438 -4.523438 13.453125 -5.265625 C 13.753906 -6.003906 13.90625 -6.800781 13.90625 -7.65625 L 13.90625 -7.703125 C 13.90625 -8.546875 13.753906 -9.335938 13.453125 -10.078125 C 13.148438 -10.828125 12.722656 -11.472656 12.171875 -12.015625 C 11.628906 -12.566406 10.957031 -13 10.15625 -13.3125 C 9.363281 -13.632812 8.488281 -13.796875 7.53125 -13.796875 Z M 3.921875 -13.796875 "/></g></g></g></svg>