<svg xmlns="http://www.w3.org/2000/svg" xmlns:xlink="http://www.w3.org/1999/xlink" width="500" zoomAndPan="magnify" viewBox="0 0 375 149.999998" height="200" preserveAspectRatio="xMidYMid meet" version="1.0"><defs><g/><clipPath id="b5984191b0"><path d="M 19.414062 45 L 122.164062 45 L 122.164062 105 L 19.414062 105 Z M 19.414062 45 " clip-rule="nonzero"/></clipPath><clipPath id="06779ee1f3"><path d="M 6 24 L 136 24 L 136 100 L 6 100 Z M 6 24 " clip-rule="nonzero"/></clipPath><clipPath id="ad43a70622"><path d="M 4.890625 26.207031 L 143.597656 22.652344 L 145.480469 96.128906 L 6.773438 99.683594 Z M 4.890625 26.207031 " clip-rule="nonzero"/></clipPath><clipPath id="358d83afd0"><path d="M 4.890625 26.207031 L 143.597656 22.652344 L 145.480469 96.128906 L 6.773438 99.683594 Z M 4.890625 26.207031 " clip-rule="nonzero"/></clipPath><clipPath id="e7449a9d12"><path d="M 4.890625 26.207031 L 143.597656 22.652344 L 146.804688 147.859375 L 8.101562 151.414062 Z M 4.890625 26.207031 " clip-rule="nonzero"/></clipPath><clipPath id="4d718557a0"><path d="M 40 75 L 65 75 L 65 92 L 40 92 Z M 40 75 " clip-rule="nonzero"/></clipPath><clipPath id="9d0a5dc33e"><path d="M 40.125 84.695312 L 59.359375 69.125 L 70.214844 82.53125 L 50.976562 98.105469 Z M 40.125 84.695312 " clip-rule="nonzero"/></clipPath><clipPath id="f1f4b3db33"><path d="M 40.125 84.695312 L 59.359375 69.125 L 70.214844 82.53125 L 50.976562 98.105469 Z M 40.125 84.695312 " clip-rule="nonzero"/></clipPath><clipPath id="96fbfc005d"><path d="M 40.125 84.695312 L 59.359375 69.125 L 70.214844 82.53125 L 50.976562 98.105469 Z M 40.125 84.695312 " clip-rule="nonzero"/></clipPath></defs><path fill="#000000" d="M 62.738281 69.457031 C 62.160156 69.160156 61.914062 68.664062 61.925781 67.824219 C 61.9375 67.011719 62.851562 61.636719 63.171875 60.515625 C 63.429688 59.601562 63.96875 59.023438 64.769531 58.800781 C 65.121094 58.707031 66.632812 58.386719 68.128906 58.09375 C 71.183594 57.492188 71.367188 57.5 71.773438 58.253906 C 71.996094 58.671875 72.003906 58.789062 71.871094 59.691406 C 71.789062 60.230469 71.503906 62.167969 71.230469 64 C 70.960938 65.832031 70.652344 67.503906 70.542969 67.710938 C 70.320312 68.148438 69.886719 68.519531 69.378906 68.714844 C 69.042969 68.84375 63.792969 69.621094 63.289062 69.613281 C 63.152344 69.613281 62.90625 69.542969 62.738281 69.457031 Z M 67.003906 64.855469 C 70.5 64.222656 70.714844 64.167969 70.714844 63.917969 L 70.714844 63.652344 L 69.1875 63.933594 C 68.347656 64.085938 66.84375 64.363281 65.847656 64.542969 C 64.851562 64.726562 63.917969 64.902344 63.773438 64.941406 C 63.511719 65.003906 63.511719 64.996094 63.671875 64.089844 C 64.101562 61.664062 64.351562 60.675781 64.589844 60.4375 C 64.765625 60.257812 65.515625 60.046875 67.324219 59.660156 C 70.554688 58.964844 70.921875 58.914062 71.152344 59.105469 C 71.308594 59.234375 71.339844 59.222656 71.339844 59.039062 C 71.339844 58.722656 70.976562 58.355469 70.664062 58.355469 C 70.15625 58.359375 64.957031 59.484375 64.59375 59.671875 C 64.394531 59.777344 64.144531 60.023438 64.042969 60.21875 C 63.894531 60.511719 62.976562 65.050781 62.976562 65.507812 C 62.976562 65.578125 63.046875 65.613281 63.132812 65.582031 C 63.21875 65.550781 64.960938 65.222656 67.003906 64.855469 Z M 67.003906 64.855469 " fill-opacity="1" fill-rule="nonzero"/><path fill="#000000" d="M 51.492188 70.882812 C 50.824219 70.214844 50.839844 69.898438 51.757812 65.113281 C 52.289062 62.332031 52.53125 61.636719 53.117188 61.21875 C 53.441406 60.984375 58.585938 59.855469 59.332031 59.855469 C 59.910156 59.855469 60.355469 60.328125 60.355469 60.941406 C 60.355469 61.734375 59.105469 69.015625 58.894531 69.46875 C 58.507812 70.28125 58.070312 70.441406 55.113281 70.863281 C 53.636719 71.070312 52.300781 71.242188 52.140625 71.242188 C 51.980469 71.242188 51.6875 71.082031 51.492188 70.882812 Z M 55.066406 66.859375 C 59.335938 66.070312 59.109375 66.128906 59.109375 65.839844 C 59.109375 65.613281 59.058594 65.59375 58.640625 65.675781 C 55.34375 66.324219 52.617188 66.796875 52.617188 66.71875 C 52.617188 66.5 53.382812 62.960938 53.492188 62.667969 C 53.648438 62.253906 53.765625 62.214844 56.859375 61.597656 C 59.425781 61.082031 59.523438 61.074219 59.6875 61.296875 C 59.851562 61.523438 59.855469 61.523438 59.855469 61.28125 C 59.855469 60.839844 59.554688 60.5625 59.09375 60.582031 C 58.375 60.609375 53.820312 61.613281 53.511719 61.816406 C 53.089844 62.085938 52.9375 62.550781 52.503906 64.886719 C 52.085938 67.148438 52.0625 67.363281 52.226562 67.363281 C 52.289062 67.363281 53.566406 67.136719 55.066406 66.859375 Z M 55.066406 66.859375 " fill-opacity="1" fill-rule="nonzero"/><path fill="#000000" d="M 41.597656 72.492188 C 41.421875 72.351562 41.210938 72.042969 41.132812 71.800781 C 40.960938 71.285156 41.015625 70.902344 41.824219 66.828125 C 42.40625 63.894531 42.601562 63.394531 43.289062 63.070312 C 43.898438 62.785156 48.8125 61.816406 49.183594 61.910156 C 49.382812 61.960938 49.582031 62.152344 49.707031 62.421875 C 49.902344 62.828125 49.894531 62.949219 49.570312 64.824219 C 48.460938 71.1875 48.433594 71.277344 47.679688 71.746094 C 47.410156 71.914062 46.511719 72.097656 44.683594 72.363281 C 43.246094 72.574219 42.035156 72.742188 41.992188 72.742188 C 41.949219 72.742188 41.773438 72.628906 41.597656 72.492188 Z M 48.589844 67.871094 C 48.609375 67.867188 48.621094 67.75 48.621094 67.613281 C 48.621094 67.414062 48.5625 67.371094 48.339844 67.421875 C 47.5 67.613281 42.699219 68.472656 42.664062 68.441406 C 42.601562 68.378906 43.382812 64.710938 43.511719 64.472656 C 43.652344 64.210938 43.664062 64.207031 45.566406 63.796875 C 48.757812 63.105469 48.917969 63.085938 49.089844 63.320312 C 49.230469 63.511719 49.246094 63.5 49.246094 63.222656 C 49.246094 62.824219 49.03125 62.609375 48.628906 62.609375 C 48.269531 62.609375 44.414062 63.417969 43.773438 63.625 C 43.457031 63.730469 43.296875 63.894531 43.125 64.28125 C 42.929688 64.730469 42.132812 68.4375 42.132812 68.902344 C 42.132812 69.03125 42.871094 68.929688 45.347656 68.472656 C 47.113281 68.144531 48.574219 67.875 48.589844 67.871094 Z M 48.589844 67.871094 " fill-opacity="1" fill-rule="nonzero"/><path fill="#000000" d="M 32.488281 73.859375 C 32.191406 73.6875 31.894531 73.082031 31.898438 72.65625 C 31.898438 72.21875 32.96875 66.585938 33.164062 65.988281 C 33.515625 64.910156 33.71875 64.8125 36.921875 64.167969 C 40.378906 63.476562 40.308594 63.351562 39.390625 68.542969 C 38.730469 72.296875 38.589844 72.75 37.949219 73.171875 C 37.757812 73.296875 36.792969 73.492188 35.421875 73.683594 C 32.945312 74.03125 32.796875 74.039062 32.488281 73.859375 Z M 35.8125 69.992188 C 37.308594 69.714844 38.585938 69.492188 38.648438 69.492188 C 38.710938 69.492188 38.761719 69.378906 38.761719 69.242188 C 38.761719 69.101562 38.71875 68.992188 38.667969 68.992188 C 38.617188 68.996094 37.421875 69.210938 36.015625 69.476562 C 34.609375 69.738281 33.445312 69.945312 33.429688 69.9375 C 33.382812 69.902344 34.140625 66.546875 34.257812 66.28125 C 34.40625 65.949219 34.707031 65.851562 37.191406 65.351562 C 39.097656 64.96875 39.183594 64.964844 39.34375 65.183594 C 39.5 65.394531 39.511719 65.394531 39.511719 65.191406 C 39.511719 65.070312 39.449219 64.855469 39.375 64.710938 C 39.253906 64.484375 39.15625 64.464844 38.585938 64.53125 C 37.933594 64.609375 35.480469 65.125 34.613281 65.367188 C 33.980469 65.542969 33.851562 65.832031 33.390625 68.128906 C 33.179688 69.1875 32.976562 70.152344 32.941406 70.273438 C 32.90625 70.394531 32.925781 70.492188 32.984375 70.492188 C 33.042969 70.492188 34.316406 70.265625 35.8125 69.992188 Z M 35.8125 69.992188 " fill-opacity="1" fill-rule="nonzero"/><path fill="#000000" d="M 112.308594 79.363281 C 111.347656 79.167969 110.492188 78.292969 109.769531 76.773438 C 108.449219 74.003906 109.160156 71.117188 111.160156 71.117188 C 112.339844 71.117188 113.324219 72.148438 113.988281 74.085938 C 114.257812 74.875 114.320312 75.292969 114.328125 76.308594 C 114.34375 78.679688 113.703125 79.648438 112.308594 79.363281 Z M 112.308594 79.363281 " fill-opacity="1" fill-rule="nonzero"/><path fill="#000000" d="M 103.90625 85.621094 C 103.621094 85.53125 103.171875 85.273438 102.910156 85.054688 C 101.046875 83.480469 101.582031 80.351562 103.835938 79.613281 C 105.769531 78.980469 107.75 80.511719 107.726562 82.621094 C 107.714844 83.421875 107.546875 83.90625 107.035156 84.601562 C 106.371094 85.496094 104.972656 85.953125 103.90625 85.621094 Z M 105.398438 85.109375 C 107.226562 84.609375 107.761719 81.90625 106.289062 80.628906 C 105.128906 79.625 103.414062 79.929688 102.648438 81.269531 C 102.417969 81.675781 102.363281 81.925781 102.367188 82.566406 C 102.371094 83.496094 102.648438 84.128906 103.277344 84.621094 C 103.972656 85.167969 104.632812 85.320312 105.398438 85.109375 Z M 103.265625 85.015625 C 102.980469 84.925781 102.53125 84.671875 102.269531 84.449219 C 100.410156 82.878906 100.941406 79.75 103.195312 79.011719 C 105.132812 78.375 107.113281 79.910156 107.085938 82.019531 C 107.074219 82.820312 106.90625 83.300781 106.394531 83.996094 C 105.730469 84.894531 104.332031 85.351562 103.265625 85.015625 Z M 104.761719 84.507812 C 106.585938 84.007812 107.121094 81.300781 105.648438 80.023438 C 104.488281 79.019531 102.773438 79.324219 102.007812 80.667969 C 101.777344 81.074219 101.722656 81.324219 101.726562 81.960938 C 101.730469 82.894531 102.011719 83.523438 102.636719 84.019531 C 103.332031 84.566406 103.992188 84.71875 104.761719 84.507812 Z M 104.761719 84.507812 " fill-opacity="1" fill-rule="nonzero"/><path fill="#000000" d="M 73.835938 75.628906 C 73.734375 75.558594 73.449219 75.5 73.207031 75.5 C 72.699219 75.496094 72.464844 75.316406 72.464844 74.921875 C 72.464844 74.550781 72.730469 74.359375 73.363281 74.28125 C 73.65625 74.242188 74.050781 74.132812 74.234375 74.039062 C 75.050781 73.628906 76.457031 74.023438 76.457031 74.667969 C 76.457031 74.832031 76.367188 75.039062 76.253906 75.132812 C 75.730469 75.570312 74.210938 75.882812 73.835938 75.628906 Z M 75.949219 74.796875 C 76.101562 74.644531 75.734375 74.621094 74.539062 74.695312 C 73.808594 74.742188 73.210938 74.816406 73.210938 74.859375 C 73.210938 74.941406 75.863281 74.878906 75.949219 74.796875 Z M 75.949219 74.796875 " fill-opacity="1" fill-rule="nonzero"/><path fill="#000000" d="M 24.15625 79.136719 C 23.898438 78.957031 24.132812 78.605469 24.605469 78.46875 C 25.273438 78.277344 27.582031 78.203125 27.878906 78.359375 C 28.21875 78.542969 28.230469 78.824219 27.898438 79 C 27.550781 79.1875 24.398438 79.304688 24.15625 79.136719 Z M 24.15625 79.136719 " fill-opacity="1" fill-rule="nonzero"/><path fill="#000000" d="M 26.191406 68.453125 C 25.929688 68.269531 26.164062 67.921875 26.636719 67.785156 C 27.308594 67.59375 29.617188 67.515625 29.914062 67.675781 C 30.253906 67.859375 30.265625 68.136719 29.933594 68.316406 C 29.585938 68.503906 26.429688 68.617188 26.191406 68.453125 Z M 26.191406 68.453125 " fill-opacity="1" fill-rule="nonzero"/><path fill="#000000" d="M 25.847656 70.316406 C 25.585938 70.136719 25.820312 69.785156 26.292969 69.652344 C 26.960938 69.460938 29.269531 69.382812 29.566406 69.542969 C 29.910156 69.726562 29.917969 70.003906 29.589844 70.183594 C 29.238281 70.371094 26.085938 70.484375 25.847656 70.316406 Z M 25.847656 70.316406 " fill-opacity="1" fill-rule="nonzero"/><path fill="#000000" d="M 25.433594 72.390625 C 25.171875 72.210938 25.40625 71.859375 25.878906 71.726562 C 26.546875 71.535156 28.855469 71.457031 29.152344 71.617188 C 29.496094 71.800781 29.503906 72.078125 29.175781 72.257812 C 28.824219 72.445312 25.671875 72.558594 25.433594 72.390625 Z M 25.433594 72.390625 " fill-opacity="1" fill-rule="nonzero"/><path fill="#000000" d="M 24.097656 80.132812 C 23.882812 79.78125 24.367188 79.597656 25.863281 79.46875 C 27.40625 79.339844 28.027344 79.433594 28.027344 79.796875 C 28.027344 80.050781 27.660156 80.121094 25.832031 80.207031 C 24.589844 80.269531 24.171875 80.25 24.097656 80.132812 Z M 24.097656 80.132812 " fill-opacity="1" fill-rule="nonzero"/><path fill="#000000" d="M 31.328125 81.371094 C 31.328125 81.050781 31.660156 80.914062 32.902344 80.734375 C 35.648438 80.332031 36.820312 80.363281 36.820312 80.84375 C 36.820312 81.09375 36.632812 81.136719 34.589844 81.351562 C 32.289062 81.59375 31.328125 81.601562 31.328125 81.371094 Z M 31.328125 81.371094 " fill-opacity="1" fill-rule="nonzero"/><path fill="#000000" d="M 31.316406 80.117188 C 31.316406 79.796875 31.648438 79.664062 32.890625 79.480469 C 35.636719 79.082031 36.808594 79.113281 36.808594 79.589844 C 36.808594 79.839844 36.621094 79.882812 34.578125 80.101562 C 32.277344 80.34375 31.316406 80.347656 31.316406 80.117188 Z M 31.316406 80.117188 " fill-opacity="1" fill-rule="nonzero"/><path fill="#000000" d="M 31.246094 78.664062 C 31.246094 78.347656 31.582031 78.210938 32.820312 78.03125 C 35.570312 77.628906 36.738281 77.660156 36.738281 78.136719 C 36.738281 78.390625 36.550781 78.433594 34.511719 78.648438 C 32.207031 78.890625 31.246094 78.894531 31.246094 78.664062 Z M 31.246094 78.664062 " fill-opacity="1" fill-rule="nonzero"/><path fill="#000000" d="M 24.074219 81.054688 C 24.035156 80.949219 24.050781 80.808594 24.113281 80.746094 C 24.484375 80.371094 27.625 80.226562 27.90625 80.570312 C 28.179688 80.898438 27.859375 81.035156 26.566406 81.140625 C 24.636719 81.296875 24.160156 81.28125 24.074219 81.054688 Z M 24.074219 81.054688 " fill-opacity="1" fill-rule="nonzero"/><path fill="#000000" d="M 24.03125 81.960938 C 24.03125 81.722656 24.550781 81.515625 25.507812 81.378906 C 26.820312 81.1875 27.460938 81.21875 27.796875 81.492188 C 27.957031 81.625 28.050781 81.769531 28.007812 81.816406 C 27.871094 81.953125 26.304688 82.121094 25.125 82.125 C 24.292969 82.125 24.03125 82.085938 24.03125 81.960938 Z M 24.03125 81.960938 " fill-opacity="1" fill-rule="nonzero"/><path fill="#000000" d="M 24.25 84.308594 C 24.046875 84.097656 24.167969 83.777344 24.488281 83.699219 C 25.21875 83.515625 27.304688 83.402344 27.664062 83.527344 C 28.101562 83.679688 28.136719 83.96875 27.734375 84.121094 C 27.34375 84.273438 24.371094 84.433594 24.25 84.308594 Z M 24.25 84.308594 " fill-opacity="1" fill-rule="nonzero"/><path fill="#000000" d="M 24.3125 85.296875 C 24.023438 85.179688 24.15625 84.867188 24.5625 84.699219 C 24.785156 84.605469 25.53125 84.488281 26.21875 84.441406 C 27.363281 84.359375 27.492188 84.375 27.777344 84.605469 C 28 84.789062 28.050781 84.902344 27.957031 85 C 27.75 85.210938 24.710938 85.457031 24.3125 85.296875 Z M 24.3125 85.296875 " fill-opacity="1" fill-rule="nonzero"/><path fill="#000000" d="M 24.15625 86.039062 C 24.15625 85.722656 24.828125 85.515625 26.195312 85.421875 C 27.015625 85.363281 27.308594 85.390625 27.625 85.554688 C 28.480469 85.996094 28.070312 86.15625 25.875 86.226562 C 24.234375 86.28125 24.15625 86.273438 24.15625 86.039062 Z M 24.15625 86.039062 " fill-opacity="1" fill-rule="nonzero"/><path fill="#000000" d="M 24.507812 87.253906 C 24.347656 87.214844 24.21875 87.101562 24.21875 87.003906 C 24.21875 86.585938 26.589844 86.21875 27.445312 86.5 C 27.894531 86.648438 28.039062 86.910156 27.761719 87.082031 C 27.574219 87.195312 24.875 87.339844 24.507812 87.253906 Z M 24.507812 87.253906 " fill-opacity="1" fill-rule="nonzero"/><path fill="#000000" d="M 33.769531 95.390625 C 33.308594 94.929688 33.566406 93.765625 34.132812 93.765625 C 34.773438 93.765625 35.058594 94.976562 34.515625 95.417969 C 34.167969 95.699219 34.074219 95.699219 33.769531 95.390625 Z M 34.386719 94.898438 C 34.558594 94.582031 34.425781 94.265625 34.128906 94.265625 C 33.953125 94.265625 33.894531 94.355469 33.894531 94.628906 C 33.894531 94.9375 33.957031 95.027344 34.234375 95.128906 C 34.246094 95.136719 34.316406 95.03125 34.386719 94.898438 Z M 34.386719 94.898438 " fill-opacity="1" fill-rule="nonzero"/><path fill="#000000" d="M 78.820312 95.777344 C 78.519531 95.476562 78.453125 95.304688 78.453125 94.828125 C 78.453125 94.351562 78.519531 94.179688 78.820312 93.878906 C 79.261719 93.433594 79.578125 93.417969 80.039062 93.816406 C 80.347656 94.082031 80.390625 94.203125 80.390625 94.828125 C 80.390625 95.449219 80.347656 95.574219 80.039062 95.839844 C 79.578125 96.238281 79.261719 96.21875 78.820312 95.777344 Z M 79.832031 95.070312 C 79.992188 94.648438 79.785156 94.265625 79.398438 94.265625 C 79.105469 94.265625 78.953125 94.472656 78.953125 94.875 C 78.953125 95.421875 79.640625 95.574219 79.832031 95.070312 Z M 79.832031 95.070312 " fill-opacity="1" fill-rule="nonzero"/><path fill="#000000" d="M 79.34375 100.886719 C 77.519531 100.523438 75.960938 98.863281 75.394531 96.679688 C 75.15625 95.757812 75.15625 94.015625 75.398438 93.09375 C 75.867188 91.285156 76.980469 89.820312 78.355469 89.1875 C 79.007812 88.890625 79.3125 88.832031 80.140625 88.828125 C 81.003906 88.824219 81.238281 88.871094 81.867188 89.191406 C 83.179688 89.859375 84.324219 91.375 84.765625 93.03125 C 84.992188 93.894531 84.992188 95.886719 84.765625 96.75 C 84.023438 99.539062 81.652344 101.347656 79.34375 100.886719 Z M 80.828125 100.15625 C 81.066406 100.085938 80.964844 100.050781 80.378906 99.992188 C 78.921875 99.855469 77.757812 98.933594 76.984375 97.292969 C 76.574219 96.4375 76.519531 96.199219 76.476562 95.128906 C 76.367188 92.3125 77.640625 90.371094 80.078125 89.644531 C 80.46875 89.527344 80.445312 89.523438 79.832031 89.582031 C 77.824219 89.78125 76.320312 91.457031 75.9375 93.921875 C 75.589844 96.164062 76.5625 98.664062 78.164062 99.65625 C 79.003906 100.179688 80.058594 100.375 80.828125 100.15625 Z M 81.78125 98.757812 C 83.359375 97.992188 84.34375 95.75 83.945312 93.820312 C 83.402344 91.171875 81.269531 89.742188 79.265625 90.679688 C 78.515625 91.027344 77.910156 91.6875 77.46875 92.632812 C 77.179688 93.253906 77.144531 93.476562 77.144531 94.765625 C 77.144531 95.976562 77.1875 96.296875 77.414062 96.789062 C 77.769531 97.558594 78.640625 98.5 79.265625 98.785156 C 79.960938 99.101562 81.097656 99.089844 81.78125 98.757812 Z M 81.78125 98.757812 " fill-opacity="1" fill-rule="nonzero"/><g clip-path="url(#b5984191b0)"><path fill="#000000" d="M 69.71875 104.949219 C 69.269531 104.925781 67.023438 104.847656 64.722656 104.773438 C 55.957031 104.492188 40.453125 103.78125 31.960938 103.269531 C 27.203125 102.984375 20.5625 102.53125 20.289062 102.476562 C 19.808594 102.382812 23.992188 102.144531 29.738281 101.945312 L 32.132812 101.859375 L 31.652344 101.511719 C 31.042969 101.070312 30.375 100.195312 29.898438 99.214844 C 29.492188 98.382812 29.027344 96.707031 29.027344 96.074219 C 29.027344 95.851562 28.992188 95.496094 28.949219 95.28125 C 28.882812 94.949219 28.816406 94.890625 28.496094 94.890625 C 28.28125 94.890625 27.96875 95.023438 27.742188 95.214844 C 27.367188 95.527344 27.316406 95.535156 25.824219 95.5 C 24.324219 95.464844 24.28125 95.46875 23.941406 95.785156 C 23.433594 96.253906 23.242188 96.289062 21.664062 96.191406 C 20.257812 96.105469 20.21875 96.09375 19.820312 95.695312 L 19.414062 95.289062 L 19.414062 93.933594 C 19.414062 92.796875 19.457031 92.507812 19.664062 92.164062 C 19.949219 91.695312 20.339844 91.511719 21.058594 91.511719 C 21.546875 91.511719 21.5625 91.5 21.488281 91.167969 C 20.109375 84.835938 20.535156 76.988281 22.601562 70.800781 C 23.125 69.226562 24.027344 67.253906 24.703125 66.191406 C 25.152344 65.492188 25.164062 65.433594 25.042969 64.871094 C 24.824219 63.839844 25.121094 63.273438 26.308594 62.464844 C 27.234375 61.835938 29.398438 60.796875 31.09375 60.171875 L 32.355469 59.707031 L 32.5 58.773438 C 32.878906 56.335938 34.375 54.242188 36.9375 52.578125 C 38.210938 51.753906 45.902344 49.328125 52.679688 47.617188 C 61.816406 45.304688 65.472656 45.042969 70.546875 46.332031 C 72.863281 46.921875 75.261719 47.800781 77.105469 48.734375 L 77.855469 49.113281 L 79.433594 48.917969 C 88.507812 47.796875 93.589844 47.875 98.863281 49.21875 C 104.296875 50.605469 108.988281 53.039062 112.074219 56.078125 C 113.714844 57.6875 113.996094 58.40625 113.460938 59.601562 L 113.121094 60.355469 L 114.917969 64.046875 L 116.710938 67.738281 L 116.941406 67.425781 C 117.203125 67.066406 117.421875 67.03125 117.703125 67.308594 C 117.851562 67.457031 117.898438 67.769531 117.894531 68.59375 C 117.894531 69.191406 117.84375 69.757812 117.785156 69.851562 C 117.714844 69.960938 117.789062 70.265625 117.988281 70.710938 C 118.164062 71.089844 118.460938 72.191406 118.65625 73.164062 C 119.34375 76.636719 119.636719 80.523438 119.679688 86.757812 L 119.707031 90.824219 L 120.339844 90.886719 C 121.078125 90.960938 121.558594 91.242188 121.898438 91.800781 C 122.101562 92.136719 122.140625 92.433594 122.140625 93.714844 C 122.140625 95.078125 122.113281 95.269531 121.859375 95.652344 C 121.316406 96.46875 121.160156 96.5 116.394531 96.644531 C 114.027344 96.714844 111.824219 96.785156 111.492188 96.800781 L 110.886719 96.828125 L 110.488281 97.898438 C 109.605469 100.253906 108.066406 101.925781 105.992188 102.78125 C 105.515625 102.976562 105.550781 102.984375 107.925781 103.0625 C 113.53125 103.25 118.140625 103.445312 118.09375 103.492188 C 117.996094 103.589844 110.195312 104.261719 106.914062 104.457031 C 100.117188 104.855469 97.160156 104.921875 84.007812 104.957031 C 76.59375 104.976562 70.164062 104.972656 69.714844 104.949219 Z M 100.046875 102.710938 C 100.046875 102.679688 99.753906 102.503906 99.394531 102.320312 C 98.019531 101.621094 96.242188 99.394531 95.800781 97.8125 L 95.648438 97.265625 L 93.886719 97.265625 C 92.269531 97.265625 92.085938 97.242188 91.695312 96.984375 C 90.890625 96.457031 90.75 96.394531 90.296875 96.394531 C 89.851562 96.390625 89.839844 96.402344 89.753906 96.976562 C 89.515625 98.570312 88.601562 100.617188 87.632812 101.726562 L 87.070312 102.371094 L 88.972656 102.445312 C 90.019531 102.484375 92.867188 102.566406 95.304688 102.625 C 97.742188 102.679688 99.808594 102.738281 99.894531 102.75 C 99.976562 102.761719 100.046875 102.746094 100.046875 102.710938 Z M 73.941406 101.929688 C 73.125 101.042969 72.226562 99.109375 71.917969 97.582031 L 71.765625 96.828125 L 66.367188 96.722656 C 63.394531 96.664062 60.9375 96.644531 60.902344 96.679688 C 60.867188 96.714844 60.753906 97.070312 60.648438 97.472656 C 60.242188 99.03125 59.1875 100.703125 58.203125 101.339844 C 57.890625 101.542969 57.53125 101.777344 57.40625 101.859375 C 57.222656 101.976562 58.148438 102.011719 61.730469 102.03125 C 65.71875 102.054688 72.839844 102.179688 73.890625 102.25 L 74.257812 102.273438 Z M 80.894531 102.078125 C 84.214844 101.21875 86.339844 97.066406 85.507812 93.074219 C 85.242188 91.804688 84.449219 90.28125 83.550781 89.320312 C 81.390625 87.003906 78.292969 86.957031 76.011719 89.195312 C 74.605469 90.578125 73.84375 92.625 73.839844 95.027344 C 73.835938 97.214844 74.523438 99.082031 75.851562 100.464844 C 77.316406 101.996094 79.058594 102.554688 80.894531 102.078125 Z M 52.992188 101.972656 C 52.992188 101.941406 52.746094 101.777344 52.449219 101.601562 C 51.28125 100.914062 49.855469 98.925781 49.660156 97.699219 C 49.609375 97.394531 49.535156 97.273438 49.417969 97.320312 C 49.324219 97.355469 48.757812 97.480469 48.15625 97.601562 C 46.96875 97.835938 43.542969 97.910156 42.472656 97.730469 C 41.957031 97.640625 41.871094 97.65625 41.804688 97.855469 C 41.324219 99.289062 40.34375 100.765625 39.4375 101.417969 L 38.859375 101.835938 L 45.644531 101.898438 C 49.375 101.933594 52.554688 101.976562 52.710938 101.992188 C 52.863281 102.007812 52.992188 102 52.992188 101.972656 Z M 35.855469 100.277344 C 37.015625 99.746094 38.066406 98.246094 38.464844 96.546875 C 38.726562 95.414062 38.65625 93.722656 38.316406 93.140625 C 37.933594 92.480469 37.75 92.519531 37.960938 93.214844 C 38.222656 94.085938 38.1875 95.824219 37.890625 96.789062 C 37.082031 99.421875 34.828125 100.410156 33.109375 98.890625 C 31.46875 97.441406 31.023438 94.21875 32.15625 91.992188 C 32.472656 91.375 32.464844 91.351562 31.988281 91.449219 C 31.058594 91.636719 30.597656 92.796875 30.597656 94.953125 C 30.597656 96.390625 30.789062 97.320312 31.296875 98.3125 C 31.648438 99.003906 32.570312 99.957031 33.183594 100.261719 C 33.875 100.601562 35.121094 100.609375 35.855469 100.277344 Z M 34.882812 98.847656 C 33.742188 98.539062 32.949219 97.609375 32.574219 96.140625 C 32.171875 94.5625 32.589844 92.636719 33.558594 91.605469 C 33.859375 91.285156 33.863281 91.261719 33.632812 91.261719 C 33.273438 91.261719 32.6875 91.957031 32.367188 92.761719 C 31.96875 93.757812 31.96875 95.898438 32.367188 96.902344 C 32.90625 98.246094 33.828125 99.019531 34.890625 99.007812 L 35.453125 99.003906 Z M 35.867188 97.839844 C 36.789062 97.359375 37.289062 96.425781 37.363281 95.050781 C 37.480469 92.925781 36.566406 91.511719 35.078125 91.511719 C 34.242188 91.511719 33.601562 92.023438 33.125 93.078125 C 32.570312 94.296875 32.816406 96.40625 33.617188 97.3125 C 34.210938 97.980469 35.167969 98.207031 35.867188 97.839844 Z M 109.089844 95.453125 C 117.261719 95.28125 119.019531 95.214844 119.753906 95.0625 C 120.042969 95.003906 120.042969 95 119.816406 94.746094 C 119.523438 94.421875 118.421875 93.859375 117.414062 93.519531 C 114.160156 92.417969 109.585938 92.460938 103.769531 93.640625 C 101.707031 94.0625 95.890625 95.398438 95.617188 95.515625 C 95.242188 95.679688 99.300781 95.660156 109.089844 95.453125 Z M 71.589844 95.140625 L 71.589844 94.765625 L 56.546875 94.765625 C 46.363281 94.765625 41.507812 94.804688 41.507812 94.894531 C 41.507812 94.964844 41.648438 95.074219 41.824219 95.140625 C 42.097656 95.246094 55.097656 95.421875 68 95.496094 L 71.589844 95.515625 Z M 90.566406 94.046875 C 90.566406 93.484375 90.648438 93.023438 90.808594 92.667969 L 91.050781 92.136719 L 89.777344 92.132812 C 88.28125 92.132812 87.699219 91.929688 87.097656 91.199219 C 86.871094 90.917969 86.183594 89.46875 85.429688 87.671875 C 84.070312 84.433594 83.660156 83.761719 82.886719 83.503906 C 82.566406 83.398438 81.28125 83.394531 77.84375 83.496094 C 75.304688 83.570312 72.859375 83.628906 72.410156 83.628906 L 71.589844 83.628906 L 71.589844 82.035156 C 71.589844 81.15625 71.648438 78.480469 71.726562 76.082031 C 71.804688 73.6875 71.84375 71.710938 71.820312 71.6875 C 71.777344 71.644531 65.335938 72.460938 59.105469 73.300781 C 57.289062 73.546875 53.863281 74 51.492188 74.3125 C 49.125 74.621094 45.5 75.101562 43.441406 75.375 C 37.414062 76.175781 32.539062 76.804688 27.375 77.449219 C 23.539062 77.925781 22.523438 78.089844 22.460938 78.242188 C 22.414062 78.351562 22.347656 79.957031 22.316406 81.816406 C 22.25 85.417969 22.390625 87.25 22.921875 89.699219 C 23.292969 91.398438 23.375 91.59375 23.859375 91.878906 C 24.386719 92.191406 24.65625 92.785156 24.65625 93.636719 L 24.65625 94.265625 L 27.097656 94.265625 L 27.699219 91.828125 C 28.03125 90.492188 28.382812 89.328125 28.480469 89.246094 C 28.605469 89.140625 30.074219 89.082031 33.644531 89.035156 L 38.628906 88.972656 L 39.746094 91.304688 L 40.867188 93.640625 L 55.527344 93.640625 C 67.101562 93.640625 70.210938 93.605469 70.3125 93.480469 C 70.382812 93.394531 70.578125 92.988281 70.746094 92.574219 C 70.914062 92.164062 71.605469 90.585938 72.285156 89.070312 C 73.320312 86.761719 73.609375 86.226562 74.089844 85.742188 C 74.859375 84.96875 75.253906 84.894531 78.890625 84.851562 C 81.660156 84.820312 81.925781 84.835938 82.382812 85.0625 C 83.523438 85.632812 83.996094 86.363281 85.296875 89.574219 C 86.855469 93.417969 87.320312 94.457031 87.578125 94.671875 C 87.792969 94.851562 88.09375 94.890625 89.203125 94.890625 L 90.5625 94.890625 Z M 92.101562 91.324219 C 92.414062 91.195312 92.992188 91.136719 93.972656 91.136719 C 94.753906 91.136719 95.65625 91.101562 95.972656 91.058594 L 96.554688 90.976562 L 96.554688 89.257812 L 95.417969 89.257812 L 95.457031 88.289062 L 95.492188 87.320312 L 96.554688 87.242188 L 96.554688 85.34375 C 96.554688 82.550781 96.332031 78.371094 96.046875 75.839844 C 95.691406 72.675781 95.753906 72.867188 95.117188 72.867188 C 94.503906 72.867188 94.4375 72.746094 94.433594 71.648438 L 94.429688 70.992188 L 94.929688 70.992188 C 95.460938 70.992188 95.5625 70.835938 95.273438 70.460938 C 94.871094 69.933594 89.410156 69.777344 84.882812 70.160156 C 82.457031 70.367188 77.90625 70.859375 74.195312 71.324219 L 72.375 71.550781 L 72.292969 73.179688 C 72.25 74.074219 72.179688 76.679688 72.132812 78.964844 L 72.050781 83.121094 L 73.660156 83.054688 C 78.113281 82.871094 82.535156 82.796875 82.921875 82.902344 C 83.480469 83.058594 84.199219 83.726562 84.601562 84.46875 C 84.78125 84.796875 85.382812 86.164062 85.941406 87.507812 C 87.625 91.5625 87.574219 91.511719 90.015625 91.511719 C 91.191406 91.511719 91.78125 91.457031 92.101562 91.324219 Z M 102.359375 90.765625 C 105.773438 90.613281 111.714844 90.554688 115.339844 90.632812 L 118.085938 90.695312 L 118.066406 87.722656 L 118.042969 84.746094 L 117.601562 84.253906 C 116.496094 83.03125 116.507812 80.222656 117.621094 79.210938 C 117.867188 78.988281 117.867188 78.980469 117.441406 78.148438 C 117.152344 77.585938 116.984375 77.042969 116.925781 76.496094 L 116.835938 75.683594 L 116.171875 77.1875 C 115.351562 79.046875 114.597656 81.277344 113.835938 84.128906 C 113.171875 86.601562 113.136719 86.699219 112.785156 86.792969 C 112.316406 86.914062 112.058594 86.511719 111.714844 85.128906 C 110.667969 80.910156 108.875 77.824219 106.078125 75.433594 C 104.09375 73.738281 101.652344 72.277344 99.390625 71.4375 C 98.222656 71.003906 95.921875 70.335938 95.847656 70.40625 C 95.828125 70.425781 95.925781 71.046875 96.058594 71.789062 C 96.6875 75.300781 97 79.566406 97.125 86.429688 L 97.210938 91.042969 L 98.410156 90.964844 C 99.070312 90.921875 100.847656 90.832031 102.359375 90.765625 Z M 113.261719 82.625 C 114.128906 79.308594 115.136719 76.464844 116.410156 73.765625 C 116.746094 73.046875 117.023438 72.335938 117.023438 72.1875 C 117.023438 71.832031 116.582031 70.523438 116.304688 70.066406 C 116.09375 69.722656 115.941406 69.671875 113.277344 69.054688 C 111.734375 68.699219 110.351562 68.34375 110.207031 68.265625 C 109.839844 68.066406 109.671875 67.789062 108.003906 64.546875 C 107.1875 62.964844 106.46875 61.613281 106.402344 61.546875 C 106.28125 61.425781 106.796875 62.632812 107.949219 65.183594 C 108.609375 66.648438 108.746094 67.21875 108.535156 67.617188 C 108.398438 67.875 108.320312 67.890625 107.617188 67.824219 C 107.195312 67.785156 106.148438 67.636719 105.292969 67.496094 C 102.878906 67.101562 100.996094 66.871094 98.582031 66.671875 C 95.757812 66.441406 94.636719 66.433594 94.726562 66.644531 C 94.761719 66.730469 94.945312 67.285156 95.128906 67.878906 L 95.464844 68.953125 L 96.460938 69.167969 C 98.851562 69.683594 101.976562 71.042969 104.226562 72.546875 C 108.664062 75.507812 111.332031 79.222656 112.539062 84.109375 C 112.613281 84.410156 112.691406 84.636719 112.714844 84.613281 C 112.734375 84.585938 112.980469 83.695312 113.261719 82.625 Z M 118.140625 81.910156 C 118.132812 81.039062 118.09375 80.652344 118.023438 80.8125 C 117.839844 81.242188 117.902344 83.253906 118.101562 83.253906 C 118.125 83.253906 118.144531 82.648438 118.140625 81.910156 Z M 117.773438 76.804688 C 117.621094 75.863281 117.5625 75.707031 117.390625 75.816406 C 117.246094 75.902344 117.371094 76.78125 117.605469 77.359375 C 117.859375 77.988281 117.925781 77.769531 117.773438 76.804688 Z M 32.207031 75.9375 C 36.628906 75.339844 54.539062 72.871094 58.984375 72.25 C 60.390625 72.050781 63.761719 71.597656 66.472656 71.246094 C 69.183594 70.890625 71.519531 70.578125 71.664062 70.546875 C 71.894531 70.503906 71.9375 70.382812 71.996094 69.683594 C 72.035156 69.183594 72.160156 68.703125 72.324219 68.425781 C 72.480469 68.160156 72.589844 67.761719 72.589844 67.449219 C 72.589844 66.707031 72.917969 63.941406 73.21875 62.171875 C 73.503906 60.484375 74.25 57.46875 74.464844 57.136719 C 74.578125 56.957031 74.59375 56.953125 74.542969 57.121094 C 73.945312 59.074219 72.960938 65.386719 72.960938 67.261719 C 72.960938 67.761719 72.882812 68.109375 72.699219 68.425781 C 72.535156 68.703125 72.410156 69.183594 72.367188 69.6875 C 72.304688 70.5 72.304688 70.503906 72.601562 70.4375 C 73.101562 70.328125 77.722656 69.765625 80.890625 69.433594 C 87.238281 68.765625 91.171875 68.542969 93.363281 68.730469 C 94.183594 68.800781 94.875 68.839844 94.894531 68.816406 C 94.917969 68.796875 94.75 68.25 94.527344 67.601562 L 94.121094 66.425781 L 93.621094 66.425781 C 93.3125 66.425781 93.113281 66.484375 93.105469 66.582031 C 93.097656 66.667969 93.082031 67.046875 93.074219 67.425781 C 93.058594 68.074219 93.039062 68.113281 92.746094 68.113281 C 92.441406 68.113281 92.433594 68.089844 92.433594 67.234375 L 92.433594 66.351562 L 90.96875 66.425781 C 87.371094 66.609375 83.574219 66.976562 77.25 67.757812 C 74.722656 68.070312 74.421875 68.035156 74.28125 67.394531 C 74.203125 67.042969 74.996094 61.589844 75.464844 59.234375 C 75.742188 57.855469 76.132812 57.019531 76.671875 56.65625 C 77.222656 56.28125 82.21875 55.261719 85.792969 54.792969 C 89.347656 54.324219 90.210938 54.660156 90.972656 56.792969 C 91.144531 57.273438 91.945312 59.214844 92.753906 61.109375 C 94.019531 64.070312 94.222656 64.640625 94.222656 65.207031 C 94.21875 65.601562 94.273438 65.867188 94.355469 65.871094 C 95.667969 65.972656 97.300781 66.035156 97.300781 65.988281 C 97.300781 65.953125 97.105469 65.800781 96.871094 65.648438 C 96.636719 65.496094 96.296875 65.117188 96.117188 64.808594 C 95.933594 64.5 94.914062 62.230469 93.847656 59.769531 C 92.011719 55.527344 91.914062 55.253906 91.964844 54.632812 L 92.019531 53.976562 L 90.945312 53.632812 C 89.136719 53.050781 88.296875 53.121094 82.574219 54.339844 C 77.949219 55.324219 61.167969 58.695312 39.261719 63.039062 C 25.300781 65.804688 26.527344 65.539062 26.257812 65.882812 C 25.769531 66.507812 24.382812 69.5 23.921875 70.929688 C 23.398438 72.535156 22.820312 75.144531 22.699219 76.425781 L 22.628906 77.207031 L 25.296875 76.859375 C 26.765625 76.667969 29.875 76.253906 32.207031 75.9375 Z M 115.277344 68.628906 C 115.277344 68.34375 111.339844 60.945312 111.109375 60.792969 C 110.640625 60.488281 105.5 58.230469 105.429688 58.300781 C 105.222656 58.507812 105.863281 58.894531 107.863281 59.761719 C 109.089844 60.292969 110.292969 60.828125 110.535156 60.949219 C 110.921875 61.148438 111.128906 61.488281 112.453125 64.109375 C 113.265625 65.726562 113.886719 67.003906 113.824219 66.949219 C 113.765625 66.894531 113.070312 65.996094 112.28125 64.957031 C 111.492188 63.914062 110.703125 62.960938 110.53125 62.832031 C 110.253906 62.632812 110.0625 62.613281 108.941406 62.6875 L 107.664062 62.773438 L 108.792969 64.972656 C 109.414062 66.183594 110.019531 67.269531 110.132812 67.386719 C 110.253906 67.507812 110.878906 67.707031 111.59375 67.855469 C 112.28125 67.992188 113.347656 68.242188 113.964844 68.410156 C 115.3125 68.773438 115.277344 68.765625 115.277344 68.628906 Z M 76.410156 63.046875 C 76.765625 60.707031 77.09375 58.644531 77.140625 58.460938 C 77.269531 57.964844 77.691406 57.636719 78.457031 57.441406 C 79.855469 57.078125 84.5625 56.179688 84.644531 56.257812 C 84.6875 56.304688 85.101562 58.539062 85.558594 61.222656 C 86.019531 63.910156 86.417969 66.128906 86.449219 66.160156 C 86.496094 66.207031 91.800781 65.792969 92.304688 65.703125 C 92.414062 65.6875 92.128906 65.367188 91.617188 64.933594 C 90.757812 64.199219 90.75 64.195312 90.710938 64.527344 C 90.671875 64.851562 90.648438 64.859375 89.8125 64.859375 C 88.609375 64.859375 88.566406 64.796875 88.566406 63.09375 C 88.566406 61.324219 88.613281 61.234375 89.558594 61.234375 C 90.535156 61.234375 90.6875 61.390625 90.6875 62.414062 L 90.6875 63.203125 L 91.28125 63.6875 C 91.757812 64.078125 91.820312 64.105469 91.605469 63.832031 C 91.414062 63.585938 91.316406 63.21875 91.25 62.527344 C 91.132812 61.285156 90.839844 60.941406 89.789062 60.816406 C 88.980469 60.71875 88.519531 60.851562 88.3125 61.238281 C 88.132812 61.574219 88.195312 64.792969 88.386719 64.984375 C 88.460938 65.054688 88.882812 65.183594 89.324219 65.265625 L 90.125 65.414062 L 89.066406 65.503906 C 88.480469 65.554688 87.792969 65.628906 87.535156 65.667969 C 87.277344 65.707031 87.066406 65.714844 87.066406 65.679688 C 87.066406 65.648438 86.703125 63.625 86.257812 61.183594 C 85.808594 58.746094 85.445312 56.660156 85.445312 56.550781 C 85.445312 56.390625 85.59375 56.355469 86.226562 56.359375 C 87.148438 56.363281 88.785156 56.636719 89.203125 56.859375 L 89.5 57.015625 L 89.253906 56.734375 C 88.867188 56.300781 88.414062 56.113281 87.289062 55.9375 L 86.257812 55.769531 L 87.328125 55.675781 C 88.785156 55.550781 89.238281 55.652344 89.703125 56.210938 C 90.097656 56.683594 91.25 59.265625 93.402344 64.515625 C 93.578125 64.945312 93.578125 65.007812 93.390625 65.214844 C 93.113281 65.523438 93.128906 65.738281 93.429688 65.738281 C 93.84375 65.738281 93.851562 65.246094 93.457031 64.296875 C 93.257812 63.816406 92.464844 61.902344 91.695312 60.042969 C 90.0625 56.089844 90.101562 56.175781 89.707031 55.777344 C 89.273438 55.347656 89.015625 55.308594 87.023438 55.386719 C 85.144531 55.460938 83.960938 55.652344 80.386719 56.472656 C 77.757812 57.074219 77.164062 57.324219 76.84375 57.960938 C 76.535156 58.582031 76.535156 58.585938 75.898438 62.78125 C 75.261719 66.957031 75.230469 67.402344 75.546875 67.339844 C 75.726562 67.304688 75.859375 66.644531 76.410156 63.046875 Z M 107.789062 67.066406 C 107.789062 67.039062 107.011719 65.417969 106.058594 63.46875 C 105.109375 61.515625 104.097656 59.429688 103.8125 58.828125 C 103.175781 57.496094 102.847656 57.226562 101.359375 56.808594 C 98.515625 56.011719 92.757812 54.476562 92.605469 54.476562 C 92.511719 54.476562 92.433594 54.578125 92.433594 54.703125 C 92.433594 54.898438 93.171875 55.132812 97.332031 56.273438 C 100.027344 57.007812 102.371094 57.714844 102.542969 57.839844 C 102.863281 58.074219 105.273438 63.042969 105.136719 63.179688 C 105.097656 63.21875 104.007812 63.441406 102.714844 63.675781 C 100.203125 64.132812 100.046875 64.203125 100.046875 64.890625 C 100.046875 65.234375 100.34375 65.828125 100.609375 66.015625 C 100.675781 66.066406 100.941406 66.109375 101.195312 66.109375 C 101.679688 66.113281 106 66.769531 106.851562 66.96875 C 107.402344 67.101562 107.789062 67.140625 107.789062 67.066406 Z M 36.515625 61.746094 C 44.121094 60.238281 49.464844 59.203125 64.601562 56.300781 C 74.867188 54.332031 83.777344 52.738281 87.503906 52.199219 C 89.203125 51.953125 94.703125 51.996094 96.742188 52.269531 C 100.679688 52.800781 104.792969 53.835938 107.539062 54.988281 C 109.113281 55.652344 109.054688 55.515625 107.289062 54.417969 C 102.734375 51.597656 97.355469 50 91.25 49.660156 C 85.402344 49.332031 72.867188 51.207031 57.835938 54.65625 C 47.914062 56.933594 33.175781 60.945312 30.171875 62.1875 C 28.210938 62.996094 28.078125 63.3125 29.8125 63.035156 C 30.375 62.941406 33.390625 62.363281 36.515625 61.746094 Z M 36.433594 58.171875 C 45.785156 55.417969 56.640625 52.828125 65.535156 51.226562 C 67.113281 50.941406 68.460938 50.683594 68.53125 50.652344 C 68.765625 50.546875 65.667969 50.726562 63.976562 50.917969 C 60.199219 51.347656 55.136719 52.246094 51.953125 53.046875 C 49.535156 53.65625 45.691406 54.761719 41.070312 56.179688 C 35.378906 57.925781 34.144531 58.347656 34.144531 58.554688 C 34.144531 58.820312 34.371094 58.78125 36.433594 58.171875 Z M 39.746094 55.96875 C 45.503906 54.359375 49.128906 53.355469 50.617188 52.960938 C 52.40625 52.488281 51.511719 52.554688 48.71875 53.101562 C 45.285156 53.769531 42.945312 54.316406 40.183594 55.089844 C 35.484375 56.40625 34.269531 56.847656 34.269531 57.25 C 34.269531 57.472656 34.945312 57.3125 39.746094 55.96875 Z M 36.984375 55.046875 C 41.867188 53.488281 48.164062 51.640625 53.242188 50.289062 C 57.355469 49.191406 59.511719 48.507812 60.917969 47.855469 C 62.023438 47.335938 62.355469 47.046875 62.121094 46.8125 C 61.429688 46.121094 51.414062 48.503906 42.195312 51.554688 C 40.617188 52.078125 38.988281 52.660156 38.574219 52.847656 C 37.859375 53.171875 35.839844 54.648438 35.339844 55.210938 C 35.105469 55.472656 35.105469 55.476562 35.375 55.476562 C 35.523438 55.476562 36.25 55.285156 36.984375 55.046875 Z M 36.984375 55.046875 " fill-opacity="1" fill-rule="nonzero"/></g><g clip-path="url(#06779ee1f3)"><g clip-path="url(#ad43a70622)"><g clip-path="url(#358d83afd0)"><g clip-path="url(#e7449a9d12)"><path fill="#000000" d="M 30.097656 43.714844 C 28.648438 44.984375 27.320312 46.339844 26.109375 47.78125 C 26.691406 47.148438 27.296875 46.507812 27.921875 45.867188 C 28.472656 45.304688 29.195312 44.585938 30.097656 43.714844 M 24.101562 45.039062 C 23.117188 45.964844 22.25 46.84375 21.492188 47.675781 C 20.738281 48.507812 20.0625 49.3125 19.46875 50.085938 C 20.816406 48.476562 22.359375 46.796875 24.101562 45.039062 M 129.144531 71.652344 L 129.128906 71.917969 L 129.128906 72.183594 L 129.148438 72.453125 L 129.195312 72.722656 L 129.265625 73 L 129.363281 73.28125 L 129.492188 73.566406 L 129.65625 73.855469 L 129.855469 74.15625 L 130.089844 74.460938 L 130.371094 74.773438 L 130.691406 75.097656 C 130.25 74.074219 129.734375 72.921875 129.144531 71.652344 M 69.617188 24.589844 L 68.78125 24.617188 C 51.3125 25.824219 36.429688 32.621094 24.136719 45.003906 C 37.074219 33.023438 51.777344 26.652344 68.242188 25.886719 C 76.828125 25.726562 84.171875 26.839844 90.273438 29.222656 C 99.394531 32.621094 106.722656 36.796875 112.261719 41.75 C 116.289062 45.347656 119.300781 48.554688 121.300781 51.375 C 116.285156 44.664062 108.816406 38.945312 98.890625 34.222656 C 88.113281 29.585938 77.652344 27.394531 67.503906 27.65625 C 53.777344 27.738281 41.316406 33.085938 30.117188 43.695312 C 41.710938 33.917969 54.832031 29.375 69.480469 30.074219 C 86.519531 31.179688 100.941406 36.921875 112.746094 47.289062 C 119.179688 53.082031 124.648438 61.203125 129.144531 71.644531 C 129.894531 68.945312 130.082031 67.328125 129.71875 66.796875 C 131.527344 71.800781 132.65625 77.019531 133.109375 82.445312 C 134.640625 97.777344 130.21875 112.378906 119.851562 126.246094 C 136.925781 105.867188 139.917969 83.566406 128.824219 59.335938 C 122.828125 47.789062 115.128906 39.433594 105.722656 34.273438 C 93.957031 27.609375 81.921875 24.382812 69.617188 24.589844 M 119.832031 126.269531 L 119.398438 126.757812 C 118.101562 128.238281 116.710938 129.738281 115.222656 131.257812 L 116.234375 130.402344 L 116.457031 130.203125 C 116.519531 130.15625 116.773438 129.902344 117.21875 129.4375 C 117.589844 129.039062 117.996094 128.574219 118.4375 128.039062 L 119.117188 127.195312 L 119.832031 126.269531 M 26.089844 47.804688 L 25.027344 48.984375 C 13.011719 63.210938 7.898438 78.972656 9.6875 96.265625 C 7.507812 88.867188 7.410156 81.074219 9.402344 72.882812 C 11.300781 64.222656 14.652344 56.632812 19.449219 50.109375 C 11.476562 59.777344 7.277344 72 6.855469 86.78125 C 6.898438 89.445312 7.429688 92.769531 8.441406 96.753906 C 11.9375 108.085938 13.96875 114.09375 14.53125 114.78125 C 18.273438 122.761719 22.59375 128.925781 27.496094 133.265625 C 33.761719 138.851562 40.605469 142.988281 48.035156 145.675781 C 55.539062 148.578125 62.609375 149.882812 69.25 149.589844 C 78.746094 149.140625 87.640625 147.488281 95.933594 144.636719 C 101.949219 142.308594 108.375 137.851562 115.210938 131.269531 C 108.117188 137.246094 101.984375 141.109375 96.8125 142.859375 C 87.125 145.800781 78.152344 147.308594 69.894531 147.390625 C 64.730469 147.886719 57.308594 146.191406 47.632812 142.304688 C 40.566406 139.414062 34.699219 135.777344 30.03125 131.390625 C 26.296875 127.820312 23.445312 124.476562 21.46875 121.351562 C 27.28125 127.992188 35.621094 134.257812 46.5 140.152344 C 51.722656 142.898438 56.90625 144.832031 62.042969 145.949219 C 63.367188 146.214844 64.109375 146.304688 64.277344 146.214844 C 64.371094 146.183594 64.359375 146.117188 64.246094 146.019531 C 64.476562 146.171875 64.8125 146.015625 65.25 145.550781 C 65.617188 145.078125 65.855469 144.621094 65.960938 144.171875 C 59.191406 144.183594 48.652344 139.824219 34.34375 131.082031 C 26.15625 125.273438 19.929688 118.371094 15.664062 110.375 C 11.585938 101.253906 10.476562 90.332031 12.335938 77.609375 C 13.691406 67.734375 18.273438 57.800781 26.089844 47.804688 " fill-opacity="1" fill-rule="nonzero"/></g></g></g></g><g clip-path="url(#4d718557a0)"><g clip-path="url(#9d0a5dc33e)"><g clip-path="url(#f1f4b3db33)"><g clip-path="url(#96fbfc005d)"><path fill="#322f30" d="M 57.414062 86.085938 L 56.863281 85.847656 C 56.863281 85.847656 57.03125 86.105469 57.121094 86.136719 C 57.191406 86.160156 57.414062 86.085938 57.414062 86.085938 Z M 64.515625 75.492188 C 64.023438 77.742188 62.089844 79.578125 59.085938 81.921875 C 57.5625 83.109375 56.722656 84.308594 56.273438 85.375 C 56.746094 85.644531 57.265625 85.523438 57.703125 85.929688 C 58.175781 86.375 58.621094 86.703125 58.371094 87.09375 C 58.292969 86.878906 57.757812 86.691406 57.203125 87.070312 C 56.597656 87.480469 56.285156 90.90625 58.726562 91.820312 C 56.695312 89.734375 58.09375 88.171875 61.050781 86.339844 C 64.527344 84.183594 64.535156 82.050781 64.535156 82.050781 C 63.828125 83.425781 61.347656 84.40625 61.347656 84.40625 C 64.761719 82.589844 64.59375 79.601562 64.59375 79.601562 C 63.539062 81.699219 60.800781 82.636719 60.800781 82.636719 C 65.152344 79.554688 64.515625 75.492188 64.515625 75.492188 Z M 48.835938 85.710938 C 45.035156 85.882812 42.382812 85.742188 40.558594 84.347656 C 40.558594 84.347656 42.683594 87.855469 47.988281 87.375 C 47.988281 87.375 45.296875 88.445312 43.140625 87.53125 C 43.140625 87.53125 44.9375 89.917969 48.710938 89.078125 C 48.710938 89.078125 46.1875 89.945312 44.761719 89.359375 C 44.761719 89.359375 47.015625 91.359375 49.960938 89.875 C 51.367188 89.167969 53.992188 87.679688 55.699219 89.011719 C 55.699219 89.011719 54.402344 85.460938 48.835938 85.710938 " fill-opacity="1" fill-rule="nonzero"/></g></g></g></g><g fill="#000000" fill-opacity="1"><g transform="translate(159.595453, 81.893048)"><g><path d="M 2.4375 -20.28125 L 17.875 -20.28125 L 17.875 -16.21875 L 6.890625 -16.21875 L 6.890625 -11.90625 L 16.5625 -11.90625 L 16.5625 -7.84375 L 6.890625 -7.84375 L 6.890625 0 L 2.4375 0 Z M 2.4375 -20.28125 "/></g></g></g><g fill="#000000" fill-opacity="1"><g transform="translate(178.594151, 81.893048)"><g><path d="M 9.390625 -20.421875 L 13.5 -20.421875 L 22.1875 0 L 17.53125 0 L 15.671875 -4.546875 L 7.09375 -4.546875 L 5.25 0 L 0.6875 0 Z M 14.078125 -8.484375 L 11.390625 -15.0625 L 8.6875 -8.484375 Z M 14.078125 -8.484375 "/></g></g></g><g fill="#000000" fill-opacity="1"><g transform="translate(201.473691, 81.893048)"><g><path d="M 2.4375 -20.28125 L 6.890625 -20.28125 L 6.890625 -4.0625 L 17 -4.0625 L 17 0 L 2.4375 0 Z M 2.4375 -20.28125 "/></g></g></g><g fill="#000000" fill-opacity="1"><g transform="translate(219.400823, 81.893048)"><g><path d="M 11.9375 0.34375 C 10.445312 0.34375 9.0625 0.0703125 7.78125 -0.46875 C 6.507812 -1.007812 5.410156 -1.742188 4.484375 -2.671875 C 3.554688 -3.609375 2.832031 -4.710938 2.3125 -5.984375 C 1.789062 -7.265625 1.53125 -8.628906 1.53125 -10.078125 L 1.53125 -10.140625 C 1.53125 -11.585938 1.789062 -12.941406 2.3125 -14.203125 C 2.832031 -15.472656 3.554688 -16.582031 4.484375 -17.53125 C 5.410156 -18.488281 6.519531 -19.242188 7.8125 -19.796875 C 9.113281 -20.347656 10.546875 -20.625 12.109375 -20.625 C 13.054688 -20.625 13.921875 -20.546875 14.703125 -20.390625 C 15.484375 -20.234375 16.191406 -20.019531 16.828125 -19.75 C 17.460938 -19.476562 18.050781 -19.148438 18.59375 -18.765625 C 19.132812 -18.378906 19.640625 -17.957031 20.109375 -17.5 L 17.265625 -14.21875 C 16.472656 -14.9375 15.664062 -15.5 14.84375 -15.90625 C 14.019531 -16.3125 13.097656 -16.515625 12.078125 -16.515625 C 11.234375 -16.515625 10.445312 -16.347656 9.71875 -16.015625 C 8.988281 -15.691406 8.363281 -15.238281 7.84375 -14.65625 C 7.320312 -14.082031 6.914062 -13.410156 6.625 -12.640625 C 6.34375 -11.878906 6.203125 -11.066406 6.203125 -10.203125 L 6.203125 -10.140625 C 6.203125 -9.265625 6.34375 -8.441406 6.625 -7.671875 C 6.914062 -6.898438 7.316406 -6.222656 7.828125 -5.640625 C 8.347656 -5.066406 8.96875 -4.609375 9.6875 -4.265625 C 10.414062 -3.929688 11.210938 -3.765625 12.078125 -3.765625 C 13.234375 -3.765625 14.210938 -3.976562 15.015625 -4.40625 C 15.816406 -4.832031 16.613281 -5.410156 17.40625 -6.140625 L 20.25 -3.28125 C 19.726562 -2.71875 19.1875 -2.210938 18.625 -1.765625 C 18.0625 -1.316406 17.445312 -0.929688 16.78125 -0.609375 C 16.113281 -0.296875 15.382812 -0.0625 14.59375 0.09375 C 13.800781 0.257812 12.914062 0.34375 11.9375 0.34375 Z M 11.9375 0.34375 "/></g></g></g><g fill="#000000" fill-opacity="1"><g transform="translate(240.774364, 81.893048)"><g><path d="M 12.28125 0.34375 C 10.71875 0.34375 9.28125 0.0703125 7.96875 -0.46875 C 6.65625 -1.019531 5.519531 -1.765625 4.5625 -2.703125 C 3.601562 -3.640625 2.859375 -4.738281 2.328125 -6 C 1.796875 -7.269531 1.53125 -8.628906 1.53125 -10.078125 L 1.53125 -10.140625 C 1.53125 -11.585938 1.800781 -12.941406 2.34375 -14.203125 C 2.882812 -15.472656 3.632812 -16.582031 4.59375 -17.53125 C 5.550781 -18.488281 6.691406 -19.242188 8.015625 -19.796875 C 9.335938 -20.347656 10.78125 -20.625 12.34375 -20.625 C 13.90625 -20.625 15.34375 -20.347656 16.65625 -19.796875 C 17.96875 -19.242188 19.101562 -18.5 20.0625 -17.5625 C 21.019531 -16.632812 21.765625 -15.535156 22.296875 -14.265625 C 22.828125 -13.003906 23.09375 -11.648438 23.09375 -10.203125 L 23.09375 -10.140625 C 23.09375 -8.691406 22.820312 -7.332031 22.28125 -6.0625 C 21.738281 -4.800781 20.988281 -3.691406 20.03125 -2.734375 C 19.070312 -1.773438 17.929688 -1.019531 16.609375 -0.46875 C 15.285156 0.0703125 13.84375 0.34375 12.28125 0.34375 Z M 12.34375 -3.765625 C 13.226562 -3.765625 14.046875 -3.925781 14.796875 -4.25 C 15.554688 -4.582031 16.203125 -5.035156 16.734375 -5.609375 C 17.265625 -6.191406 17.675781 -6.863281 17.96875 -7.625 C 18.269531 -8.394531 18.421875 -9.210938 18.421875 -10.078125 L 18.421875 -10.140625 C 18.421875 -11.003906 18.269531 -11.820312 17.96875 -12.59375 C 17.675781 -13.375 17.253906 -14.050781 16.703125 -14.625 C 16.148438 -15.207031 15.492188 -15.664062 14.734375 -16 C 13.984375 -16.34375 13.164062 -16.515625 12.28125 -16.515625 C 11.375 -16.515625 10.546875 -16.347656 9.796875 -16.015625 C 9.054688 -15.691406 8.421875 -15.238281 7.890625 -14.65625 C 7.359375 -14.082031 6.941406 -13.410156 6.640625 -12.640625 C 6.347656 -11.878906 6.203125 -11.066406 6.203125 -10.203125 L 6.203125 -10.140625 C 6.203125 -9.265625 6.347656 -8.441406 6.640625 -7.671875 C 6.941406 -6.898438 7.367188 -6.222656 7.921875 -5.640625 C 8.472656 -5.066406 9.117188 -4.609375 9.859375 -4.265625 C 10.609375 -3.929688 11.4375 -3.765625 12.34375 -3.765625 Z M 12.34375 -3.765625 "/></g></g></g><g fill="#000000" fill-opacity="1"><g transform="translate(265.391591, 81.893048)"><g><path d="M 2.4375 -20.28125 L 6.546875 -20.28125 L 16.046875 -7.796875 L 16.046875 -20.28125 L 20.453125 -20.28125 L 20.453125 0 L 16.65625 0 L 6.84375 -12.890625 L 6.84375 0 L 2.4375 0 Z M 2.4375 -20.28125 "/></g></g></g><g fill="#000000" fill-opacity="1"><g transform="translate(288.271131, 81.893048)"><g><path d="M 2.640625 -20.28125 L 7.09375 -20.28125 L 7.09375 0 L 2.640625 0 Z M 2.640625 -20.28125 "/></g></g></g><g fill="#000000" fill-opacity="1"><g transform="translate(298.002169, 81.893048)"><g><path d="M 2.4375 -20.28125 L 17.734375 -20.28125 L 17.734375 -16.3125 L 6.859375 -16.3125 L 6.859375 -12.203125 L 16.421875 -12.203125 L 16.421875 -8.234375 L 6.859375 -8.234375 L 6.859375 -3.96875 L 17.875 -3.96875 L 17.875 0 L 2.4375 0 Z M 2.4375 -20.28125 "/></g></g></g><g fill="#000000" fill-opacity="1"><g transform="translate(317.406333, 81.893048)"><g><path d="M 9.640625 0.296875 C 8.097656 0.296875 6.582031 0.03125 5.09375 -0.5 C 3.613281 -1.03125 2.265625 -1.847656 1.046875 -2.953125 L 3.671875 -6.109375 C 4.597656 -5.359375 5.550781 -4.757812 6.53125 -4.3125 C 7.507812 -3.875 8.578125 -3.65625 9.734375 -3.65625 C 10.660156 -3.65625 11.378906 -3.820312 11.890625 -4.15625 C 12.398438 -4.488281 12.65625 -4.957031 12.65625 -5.5625 L 12.65625 -5.625 C 12.65625 -5.90625 12.601562 -6.15625 12.5 -6.375 C 12.394531 -6.601562 12.191406 -6.8125 11.890625 -7 C 11.585938 -7.195312 11.171875 -7.390625 10.640625 -7.578125 C 10.109375 -7.773438 9.421875 -7.984375 8.578125 -8.203125 C 7.554688 -8.453125 6.628906 -8.726562 5.796875 -9.03125 C 4.960938 -9.34375 4.253906 -9.722656 3.671875 -10.171875 C 3.097656 -10.628906 2.648438 -11.195312 2.328125 -11.875 C 2.015625 -12.550781 1.859375 -13.390625 1.859375 -14.390625 L 1.859375 -14.453125 C 1.859375 -15.378906 2.03125 -16.210938 2.375 -16.953125 C 2.71875 -17.703125 3.203125 -18.347656 3.828125 -18.890625 C 4.460938 -19.429688 5.210938 -19.84375 6.078125 -20.125 C 6.953125 -20.414062 7.910156 -20.5625 8.953125 -20.5625 C 10.441406 -20.5625 11.804688 -20.335938 13.046875 -19.890625 C 14.296875 -19.453125 15.441406 -18.816406 16.484375 -17.984375 L 14.171875 -14.625 C 13.253906 -15.25 12.363281 -15.738281 11.5 -16.09375 C 10.632812 -16.445312 9.765625 -16.625 8.890625 -16.625 C 8.023438 -16.625 7.375 -16.453125 6.9375 -16.109375 C 6.5 -15.773438 6.28125 -15.359375 6.28125 -14.859375 L 6.28125 -14.796875 C 6.28125 -14.472656 6.34375 -14.191406 6.46875 -13.953125 C 6.59375 -13.710938 6.816406 -13.492188 7.140625 -13.296875 C 7.472656 -13.097656 7.925781 -12.910156 8.5 -12.734375 C 9.070312 -12.566406 9.789062 -12.367188 10.65625 -12.140625 C 11.6875 -11.867188 12.597656 -11.5625 13.390625 -11.21875 C 14.191406 -10.882812 14.867188 -10.476562 15.421875 -10 C 15.972656 -9.53125 16.390625 -8.976562 16.671875 -8.34375 C 16.953125 -7.707031 17.09375 -6.941406 17.09375 -6.046875 L 17.09375 -6 C 17.09375 -4.988281 16.90625 -4.09375 16.53125 -3.3125 C 16.164062 -2.53125 15.65625 -1.875 15 -1.34375 C 14.34375 -0.8125 13.5625 -0.40625 12.65625 -0.125 C 11.75 0.15625 10.742188 0.296875 9.640625 0.296875 Z M 9.640625 0.296875 "/></g></g></g><g fill="#000000" fill-opacity="1"><g transform="translate(195.29799, 101.1329)"><g><path d="M 5.890625 0.15625 C 4.898438 0.15625 4.023438 -0.046875 3.265625 -0.453125 C 2.515625 -0.859375 1.921875 -1.472656 1.484375 -2.296875 C 1.054688 -3.128906 0.84375 -4.164062 0.84375 -5.40625 C 0.84375 -6.644531 1.054688 -7.675781 1.484375 -8.5 C 1.921875 -9.332031 2.515625 -9.953125 3.265625 -10.359375 C 4.023438 -10.765625 4.898438 -10.96875 5.890625 -10.96875 C 6.878906 -10.96875 7.75 -10.765625 8.5 -10.359375 C 9.257812 -9.960938 9.851562 -9.347656 10.28125 -8.515625 C 10.707031 -7.679688 10.921875 -6.644531 10.921875 -5.40625 C 10.921875 -4.164062 10.707031 -3.128906 10.28125 -2.296875 C 9.851562 -1.460938 9.257812 -0.84375 8.5 -0.4375 C 7.75 -0.0390625 6.878906 0.15625 5.890625 0.15625 Z M 5.890625 -1.703125 C 6.804688 -1.703125 7.503906 -1.992188 7.984375 -2.578125 C 8.472656 -3.171875 8.71875 -4.113281 8.71875 -5.40625 C 8.71875 -6.695312 8.472656 -7.632812 7.984375 -8.21875 C 7.503906 -8.8125 6.804688 -9.109375 5.890625 -9.109375 C 4.972656 -9.109375 4.269531 -8.8125 3.78125 -8.21875 C 3.289062 -7.632812 3.046875 -6.695312 3.046875 -5.40625 C 3.046875 -4.113281 3.289062 -3.171875 3.78125 -2.578125 C 4.269531 -1.992188 4.972656 -1.703125 5.890625 -1.703125 Z M 5.890625 -1.703125 "/></g></g></g><g fill="#000000" fill-opacity="1"><g transform="translate(207.079232, 101.1329)"><g><path d="M 3.46875 0 L 1.40625 0 L 1.40625 -10.8125 L 3.859375 -10.8125 L 8.1875 -3.84375 L 8.390625 -3.875 L 8.390625 -10.8125 L 10.4375 -10.8125 L 10.4375 0 L 8.25 0 L 3.65625 -7.4375 L 3.46875 -7.40625 Z M 3.46875 0 "/></g></g></g><g fill="#000000" fill-opacity="1"><g transform="translate(218.93443, 101.1329)"><g/></g></g><g fill="#000000" fill-opacity="1"><g transform="translate(222.506523, 101.1329)"><g><path d="M 8.671875 -10.8125 L 8.671875 -9.015625 L 5.546875 -9.015625 L 5.546875 0 L 3.421875 0 L 3.421875 -9.015625 L 0.296875 -9.015625 L 0.296875 -10.8125 Z M 8.671875 -10.8125 "/></g></g></g><g fill="#000000" fill-opacity="1"><g transform="translate(231.470025, 101.1329)"><g><path d="M 8.390625 -6.75 L 8.390625 -10.8125 L 10.515625 -10.8125 L 10.515625 0 L 8.390625 0 L 8.390625 -4.921875 L 3.546875 -4.921875 L 3.546875 0 L 1.40625 0 L 1.40625 -10.8125 L 3.546875 -10.8125 L 3.546875 -6.75 Z M 8.390625 -6.75 "/></g></g></g><g fill="#000000" fill-opacity="1"><g transform="translate(243.399179, 101.1329)"><g><path d="M 3.546875 -4.75 L 3.546875 -1.796875 L 8.703125 -1.796875 L 8.703125 0 L 1.40625 0 L 1.40625 -10.8125 L 8.578125 -10.8125 L 8.578125 -9.015625 L 3.546875 -9.015625 L 3.546875 -6.484375 L 7.953125 -6.484375 L 7.953125 -4.75 Z M 3.546875 -4.75 "/></g></g></g><g fill="#000000" fill-opacity="1"><g transform="translate(252.695489, 101.1329)"><g/></g></g><g fill="#000000" fill-opacity="1"><g transform="translate(256.267582, 101.1329)"><g><path d="M 1.40625 0 L 1.40625 -10.8125 L 5.75 -10.8125 C 6.863281 -10.8125 7.703125 -10.550781 8.265625 -10.03125 C 8.835938 -9.519531 9.125 -8.8125 9.125 -7.90625 C 9.125 -7.25 8.957031 -6.707031 8.625 -6.28125 C 8.289062 -5.863281 7.796875 -5.546875 7.140625 -5.328125 L 7.140625 -5.171875 C 7.484375 -5.023438 7.757812 -4.804688 7.96875 -4.515625 C 8.175781 -4.222656 8.375 -3.789062 8.5625 -3.21875 L 9.640625 0 L 7.4375 0 L 6.390625 -3.234375 C 6.273438 -3.554688 6.148438 -3.804688 6.015625 -3.984375 C 5.878906 -4.171875 5.707031 -4.300781 5.5 -4.375 C 5.289062 -4.457031 5.019531 -4.5 4.6875 -4.5 L 3.546875 -4.5 L 3.546875 0 Z M 5.484375 -6.1875 C 6.515625 -6.1875 7.03125 -6.671875 7.03125 -7.640625 C 7.03125 -8.617188 6.515625 -9.109375 5.484375 -9.109375 L 3.546875 -9.109375 L 3.546875 -6.1875 Z M 5.484375 -6.1875 "/></g></g></g><g fill="#000000" fill-opacity="1"><g transform="translate(266.377411, 101.1329)"><g><path d="M 5.890625 0.15625 C 4.898438 0.15625 4.023438 -0.046875 3.265625 -0.453125 C 2.515625 -0.859375 1.921875 -1.472656 1.484375 -2.296875 C 1.054688 -3.128906 0.84375 -4.164062 0.84375 -5.40625 C 0.84375 -6.644531 1.054688 -7.675781 1.484375 -8.5 C 1.921875 -9.332031 2.515625 -9.953125 3.265625 -10.359375 C 4.023438 -10.765625 4.898438 -10.96875 5.890625 -10.96875 C 6.878906 -10.96875 7.75 -10.765625 8.5 -10.359375 C 9.257812 -9.960938 9.851562 -9.347656 10.28125 -8.515625 C 10.707031 -7.679688 10.921875 -6.644531 10.921875 -5.40625 C 10.921875 -4.164062 10.707031 -3.128906 10.28125 -2.296875 C 9.851562 -1.460938 9.257812 -0.84375 8.5 -0.4375 C 7.75 -0.0390625 6.878906 0.15625 5.890625 0.15625 Z M 5.890625 -1.703125 C 6.804688 -1.703125 7.503906 -1.992188 7.984375 -2.578125 C 8.472656 -3.171875 8.71875 -4.113281 8.71875 -5.40625 C 8.71875 -6.695312 8.472656 -7.632812 7.984375 -8.21875 C 7.503906 -8.8125 6.804688 -9.109375 5.890625 -9.109375 C 4.972656 -9.109375 4.269531 -8.8125 3.78125 -8.21875 C 3.289062 -7.632812 3.046875 -6.695312 3.046875 -5.40625 C 3.046875 -4.113281 3.289062 -3.171875 3.78125 -2.578125 C 4.269531 -1.992188 4.972656 -1.703125 5.890625 -1.703125 Z M 5.890625 -1.703125 "/></g></g></g><g fill="#000000" fill-opacity="1"><g transform="translate(278.158653, 101.1329)"><g><path d="M 10.375 0 L 8.125 0 L 7.3125 -2.484375 L 3.171875 -2.484375 L 2.359375 0 L 0.15625 0 L 3.890625 -10.8125 L 6.640625 -10.8125 Z M 5.140625 -8.546875 L 3.75 -4.28125 L 6.71875 -4.28125 L 5.328125 -8.546875 Z M 5.140625 -8.546875 "/></g></g></g><g fill="#000000" fill-opacity="1"><g transform="translate(288.697429, 101.1329)"><g><path d="M 5.296875 -10.8125 C 7.046875 -10.8125 8.382812 -10.359375 9.3125 -9.453125 C 10.238281 -8.546875 10.703125 -7.195312 10.703125 -5.40625 C 10.703125 -3.625 10.238281 -2.273438 9.3125 -1.359375 C 8.382812 -0.453125 7.046875 0 5.296875 0 L 1.40625 0 L 1.40625 -10.8125 Z M 5.171875 -1.796875 C 6.285156 -1.796875 7.117188 -2.078125 7.671875 -2.640625 C 8.222656 -3.210938 8.5 -4.132812 8.5 -5.40625 C 8.5 -6.664062 8.222656 -7.582031 7.671875 -8.15625 C 7.117188 -8.726562 6.285156 -9.015625 5.171875 -9.015625 L 3.546875 -9.015625 L 3.546875 -1.796875 Z M 5.171875 -1.796875 "/></g></g></g></svg>