<svg xmlns="http://www.w3.org/2000/svg" xmlns:xlink="http://www.w3.org/1999/xlink" width="500" zoomAndPan="magnify" viewBox="0 0 375 149.999998" height="200" preserveAspectRatio="xMidYMid meet" version="1.0"><defs><g/><clipPath id="e5e59f07a2"><path d="M 34.378906 48.488281 L 133.378906 48.488281 L 133.378906 122.738281 L 34.378906 122.738281 Z M 34.378906 48.488281 " clip-rule="nonzero"/></clipPath><clipPath id="485843b306"><path d="M 8.753906 27.0625 L 154.253906 27.0625 L 154.253906 114 L 8.753906 114 Z M 8.753906 27.0625 " clip-rule="nonzero"/></clipPath></defs><g clip-path="url(#e5e59f07a2)"><path fill="#ffffff" d="M 42.101562 108.695312 C 41.960938 107.847656 41.804688 106.996094 41.6875 106.167969 C 41.585938 105.339844 41.527344 104.488281 41.449219 103.601562 C 41.332031 103.601562 41.191406 103.601562 41.054688 103.601562 C 40.601562 103.582031 40.105469 103.640625 39.671875 103.542969 C 37.679688 103.046875 36.214844 101.902344 35.507812 99.929688 C 35.210938 99.078125 35.070312 98.210938 34.933594 97.320312 C 34.460938 94.359375 34.378906 91.398438 34.5 88.398438 C 34.597656 85.851562 34.855469 83.324219 35.289062 80.816406 C 35.78125 77.972656 36.472656 75.167969 37.558594 72.484375 C 37.894531 71.652344 38.289062 70.824219 38.742188 70.054688 C 39.257812 69.183594 39.890625 68.453125 40.71875 67.882812 C 40.996094 67.683594 41.171875 67.488281 41.273438 67.152344 C 41.980469 65.019531 42.714844 62.867188 43.421875 60.734375 C 43.640625 60.0625 43.859375 59.390625 44.113281 58.738281 C 44.351562 58.128906 44.667969 57.554688 45.101562 57.0625 C 45.597656 56.507812 46.1875 56.152344 46.917969 55.9375 C 48.101562 55.601562 49.269531 55.207031 50.453125 54.851562 C 53.730469 53.824219 57.007812 52.777344 60.285156 51.75 C 62.28125 51.117188 64.292969 50.488281 66.289062 49.855469 C 66.78125 49.695312 67.257812 49.558594 67.769531 49.519531 C 68.027344 49.5 68.261719 49.378906 68.519531 49.339844 C 69.410156 49.164062 70.316406 48.984375 71.226562 48.867188 C 73.296875 48.570312 75.390625 48.511719 77.484375 48.570312 C 79.773438 48.628906 82.066406 48.886719 84.316406 49.300781 C 88.777344 50.132812 93.042969 51.53125 97.109375 53.566406 C 100.546875 55.285156 103.6875 57.398438 106.46875 60.0625 C 107.753906 61.308594 108.9375 62.628906 109.925781 64.128906 C 110.003906 64.25 110.0625 64.347656 110.125 64.464844 C 110.144531 64.503906 110.125 64.605469 110.082031 64.625 C 110.023438 64.644531 109.945312 64.644531 109.90625 64.625 C 109.847656 64.585938 109.808594 64.523438 109.769531 64.464844 C 106.410156 60.359375 102.226562 57.339844 97.507812 55.027344 C 93.359375 52.992188 88.996094 51.59375 84.433594 50.800781 C 82.007812 50.386719 79.558594 50.152344 77.089844 50.171875 C 75.726562 50.191406 74.363281 50.289062 73.003906 50.367188 C 72.902344 50.367188 72.785156 50.40625 72.648438 50.425781 C 72.726562 50.488281 72.765625 50.546875 72.824219 50.566406 C 76.003906 52.242188 78.097656 54.851562 79.4375 58.109375 C 79.832031 59.074219 80.1875 60.082031 80.40625 61.109375 C 80.425781 61.246094 80.464844 61.386719 80.464844 61.523438 C 80.464844 61.582031 80.40625 61.664062 80.347656 61.683594 C 80.289062 61.703125 80.210938 61.640625 80.167969 61.601562 C 80.109375 61.484375 80.050781 61.347656 80.011719 61.207031 C 78.707031 57.753906 76.535156 54.988281 73.496094 52.894531 C 72.546875 52.242188 71.519531 51.769531 70.453125 51.375 C 69.742188 51.117188 69.054688 50.960938 68.300781 50.980469 C 67.730469 51 67.175781 51.058594 66.625 51.238281 C 64.3125 51.96875 62.003906 52.699219 59.695312 53.429688 C 56.394531 54.476562 53.117188 55.5 49.820312 56.546875 C 48.875 56.84375 47.945312 57.140625 46.996094 57.4375 C 46.265625 57.671875 45.871094 58.246094 45.597656 58.898438 C 45.378906 59.390625 45.199219 59.886719 45.023438 60.398438 C 44.332031 62.433594 43.640625 64.464844 42.949219 66.5 C 42.910156 66.636719 42.871094 66.757812 42.8125 66.953125 C 43.128906 66.914062 43.382812 66.875 43.640625 66.855469 C 46.582031 66.402344 49.503906 65.945312 52.449219 65.511719 C 54.777344 65.15625 57.125 64.839844 59.457031 64.523438 C 61.570312 64.230469 63.664062 63.953125 65.773438 63.695312 C 67.886719 63.4375 70 63.203125 72.113281 62.984375 C 73.457031 62.847656 74.777344 62.726562 76.121094 62.75 C 76.242188 62.75 76.359375 62.75 76.457031 62.75 C 76.515625 62.925781 76.417969 62.945312 76.320312 62.945312 C 75.371094 63.082031 74.421875 63.242188 73.476562 63.378906 C 71.441406 63.675781 69.410156 63.972656 67.375 64.289062 C 65.023438 64.644531 62.675781 65 60.34375 65.394531 C 58.234375 65.730469 56.121094 66.085938 54.027344 66.441406 C 51.796875 66.816406 49.585938 67.191406 47.351562 67.605469 C 45.949219 67.863281 44.570312 68.179688 43.167969 68.414062 C 41.707031 68.652344 40.699219 69.519531 39.949219 70.726562 C 39.316406 71.730469 38.882812 72.839844 38.46875 73.964844 C 37.519531 76.570312 36.925781 79.234375 36.492188 81.980469 C 36.175781 84.015625 35.960938 86.085938 35.882812 88.140625 C 35.78125 90.53125 35.78125 92.917969 36.058594 95.289062 C 36.175781 96.296875 36.335938 97.28125 36.511719 98.289062 C 36.59375 98.703125 36.710938 99.117188 36.828125 99.535156 C 36.886719 99.730469 36.96875 99.910156 37.066406 100.085938 C 37.636719 101.113281 38.566406 101.707031 39.671875 102.121094 C 39.691406 101.980469 39.710938 101.882812 39.710938 101.785156 C 39.710938 100.660156 39.808594 99.554688 39.988281 98.449219 C 40.164062 97.421875 40.421875 96.433594 40.855469 95.484375 C 41.113281 94.953125 41.410156 94.457031 41.824219 94.042969 C 42.632812 93.234375 43.699219 93.175781 44.589844 93.886719 C 45.121094 94.320312 45.515625 94.855469 45.851562 95.445312 C 46.484375 96.550781 46.898438 97.757812 47.175781 99 C 47.371094 99.929688 47.511719 100.875 47.648438 101.804688 C 47.6875 102.101562 47.6875 102.417969 47.726562 102.730469 C 47.886719 103.660156 48.398438 104.292969 49.328125 104.527344 C 50.414062 104.804688 51.5 105.101562 52.605469 105.398438 C 55.585938 106.167969 58.546875 106.9375 61.53125 107.6875 C 63.78125 108.261719 66.03125 108.851562 68.28125 109.425781 C 68.382812 109.445312 68.460938 109.464844 68.578125 109.484375 C 68.578125 109.40625 68.597656 109.328125 68.597656 109.269531 C 68.402344 107.667969 68.300781 106.050781 68.363281 104.429688 C 68.421875 102.832031 68.617188 101.230469 69.054688 99.691406 C 69.289062 98.863281 69.605469 98.050781 70.078125 97.300781 C 70.335938 96.886719 70.632812 96.511719 71.007812 96.195312 C 71.9375 95.40625 72.960938 95.25 74.089844 95.683594 C 74.757812 95.941406 75.3125 96.375 75.804688 96.847656 C 76.714844 97.71875 77.40625 98.761719 77.996094 99.847656 C 78.90625 101.488281 79.558594 103.226562 80.050781 105.042969 C 80.328125 106.03125 80.503906 107.035156 80.78125 108.023438 C 81.355469 110.15625 82.796875 111.398438 84.910156 111.894531 C 85.578125 112.050781 86.269531 112.050781 86.960938 112.132812 C 91.484375 112.644531 96.003906 112.722656 100.546875 112.644531 C 102.660156 112.605469 104.773438 112.546875 106.886719 112.464844 C 108.328125 112.40625 109.746094 112.308594 111.1875 112.210938 C 112.273438 112.152344 113.339844 112.070312 114.425781 111.972656 C 115.828125 111.855469 117.210938 111.714844 118.613281 111.578125 C 120.09375 111.421875 121.554688 111.261719 123.035156 111.046875 C 124.558594 110.828125 126.078125 110.570312 127.597656 110.3125 C 127.714844 110.292969 127.835938 110.273438 127.953125 110.253906 C 128.191406 110.234375 128.40625 110.136719 128.605469 110 C 129.039062 109.703125 129.214844 109.308594 129.136719 108.773438 C 129.058594 108.242188 128.980469 107.707031 128.980469 107.175781 C 128.960938 106.1875 129.257812 105.28125 129.789062 104.449219 C 130.28125 103.699219 130.738281 102.910156 131.210938 102.140625 C 131.683594 101.351562 131.742188 100.480469 131.527344 99.574219 C 131.390625 99.574219 131.25 99.554688 131.113281 99.574219 C 129.570312 99.710938 128.011719 99.871094 126.472656 99.988281 C 124.359375 100.144531 122.226562 100.265625 120.113281 100.382812 C 118.730469 100.460938 117.332031 100.5 115.949219 100.558594 C 113.402344 100.660156 110.855469 100.757812 108.285156 100.796875 C 104.515625 100.855469 100.722656 100.855469 96.953125 100.894531 C 96.105469 100.894531 95.253906 100.816406 94.40625 100.71875 C 93.851562 100.660156 93.320312 100.441406 92.847656 100.144531 C 92.53125 99.949219 92.390625 99.769531 92.234375 99.453125 C 92.371094 99.316406 92.550781 99.335938 92.726562 99.335938 C 93.597656 99.355469 94.464844 99.414062 95.332031 99.414062 C 98.492188 99.433594 101.652344 99.433594 104.8125 99.414062 C 106.707031 99.414062 108.601562 99.355469 110.519531 99.296875 C 112.097656 99.257812 113.675781 99.199219 115.257812 99.136719 C 117.269531 99.058594 119.265625 98.980469 121.277344 98.863281 C 122.898438 98.78125 124.515625 98.664062 126.15625 98.546875 C 127.421875 98.449219 128.664062 98.347656 129.90625 98.230469 C 130.539062 98.171875 131.171875 98.074219 131.824219 98.011719 C 132.355469 97.953125 132.671875 98.152344 132.808594 98.664062 C 133.027344 99.394531 133.144531 100.144531 133.085938 100.914062 C 133.027344 101.644531 132.769531 102.335938 132.394531 102.949219 C 132 103.621094 131.566406 104.292969 131.171875 104.964844 C 130.835938 105.496094 130.539062 106.050781 130.460938 106.699219 C 130.402344 107.253906 130.441406 107.808594 130.539062 108.359375 C 130.738281 109.605469 130.324219 110.492188 129.257812 111.125 C 128.664062 111.480469 128.011719 111.65625 127.339844 111.777344 C 125.167969 112.152344 123.015625 112.488281 120.824219 112.722656 C 119.1875 112.902344 117.546875 113.058594 115.910156 113.238281 C 115.808594 113.257812 115.691406 113.277344 115.554688 113.296875 C 115.277344 114.660156 114.824219 115.941406 113.855469 117.046875 C 114.328125 117.144531 114.742188 117.246094 115.179688 117.34375 C 117.882812 117.9375 120.566406 118.527344 123.273438 119.121094 C 124.597656 119.417969 125.917969 119.691406 127.242188 119.988281 C 127.261719 119.988281 127.28125 119.988281 127.320312 120.007812 C 127.441406 120.027344 127.578125 120.070312 127.578125 120.207031 C 127.578125 120.382812 127.421875 120.382812 127.28125 120.382812 C 126.90625 120.402344 126.53125 120.425781 126.136719 120.445312 C 124.792969 120.523438 123.449219 120.582031 122.128906 120.660156 C 120.667969 120.738281 119.207031 120.800781 117.746094 120.878906 C 116.441406 120.9375 115.136719 121.015625 113.835938 121.09375 C 112.492188 121.175781 111.128906 121.234375 109.789062 121.3125 C 108.484375 121.371094 107.179688 121.449219 105.878906 121.53125 C 104.773438 121.589844 103.648438 121.667969 102.539062 121.726562 C 101.375 121.785156 100.191406 121.84375 99.027344 121.90625 C 97.921875 121.964844 96.816406 122.023438 95.730469 122.082031 C 94.625 122.140625 93.515625 122.199219 92.429688 122.261719 C 91.109375 122.339844 89.785156 122.398438 88.441406 122.476562 C 86.980469 122.554688 85.5 122.617188 84.039062 122.695312 C 83.347656 122.734375 82.65625 122.714844 81.984375 122.832031 C 81.550781 122.910156 81.175781 122.792969 80.78125 122.675781 C 76.734375 121.53125 72.667969 120.324219 68.597656 119.121094 C 63.128906 117.5 57.660156 115.902344 52.171875 114.28125 C 47.332031 112.863281 42.496094 111.421875 37.65625 110 C 37.5 109.957031 37.34375 109.917969 37.183594 109.859375 C 37.085938 109.820312 36.96875 109.761719 37.007812 109.644531 C 37.027344 109.582031 37.144531 109.503906 37.222656 109.484375 C 37.558594 109.425781 37.894531 109.367188 38.25 109.328125 C 39.496094 109.128906 40.738281 108.953125 41.980469 108.753906 C 42.023438 108.734375 42.0625 108.714844 42.101562 108.695312 Z M 72.351562 109.761719 C 72.410156 110.667969 72.46875 111.558594 72.546875 112.445312 C 72.625 113.175781 72.765625 113.886719 73.042969 114.558594 C 73.140625 114.796875 73.257812 115.035156 73.417969 115.230469 C 73.652344 115.546875 73.910156 115.546875 74.1875 115.230469 C 74.207031 115.210938 74.246094 115.171875 74.246094 115.152344 C 74.421875 114.738281 74.621094 114.324219 74.777344 113.90625 C 74.820312 113.828125 74.777344 113.730469 74.757812 113.632812 C 74.464844 112.347656 74.34375 111.066406 74.382812 109.742188 C 74.402344 108.300781 74.542969 106.878906 74.957031 105.476562 C 74.976562 105.398438 74.996094 105.28125 74.976562 105.199219 C 74.878906 104.707031 74.71875 104.214844 74.445312 103.777344 C 74.128906 103.265625 73.8125 103.265625 73.476562 103.738281 C 73.398438 103.839844 73.335938 103.957031 73.277344 104.074219 C 73.160156 104.351562 73.042969 104.628906 72.960938 104.902344 C 72.507812 106.503906 72.371094 108.121094 72.351562 109.761719 Z M 43.109375 103.027344 C 43.066406 103.996094 43.207031 105.378906 43.421875 106.1875 C 43.523438 106.582031 43.660156 106.957031 43.820312 107.332031 C 43.898438 107.53125 44.035156 107.6875 44.175781 107.847656 C 44.292969 107.984375 44.449219 108.023438 44.628906 107.945312 C 44.925781 107.808594 45.359375 106.9375 45.300781 106.621094 C 45.300781 106.582031 45.28125 106.523438 45.261719 106.484375 C 44.964844 105.65625 44.824219 104.804688 44.785156 103.9375 C 44.726562 102.671875 44.785156 101.429688 45.179688 100.203125 C 45.199219 100.144531 45.242188 100.066406 45.21875 100.007812 C 45.101562 99.59375 44.945312 99.199219 44.628906 98.902344 C 44.449219 98.722656 44.273438 98.722656 44.09375 98.921875 C 43.957031 99.078125 43.800781 99.257812 43.738281 99.433594 C 43.582031 99.847656 43.421875 100.285156 43.324219 100.71875 C 43.167969 101.507812 43.109375 102.335938 43.109375 103.027344 Z M 111.1875 67.882812 C 111.625 68.316406 112.058594 68.730469 112.453125 69.183594 C 115.890625 72.878906 119.046875 76.785156 121.910156 80.933594 C 122.109375 81.230469 122.304688 81.527344 122.523438 81.820312 C 122.582031 81.902344 122.699219 82 122.800781 82 C 123.195312 82.039062 123.589844 82.039062 123.964844 82.039062 C 124.222656 82.039062 124.339844 81.882812 124.261719 81.644531 C 124.203125 81.464844 124.121094 81.289062 124.023438 81.132812 C 123.136719 79.75 122.265625 78.367188 121.339844 77.003906 C 118.96875 73.609375 116.304688 70.449219 113.261719 67.644531 C 112.769531 67.191406 112.273438 66.757812 111.761719 66.339844 C 111.445312 66.085938 111.070312 65.847656 110.675781 65.730469 C 109.667969 65.414062 108.640625 65.15625 107.617188 64.921875 C 105.421875 64.40625 103.210938 63.972656 100.980469 63.695312 C 99.480469 63.5 97.960938 63.300781 96.460938 63.164062 C 95.332031 63.042969 94.1875 62.984375 93.042969 62.925781 C 91.582031 62.867188 90.121094 62.808594 88.660156 62.789062 C 87.199219 62.769531 85.738281 62.808594 84.277344 62.828125 C 83.921875 62.828125 83.566406 62.886719 83.230469 63.042969 C 82.65625 63.320312 82.359375 63.792969 82.421875 64.425781 C 82.441406 64.703125 82.519531 64.980469 82.617188 65.253906 C 82.972656 66.183594 83.347656 67.09375 83.683594 68 C 84.890625 71.277344 85.953125 74.59375 86.882812 77.953125 C 87.019531 78.445312 87.179688 78.917969 87.355469 79.414062 C 87.652344 80.222656 88.265625 80.578125 89.113281 80.617188 C 90.300781 80.65625 91.484375 80.695312 92.667969 80.753906 C 94.128906 80.816406 95.609375 80.894531 97.070312 80.953125 C 99.066406 81.03125 101.058594 81.109375 103.054688 81.191406 C 104.476562 81.25 105.898438 81.328125 107.320312 81.386719 C 109.273438 81.464844 111.230469 81.546875 113.183594 81.625 C 114.386719 81.664062 115.613281 81.722656 116.816406 81.761719 C 117.765625 81.800781 118.710938 81.863281 119.660156 81.882812 C 120.035156 81.902344 120.410156 81.882812 120.84375 81.882812 C 117.941406 76.847656 114.40625 72.34375 110.773438 67.863281 C 110.992188 67.664062 111.089844 67.78125 111.1875 67.882812 Z M 50.019531 98.210938 C 49.445312 98.132812 48.894531 98.03125 48.339844 97.992188 C 48.003906 97.972656 47.789062 97.855469 47.707031 97.5 C 47.6875 97.382812 47.628906 97.28125 47.589844 97.144531 C 48.023438 97.066406 48.398438 97.183594 48.792969 97.203125 C 49.1875 97.222656 49.566406 97.261719 49.980469 97.300781 C 49.980469 96.097656 49.980469 94.914062 49.980469 93.707031 C 49.800781 93.6875 49.664062 93.648438 49.503906 93.648438 C 48.222656 93.550781 46.917969 93.453125 45.636719 93.351562 C 45.457031 93.332031 45.300781 93.292969 45.140625 93.175781 C 44.925781 93.015625 44.707031 92.859375 44.410156 92.664062 C 45.082031 92.601562 45.675781 92.703125 46.285156 92.703125 C 46.898438 92.722656 47.492188 92.742188 48.101562 92.761719 C 48.714844 92.78125 49.328125 92.820312 49.980469 92.839844 C 50.019531 91.65625 50.078125 90.53125 50.117188 89.34375 C 50 89.324219 49.878906 89.324219 49.761719 89.324219 C 47.964844 89.246094 46.1875 89.1875 44.390625 89.109375 C 42.417969 89.027344 40.460938 88.929688 38.488281 88.832031 C 38.347656 88.832031 38.113281 88.871094 38.132812 88.652344 C 38.152344 88.476562 38.347656 88.515625 38.488281 88.515625 C 41.3125 88.535156 44.113281 88.535156 46.9375 88.554688 C 47.886719 88.554688 48.832031 88.574219 49.78125 88.574219 C 49.898438 88.574219 50.019531 88.574219 50.175781 88.574219 C 50.273438 87.410156 50.375 86.265625 50.472656 85.101562 C 50.355469 85.101562 50.234375 85.078125 50.136719 85.078125 C 47.175781 85.058594 44.195312 85.039062 41.230469 85.019531 C 40.363281 85.019531 39.496094 84.980469 38.625 84.960938 C 38.507812 84.960938 38.390625 84.980469 38.308594 84.863281 C 38.347656 84.703125 38.46875 84.722656 38.566406 84.722656 C 38.902344 84.703125 39.238281 84.683594 39.554688 84.664062 C 42.515625 84.585938 45.457031 84.507812 48.417969 84.429688 C 49.109375 84.410156 49.800781 84.390625 50.511719 84.347656 C 50.550781 84.09375 50.589844 83.855469 50.609375 83.617188 C 50.925781 80.933594 51.339844 78.289062 51.914062 75.640625 C 52.328125 73.707031 52.800781 71.773438 53.394531 69.894531 C 53.492188 69.601562 53.574219 69.304688 53.671875 69.007812 C 53.867188 68.515625 54.203125 68.179688 54.71875 68.039062 C 55.074219 67.941406 55.429688 67.863281 55.785156 67.804688 C 57.265625 67.566406 58.765625 67.347656 60.246094 67.113281 C 61.726562 66.875 63.1875 66.636719 64.667969 66.402344 C 65.242188 66.300781 65.816406 66.203125 66.386719 66.144531 C 66.644531 66.125 66.941406 66.144531 67.195312 66.203125 C 67.511719 66.28125 67.730469 66.519531 67.769531 66.855469 C 67.808594 67.09375 67.808594 67.328125 67.789062 67.566406 C 67.730469 68.472656 67.394531 69.324219 67.15625 70.191406 C 66.445312 72.796875 65.914062 75.425781 65.480469 78.089844 C 65.125 80.203125 64.847656 82.316406 64.648438 84.449219 C 64.492188 86.226562 64.355469 88.003906 64.273438 89.78125 C 64.195312 91.773438 64.15625 93.769531 64.15625 95.761719 C 64.15625 98.25 64.3125 100.738281 64.570312 103.226562 C 64.648438 103.996094 64.769531 104.746094 64.847656 105.515625 C 64.90625 106.207031 64.550781 106.523438 63.859375 106.386719 C 63.070312 106.226562 62.28125 106.050781 61.492188 105.871094 C 57.996094 105.101562 54.5 104.3125 51.007812 103.542969 C 50.472656 103.421875 50.273438 103.226562 50.234375 102.671875 C 50.136719 101.289062 50.058594 99.910156 49.960938 98.507812 C 50.039062 98.429688 50.039062 98.347656 50.019531 98.210938 Z M 51.738281 102.179688 C 51.855469 102.21875 51.972656 102.257812 52.09375 102.277344 C 53.179688 102.515625 54.265625 102.75 55.351562 103.007812 C 57.917969 103.582031 60.484375 104.152344 63.050781 104.726562 C 63.148438 104.746094 63.246094 104.746094 63.386719 104.765625 C 62.417969 97.007812 62.695312 89.285156 63.601562 81.527344 C 60.148438 81.644531 56.75 81.761719 53.296875 81.882812 C 53.316406 81.664062 53.316406 81.488281 53.335938 81.308594 C 53.375 80.972656 53.394531 80.65625 53.433594 80.320312 C 53.632812 78.664062 53.808594 77.023438 54.046875 75.386719 C 54.304688 73.648438 54.660156 71.910156 54.976562 70.171875 C 54.996094 70.074219 54.996094 69.957031 54.996094 69.816406 C 54.757812 69.875 54.757812 70.035156 54.71875 70.152344 C 54.480469 70.980469 54.265625 71.792969 54.046875 72.621094 C 53.433594 74.949219 52.921875 77.300781 52.546875 79.691406 C 52.386719 80.777344 52.269531 81.863281 52.152344 82.949219 C 52.09375 83.402344 52.050781 83.835938 52.011719 84.328125 C 52.171875 84.328125 52.289062 84.328125 52.40625 84.328125 C 53.59375 84.308594 54.777344 84.269531 55.960938 84.230469 C 57.777344 84.171875 59.59375 84.09375 61.410156 84.015625 C 61.511719 84.015625 61.628906 83.992188 61.726562 84.015625 C 62.0625 84.054688 62.300781 84.308594 62.300781 84.644531 C 62.300781 84.941406 62.0625 85.199219 61.746094 85.238281 C 61.667969 85.238281 61.609375 85.238281 61.53125 85.238281 C 58.488281 85.179688 55.449219 85.140625 52.40625 85.078125 C 52.25 85.078125 52.113281 85.078125 51.914062 85.078125 C 51.777344 86.246094 51.675781 87.410156 51.617188 88.59375 C 52.230469 88.59375 52.78125 88.59375 53.335938 88.59375 C 55.882812 88.59375 58.449219 88.59375 60.996094 88.59375 C 61.09375 88.59375 61.214844 88.59375 61.3125 88.613281 C 61.609375 88.691406 61.804688 88.949219 61.804688 89.226562 C 61.785156 89.523438 61.570312 89.757812 61.273438 89.820312 C 61.175781 89.839844 61.054688 89.839844 60.957031 89.820312 C 60.71875 89.800781 60.484375 89.78125 60.246094 89.757812 C 58.527344 89.679688 56.832031 89.601562 55.113281 89.523438 C 54.203125 89.484375 53.277344 89.445312 52.367188 89.402344 C 52.09375 89.382812 51.835938 89.402344 51.558594 89.402344 C 51.441406 90.113281 51.359375 92.542969 51.441406 92.878906 C 51.539062 92.878906 51.636719 92.898438 51.757812 92.898438 C 52.488281 92.9375 53.199219 92.957031 53.929688 92.996094 C 56.121094 93.078125 58.292969 93.15625 60.484375 93.234375 C 60.621094 93.234375 60.742188 93.234375 60.878906 93.253906 C 61.253906 93.3125 61.492188 93.589844 61.472656 93.945312 C 61.449219 94.300781 61.195312 94.558594 60.820312 94.558594 C 60.621094 94.558594 60.445312 94.539062 60.246094 94.519531 C 59.003906 94.398438 57.738281 94.28125 56.496094 94.183594 C 55.09375 94.0625 53.710938 93.964844 52.308594 93.847656 C 52.011719 93.828125 51.714844 93.808594 51.421875 93.789062 C 51.421875 95.011719 51.421875 96.175781 51.421875 97.382812 C 51.519531 97.402344 51.597656 97.441406 51.675781 97.441406 C 53.21875 97.578125 54.777344 97.738281 56.316406 97.875 C 57.835938 98.011719 59.339844 98.113281 60.859375 98.25 C 60.976562 98.25 61.09375 98.289062 61.195312 98.328125 C 61.492188 98.449219 61.667969 98.761719 61.628906 99.078125 C 61.589844 99.394531 61.332031 99.632812 60.996094 99.671875 C 60.859375 99.691406 60.71875 99.671875 60.5625 99.652344 C 59.496094 99.492188 58.449219 99.335938 57.382812 99.179688 C 55.644531 98.941406 53.929688 98.703125 52.191406 98.488281 C 51.953125 98.449219 51.695312 98.429688 51.421875 98.40625 C 51.519531 99.691406 51.617188 100.933594 51.738281 102.179688 Z M 72.015625 81.722656 C 75.09375 81.703125 78.195312 81.683594 81.273438 81.664062 C 82.164062 81.664062 83.050781 81.664062 83.941406 81.664062 C 84.847656 81.664062 85.382812 81.132812 85.363281 80.222656 C 85.363281 80.125 85.34375 80.003906 85.324219 79.90625 C 85.222656 79.511719 85.125 79.117188 85.027344 78.742188 C 84.394531 76.273438 83.683594 73.824219 82.835938 71.417969 C 82.242188 69.71875 81.609375 68.019531 80.859375 66.382812 C 80.625 65.847656 80.289062 65.375 79.855469 64.960938 C 79.476562 64.605469 79.023438 64.367188 78.472656 64.386719 C 78.035156 64.40625 77.601562 64.484375 77.167969 64.546875 C 76.082031 64.683594 74.976562 64.820312 73.890625 64.960938 C 73.335938 65.019531 72.785156 65.078125 72.230469 65.175781 C 71.640625 65.277344 71.183594 65.570312 70.949219 66.144531 C 70.851562 66.402344 70.730469 66.675781 70.671875 66.953125 C 70.414062 67.960938 70.179688 68.949219 69.960938 69.976562 C 69.488281 72.128906 69.152344 74.320312 68.914062 76.511719 C 68.816406 77.4375 68.738281 78.386719 68.65625 79.3125 C 68.617188 79.847656 68.679688 80.359375 68.894531 80.835938 C 69.191406 81.445312 69.703125 81.703125 70.355469 81.78125 C 70.375 81.625 70.375 81.527344 70.375 81.40625 C 70.453125 79.375 70.613281 77.320312 70.832031 75.304688 C 71.105469 72.878906 71.480469 70.46875 71.9375 68.058594 C 71.996094 67.78125 72.054688 67.507812 72.113281 67.230469 C 72.152344 67.074219 72.210938 66.953125 72.449219 67.03125 C 71.855469 71.910156 71.441406 76.808594 71.441406 81.78125 C 71.71875 81.722656 71.875 81.722656 72.015625 81.722656 Z M 41.449219 82.296875 C 42.417969 82.257812 43.402344 82.238281 44.371094 82.195312 C 45.179688 82.15625 46.011719 82.117188 46.820312 82.097656 C 47.433594 82.078125 48.042969 82.039062 48.675781 82.058594 C 49.40625 82.078125 49.898438 81.742188 50.097656 81.03125 C 50.15625 80.835938 50.175781 80.636719 50.214844 80.441406 C 50.492188 79.117188 50.75 77.792969 51.027344 76.472656 C 51.480469 74.28125 51.953125 72.085938 52.664062 69.957031 C 52.742188 69.71875 52.78125 69.441406 52.800781 69.183594 C 52.824219 68.710938 52.585938 68.472656 52.191406 68.472656 C 52.050781 68.472656 51.933594 68.453125 51.796875 68.472656 C 50.511719 68.671875 49.210938 68.867188 47.925781 69.085938 C 46.1875 69.363281 44.449219 69.640625 42.734375 69.914062 C 42.257812 69.996094 41.804688 70.09375 41.351562 70.191406 C 41.054688 70.269531 40.816406 70.449219 40.640625 70.707031 C 40.402344 71.042969 40.183594 71.355469 40.046875 71.75 C 39.851562 72.34375 39.613281 72.917969 39.414062 73.488281 C 38.683594 75.722656 38.210938 78.011719 37.777344 80.300781 C 37.699219 80.714844 37.699219 81.152344 37.835938 81.566406 C 37.992188 82.078125 38.308594 82.335938 38.84375 82.375 C 39.121094 82.394531 39.414062 82.355469 39.691406 82.355469 C 39.710938 82.257812 39.730469 82.195312 39.75 82.117188 C 39.929688 80.578125 40.207031 79.058594 40.539062 77.558594 C 40.9375 75.78125 41.371094 74.003906 41.941406 72.265625 C 41.980469 72.167969 41.980469 72.066406 42.042969 72.007812 C 42.082031 71.949219 42.160156 71.929688 42.21875 71.890625 C 42.238281 71.949219 42.277344 72.007812 42.277344 72.066406 C 42.277344 72.148438 42.257812 72.207031 42.238281 72.285156 C 41.960938 73.648438 41.648438 75.03125 41.410156 76.390625 C 41.171875 77.773438 41.015625 79.15625 40.855469 80.558594 C 40.796875 81.109375 40.777344 81.683594 40.738281 82.316406 C 41.035156 82.296875 41.25 82.316406 41.449219 82.296875 Z M 129.078125 103.9375 C 127.261719 104.113281 125.464844 104.3125 123.648438 104.449219 C 121.832031 104.589844 120.015625 104.667969 118.199219 104.746094 C 115.828125 104.84375 113.480469 104.902344 111.109375 104.964844 C 107.992188 105.023438 104.890625 105.0625 101.769531 105.121094 C 101.316406 105.121094 100.84375 105.121094 100.390625 105.121094 C 100.308594 105.121094 100.25 105.101562 100.171875 105.082031 C 100.25 104.984375 100.308594 104.925781 100.410156 104.902344 C 100.585938 104.882812 100.765625 104.863281 100.941406 104.84375 C 102.246094 104.785156 103.546875 104.746094 104.851562 104.6875 C 106.726562 104.609375 108.601562 104.546875 110.476562 104.46875 C 112.214844 104.390625 113.972656 104.332031 115.710938 104.234375 C 118.417969 104.074219 121.140625 103.878906 123.847656 103.679688 C 125.761719 103.542969 127.636719 103.265625 129.570312 102.929688 C 129.652344 102.652344 129.75 102.355469 129.808594 102.0625 C 129.886719 101.765625 129.75 101.605469 129.433594 101.625 C 129.097656 101.644531 128.742188 101.6875 128.40625 101.726562 C 127.773438 101.785156 127.164062 101.863281 126.53125 101.921875 C 125.78125 101.980469 125.011719 102.019531 124.261719 102.082031 C 123.097656 102.160156 121.910156 102.257812 120.746094 102.335938 C 119.757812 102.398438 118.75 102.457031 117.765625 102.515625 C 116.597656 102.574219 115.433594 102.652344 114.289062 102.710938 C 113.300781 102.75 112.316406 102.773438 111.328125 102.8125 C 109.453125 102.871094 107.574219 102.949219 105.699219 102.988281 C 103.585938 103.027344 101.476562 103.007812 99.363281 103.027344 C 99.085938 103.027344 98.808594 103.007812 98.550781 103.027344 C 98.195312 103.027344 98.117188 103.128906 98.15625 103.484375 C 98.195312 103.796875 98.257812 104.09375 98.296875 104.390625 C 98.472656 105.359375 98.671875 106.324219 99.066406 107.234375 C 99.441406 108.121094 100.09375 108.636719 101.039062 108.773438 C 101.535156 108.851562 102.046875 108.871094 102.5625 108.894531 C 103.371094 108.933594 104.199219 108.972656 105.007812 108.972656 C 107.242188 108.953125 109.472656 108.933594 111.703125 108.894531 C 112.789062 108.871094 113.855469 108.773438 114.941406 108.695312 C 115.96875 108.617188 116.976562 108.558594 118 108.457031 C 119.285156 108.339844 120.566406 108.203125 121.851562 108.042969 C 123.253906 107.867188 124.65625 107.667969 126.058594 107.472656 C 126.808594 107.371094 127.417969 107.035156 127.953125 106.503906 C 128.070312 106.386719 128.171875 106.226562 128.328125 106.03125 C 128.109375 106.050781 127.992188 106.070312 127.875 106.070312 C 127.125 106.148438 126.394531 106.265625 125.644531 106.324219 C 123.390625 106.464844 121.140625 106.582031 118.890625 106.679688 C 116.738281 106.78125 114.585938 106.859375 112.453125 106.898438 C 109.371094 106.957031 106.273438 106.957031 103.191406 106.976562 C 102.582031 106.976562 101.988281 106.957031 101.375 106.957031 C 101.257812 106.957031 101.121094 106.996094 101 106.800781 C 101.160156 106.78125 101.257812 106.761719 101.375 106.761719 C 103.113281 106.722656 104.851562 106.679688 106.570312 106.621094 C 109.117188 106.523438 111.644531 106.40625 114.191406 106.285156 C 116.265625 106.1875 118.335938 106.070312 120.410156 105.929688 C 122.386719 105.792969 124.359375 105.613281 126.332031 105.417969 C 127.105469 105.339844 127.855469 105.179688 128.625 105.042969 C 128.722656 105.023438 128.882812 104.964844 128.921875 104.882812 C 129.058594 104.609375 129.15625 104.292969 129.277344 103.996094 C 129.136719 103.957031 129.117188 103.9375 129.078125 103.9375 Z M 93.359375 98.40625 C 94.5625 98.449219 95.789062 98.488281 96.992188 98.507812 C 98.710938 98.527344 100.410156 98.546875 102.125 98.546875 C 102.621094 98.546875 103.09375 98.527344 103.585938 98.488281 C 104.21875 98.449219 104.496094 98.011719 104.316406 97.421875 C 104.296875 97.382812 104.296875 97.363281 104.277344 97.320312 C 103.765625 95.960938 103.25 94.597656 102.699219 93.234375 C 102.5625 92.878906 102.363281 92.5625 102.125 92.246094 C 101.730469 91.734375 101.199219 91.359375 100.625 91.0625 C 99.480469 90.429688 98.238281 90.234375 96.953125 90.15625 C 96.085938 90.09375 95.195312 90.074219 94.328125 90.035156 C 93.242188 89.976562 92.175781 89.9375 91.089844 89.878906 C 90.160156 89.839844 89.234375 89.78125 88.324219 89.738281 C 87.710938 89.71875 87.101562 89.679688 86.46875 89.679688 C 85.976562 89.679688 85.71875 89.957031 85.738281 90.449219 C 85.757812 91.121094 85.757812 91.773438 85.777344 92.445312 C 85.796875 93.828125 85.816406 95.210938 85.875 96.570312 C 85.875 96.828125 85.953125 97.085938 86.054688 97.320312 C 86.210938 97.675781 86.488281 97.914062 86.902344 97.933594 C 88.085938 98.03125 89.292969 98.152344 90.476562 98.25 C 90.515625 98.25 90.554688 98.230469 90.613281 98.210938 C 90.632812 98.152344 90.632812 98.09375 90.632812 98.03125 C 90.734375 96.808594 90.8125 95.566406 90.910156 94.339844 C 90.96875 93.609375 91.050781 92.878906 91.128906 92.148438 C 91.148438 92.03125 91.1875 91.929688 91.226562 91.8125 C 91.445312 91.851562 91.464844 91.992188 91.484375 92.128906 C 91.503906 92.347656 91.542969 92.582031 91.5625 92.800781 C 91.742188 94.105469 91.917969 95.40625 92.074219 96.710938 C 92.136719 97.242188 92.195312 97.777344 92.253906 98.328125 C 92.648438 98.347656 93.003906 98.386719 93.359375 98.40625 Z M 107.28125 95.347656 C 107.4375 95.308594 107.574219 95.289062 107.734375 95.289062 C 108.640625 95.230469 109.550781 95.148438 110.476562 95.128906 C 112.808594 95.03125 115.136719 94.953125 117.449219 94.855469 C 119.582031 94.773438 121.714844 94.695312 123.867188 94.636719 C 123.984375 94.636719 124.101562 94.617188 124.222656 94.617188 C 124.300781 94.164062 124.339844 93.75 124.339844 93.292969 C 124.023438 93.292969 123.726562 93.292969 123.449219 93.292969 C 120.191406 93.273438 116.933594 93.253906 113.695312 93.234375 C 112.136719 93.214844 110.578125 93.195312 109.035156 93.175781 C 108.226562 93.175781 107.398438 93.195312 106.589844 93.195312 C 106.429688 93.195312 106.253906 93.234375 106.113281 93.015625 C 106.273438 92.976562 106.410156 92.917969 106.550781 92.898438 C 106.886719 92.859375 107.242188 92.839844 107.574219 92.839844 C 110.617188 92.800781 113.65625 92.761719 116.699219 92.703125 C 118.949219 92.640625 121.199219 92.542969 123.472656 92.464844 C 123.804688 92.445312 124.121094 92.425781 124.457031 92.40625 C 124.496094 92.109375 124.496094 91.832031 124.378906 91.574219 C 124.242188 91.242188 124.003906 91.082031 123.628906 91.082031 C 123.429688 91.082031 123.234375 91.082031 123.015625 91.082031 C 117.132812 91.082031 111.25 91.082031 105.382812 91.082031 C 105.128906 91.082031 104.871094 91.0625 104.59375 91.0625 C 104.398438 91.0625 104.21875 91.0625 104.023438 91.101562 C 103.507812 91.222656 103.3125 91.617188 103.507812 92.109375 C 103.566406 92.246094 103.648438 92.386719 103.6875 92.523438 C 104.199219 93.808594 104.691406 95.089844 105.207031 96.355469 C 105.484375 97.027344 105.957031 97.460938 106.707031 97.480469 C 107.496094 97.519531 108.265625 97.539062 109.058594 97.539062 C 110.359375 97.539062 111.644531 97.519531 112.945312 97.5 C 114.367188 97.460938 115.789062 97.421875 117.210938 97.339844 C 119.007812 97.242188 120.804688 97.105469 122.601562 96.964844 C 123.234375 96.925781 123.707031 96.589844 124.003906 96.019531 C 124.082031 95.859375 124.160156 95.703125 124.0625 95.484375 C 123.945312 95.484375 123.847656 95.484375 123.746094 95.484375 C 119.859375 95.484375 115.949219 95.484375 112.058594 95.503906 C 110.519531 95.503906 108.976562 95.566406 107.417969 95.605469 C 107.28125 95.605469 107.121094 95.683594 107.003906 95.464844 C 107.121094 95.425781 107.199219 95.367188 107.28125 95.347656 Z M 51.855469 64.289062 C 53.039062 64.089844 54.222656 63.875 55.390625 63.675781 C 56.476562 63.5 57.5625 63.320312 58.648438 63.125 C 59.042969 63.042969 59.4375 62.945312 59.8125 62.808594 C 60.34375 62.609375 60.640625 62.175781 60.78125 61.621094 C 61.074219 60.261719 61.390625 58.917969 61.6875 57.554688 C 61.847656 56.804688 62.023438 56.074219 62.160156 55.324219 C 62.261719 54.808594 61.964844 54.414062 61.449219 54.296875 C 61.054688 54.199219 60.699219 54.296875 60.324219 54.394531 C 58.390625 54.988281 56.476562 55.5625 54.539062 56.152344 C 53.75 56.390625 52.980469 56.667969 52.210938 56.902344 C 51.480469 57.140625 51.125 57.652344 50.945312 58.363281 C 50.570312 59.867188 50.195312 61.367188 49.820312 62.847656 C 49.742188 63.164062 49.722656 63.480469 49.800781 63.792969 C 49.941406 64.25 50.335938 64.464844 50.808594 64.347656 C 50.945312 63.714844 51.105469 63.082031 51.261719 62.453125 C 51.597656 61.089844 51.953125 59.746094 52.308594 58.382812 C 52.347656 58.265625 52.328125 58.128906 52.488281 58.070312 C 52.644531 58.148438 52.605469 58.265625 52.585938 58.382812 C 52.308594 60.003906 52.03125 61.640625 51.777344 63.261719 C 51.714844 63.597656 51.675781 63.933594 51.636719 64.308594 C 51.714844 64.289062 51.796875 64.289062 51.855469 64.289062 Z M 129.652344 97.242188 C 129.886719 97.203125 130.066406 97.066406 130.144531 96.847656 C 130.183594 96.730469 130.203125 96.589844 130.222656 96.472656 C 130.324219 95.070312 130.222656 93.667969 130.085938 92.285156 C 130.007812 91.457031 129.789062 90.667969 129.394531 89.9375 C 128.445312 88.199219 127.460938 86.5 126.355469 84.882812 C 126.15625 84.605469 125.9375 84.328125 125.722656 84.074219 C 125.683594 84.015625 125.601562 83.992188 125.542969 83.953125 C 125.523438 83.972656 125.503906 83.992188 125.484375 84.015625 C 125.5625 84.210938 125.625 84.410156 125.722656 84.585938 C 126.332031 85.851562 126.925781 87.113281 127.417969 88.4375 C 127.65625 89.046875 127.835938 89.699219 128.050781 90.351562 C 127.855469 90.410156 127.695312 90.46875 127.558594 90.53125 C 127.242188 90.648438 126.90625 90.765625 126.609375 90.90625 C 126.058594 91.160156 125.761719 91.617188 125.703125 92.207031 C 125.5625 93.53125 125.445312 94.855469 125.328125 96.175781 C 125.308594 96.472656 125.308594 96.789062 125.347656 97.105469 C 125.386719 97.539062 125.625 97.695312 126.039062 97.675781 C 126.292969 97.65625 126.53125 97.636719 126.789062 97.617188 C 127.203125 97.578125 127.597656 97.539062 128.03125 97.480469 C 128.109375 97.027344 128.191406 96.609375 128.25 96.195312 C 128.40625 94.992188 128.527344 93.769531 128.527344 92.542969 C 128.527344 92.425781 128.484375 92.308594 128.683594 92.207031 C 128.722656 92.265625 128.800781 92.328125 128.820312 92.40625 C 128.859375 92.523438 128.882812 92.640625 128.882812 92.761719 C 128.941406 93.570312 129 94.378906 129.039062 95.167969 C 129.078125 95.859375 129.097656 96.570312 129.117188 97.300781 C 129.296875 97.28125 129.472656 97.28125 129.652344 97.242188 Z M 79.261719 97.894531 C 79.003906 97.046875 78.707031 96.234375 78.273438 95.464844 C 77.839844 94.695312 77.304688 94.003906 76.636719 93.414062 C 75.113281 92.089844 73.359375 91.675781 71.382812 92.03125 C 70.96875 92.109375 70.554688 92.226562 70.121094 92.328125 C 70.097656 92.265625 70.058594 92.1875 70.058594 92.128906 C 69.84375 90.785156 69.664062 89.425781 69.625 88.0625 C 69.585938 86.601562 69.625 85.121094 69.625 83.636719 C 69.625 83.539062 69.625 83.421875 69.625 83.324219 C 69.625 83.222656 69.605469 83.105469 69.488281 83.105469 C 69.410156 83.105469 69.308594 83.183594 69.269531 83.261719 C 69.191406 83.441406 69.152344 83.636719 69.113281 83.835938 C 68.992188 84.703125 68.855469 85.574219 68.777344 86.441406 C 68.539062 88.929688 68.421875 91.417969 68.539062 93.90625 C 68.558594 94.105469 68.597656 94.300781 68.679688 94.480469 C 68.855469 94.855469 69.171875 94.933594 69.546875 94.753906 C 69.765625 94.65625 69.960938 94.519531 70.160156 94.398438 C 71.285156 93.707031 72.488281 93.492188 73.792969 93.707031 C 75.195312 93.964844 76.339844 94.675781 77.328125 95.703125 C 77.957031 96.355469 78.453125 97.105469 78.90625 97.894531 C 78.964844 98.011719 79.0625 98.113281 79.164062 98.230469 C 79.300781 98.050781 79.300781 98.050781 79.261719 97.894531 Z M 93.261719 106.800781 C 93.359375 106.070312 93.222656 105.378906 92.765625 104.785156 C 92.53125 104.46875 92.214844 104.234375 91.820312 104.152344 C 91.40625 104.074219 91.128906 104.234375 90.96875 104.609375 C 90.59375 105.554688 90.554688 106.503906 90.890625 107.472656 C 91.050781 107.945312 91.304688 108.378906 91.699219 108.714844 C 92.351562 109.269531 93.222656 109.367188 93.933594 108.871094 C 94.226562 108.675781 94.503906 108.417969 94.683594 108.140625 C 95.472656 106.898438 95.570312 105.59375 94.976562 104.253906 C 94.742188 103.71875 94.347656 103.304688 93.792969 103.066406 C 93.28125 102.851562 92.765625 102.871094 92.253906 103.128906 C 92.273438 103.167969 92.273438 103.1875 92.273438 103.1875 C 92.292969 103.207031 92.3125 103.226562 92.332031 103.226562 C 93.242188 103.660156 93.714844 104.429688 93.890625 105.398438 C 93.992188 105.988281 93.953125 106.582031 93.65625 107.136719 C 93.578125 107.292969 93.476562 107.472656 93.242188 107.53125 C 93.121094 107.234375 93.222656 107.015625 93.261719 106.800781 Z M 114.152344 87.273438 C 113.480469 87.292969 112.828125 87.410156 112.253906 87.804688 C 111.683594 88.199219 111.664062 88.832031 112.214844 89.265625 C 112.492188 89.464844 112.808594 89.621094 113.125 89.71875 C 113.875 89.957031 114.644531 89.976562 115.414062 89.859375 C 115.929688 89.78125 116.441406 89.640625 116.855469 89.304688 C 117.332031 88.910156 117.351562 88.316406 116.855469 87.941406 C 116.621094 87.765625 116.34375 87.628906 116.066406 87.527344 C 115.574219 87.351562 115.058594 87.292969 114.527344 87.292969 C 114.425781 87.273438 114.289062 87.273438 114.152344 87.273438 Z M 72.527344 86.226562 C 73.4375 86.125 74.363281 86.046875 75.273438 85.949219 C 75.410156 85.929688 75.550781 85.890625 75.6875 85.832031 C 75.84375 85.75 75.84375 85.574219 75.6875 85.496094 C 75.570312 85.433594 75.429688 85.394531 75.292969 85.375 C 74.128906 85.21875 72.941406 85.058594 71.777344 84.902344 C 71.660156 84.882812 71.519531 84.902344 71.402344 84.941406 C 70.910156 85.121094 70.789062 85.75 71.164062 86.105469 C 71.34375 86.265625 71.539062 86.304688 71.757812 86.304688 C 72.015625 86.285156 72.273438 86.246094 72.527344 86.226562 Z M 38.25 92.703125 C 39.316406 92.800781 40.402344 92.878906 41.46875 93.015625 C 41.902344 93.078125 42.101562 92.820312 42.378906 92.582031 C 41.152344 92.425781 38.132812 92.386719 37.816406 92.542969 C 37.914062 92.703125 38.09375 92.683594 38.25 92.703125 Z M 38.035156 96.296875 C 37.933594 96.296875 37.816406 96.277344 37.757812 96.433594 C 38.429688 96.632812 39.097656 96.710938 39.769531 96.808594 C 39.808594 96.671875 39.832031 96.570312 39.871094 96.414062 C 39.238281 96.375 38.644531 96.335938 38.035156 96.296875 Z M 38.035156 96.296875 " fill-opacity="1" fill-rule="nonzero"/></g><g clip-path="url(#485843b306)"><path fill="#ffffff" d="M 9.996094 113.882812 C 10.113281 113.835938 10.117188 113.714844 10.074219 112.335938 C 9.839844 104.789062 10.007812 101.082031 10.832031 95.839844 C 13.152344 81.015625 20.351562 66.992188 31.203125 56.152344 C 43.59375 43.777344 60.308594 35.824219 77.539062 34.117188 C 80.195312 33.851562 81.503906 33.792969 84.585938 33.792969 C 87.523438 33.792969 88.824219 33.847656 91.34375 34.078125 C 104.226562 35.257812 115.847656 39.449219 124.953125 46.203125 C 133.300781 52.394531 140.496094 61.035156 145.191406 70.503906 C 147.5625 75.285156 149.335938 80.449219 150.640625 86.371094 C 151.910156 92.136719 152.261719 96.324219 152.183594 104.691406 C 152.144531 108.761719 152.0625 110.273438 151.765625 112.246094 C 151.6875 112.785156 151.601562 113.394531 151.578125 113.601562 C 151.535156 113.972656 151.539062 113.980469 151.714844 113.980469 C 151.871094 113.980469 151.917969 113.921875 152.046875 113.566406 C 152.421875 112.527344 152.59375 111.789062 152.957031 109.589844 C 153.46875 106.546875 153.667969 104.789062 153.796875 102.308594 C 153.839844 101.472656 153.90625 100.398438 153.945312 99.921875 C 154.320312 95.175781 153.839844 88.699219 152.707031 83.210938 C 151.152344 75.695312 147.898438 67.4375 143.867188 60.78125 C 138.429688 51.804688 130.875 44.25 121.160156 38.070312 C 116.015625 34.800781 110.582031 32.214844 105.042969 30.402344 C 99.601562 28.621094 94.628906 27.667969 88.5625 27.234375 C 86.910156 27.113281 81.683594 27.113281 79.996094 27.234375 C 73.824219 27.664062 68.683594 28.585938 63.226562 30.230469 C 53.8125 33.074219 44.910156 37.894531 37.265625 44.285156 C 31.464844 49.128906 26.34375 54.886719 22.027344 61.40625 C 15.113281 71.835938 10.746094 83.910156 9.382812 96.34375 C 8.75 102.121094 8.832031 109.550781 9.566406 113.1875 C 9.6875 113.773438 9.800781 113.957031 9.996094 113.882812 Z M 9.996094 113.882812 " fill-opacity="1" fill-rule="nonzero"/></g><g fill="#ffffff" fill-opacity="1"><g transform="translate(160.72538, 87.654357)"><g><path d="M 2.59375 -21.65625 L 19.09375 -21.65625 L 19.09375 -17.328125 L 7.359375 -17.328125 L 7.359375 -12.71875 L 17.703125 -12.71875 L 17.703125 -8.390625 L 7.359375 -8.390625 L 7.359375 0 L 2.59375 0 Z M 2.59375 -21.65625 "/></g></g></g><g fill="#ffffff" fill-opacity="1"><g transform="translate(181.024208, 87.654357)"><g><path d="M 10.03125 -21.8125 L 14.421875 -21.8125 L 23.703125 0 L 18.71875 0 L 16.734375 -4.859375 L 7.578125 -4.859375 L 5.59375 0 L 0.75 0 Z M 15.03125 -9.0625 L 12.15625 -16.09375 L 9.28125 -9.0625 Z M 15.03125 -9.0625 "/></g></g></g><g fill="#ffffff" fill-opacity="1"><g transform="translate(205.469439, 87.654357)"><g><path d="M 2.59375 -21.65625 L 7.359375 -21.65625 L 7.359375 -4.328125 L 18.15625 -4.328125 L 18.15625 0 L 2.59375 0 Z M 2.59375 -21.65625 "/></g></g></g><g fill="#ffffff" fill-opacity="1"><g transform="translate(224.623361, 87.654357)"><g><path d="M 12.75 0.375 C 11.15625 0.375 9.675781 0.0859375 8.3125 -0.484375 C 6.957031 -1.066406 5.785156 -1.859375 4.796875 -2.859375 C 3.804688 -3.859375 3.03125 -5.039062 2.46875 -6.40625 C 1.914062 -7.769531 1.640625 -9.222656 1.640625 -10.765625 L 1.640625 -10.828125 C 1.640625 -12.367188 1.914062 -13.816406 2.46875 -15.171875 C 3.03125 -16.523438 3.804688 -17.710938 4.796875 -18.734375 C 5.785156 -19.753906 6.96875 -20.554688 8.34375 -21.140625 C 9.726562 -21.734375 11.257812 -22.03125 12.9375 -22.03125 C 13.945312 -22.03125 14.867188 -21.945312 15.703125 -21.78125 C 16.535156 -21.613281 17.289062 -21.382812 17.96875 -21.09375 C 18.65625 -20.8125 19.285156 -20.460938 19.859375 -20.046875 C 20.441406 -19.628906 20.976562 -19.175781 21.46875 -18.6875 L 18.4375 -15.1875 C 17.59375 -15.945312 16.734375 -16.546875 15.859375 -16.984375 C 14.984375 -17.421875 14 -17.640625 12.90625 -17.640625 C 12 -17.640625 11.15625 -17.460938 10.375 -17.109375 C 9.601562 -16.753906 8.9375 -16.265625 8.375 -15.640625 C 7.820312 -15.023438 7.390625 -14.3125 7.078125 -13.5 C 6.773438 -12.6875 6.625 -11.816406 6.625 -10.890625 L 6.625 -10.828125 C 6.625 -9.898438 6.773438 -9.019531 7.078125 -8.1875 C 7.390625 -7.363281 7.816406 -6.644531 8.359375 -6.03125 C 8.910156 -5.414062 9.570312 -4.925781 10.34375 -4.5625 C 11.125 -4.195312 11.976562 -4.015625 12.90625 -4.015625 C 14.132812 -4.015625 15.175781 -4.242188 16.03125 -4.703125 C 16.894531 -5.160156 17.75 -5.78125 18.59375 -6.5625 L 21.625 -3.5 C 21.070312 -2.894531 20.492188 -2.351562 19.890625 -1.875 C 19.296875 -1.40625 18.640625 -1 17.921875 -0.65625 C 17.210938 -0.320312 16.4375 -0.0664062 15.59375 0.109375 C 14.75 0.285156 13.800781 0.375 12.75 0.375 Z M 12.75 0.375 "/></g></g></g><g fill="#ffffff" fill-opacity="1"><g transform="translate(247.45954, 87.654357)"><g><path d="M 13.125 0.375 C 11.445312 0.375 9.90625 0.0820312 8.5 -0.5 C 7.101562 -1.09375 5.894531 -1.890625 4.875 -2.890625 C 3.851562 -3.890625 3.054688 -5.066406 2.484375 -6.421875 C 1.921875 -7.773438 1.640625 -9.222656 1.640625 -10.765625 L 1.640625 -10.828125 C 1.640625 -12.367188 1.925781 -13.816406 2.5 -15.171875 C 3.082031 -16.523438 3.882812 -17.710938 4.90625 -18.734375 C 5.925781 -19.753906 7.140625 -20.554688 8.546875 -21.140625 C 9.960938 -21.734375 11.503906 -22.03125 13.171875 -22.03125 C 14.847656 -22.03125 16.382812 -21.734375 17.78125 -21.140625 C 19.1875 -20.554688 20.398438 -19.765625 21.421875 -18.765625 C 22.441406 -17.765625 23.234375 -16.585938 23.796875 -15.234375 C 24.367188 -13.878906 24.65625 -12.429688 24.65625 -10.890625 L 24.65625 -10.828125 C 24.65625 -9.273438 24.363281 -7.820312 23.78125 -6.46875 C 23.207031 -5.125 22.410156 -3.941406 21.390625 -2.921875 C 20.367188 -1.898438 19.148438 -1.09375 17.734375 -0.5 C 16.328125 0.0820312 14.789062 0.375 13.125 0.375 Z M 13.171875 -4.015625 C 14.128906 -4.015625 15.007812 -4.191406 15.8125 -4.546875 C 16.613281 -4.898438 17.296875 -5.382812 17.859375 -6 C 18.429688 -6.625 18.875 -7.34375 19.1875 -8.15625 C 19.507812 -8.96875 19.671875 -9.835938 19.671875 -10.765625 L 19.671875 -10.828125 C 19.671875 -11.753906 19.507812 -12.628906 19.1875 -13.453125 C 18.875 -14.273438 18.421875 -14.992188 17.828125 -15.609375 C 17.242188 -16.234375 16.550781 -16.726562 15.75 -17.09375 C 14.945312 -17.457031 14.070312 -17.640625 13.125 -17.640625 C 12.144531 -17.640625 11.257812 -17.460938 10.46875 -17.109375 C 9.675781 -16.753906 8.992188 -16.265625 8.421875 -15.640625 C 7.859375 -15.023438 7.414062 -14.3125 7.09375 -13.5 C 6.78125 -12.6875 6.625 -11.816406 6.625 -10.890625 L 6.625 -10.828125 C 6.625 -9.898438 6.78125 -9.019531 7.09375 -8.1875 C 7.414062 -7.363281 7.867188 -6.644531 8.453125 -6.03125 C 9.046875 -5.414062 9.738281 -4.925781 10.53125 -4.5625 C 11.320312 -4.195312 12.203125 -4.015625 13.171875 -4.015625 Z M 13.171875 -4.015625 "/></g></g></g><g fill="#ffffff" fill-opacity="1"><g transform="translate(273.761371, 87.654357)"><g><path d="M 2.59375 -21.65625 L 6.984375 -21.65625 L 17.140625 -8.328125 L 17.140625 -21.65625 L 21.84375 -21.65625 L 21.84375 0 L 17.78125 0 L 7.296875 -13.765625 L 7.296875 0 L 2.59375 0 Z M 2.59375 -21.65625 "/></g></g></g><g fill="#ffffff" fill-opacity="1"><g transform="translate(298.20661, 87.654357)"><g><path d="M 2.8125 -21.65625 L 7.578125 -21.65625 L 7.578125 0 L 2.8125 0 Z M 2.8125 -21.65625 "/></g></g></g><g fill="#ffffff" fill-opacity="1"><g transform="translate(308.603579, 87.654357)"><g><path d="M 2.59375 -21.65625 L 18.9375 -21.65625 L 18.9375 -17.421875 L 7.328125 -17.421875 L 7.328125 -13.03125 L 17.546875 -13.03125 L 17.546875 -8.78125 L 7.328125 -8.78125 L 7.328125 -4.234375 L 19.09375 -4.234375 L 19.09375 0 L 2.59375 0 Z M 2.59375 -21.65625 "/></g></g></g><g fill="#ffffff" fill-opacity="1"><g transform="translate(329.335604, 87.654357)"><g><path d="M 10.296875 0.3125 C 8.648438 0.3125 7.03125 0.03125 5.4375 -0.53125 C 3.851562 -1.101562 2.410156 -1.976562 1.109375 -3.15625 L 3.921875 -6.53125 C 4.910156 -5.726562 5.925781 -5.085938 6.96875 -4.609375 C 8.007812 -4.128906 9.148438 -3.890625 10.390625 -3.890625 C 11.378906 -3.890625 12.144531 -4.070312 12.6875 -4.4375 C 13.238281 -4.800781 13.515625 -5.300781 13.515625 -5.9375 L 13.515625 -6 C 13.515625 -6.3125 13.457031 -6.582031 13.34375 -6.8125 C 13.226562 -7.050781 13.007812 -7.273438 12.6875 -7.484375 C 12.375 -7.691406 11.929688 -7.898438 11.359375 -8.109375 C 10.796875 -8.316406 10.0625 -8.53125 9.15625 -8.75 C 8.0625 -9.019531 7.070312 -9.316406 6.1875 -9.640625 C 5.300781 -9.972656 4.546875 -10.378906 3.921875 -10.859375 C 3.304688 -11.347656 2.828125 -11.953125 2.484375 -12.671875 C 2.148438 -13.398438 1.984375 -14.300781 1.984375 -15.375 L 1.984375 -15.4375 C 1.984375 -16.425781 2.164062 -17.316406 2.53125 -18.109375 C 2.90625 -18.910156 3.425781 -19.597656 4.09375 -20.171875 C 4.769531 -20.742188 5.570312 -21.1875 6.5 -21.5 C 7.425781 -21.8125 8.445312 -21.96875 9.5625 -21.96875 C 11.144531 -21.96875 12.601562 -21.726562 13.9375 -21.25 C 15.269531 -20.78125 16.492188 -20.101562 17.609375 -19.21875 L 15.125 -15.625 C 14.15625 -16.28125 13.207031 -16.800781 12.28125 -17.1875 C 11.351562 -17.570312 10.425781 -17.765625 9.5 -17.765625 C 8.570312 -17.765625 7.875 -17.582031 7.40625 -17.21875 C 6.945312 -16.851562 6.71875 -16.40625 6.71875 -15.875 L 6.71875 -15.8125 C 6.71875 -15.457031 6.78125 -15.148438 6.90625 -14.890625 C 7.039062 -14.640625 7.285156 -14.410156 7.640625 -14.203125 C 7.992188 -13.992188 8.472656 -13.796875 9.078125 -13.609375 C 9.691406 -13.421875 10.460938 -13.207031 11.390625 -12.96875 C 12.484375 -12.675781 13.457031 -12.347656 14.3125 -11.984375 C 15.164062 -11.628906 15.882812 -11.195312 16.46875 -10.6875 C 17.0625 -10.1875 17.503906 -9.59375 17.796875 -8.90625 C 18.097656 -8.226562 18.25 -7.414062 18.25 -6.46875 L 18.25 -6.40625 C 18.25 -5.332031 18.050781 -4.378906 17.65625 -3.546875 C 17.269531 -2.710938 16.722656 -2.007812 16.015625 -1.4375 C 15.316406 -0.875 14.484375 -0.441406 13.515625 -0.140625 C 12.546875 0.160156 11.472656 0.3125 10.296875 0.3125 Z M 10.296875 0.3125 "/></g></g></g><g fill="#ffffff" fill-opacity="1"><g transform="translate(200.129963, 108.791552)"><g><path d="M 6.140625 0.171875 C 5.367188 0.171875 4.664062 0.03125 4.03125 -0.25 C 3.394531 -0.53125 2.847656 -0.90625 2.390625 -1.375 C 1.941406 -1.851562 1.59375 -2.410156 1.34375 -3.046875 C 1.101562 -3.679688 0.984375 -4.347656 0.984375 -5.046875 L 0.984375 -5.0625 C 0.984375 -5.757812 1.109375 -6.425781 1.359375 -7.0625 C 1.609375 -7.707031 1.957031 -8.265625 2.40625 -8.734375 C 2.863281 -9.210938 3.410156 -9.59375 4.046875 -9.875 C 4.691406 -10.164062 5.398438 -10.3125 6.171875 -10.3125 C 6.941406 -10.3125 7.644531 -10.171875 8.28125 -9.890625 C 8.914062 -9.609375 9.457031 -9.226562 9.90625 -8.75 C 10.363281 -8.269531 10.710938 -7.710938 10.953125 -7.078125 C 11.203125 -6.453125 11.328125 -5.789062 11.328125 -5.09375 L 11.328125 -5.0625 C 11.328125 -4.375 11.203125 -3.707031 10.953125 -3.0625 C 10.703125 -2.425781 10.347656 -1.867188 9.890625 -1.390625 C 9.441406 -0.921875 8.894531 -0.539062 8.25 -0.25 C 7.613281 0.03125 6.910156 0.171875 6.140625 0.171875 Z M 6.171875 -0.890625 C 6.753906 -0.890625 7.285156 -0.992188 7.765625 -1.203125 C 8.253906 -1.421875 8.671875 -1.71875 9.015625 -2.09375 C 9.367188 -2.476562 9.644531 -2.921875 9.84375 -3.421875 C 10.039062 -3.921875 10.140625 -4.460938 10.140625 -5.046875 L 10.140625 -5.0625 C 10.140625 -5.644531 10.039062 -6.1875 9.84375 -6.6875 C 9.644531 -7.195312 9.363281 -7.640625 9 -8.015625 C 8.644531 -8.398438 8.222656 -8.703125 7.734375 -8.921875 C 7.253906 -9.140625 6.722656 -9.25 6.140625 -9.25 C 5.554688 -9.25 5.019531 -9.140625 4.53125 -8.921875 C 4.050781 -8.710938 3.632812 -8.414062 3.28125 -8.03125 C 2.9375 -7.65625 2.664062 -7.21875 2.46875 -6.71875 C 2.269531 -6.21875 2.171875 -5.675781 2.171875 -5.09375 L 2.171875 -5.0625 C 2.171875 -4.488281 2.269531 -3.945312 2.46875 -3.4375 C 2.664062 -2.925781 2.941406 -2.484375 3.296875 -2.109375 C 3.660156 -1.734375 4.082031 -1.4375 4.5625 -1.21875 C 5.050781 -1 5.585938 -0.890625 6.171875 -0.890625 Z M 6.171875 -0.890625 "/></g></g></g><g fill="#ffffff" fill-opacity="1"><g transform="translate(212.44133, 108.791552)"><g><path d="M 1.4375 -10.140625 L 2.5 -10.140625 L 8.890625 -2.015625 L 8.890625 -10.140625 L 10.015625 -10.140625 L 10.015625 0 L 9.09375 0 L 2.546875 -8.3125 L 2.546875 0 L 1.4375 0 Z M 1.4375 -10.140625 "/></g></g></g><g fill="#ffffff" fill-opacity="1"><g transform="translate(223.883658, 108.791552)"><g/></g></g><g fill="#ffffff" fill-opacity="1"><g transform="translate(228.228846, 108.791552)"><g><path d="M 4.0625 -9.078125 L 0.65625 -9.078125 L 0.65625 -10.140625 L 8.625 -10.140625 L 8.625 -9.078125 L 5.21875 -9.078125 L 5.21875 0 L 4.0625 0 Z M 4.0625 -9.078125 "/></g></g></g><g fill="#ffffff" fill-opacity="1"><g transform="translate(237.513064, 108.791552)"><g><path d="M 1.4375 -10.140625 L 2.578125 -10.140625 L 2.578125 -5.640625 L 8.4375 -5.640625 L 8.4375 -10.140625 L 9.578125 -10.140625 L 9.578125 0 L 8.4375 0 L 8.4375 -4.5625 L 2.578125 -4.5625 L 2.578125 0 L 1.4375 0 Z M 1.4375 -10.140625 "/></g></g></g><g fill="#ffffff" fill-opacity="1"><g transform="translate(248.520877, 108.791552)"><g><path d="M 1.4375 -10.140625 L 8.765625 -10.140625 L 8.765625 -9.09375 L 2.578125 -9.09375 L 2.578125 -5.640625 L 8.109375 -5.640625 L 8.109375 -4.59375 L 2.578125 -4.59375 L 2.578125 -1.046875 L 8.828125 -1.046875 L 8.828125 0 L 1.4375 0 Z M 1.4375 -10.140625 "/></g></g></g><g fill="#ffffff" fill-opacity="1"><g transform="translate(258.225127, 108.791552)"><g/></g></g><g fill="#ffffff" fill-opacity="1"><g transform="translate(262.570314, 108.791552)"><g><path d="M 1.4375 -10.140625 L 5.796875 -10.140625 C 6.421875 -10.140625 6.976562 -10.050781 7.46875 -9.875 C 7.957031 -9.695312 8.359375 -9.445312 8.671875 -9.125 C 8.921875 -8.875 9.113281 -8.578125 9.25 -8.234375 C 9.382812 -7.898438 9.453125 -7.53125 9.453125 -7.125 L 9.453125 -7.09375 C 9.453125 -6.664062 9.382812 -6.285156 9.25 -5.953125 C 9.113281 -5.617188 8.921875 -5.328125 8.671875 -5.078125 C 8.429688 -4.835938 8.140625 -4.640625 7.796875 -4.484375 C 7.460938 -4.328125 7.097656 -4.210938 6.703125 -4.140625 L 9.828125 0 L 8.421875 0 L 5.46875 -3.9375 L 2.578125 -3.9375 L 2.578125 0 L 1.4375 0 Z M 5.6875 -4.96875 C 6.0625 -4.96875 6.410156 -5.015625 6.734375 -5.109375 C 7.054688 -5.210938 7.332031 -5.351562 7.5625 -5.53125 C 7.789062 -5.707031 7.96875 -5.921875 8.09375 -6.171875 C 8.226562 -6.429688 8.296875 -6.722656 8.296875 -7.046875 L 8.296875 -7.078125 C 8.296875 -7.710938 8.066406 -8.203125 7.609375 -8.546875 C 7.160156 -8.898438 6.523438 -9.078125 5.703125 -9.078125 L 2.578125 -9.078125 L 2.578125 -4.96875 Z M 5.6875 -4.96875 "/></g></g></g><g fill="#ffffff" fill-opacity="1"><g transform="translate(273.042219, 108.791552)"><g><path d="M 6.140625 0.171875 C 5.367188 0.171875 4.664062 0.03125 4.03125 -0.25 C 3.394531 -0.53125 2.847656 -0.90625 2.390625 -1.375 C 1.941406 -1.851562 1.59375 -2.410156 1.34375 -3.046875 C 1.101562 -3.679688 0.984375 -4.347656 0.984375 -5.046875 L 0.984375 -5.0625 C 0.984375 -5.757812 1.109375 -6.425781 1.359375 -7.0625 C 1.609375 -7.707031 1.957031 -8.265625 2.40625 -8.734375 C 2.863281 -9.210938 3.410156 -9.59375 4.046875 -9.875 C 4.691406 -10.164062 5.398438 -10.3125 6.171875 -10.3125 C 6.941406 -10.3125 7.644531 -10.171875 8.28125 -9.890625 C 8.914062 -9.609375 9.457031 -9.226562 9.90625 -8.75 C 10.363281 -8.269531 10.710938 -7.710938 10.953125 -7.078125 C 11.203125 -6.453125 11.328125 -5.789062 11.328125 -5.09375 L 11.328125 -5.0625 C 11.328125 -4.375 11.203125 -3.707031 10.953125 -3.0625 C 10.703125 -2.425781 10.347656 -1.867188 9.890625 -1.390625 C 9.441406 -0.921875 8.894531 -0.539062 8.25 -0.25 C 7.613281 0.03125 6.910156 0.171875 6.140625 0.171875 Z M 6.171875 -0.890625 C 6.753906 -0.890625 7.285156 -0.992188 7.765625 -1.203125 C 8.253906 -1.421875 8.671875 -1.71875 9.015625 -2.09375 C 9.367188 -2.476562 9.644531 -2.921875 9.84375 -3.421875 C 10.039062 -3.921875 10.140625 -4.460938 10.140625 -5.046875 L 10.140625 -5.0625 C 10.140625 -5.644531 10.039062 -6.1875 9.84375 -6.6875 C 9.644531 -7.195312 9.363281 -7.640625 9 -8.015625 C 8.644531 -8.398438 8.222656 -8.703125 7.734375 -8.921875 C 7.253906 -9.140625 6.722656 -9.25 6.140625 -9.25 C 5.554688 -9.25 5.019531 -9.140625 4.53125 -8.921875 C 4.050781 -8.710938 3.632812 -8.414062 3.28125 -8.03125 C 2.9375 -7.65625 2.664062 -7.21875 2.46875 -6.71875 C 2.269531 -6.21875 2.171875 -5.675781 2.171875 -5.09375 L 2.171875 -5.0625 C 2.171875 -4.488281 2.269531 -3.945312 2.46875 -3.4375 C 2.664062 -2.925781 2.941406 -2.484375 3.296875 -2.109375 C 3.660156 -1.734375 4.082031 -1.4375 4.5625 -1.21875 C 5.050781 -1 5.585938 -0.890625 6.171875 -0.890625 Z M 6.171875 -0.890625 "/></g></g></g><g fill="#ffffff" fill-opacity="1"><g transform="translate(285.353586, 108.791552)"><g><path d="M 5.1875 -10.21875 L 6.25 -10.21875 L 10.875 0 L 9.640625 0 L 8.453125 -2.671875 L 2.9375 -2.671875 L 1.734375 0 L 0.5625 0 Z M 8.015625 -3.703125 L 5.703125 -8.875 L 3.390625 -3.703125 Z M 8.015625 -3.703125 "/></g></g></g><g fill="#ffffff" fill-opacity="1"><g transform="translate(296.795914, 108.791552)"><g><path d="M 1.4375 -10.140625 L 4.953125 -10.140625 C 5.742188 -10.140625 6.46875 -10.007812 7.125 -9.75 C 7.789062 -9.5 8.363281 -9.144531 8.84375 -8.6875 C 9.320312 -8.238281 9.691406 -7.707031 9.953125 -7.09375 C 10.210938 -6.476562 10.34375 -5.8125 10.34375 -5.09375 L 10.34375 -5.0625 C 10.34375 -4.351562 10.210938 -3.6875 9.953125 -3.0625 C 9.691406 -2.445312 9.320312 -1.910156 8.84375 -1.453125 C 8.363281 -1.003906 7.789062 -0.648438 7.125 -0.390625 C 6.46875 -0.128906 5.742188 0 4.953125 0 L 1.4375 0 Z M 2.578125 -9.078125 L 2.578125 -1.0625 L 4.953125 -1.0625 C 5.585938 -1.0625 6.164062 -1.160156 6.6875 -1.359375 C 7.207031 -1.566406 7.648438 -1.847656 8.015625 -2.203125 C 8.378906 -2.554688 8.660156 -2.976562 8.859375 -3.46875 C 9.054688 -3.957031 9.15625 -4.484375 9.15625 -5.046875 L 9.15625 -5.0625 C 9.15625 -5.625 9.054688 -6.148438 8.859375 -6.640625 C 8.660156 -7.128906 8.378906 -7.550781 8.015625 -7.90625 C 7.648438 -8.269531 7.207031 -8.554688 6.6875 -8.765625 C 6.164062 -8.972656 5.585938 -9.078125 4.953125 -9.078125 Z M 2.578125 -9.078125 "/></g></g></g></svg>