<svg xmlns="http://www.w3.org/2000/svg" xmlns:xlink="http://www.w3.org/1999/xlink" width="500" zoomAndPan="magnify" viewBox="0 0 375 149.999998" height="200" preserveAspectRatio="xMidYMid meet" version="1.0"><defs><g/><clipPath id="695fe3330c"><path d="M 34.378906 48.488281 L 133.378906 48.488281 L 133.378906 122.738281 L 34.378906 122.738281 Z M 34.378906 48.488281 " clip-rule="nonzero"/></clipPath><clipPath id="f0ce02ca04"><path d="M 8.753906 27.0625 L 154 27.0625 L 154 114.0625 L 8.753906 114.0625 Z M 8.753906 27.0625 " clip-rule="nonzero"/></clipPath></defs><g clip-path="url(#695fe3330c)"><path fill="#000000" d="M 42.117188 108.535156 C 41.980469 107.6875 41.820312 106.839844 41.703125 106.011719 C 41.605469 105.1875 41.546875 104.339844 41.464844 103.453125 C 41.347656 103.453125 41.207031 103.453125 41.070312 103.453125 C 40.613281 103.433594 40.121094 103.492188 39.683594 103.394531 C 37.6875 102.902344 36.222656 101.761719 35.507812 99.789062 C 35.210938 98.945312 35.074219 98.078125 34.933594 97.191406 C 34.460938 94.238281 34.378906 91.285156 34.5 88.289062 C 34.597656 85.75 34.855469 83.230469 35.289062 80.726562 C 35.785156 77.894531 36.476562 75.097656 37.566406 72.417969 C 37.902344 71.589844 38.300781 70.765625 38.753906 69.996094 C 39.269531 69.128906 39.902344 68.402344 40.734375 67.828125 C 41.011719 67.632812 41.1875 67.4375 41.289062 67.101562 C 42 64.972656 42.734375 62.828125 43.445312 60.703125 C 43.664062 60.03125 43.878906 59.363281 44.136719 58.710938 C 44.375 58.101562 44.691406 57.53125 45.128906 57.039062 C 45.621094 56.488281 46.214844 56.132812 46.949219 55.917969 C 48.136719 55.582031 49.304688 55.1875 50.492188 54.832031 C 53.777344 53.808594 57.0625 52.765625 60.347656 51.742188 C 62.347656 51.109375 64.367188 50.480469 66.363281 49.851562 C 66.859375 49.691406 67.335938 49.554688 67.847656 49.515625 C 68.105469 49.496094 68.34375 49.378906 68.601562 49.339844 C 69.492188 49.160156 70.402344 48.984375 71.3125 48.867188 C 73.390625 48.570312 75.488281 48.511719 77.585938 48.570312 C 79.882812 48.628906 82.179688 48.886719 84.433594 49.300781 C 88.90625 50.125 93.183594 51.523438 97.261719 53.554688 C 100.703125 55.265625 103.851562 57.375 106.640625 60.03125 C 107.929688 61.273438 109.117188 62.59375 110.105469 64.089844 C 110.183594 64.207031 110.242188 64.304688 110.304688 64.421875 C 110.324219 64.460938 110.304688 64.5625 110.261719 64.582031 C 110.203125 64.601562 110.125 64.601562 110.085938 64.582031 C 110.027344 64.542969 109.984375 64.480469 109.945312 64.421875 C 106.582031 60.328125 102.386719 57.3125 97.65625 55.011719 C 93.5 52.980469 89.125 51.582031 84.554688 50.796875 C 82.117188 50.382812 79.664062 50.144531 77.191406 50.164062 C 75.824219 50.1875 74.460938 50.285156 73.09375 50.363281 C 72.996094 50.363281 72.875 50.402344 72.738281 50.421875 C 72.816406 50.480469 72.855469 50.539062 72.914062 50.558594 C 76.101562 52.234375 78.199219 54.832031 79.546875 58.082031 C 79.941406 59.046875 80.296875 60.050781 80.515625 61.074219 C 80.535156 61.214844 80.574219 61.351562 80.574219 61.488281 C 80.574219 61.546875 80.515625 61.625 80.457031 61.648438 C 80.398438 61.667969 80.316406 61.605469 80.277344 61.566406 C 80.21875 61.449219 80.160156 61.3125 80.121094 61.175781 C 78.8125 57.726562 76.636719 54.972656 73.589844 52.882812 C 72.636719 52.234375 71.609375 51.761719 70.539062 51.367188 C 69.828125 51.109375 69.136719 50.953125 68.382812 50.972656 C 67.808594 50.992188 67.253906 51.050781 66.699219 51.230469 C 64.386719 51.957031 62.070312 52.6875 59.753906 53.414062 C 56.449219 54.457031 53.164062 55.484375 49.859375 56.527344 C 48.90625 56.820312 47.976562 57.117188 47.027344 57.414062 C 46.296875 57.648438 45.898438 58.21875 45.621094 58.871094 C 45.40625 59.363281 45.226562 59.855469 45.046875 60.367188 C 44.355469 62.394531 43.664062 64.421875 42.96875 66.453125 C 42.929688 66.589844 42.890625 66.707031 42.832031 66.90625 C 43.148438 66.863281 43.40625 66.824219 43.664062 66.804688 C 46.613281 66.351562 49.542969 65.898438 52.488281 65.46875 C 54.824219 65.113281 57.179688 64.796875 59.515625 64.480469 C 61.632812 64.1875 63.730469 63.910156 65.851562 63.65625 C 67.96875 63.398438 70.085938 63.164062 72.203125 62.945312 C 73.550781 62.808594 74.875 62.691406 76.222656 62.710938 C 76.339844 62.710938 76.457031 62.710938 76.558594 62.710938 C 76.617188 62.886719 76.519531 62.90625 76.417969 62.90625 C 75.46875 63.042969 74.519531 63.203125 73.570312 63.339844 C 71.53125 63.636719 69.492188 63.929688 67.453125 64.246094 C 65.097656 64.601562 62.742188 64.953125 60.40625 65.347656 C 58.289062 65.683594 56.171875 66.039062 54.074219 66.390625 C 51.835938 66.765625 49.621094 67.140625 47.382812 67.554688 C 45.980469 67.808594 44.59375 68.125 43.1875 68.363281 C 41.722656 68.597656 40.714844 69.464844 39.960938 70.664062 C 39.328125 71.671875 38.894531 72.773438 38.476562 73.894531 C 37.527344 76.496094 36.933594 79.152344 36.5 81.890625 C 36.179688 83.917969 35.964844 85.988281 35.882812 88.035156 C 35.785156 90.417969 35.785156 92.800781 36.0625 95.164062 C 36.179688 96.167969 36.339844 97.152344 36.519531 98.15625 C 36.597656 98.570312 36.714844 98.984375 36.835938 99.398438 C 36.894531 99.59375 36.972656 99.769531 37.070312 99.949219 C 37.644531 100.972656 38.578125 101.5625 39.683594 101.976562 C 39.703125 101.839844 39.722656 101.742188 39.722656 101.640625 C 39.722656 100.519531 39.824219 99.417969 40 98.3125 C 40.179688 97.289062 40.4375 96.304688 40.871094 95.359375 C 41.128906 94.828125 41.425781 94.335938 41.84375 93.921875 C 42.652344 93.113281 43.722656 93.054688 44.613281 93.765625 C 45.148438 94.199219 45.542969 94.730469 45.878906 95.320312 C 46.511719 96.421875 46.929688 97.625 47.207031 98.863281 C 47.402344 99.789062 47.542969 100.734375 47.679688 101.660156 C 47.71875 101.957031 47.71875 102.273438 47.761719 102.585938 C 47.917969 103.511719 48.433594 104.144531 49.363281 104.378906 C 50.453125 104.65625 51.539062 104.949219 52.648438 105.246094 C 55.636719 106.011719 58.605469 106.78125 61.59375 107.53125 C 63.851562 108.101562 66.105469 108.691406 68.363281 109.261719 C 68.460938 109.28125 68.542969 109.300781 68.660156 109.320312 C 68.660156 109.242188 68.679688 109.164062 68.679688 109.105469 C 68.480469 107.511719 68.382812 105.894531 68.441406 104.28125 C 68.503906 102.683594 68.699219 101.089844 69.136719 99.554688 C 69.371094 98.726562 69.691406 97.921875 70.164062 97.171875 C 70.421875 96.757812 70.71875 96.382812 71.09375 96.070312 C 72.023438 95.28125 73.054688 95.125 74.183594 95.558594 C 74.855469 95.8125 75.410156 96.246094 75.902344 96.71875 C 76.816406 97.585938 77.507812 98.628906 78.101562 99.710938 C 79.011719 101.347656 79.664062 103.078125 80.160156 104.890625 C 80.4375 105.875 80.613281 106.878906 80.890625 107.863281 C 81.464844 109.992188 82.910156 111.230469 85.027344 111.722656 C 85.703125 111.882812 86.394531 111.882812 87.085938 111.960938 C 91.617188 112.472656 96.152344 112.550781 100.703125 112.472656 C 102.820312 112.433594 104.9375 112.375 107.058594 112.296875 C 108.5 112.234375 109.925781 112.136719 111.371094 112.039062 C 112.460938 111.980469 113.527344 111.902344 114.617188 111.804688 C 116.023438 111.683594 117.410156 111.546875 118.8125 111.410156 C 120.296875 111.25 121.761719 111.09375 123.246094 110.878906 C 124.769531 110.660156 126.292969 110.40625 127.820312 110.148438 C 127.9375 110.128906 128.054688 110.109375 128.175781 110.089844 C 128.414062 110.070312 128.628906 109.972656 128.828125 109.832031 C 129.261719 109.539062 129.441406 109.144531 129.363281 108.613281 C 129.285156 108.082031 129.203125 107.550781 129.203125 107.019531 C 129.183594 106.035156 129.480469 105.128906 130.015625 104.300781 C 130.511719 103.550781 130.964844 102.765625 131.441406 101.996094 C 131.914062 101.207031 131.976562 100.34375 131.757812 99.4375 C 131.617188 99.4375 131.480469 99.417969 131.34375 99.4375 C 129.796875 99.574219 128.234375 99.730469 126.691406 99.851562 C 124.574219 100.007812 122.433594 100.125 120.316406 100.242188 C 118.933594 100.324219 117.527344 100.363281 116.140625 100.421875 C 113.589844 100.519531 111.035156 100.617188 108.460938 100.65625 C 104.683594 100.714844 100.882812 100.714844 97.101562 100.753906 C 96.25 100.753906 95.398438 100.675781 94.546875 100.578125 C 93.996094 100.519531 93.460938 100.304688 92.984375 100.007812 C 92.667969 99.808594 92.53125 99.632812 92.371094 99.316406 C 92.511719 99.179688 92.6875 99.199219 92.867188 99.199219 C 93.738281 99.21875 94.609375 99.277344 95.480469 99.277344 C 98.644531 99.296875 101.8125 99.296875 104.980469 99.277344 C 106.878906 99.277344 108.777344 99.21875 110.699219 99.160156 C 112.28125 99.121094 113.867188 99.0625 115.449219 99.003906 C 117.46875 98.925781 119.464844 98.84375 121.484375 98.726562 C 123.109375 98.648438 124.730469 98.53125 126.375 98.414062 C 127.640625 98.3125 128.886719 98.214844 130.132812 98.097656 C 130.769531 98.039062 131.402344 97.941406 132.054688 97.878906 C 132.589844 97.820312 132.90625 98.019531 133.042969 98.53125 C 133.261719 99.257812 133.378906 100.007812 133.320312 100.773438 C 133.261719 101.503906 133.003906 102.191406 132.628906 102.804688 C 132.234375 103.472656 131.796875 104.144531 131.402344 104.8125 C 131.066406 105.34375 130.769531 105.894531 130.6875 106.546875 C 130.628906 107.097656 130.667969 107.648438 130.769531 108.199219 C 130.964844 109.441406 130.550781 110.324219 129.480469 110.957031 C 128.886719 111.3125 128.234375 111.488281 127.5625 111.605469 C 125.382812 111.980469 123.226562 112.316406 121.03125 112.550781 C 119.386719 112.730469 117.746094 112.886719 116.101562 113.0625 C 116.003906 113.082031 115.882812 113.101562 115.746094 113.121094 C 115.46875 114.480469 115.011719 115.761719 114.042969 116.863281 C 114.519531 116.960938 114.933594 117.0625 115.371094 117.160156 C 118.082031 117.75 120.773438 118.339844 123.484375 118.933594 C 124.808594 119.226562 126.136719 119.503906 127.460938 119.796875 C 127.480469 119.796875 127.503906 119.796875 127.542969 119.816406 C 127.660156 119.835938 127.800781 119.875 127.800781 120.015625 C 127.800781 120.191406 127.640625 120.191406 127.503906 120.191406 C 127.125 120.210938 126.75 120.230469 126.355469 120.25 C 125.007812 120.328125 123.664062 120.390625 122.335938 120.46875 C 120.871094 120.546875 119.40625 120.605469 117.941406 120.683594 C 116.636719 120.742188 115.328125 120.820312 114.023438 120.902344 C 112.679688 120.980469 111.3125 121.039062 109.964844 121.117188 C 108.660156 121.175781 107.355469 121.253906 106.046875 121.335938 C 104.9375 121.394531 103.8125 121.472656 102.703125 121.53125 C 101.535156 121.589844 100.347656 121.648438 99.179688 121.707031 C 98.070312 121.765625 96.964844 121.828125 95.875 121.886719 C 94.765625 121.945312 93.65625 122.003906 92.570312 122.0625 C 91.242188 122.140625 89.917969 122.199219 88.570312 122.28125 C 87.105469 122.359375 85.621094 122.417969 84.15625 122.496094 C 83.464844 122.535156 82.773438 122.515625 82.097656 122.632812 C 81.664062 122.710938 81.289062 122.59375 80.890625 122.476562 C 76.835938 121.335938 72.757812 120.132812 68.679688 118.933594 C 63.199219 117.316406 57.714844 115.722656 52.214844 114.105469 C 47.363281 112.6875 42.515625 111.25 37.664062 109.832031 C 37.507812 109.792969 37.347656 109.753906 37.191406 109.695312 C 37.09375 109.65625 36.972656 109.597656 37.011719 109.480469 C 37.03125 109.421875 37.152344 109.339844 37.230469 109.320312 C 37.566406 109.261719 37.902344 109.203125 38.257812 109.164062 C 39.507812 108.96875 40.753906 108.789062 42 108.59375 C 42.039062 108.574219 42.078125 108.554688 42.117188 108.535156 Z M 72.441406 109.597656 C 72.5 110.503906 72.558594 111.390625 72.636719 112.277344 C 72.71875 113.003906 72.855469 113.714844 73.132812 114.382812 C 73.230469 114.617188 73.351562 114.855469 73.507812 115.050781 C 73.746094 115.367188 74.003906 115.367188 74.28125 115.050781 C 74.300781 115.03125 74.339844 114.992188 74.339844 114.972656 C 74.519531 114.558594 74.714844 114.144531 74.875 113.734375 C 74.914062 113.652344 74.875 113.554688 74.855469 113.457031 C 74.558594 112.175781 74.441406 110.898438 74.480469 109.578125 C 74.5 108.140625 74.636719 106.722656 75.054688 105.324219 C 75.074219 105.246094 75.09375 105.128906 75.074219 105.046875 C 74.972656 104.554688 74.816406 104.0625 74.539062 103.628906 C 74.222656 103.117188 73.90625 103.117188 73.570312 103.589844 C 73.488281 103.691406 73.429688 103.808594 73.371094 103.925781 C 73.253906 104.203125 73.132812 104.476562 73.054688 104.753906 C 72.597656 106.347656 72.460938 107.964844 72.441406 109.597656 Z M 43.128906 102.882812 C 43.089844 103.847656 43.226562 105.226562 43.445312 106.03125 C 43.542969 106.425781 43.683594 106.800781 43.839844 107.175781 C 43.921875 107.371094 44.058594 107.53125 44.199219 107.6875 C 44.316406 107.824219 44.472656 107.863281 44.652344 107.785156 C 44.949219 107.648438 45.386719 106.78125 45.324219 106.464844 C 45.324219 106.425781 45.304688 106.367188 45.285156 106.328125 C 44.988281 105.5 44.851562 104.65625 44.8125 103.789062 C 44.75 102.527344 44.8125 101.289062 45.207031 100.066406 C 45.226562 100.007812 45.265625 99.929688 45.246094 99.871094 C 45.128906 99.457031 44.96875 99.0625 44.652344 98.765625 C 44.472656 98.589844 44.296875 98.589844 44.117188 98.785156 C 43.980469 98.945312 43.820312 99.121094 43.761719 99.296875 C 43.605469 99.710938 43.445312 100.144531 43.347656 100.578125 C 43.1875 101.367188 43.128906 102.191406 43.128906 102.882812 Z M 111.371094 67.828125 C 111.808594 68.261719 112.242188 68.675781 112.636719 69.128906 C 116.082031 72.8125 119.25 76.710938 122.117188 80.847656 C 122.316406 81.140625 122.515625 81.4375 122.730469 81.734375 C 122.792969 81.8125 122.910156 81.910156 123.007812 81.910156 C 123.40625 81.949219 123.800781 81.949219 124.175781 81.949219 C 124.433594 81.949219 124.554688 81.792969 124.472656 81.554688 C 124.414062 81.378906 124.335938 81.199219 124.238281 81.042969 C 123.347656 79.664062 122.476562 78.285156 121.542969 76.929688 C 119.167969 73.539062 116.496094 70.390625 113.449219 67.59375 C 112.953125 67.140625 112.460938 66.707031 111.945312 66.292969 C 111.628906 66.039062 111.253906 65.800781 110.855469 65.683594 C 109.847656 65.367188 108.820312 65.113281 107.789062 64.875 C 105.59375 64.363281 103.375 63.929688 101.140625 63.65625 C 99.636719 63.457031 98.109375 63.261719 96.605469 63.125 C 95.480469 63.003906 94.332031 62.945312 93.183594 62.886719 C 91.71875 62.828125 90.253906 62.769531 88.789062 62.75 C 87.324219 62.730469 85.859375 62.769531 84.394531 62.789062 C 84.039062 62.789062 83.683594 62.847656 83.347656 63.003906 C 82.773438 63.28125 82.476562 63.753906 82.535156 64.382812 C 82.554688 64.660156 82.632812 64.933594 82.734375 65.210938 C 83.089844 66.136719 83.464844 67.042969 83.800781 67.949219 C 85.007812 71.21875 86.078125 74.523438 87.007812 77.875 C 87.144531 78.367188 87.304688 78.839844 87.484375 79.332031 C 87.78125 80.136719 88.394531 80.492188 89.242188 80.53125 C 90.429688 80.570312 91.617188 80.609375 92.804688 80.667969 C 94.269531 80.726562 95.753906 80.808594 97.21875 80.867188 C 99.21875 80.945312 101.21875 81.023438 103.21875 81.101562 C 104.640625 81.160156 106.066406 81.242188 107.492188 81.300781 C 109.453125 81.378906 111.410156 81.457031 113.371094 81.535156 C 114.578125 81.574219 115.804688 81.632812 117.011719 81.671875 C 117.960938 81.714844 118.914062 81.773438 119.863281 81.792969 C 120.238281 81.8125 120.613281 81.792969 121.050781 81.792969 C 118.140625 76.769531 114.597656 72.28125 110.957031 67.808594 C 111.171875 67.613281 111.273438 67.730469 111.371094 67.828125 Z M 50.054688 98.078125 C 49.480469 98 48.925781 97.898438 48.375 97.859375 C 48.035156 97.839844 47.820312 97.722656 47.738281 97.367188 C 47.71875 97.25 47.660156 97.152344 47.621094 97.015625 C 48.058594 96.933594 48.433594 97.054688 48.828125 97.074219 C 49.222656 97.09375 49.601562 97.132812 50.015625 97.171875 C 50.015625 95.96875 50.015625 94.789062 50.015625 93.585938 C 49.839844 93.566406 49.699219 93.527344 49.542969 93.527344 C 48.253906 93.429688 46.949219 93.332031 45.660156 93.234375 C 45.484375 93.214844 45.324219 93.175781 45.167969 93.054688 C 44.949219 92.898438 44.730469 92.742188 44.433594 92.542969 C 45.109375 92.484375 45.703125 92.582031 46.316406 92.582031 C 46.929688 92.601562 47.523438 92.621094 48.136719 92.640625 C 48.75 92.660156 49.363281 92.703125 50.015625 92.722656 C 50.054688 91.539062 50.113281 90.417969 50.15625 89.234375 C 50.035156 89.214844 49.917969 89.214844 49.796875 89.214844 C 47.996094 89.136719 46.214844 89.078125 44.414062 89 C 42.4375 88.921875 40.476562 88.820312 38.496094 88.722656 C 38.359375 88.722656 38.121094 88.761719 38.140625 88.546875 C 38.160156 88.367188 38.359375 88.410156 38.496094 88.410156 C 41.328125 88.429688 44.136719 88.429688 46.96875 88.449219 C 47.917969 88.449219 48.867188 88.46875 49.816406 88.46875 C 49.9375 88.46875 50.054688 88.46875 50.214844 88.46875 C 50.3125 87.304688 50.410156 86.164062 50.511719 85 C 50.390625 85 50.273438 84.980469 50.175781 84.980469 C 47.207031 84.960938 44.21875 84.941406 41.25 84.921875 C 40.378906 84.921875 39.507812 84.882812 38.636719 84.863281 C 38.515625 84.863281 38.398438 84.882812 38.320312 84.765625 C 38.359375 84.609375 38.476562 84.628906 38.578125 84.628906 C 38.914062 84.609375 39.25 84.589844 39.566406 84.570312 C 42.535156 84.488281 45.484375 84.410156 48.453125 84.332031 C 49.144531 84.3125 49.839844 84.292969 50.550781 84.253906 C 50.589844 83.996094 50.628906 83.761719 50.648438 83.523438 C 50.964844 80.847656 51.382812 78.207031 51.957031 75.570312 C 52.371094 73.640625 52.847656 71.710938 53.441406 69.839844 C 53.539062 69.542969 53.617188 69.246094 53.71875 68.953125 C 53.914062 68.460938 54.25 68.125 54.765625 67.988281 C 55.121094 67.890625 55.480469 67.808594 55.835938 67.75 C 57.320312 67.515625 58.824219 67.296875 60.308594 67.0625 C 61.792969 66.824219 63.257812 66.589844 64.742188 66.351562 C 65.316406 66.253906 65.890625 66.15625 66.464844 66.097656 C 66.71875 66.078125 67.015625 66.097656 67.273438 66.15625 C 67.589844 66.234375 67.808594 66.472656 67.847656 66.804688 C 67.886719 67.042969 67.886719 67.277344 67.867188 67.515625 C 67.808594 68.421875 67.472656 69.265625 67.234375 70.132812 C 66.523438 72.734375 65.988281 75.351562 65.554688 78.011719 C 65.195312 80.117188 64.917969 82.226562 64.722656 84.351562 C 64.5625 86.125 64.425781 87.898438 64.34375 89.667969 C 64.265625 91.65625 64.226562 93.648438 64.226562 95.636719 C 64.226562 98.117188 64.386719 100.597656 64.640625 103.078125 C 64.722656 103.847656 64.839844 104.59375 64.917969 105.363281 C 64.980469 106.054688 64.621094 106.367188 63.929688 106.230469 C 63.136719 106.074219 62.347656 105.894531 61.554688 105.71875 C 58.050781 104.949219 54.546875 104.164062 51.046875 103.394531 C 50.511719 103.277344 50.3125 103.078125 50.273438 102.527344 C 50.175781 101.148438 50.09375 99.769531 49.996094 98.371094 C 50.074219 98.292969 50.074219 98.214844 50.054688 98.078125 Z M 51.777344 102.035156 C 51.894531 102.074219 52.015625 102.113281 52.132812 102.132812 C 53.222656 102.371094 54.3125 102.605469 55.398438 102.863281 C 57.972656 103.433594 60.546875 104.003906 63.117188 104.574219 C 63.21875 104.59375 63.316406 104.59375 63.453125 104.617188 C 62.484375 96.875 62.761719 89.175781 63.671875 81.4375 C 60.210938 81.554688 56.804688 81.671875 53.339844 81.792969 C 53.359375 81.574219 53.359375 81.398438 53.378906 81.222656 C 53.421875 80.886719 53.441406 80.570312 53.480469 80.234375 C 53.675781 78.582031 53.855469 76.949219 54.09375 75.3125 C 54.351562 73.582031 54.707031 71.847656 55.023438 70.113281 C 55.042969 70.015625 55.042969 69.898438 55.042969 69.761719 C 54.804688 69.820312 54.804688 69.976562 54.765625 70.09375 C 54.527344 70.921875 54.3125 71.730469 54.09375 72.554688 C 53.480469 74.878906 52.964844 77.222656 52.589844 79.605469 C 52.429688 80.6875 52.3125 81.773438 52.191406 82.855469 C 52.132812 83.308594 52.09375 83.742188 52.054688 84.234375 C 52.214844 84.234375 52.332031 84.234375 52.449219 84.234375 C 53.636719 84.214844 54.824219 84.175781 56.011719 84.136719 C 57.835938 84.078125 59.65625 83.996094 61.476562 83.917969 C 61.574219 83.917969 61.695312 83.898438 61.792969 83.917969 C 62.128906 83.957031 62.367188 84.214844 62.367188 84.546875 C 62.367188 84.84375 62.128906 85.101562 61.8125 85.140625 C 61.734375 85.140625 61.671875 85.140625 61.59375 85.140625 C 58.546875 85.082031 55.5 85.042969 52.449219 84.980469 C 52.292969 84.980469 52.152344 84.980469 51.957031 84.980469 C 51.816406 86.144531 51.71875 87.304688 51.660156 88.488281 C 52.273438 88.488281 52.828125 88.488281 53.378906 88.488281 C 55.933594 88.488281 58.507812 88.488281 61.058594 88.488281 C 61.160156 88.488281 61.277344 88.488281 61.375 88.507812 C 61.671875 88.585938 61.871094 88.839844 61.871094 89.117188 C 61.851562 89.414062 61.632812 89.648438 61.335938 89.707031 C 61.238281 89.726562 61.121094 89.726562 61.019531 89.707031 C 60.78125 89.6875 60.546875 89.667969 60.308594 89.648438 C 58.585938 89.570312 56.882812 89.492188 55.160156 89.414062 C 54.25 89.375 53.320312 89.335938 52.410156 89.292969 C 52.132812 89.273438 51.875 89.292969 51.597656 89.292969 C 51.480469 90.003906 51.402344 92.425781 51.480469 92.761719 C 51.578125 92.761719 51.679688 92.78125 51.796875 92.78125 C 52.53125 92.820312 53.242188 92.839844 53.972656 92.878906 C 56.171875 92.957031 58.347656 93.035156 60.546875 93.113281 C 60.683594 93.113281 60.804688 93.113281 60.941406 93.132812 C 61.316406 93.195312 61.554688 93.46875 61.535156 93.824219 C 61.515625 94.179688 61.257812 94.433594 60.882812 94.433594 C 60.683594 94.433594 60.507812 94.414062 60.308594 94.394531 C 59.0625 94.277344 57.792969 94.160156 56.546875 94.058594 C 55.140625 93.941406 53.757812 93.84375 52.351562 93.726562 C 52.054688 93.707031 51.757812 93.6875 51.460938 93.667969 C 51.460938 94.886719 51.460938 96.050781 51.460938 97.25 C 51.558594 97.269531 51.640625 97.308594 51.71875 97.308594 C 53.261719 97.449219 54.824219 97.605469 56.371094 97.742188 C 57.894531 97.878906 59.398438 97.980469 60.921875 98.117188 C 61.039062 98.117188 61.160156 98.15625 61.257812 98.195312 C 61.554688 98.3125 61.734375 98.628906 61.695312 98.945312 C 61.652344 99.257812 61.398438 99.496094 61.058594 99.535156 C 60.921875 99.554688 60.78125 99.535156 60.625 99.515625 C 59.554688 99.359375 58.507812 99.199219 57.4375 99.042969 C 55.695312 98.804688 53.972656 98.570312 52.234375 98.351562 C 51.996094 98.3125 51.738281 98.292969 51.460938 98.273438 C 51.558594 99.554688 51.660156 100.796875 51.777344 102.035156 Z M 72.105469 81.632812 C 75.191406 81.613281 78.300781 81.59375 81.386719 81.574219 C 82.277344 81.574219 83.167969 81.574219 84.058594 81.574219 C 84.96875 81.574219 85.503906 81.042969 85.484375 80.136719 C 85.484375 80.039062 85.464844 79.921875 85.445312 79.824219 C 85.34375 79.429688 85.246094 79.035156 85.148438 78.660156 C 84.515625 76.199219 83.800781 73.757812 82.949219 71.355469 C 82.355469 69.660156 81.722656 67.96875 80.972656 66.332031 C 80.734375 65.800781 80.398438 65.328125 79.960938 64.914062 C 79.585938 64.5625 79.128906 64.324219 78.574219 64.34375 C 78.140625 64.363281 77.707031 64.441406 77.269531 64.503906 C 76.179688 64.640625 75.074219 64.777344 73.984375 64.914062 C 73.429688 64.972656 72.875 65.035156 72.320312 65.132812 C 71.726562 65.230469 71.273438 65.527344 71.035156 66.097656 C 70.9375 66.351562 70.816406 66.628906 70.757812 66.90625 C 70.5 67.910156 70.261719 68.894531 70.046875 69.917969 C 69.570312 72.0625 69.234375 74.25 68.996094 76.4375 C 68.898438 77.359375 68.820312 78.304688 68.738281 79.230469 C 68.699219 79.761719 68.757812 80.277344 68.976562 80.75 C 69.273438 81.359375 69.789062 81.613281 70.441406 81.695312 C 70.460938 81.535156 70.460938 81.4375 70.460938 81.320312 C 70.539062 79.289062 70.699219 77.242188 70.917969 75.234375 C 71.195312 72.8125 71.570312 70.410156 72.023438 68.007812 C 72.085938 67.730469 72.144531 67.457031 72.203125 67.179688 C 72.242188 67.023438 72.300781 66.90625 72.539062 66.984375 C 71.945312 71.847656 71.53125 76.730469 71.53125 81.695312 C 71.808594 81.632812 71.964844 81.632812 72.105469 81.632812 Z M 41.464844 82.207031 C 42.4375 82.167969 43.425781 82.144531 44.394531 82.105469 C 45.207031 82.066406 46.039062 82.027344 46.847656 82.007812 C 47.464844 81.988281 48.078125 81.949219 48.710938 81.96875 C 49.441406 81.988281 49.9375 81.652344 50.136719 80.945312 C 50.195312 80.75 50.214844 80.550781 50.253906 80.355469 C 50.53125 79.035156 50.789062 77.714844 51.066406 76.394531 C 51.519531 74.210938 51.996094 72.023438 52.707031 69.898438 C 52.785156 69.660156 52.828125 69.386719 52.847656 69.128906 C 52.867188 68.65625 52.628906 68.421875 52.234375 68.421875 C 52.09375 68.421875 51.976562 68.402344 51.835938 68.421875 C 50.550781 68.617188 49.246094 68.816406 47.957031 69.03125 C 46.214844 69.308594 44.472656 69.582031 42.753906 69.859375 C 42.277344 69.9375 41.820312 70.035156 41.367188 70.132812 C 41.070312 70.210938 40.832031 70.390625 40.65625 70.644531 C 40.417969 70.980469 40.199219 71.296875 40.0625 71.691406 C 39.863281 72.28125 39.625 72.851562 39.425781 73.421875 C 38.695312 75.648438 38.21875 77.933594 37.785156 80.214844 C 37.707031 80.628906 37.707031 81.0625 37.84375 81.476562 C 38.003906 81.988281 38.320312 82.246094 38.851562 82.285156 C 39.128906 82.304688 39.425781 82.265625 39.703125 82.265625 C 39.722656 82.167969 39.742188 82.105469 39.765625 82.027344 C 39.941406 80.492188 40.21875 78.976562 40.554688 77.480469 C 40.953125 75.707031 41.386719 73.933594 41.960938 72.203125 C 42 72.101562 42 72.003906 42.058594 71.945312 C 42.097656 71.886719 42.179688 71.867188 42.238281 71.828125 C 42.257812 71.886719 42.296875 71.945312 42.296875 72.003906 C 42.296875 72.082031 42.277344 72.144531 42.257812 72.222656 C 41.980469 73.582031 41.664062 74.957031 41.425781 76.316406 C 41.1875 77.695312 41.03125 79.074219 40.871094 80.472656 C 40.8125 81.023438 40.792969 81.59375 40.753906 82.226562 C 41.050781 82.207031 41.269531 82.226562 41.464844 82.207031 Z M 129.304688 103.789062 C 127.480469 103.964844 125.679688 104.164062 123.859375 104.300781 C 122.039062 104.4375 120.21875 104.515625 118.398438 104.59375 C 116.023438 104.695312 113.667969 104.753906 111.292969 104.8125 C 108.164062 104.871094 105.058594 104.910156 101.929688 104.96875 C 101.476562 104.96875 101 104.96875 100.546875 104.96875 C 100.464844 104.96875 100.40625 104.949219 100.328125 104.929688 C 100.40625 104.832031 100.464844 104.773438 100.566406 104.753906 C 100.742188 104.734375 100.921875 104.714844 101.097656 104.695312 C 102.40625 104.636719 103.710938 104.59375 105.019531 104.535156 C 106.898438 104.457031 108.777344 104.398438 110.660156 104.320312 C 112.402344 104.242188 114.164062 104.183594 115.902344 104.082031 C 118.617188 103.925781 121.347656 103.730469 124.058594 103.53125 C 125.976562 103.394531 127.859375 103.117188 129.796875 102.785156 C 129.878906 102.507812 129.976562 102.210938 130.035156 101.917969 C 130.113281 101.621094 129.976562 101.464844 129.660156 101.484375 C 129.324219 101.503906 128.964844 101.542969 128.628906 101.582031 C 127.996094 101.640625 127.382812 101.71875 126.75 101.78125 C 125.996094 101.839844 125.226562 101.878906 124.472656 101.9375 C 123.304688 102.015625 122.117188 102.113281 120.949219 102.191406 C 119.960938 102.253906 118.953125 102.3125 117.960938 102.371094 C 116.792969 102.429688 115.625 102.507812 114.480469 102.566406 C 113.488281 102.605469 112.5 102.625 111.511719 102.664062 C 109.628906 102.726562 107.75 102.804688 105.871094 102.84375 C 103.75 102.882812 101.632812 102.863281 99.515625 102.882812 C 99.238281 102.882812 98.960938 102.863281 98.703125 102.882812 C 98.347656 102.882812 98.269531 102.980469 98.308594 103.335938 C 98.347656 103.652344 98.40625 103.945312 98.449219 104.242188 C 98.625 105.207031 98.824219 106.171875 99.21875 107.078125 C 99.59375 107.964844 100.25 108.476562 101.199219 108.613281 C 101.691406 108.691406 102.207031 108.710938 102.722656 108.730469 C 103.535156 108.769531 104.363281 108.808594 105.175781 108.808594 C 107.414062 108.789062 109.648438 108.769531 111.886719 108.730469 C 112.976562 108.710938 114.042969 108.613281 115.132812 108.535156 C 116.160156 108.457031 117.171875 108.394531 118.199219 108.296875 C 119.488281 108.179688 120.773438 108.042969 122.058594 107.882812 C 123.464844 107.707031 124.871094 107.511719 126.273438 107.3125 C 127.027344 107.214844 127.640625 106.878906 128.175781 106.347656 C 128.292969 106.230469 128.394531 106.074219 128.550781 105.875 C 128.332031 105.894531 128.214844 105.914062 128.097656 105.914062 C 127.34375 105.992188 126.613281 106.113281 125.859375 106.171875 C 123.601562 106.308594 121.347656 106.425781 119.089844 106.527344 C 116.933594 106.625 114.777344 106.703125 112.636719 106.742188 C 109.550781 106.800781 106.445312 106.800781 103.355469 106.820312 C 102.742188 106.820312 102.148438 106.800781 101.535156 106.800781 C 101.417969 106.800781 101.277344 106.839844 101.160156 106.644531 C 101.316406 106.625 101.417969 106.605469 101.535156 106.605469 C 103.277344 106.566406 105.019531 106.527344 106.742188 106.464844 C 109.292969 106.367188 111.828125 106.25 114.378906 106.132812 C 116.457031 106.03125 118.535156 105.914062 120.613281 105.777344 C 122.59375 105.640625 124.574219 105.460938 126.550781 105.265625 C 127.324219 105.1875 128.074219 105.027344 128.847656 104.890625 C 128.945312 104.871094 129.105469 104.8125 129.144531 104.734375 C 129.285156 104.457031 129.382812 104.144531 129.5 103.847656 C 129.363281 103.808594 129.34375 103.789062 129.304688 103.789062 Z M 93.5 98.273438 C 94.707031 98.3125 95.933594 98.351562 97.140625 98.371094 C 98.863281 98.390625 100.566406 98.414062 102.285156 98.414062 C 102.78125 98.414062 103.257812 98.390625 103.75 98.351562 C 104.386719 98.3125 104.660156 97.878906 104.484375 97.289062 C 104.464844 97.25 104.464844 97.230469 104.445312 97.191406 C 103.929688 95.832031 103.414062 94.472656 102.859375 93.113281 C 102.722656 92.761719 102.523438 92.445312 102.285156 92.128906 C 101.890625 91.617188 101.355469 91.246094 100.78125 90.949219 C 99.636719 90.320312 98.386719 90.121094 97.101562 90.042969 C 96.230469 89.984375 95.339844 89.964844 94.46875 89.925781 C 93.378906 89.867188 92.3125 89.828125 91.222656 89.765625 C 90.292969 89.726562 89.363281 89.667969 88.453125 89.628906 C 87.839844 89.609375 87.226562 89.570312 86.59375 89.570312 C 86.097656 89.570312 85.839844 89.847656 85.859375 90.339844 C 85.878906 91.007812 85.878906 91.65625 85.898438 92.328125 C 85.917969 93.707031 85.9375 95.085938 86 96.441406 C 86 96.699219 86.078125 96.953125 86.175781 97.191406 C 86.335938 97.546875 86.613281 97.78125 87.027344 97.800781 C 88.214844 97.898438 89.421875 98.019531 90.609375 98.117188 C 90.648438 98.117188 90.6875 98.097656 90.75 98.078125 C 90.769531 98.019531 90.769531 97.960938 90.769531 97.898438 C 90.867188 96.679688 90.945312 95.4375 91.046875 94.21875 C 91.105469 93.488281 91.183594 92.761719 91.261719 92.03125 C 91.28125 91.914062 91.320312 91.816406 91.363281 91.695312 C 91.578125 91.738281 91.597656 91.875 91.617188 92.011719 C 91.640625 92.230469 91.679688 92.464844 91.699219 92.683594 C 91.875 93.980469 92.054688 95.28125 92.210938 96.582031 C 92.273438 97.113281 92.332031 97.644531 92.390625 98.195312 C 92.785156 98.214844 93.144531 98.253906 93.5 98.273438 Z M 107.453125 95.222656 C 107.609375 95.183594 107.75 95.164062 107.90625 95.164062 C 108.820312 95.105469 109.730469 95.023438 110.660156 95.003906 C 112.996094 94.90625 115.328125 94.828125 117.644531 94.730469 C 119.785156 94.652344 121.921875 94.570312 124.078125 94.511719 C 124.195312 94.511719 124.316406 94.492188 124.433594 94.492188 C 124.511719 94.039062 124.554688 93.628906 124.554688 93.175781 C 124.238281 93.175781 123.941406 93.175781 123.664062 93.175781 C 120.398438 93.15625 117.132812 93.132812 113.886719 93.113281 C 112.320312 93.09375 110.757812 93.074219 109.214844 93.054688 C 108.402344 93.054688 107.570312 93.074219 106.761719 93.074219 C 106.601562 93.074219 106.421875 93.113281 106.285156 92.898438 C 106.445312 92.859375 106.582031 92.800781 106.71875 92.78125 C 107.058594 92.742188 107.414062 92.722656 107.75 92.722656 C 110.796875 92.683594 113.84375 92.640625 116.894531 92.582031 C 119.148438 92.523438 121.40625 92.425781 123.683594 92.347656 C 124.019531 92.328125 124.335938 92.308594 124.671875 92.289062 C 124.710938 91.992188 124.710938 91.71875 124.59375 91.460938 C 124.453125 91.125 124.214844 90.96875 123.839844 90.96875 C 123.644531 90.96875 123.445312 90.96875 123.226562 90.96875 C 117.328125 90.96875 111.429688 90.96875 105.554688 90.96875 C 105.296875 90.96875 105.039062 90.949219 104.761719 90.949219 C 104.5625 90.949219 104.386719 90.949219 104.1875 90.988281 C 103.671875 91.105469 103.472656 91.5 103.671875 91.992188 C 103.730469 92.128906 103.8125 92.269531 103.851562 92.40625 C 104.363281 93.6875 104.859375 94.964844 105.375 96.226562 C 105.652344 96.894531 106.125 97.328125 106.878906 97.347656 C 107.671875 97.386719 108.441406 97.40625 109.234375 97.40625 C 110.539062 97.40625 111.828125 97.386719 113.132812 97.367188 C 114.558594 97.328125 115.984375 97.289062 117.40625 97.210938 C 119.210938 97.113281 121.011719 96.976562 122.8125 96.835938 C 123.445312 96.796875 123.917969 96.460938 124.214844 95.890625 C 124.296875 95.734375 124.375 95.578125 124.277344 95.359375 C 124.15625 95.359375 124.058594 95.359375 123.960938 95.359375 C 120.058594 95.359375 116.140625 95.359375 112.242188 95.378906 C 110.699219 95.378906 109.15625 95.4375 107.589844 95.476562 C 107.453125 95.476562 107.292969 95.558594 107.175781 95.339844 C 107.292969 95.300781 107.375 95.242188 107.453125 95.222656 Z M 51.894531 64.246094 C 53.082031 64.050781 54.269531 63.832031 55.4375 63.636719 C 56.527344 63.457031 57.617188 63.28125 58.703125 63.085938 C 59.101562 63.003906 59.496094 62.90625 59.871094 62.769531 C 60.40625 62.570312 60.703125 62.140625 60.84375 61.585938 C 61.140625 60.230469 61.457031 58.890625 61.753906 57.53125 C 61.910156 56.78125 62.089844 56.054688 62.226562 55.304688 C 62.328125 54.792969 62.03125 54.398438 61.515625 54.28125 C 61.121094 54.183594 60.761719 54.28125 60.386719 54.378906 C 58.449219 54.972656 56.527344 55.542969 54.589844 56.132812 C 53.796875 56.367188 53.023438 56.644531 52.253906 56.882812 C 51.519531 57.117188 51.164062 57.628906 50.984375 58.339844 C 50.609375 59.835938 50.234375 61.332031 49.859375 62.808594 C 49.777344 63.125 49.757812 63.4375 49.839844 63.753906 C 49.976562 64.207031 50.371094 64.421875 50.847656 64.304688 C 50.984375 63.675781 51.144531 63.042969 51.300781 62.414062 C 51.640625 61.054688 51.996094 59.714844 52.351562 58.359375 C 52.390625 58.238281 52.371094 58.101562 52.53125 58.042969 C 52.6875 58.121094 52.648438 58.238281 52.628906 58.359375 C 52.351562 59.972656 52.074219 61.605469 51.816406 63.222656 C 51.757812 63.558594 51.71875 63.890625 51.679688 64.265625 C 51.757812 64.246094 51.835938 64.246094 51.894531 64.246094 Z M 129.878906 97.113281 C 130.113281 97.074219 130.292969 96.933594 130.371094 96.71875 C 130.410156 96.601562 130.429688 96.460938 130.453125 96.34375 C 130.550781 94.945312 130.453125 93.546875 130.3125 92.167969 C 130.234375 91.34375 130.015625 90.554688 129.621094 89.828125 C 128.667969 88.09375 127.679688 86.398438 126.570312 84.785156 C 126.375 84.507812 126.15625 84.234375 125.9375 83.976562 C 125.898438 83.917969 125.820312 83.898438 125.761719 83.859375 C 125.742188 83.878906 125.722656 83.898438 125.699219 83.917969 C 125.78125 84.117188 125.839844 84.3125 125.9375 84.488281 C 126.550781 85.75 127.144531 87.011719 127.640625 88.328125 C 127.878906 88.941406 128.054688 89.589844 128.273438 90.238281 C 128.074219 90.300781 127.917969 90.359375 127.777344 90.417969 C 127.460938 90.535156 127.125 90.652344 126.828125 90.792969 C 126.273438 91.046875 125.976562 91.5 125.917969 92.089844 C 125.78125 93.410156 125.660156 94.730469 125.542969 96.050781 C 125.523438 96.34375 125.523438 96.660156 125.5625 96.976562 C 125.601562 97.40625 125.839844 97.566406 126.253906 97.546875 C 126.511719 97.527344 126.75 97.507812 127.007812 97.488281 C 127.421875 97.449219 127.820312 97.40625 128.253906 97.347656 C 128.332031 96.894531 128.414062 96.480469 128.472656 96.070312 C 128.628906 94.867188 128.75 93.648438 128.75 92.425781 C 128.75 92.308594 128.710938 92.1875 128.90625 92.089844 C 128.945312 92.148438 129.027344 92.210938 129.046875 92.289062 C 129.085938 92.40625 129.105469 92.523438 129.105469 92.640625 C 129.164062 93.449219 129.222656 94.257812 129.261719 95.042969 C 129.304688 95.734375 129.324219 96.441406 129.34375 97.171875 C 129.519531 97.152344 129.699219 97.152344 129.878906 97.113281 Z M 79.367188 97.761719 C 79.109375 96.914062 78.8125 96.109375 78.378906 95.339844 C 77.941406 94.570312 77.410156 93.882812 76.734375 93.292969 C 75.210938 91.972656 73.449219 91.558594 71.472656 91.914062 C 71.054688 91.992188 70.640625 92.109375 70.203125 92.210938 C 70.183594 92.148438 70.144531 92.070312 70.144531 92.011719 C 69.925781 90.671875 69.75 89.3125 69.710938 87.957031 C 69.667969 86.5 69.710938 85.019531 69.710938 83.542969 C 69.710938 83.445312 69.710938 83.328125 69.710938 83.230469 C 69.710938 83.132812 69.691406 83.011719 69.570312 83.011719 C 69.492188 83.011719 69.394531 83.089844 69.351562 83.171875 C 69.273438 83.347656 69.234375 83.542969 69.195312 83.742188 C 69.074219 84.609375 68.9375 85.472656 68.859375 86.339844 C 68.621094 88.820312 68.503906 91.304688 68.621094 93.785156 C 68.640625 93.980469 68.679688 94.179688 68.757812 94.355469 C 68.9375 94.730469 69.253906 94.808594 69.628906 94.632812 C 69.847656 94.53125 70.046875 94.394531 70.242188 94.277344 C 71.371094 93.585938 72.578125 93.371094 73.886719 93.585938 C 75.289062 93.84375 76.4375 94.550781 77.429688 95.578125 C 78.0625 96.226562 78.554688 96.976562 79.011719 97.761719 C 79.070312 97.878906 79.167969 97.980469 79.269531 98.097656 C 79.40625 97.921875 79.40625 97.921875 79.367188 97.761719 Z M 93.402344 106.644531 C 93.5 105.914062 93.359375 105.226562 92.90625 104.636719 C 92.667969 104.320312 92.351562 104.082031 91.957031 104.003906 C 91.539062 103.925781 91.261719 104.082031 91.105469 104.457031 C 90.726562 105.402344 90.6875 106.347656 91.023438 107.3125 C 91.183594 107.785156 91.441406 108.21875 91.835938 108.554688 C 92.488281 109.105469 93.359375 109.203125 94.074219 108.710938 C 94.371094 108.515625 94.648438 108.257812 94.824219 107.984375 C 95.617188 106.742188 95.714844 105.441406 95.121094 104.101562 C 94.886719 103.570312 94.488281 103.15625 93.933594 102.921875 C 93.421875 102.707031 92.90625 102.726562 92.390625 102.980469 C 92.410156 103.019531 92.410156 103.039062 92.410156 103.039062 C 92.429688 103.058594 92.449219 103.078125 92.46875 103.078125 C 93.378906 103.511719 93.855469 104.28125 94.035156 105.246094 C 94.132812 105.835938 94.09375 106.425781 93.796875 106.976562 C 93.71875 107.136719 93.617188 107.3125 93.378906 107.371094 C 93.261719 107.078125 93.359375 106.859375 93.402344 106.644531 Z M 114.339844 87.167969 C 113.667969 87.1875 113.015625 87.304688 112.441406 87.699219 C 111.867188 88.09375 111.847656 88.722656 112.402344 89.15625 C 112.679688 89.355469 112.996094 89.511719 113.3125 89.609375 C 114.0625 89.847656 114.835938 89.867188 115.605469 89.746094 C 116.121094 89.667969 116.636719 89.53125 117.050781 89.195312 C 117.527344 88.800781 117.546875 88.210938 117.050781 87.835938 C 116.8125 87.660156 116.539062 87.523438 116.261719 87.425781 C 115.765625 87.246094 115.25 87.1875 114.714844 87.1875 C 114.617188 87.167969 114.480469 87.167969 114.339844 87.167969 Z M 72.617188 86.125 C 73.527344 86.027344 74.460938 85.945312 75.371094 85.847656 C 75.507812 85.828125 75.648438 85.789062 75.785156 85.730469 C 75.945312 85.652344 75.945312 85.472656 75.785156 85.394531 C 75.667969 85.335938 75.527344 85.296875 75.390625 85.277344 C 74.222656 85.121094 73.035156 84.960938 71.867188 84.804688 C 71.746094 84.785156 71.609375 84.804688 71.492188 84.84375 C 70.996094 85.019531 70.878906 85.652344 71.253906 86.007812 C 71.429688 86.164062 71.628906 86.203125 71.847656 86.203125 C 72.105469 86.183594 72.363281 86.144531 72.617188 86.125 Z M 38.257812 92.582031 C 39.328125 92.683594 40.417969 92.761719 41.484375 92.898438 C 41.921875 92.957031 42.117188 92.703125 42.394531 92.464844 C 41.167969 92.308594 38.140625 92.269531 37.824219 92.425781 C 37.921875 92.582031 38.101562 92.5625 38.257812 92.582031 Z M 38.042969 96.167969 C 37.941406 96.167969 37.824219 96.148438 37.765625 96.304688 C 38.4375 96.503906 39.109375 96.582031 39.785156 96.679688 C 39.824219 96.542969 39.84375 96.441406 39.882812 96.285156 C 39.25 96.246094 38.65625 96.207031 38.042969 96.167969 Z M 38.042969 96.167969 " fill-opacity="1" fill-rule="nonzero"/></g><g clip-path="url(#f0ce02ca04)"><path fill="#000000" d="M 9.996094 113.90625 C 10.109375 113.859375 10.117188 113.738281 10.074219 112.359375 C 9.839844 104.808594 10.007812 101.101562 10.828125 95.859375 C 13.152344 81.03125 20.34375 67.003906 31.191406 56.160156 C 43.574219 43.78125 60.285156 35.828125 77.503906 34.117188 C 80.164062 33.855469 81.46875 33.792969 84.550781 33.796875 C 87.484375 33.796875 88.785156 33.851562 91.304688 34.082031 C 104.179688 35.257812 115.796875 39.453125 124.898438 46.207031 C 133.242188 52.402344 140.429688 61.042969 145.125 70.515625 C 147.496094 75.296875 149.269531 80.464844 150.570312 86.386719 C 151.839844 92.15625 152.195312 96.34375 152.113281 104.714844 C 152.078125 108.785156 151.992188 110.296875 151.695312 112.269531 C 151.617188 112.808594 151.53125 113.417969 151.507812 113.625 C 151.464844 113.996094 151.46875 114.003906 151.648438 114.003906 C 151.804688 114.003906 151.851562 113.945312 151.980469 113.589844 C 152.351562 112.550781 152.523438 111.8125 152.890625 109.613281 C 153.398438 106.566406 153.597656 104.8125 153.726562 102.328125 C 153.769531 101.492188 153.835938 100.421875 153.875 99.941406 C 154.25 95.195312 153.769531 88.71875 152.636719 83.226562 C 151.085938 75.707031 147.832031 67.449219 143.804688 60.792969 C 138.367188 51.8125 130.816406 44.253906 121.105469 38.074219 C 115.964844 34.804688 110.53125 32.21875 104.996094 30.402344 C 99.558594 28.621094 94.589844 27.667969 88.523438 27.234375 C 86.875 27.113281 81.648438 27.113281 79.960938 27.234375 C 73.792969 27.664062 68.65625 28.585938 63.199219 30.234375 C 53.789062 33.078125 44.890625 37.894531 37.25 44.289062 C 31.457031 49.136719 26.335938 54.894531 22.019531 61.414062 C 15.113281 71.847656 10.746094 83.925781 9.382812 96.363281 C 8.75 102.144531 8.832031 109.570312 9.566406 113.210938 C 9.683594 113.796875 9.800781 113.980469 9.996094 113.90625 Z M 9.996094 113.90625 " fill-opacity="1" fill-rule="nonzero"/></g><g fill="#000000" fill-opacity="1"><g transform="translate(160.72538, 87.654357)"><g><path d="M 2.59375 -21.65625 L 19.09375 -21.65625 L 19.09375 -17.328125 L 7.359375 -17.328125 L 7.359375 -12.71875 L 17.703125 -12.71875 L 17.703125 -8.390625 L 7.359375 -8.390625 L 7.359375 0 L 2.59375 0 Z M 2.59375 -21.65625 "/></g></g></g><g fill="#000000" fill-opacity="1"><g transform="translate(181.024208, 87.654357)"><g><path d="M 10.03125 -21.8125 L 14.421875 -21.8125 L 23.703125 0 L 18.71875 0 L 16.734375 -4.859375 L 7.578125 -4.859375 L 5.59375 0 L 0.75 0 Z M 15.03125 -9.0625 L 12.15625 -16.09375 L 9.28125 -9.0625 Z M 15.03125 -9.0625 "/></g></g></g><g fill="#000000" fill-opacity="1"><g transform="translate(205.469439, 87.654357)"><g><path d="M 2.59375 -21.65625 L 7.359375 -21.65625 L 7.359375 -4.328125 L 18.15625 -4.328125 L 18.15625 0 L 2.59375 0 Z M 2.59375 -21.65625 "/></g></g></g><g fill="#000000" fill-opacity="1"><g transform="translate(224.623361, 87.654357)"><g><path d="M 12.75 0.375 C 11.15625 0.375 9.675781 0.0859375 8.3125 -0.484375 C 6.957031 -1.066406 5.785156 -1.859375 4.796875 -2.859375 C 3.804688 -3.859375 3.03125 -5.039062 2.46875 -6.40625 C 1.914062 -7.769531 1.640625 -9.222656 1.640625 -10.765625 L 1.640625 -10.828125 C 1.640625 -12.367188 1.914062 -13.816406 2.46875 -15.171875 C 3.03125 -16.523438 3.804688 -17.710938 4.796875 -18.734375 C 5.785156 -19.753906 6.96875 -20.554688 8.34375 -21.140625 C 9.726562 -21.734375 11.257812 -22.03125 12.9375 -22.03125 C 13.945312 -22.03125 14.867188 -21.945312 15.703125 -21.78125 C 16.535156 -21.613281 17.289062 -21.382812 17.96875 -21.09375 C 18.65625 -20.8125 19.285156 -20.460938 19.859375 -20.046875 C 20.441406 -19.628906 20.976562 -19.175781 21.46875 -18.6875 L 18.4375 -15.1875 C 17.59375 -15.945312 16.734375 -16.546875 15.859375 -16.984375 C 14.984375 -17.421875 14 -17.640625 12.90625 -17.640625 C 12 -17.640625 11.15625 -17.460938 10.375 -17.109375 C 9.601562 -16.753906 8.9375 -16.265625 8.375 -15.640625 C 7.820312 -15.023438 7.390625 -14.3125 7.078125 -13.5 C 6.773438 -12.6875 6.625 -11.816406 6.625 -10.890625 L 6.625 -10.828125 C 6.625 -9.898438 6.773438 -9.019531 7.078125 -8.1875 C 7.390625 -7.363281 7.816406 -6.644531 8.359375 -6.03125 C 8.910156 -5.414062 9.570312 -4.925781 10.34375 -4.5625 C 11.125 -4.195312 11.976562 -4.015625 12.90625 -4.015625 C 14.132812 -4.015625 15.175781 -4.242188 16.03125 -4.703125 C 16.894531 -5.160156 17.75 -5.78125 18.59375 -6.5625 L 21.625 -3.5 C 21.070312 -2.894531 20.492188 -2.351562 19.890625 -1.875 C 19.296875 -1.40625 18.640625 -1 17.921875 -0.65625 C 17.210938 -0.320312 16.4375 -0.0664062 15.59375 0.109375 C 14.75 0.285156 13.800781 0.375 12.75 0.375 Z M 12.75 0.375 "/></g></g></g><g fill="#000000" fill-opacity="1"><g transform="translate(247.45954, 87.654357)"><g><path d="M 13.125 0.375 C 11.445312 0.375 9.90625 0.0820312 8.5 -0.5 C 7.101562 -1.09375 5.894531 -1.890625 4.875 -2.890625 C 3.851562 -3.890625 3.054688 -5.066406 2.484375 -6.421875 C 1.921875 -7.773438 1.640625 -9.222656 1.640625 -10.765625 L 1.640625 -10.828125 C 1.640625 -12.367188 1.925781 -13.816406 2.5 -15.171875 C 3.082031 -16.523438 3.882812 -17.710938 4.90625 -18.734375 C 5.925781 -19.753906 7.140625 -20.554688 8.546875 -21.140625 C 9.960938 -21.734375 11.503906 -22.03125 13.171875 -22.03125 C 14.847656 -22.03125 16.382812 -21.734375 17.78125 -21.140625 C 19.1875 -20.554688 20.398438 -19.765625 21.421875 -18.765625 C 22.441406 -17.765625 23.234375 -16.585938 23.796875 -15.234375 C 24.367188 -13.878906 24.65625 -12.429688 24.65625 -10.890625 L 24.65625 -10.828125 C 24.65625 -9.273438 24.363281 -7.820312 23.78125 -6.46875 C 23.207031 -5.125 22.410156 -3.941406 21.390625 -2.921875 C 20.367188 -1.898438 19.148438 -1.09375 17.734375 -0.5 C 16.328125 0.0820312 14.789062 0.375 13.125 0.375 Z M 13.171875 -4.015625 C 14.128906 -4.015625 15.007812 -4.191406 15.8125 -4.546875 C 16.613281 -4.898438 17.296875 -5.382812 17.859375 -6 C 18.429688 -6.625 18.875 -7.34375 19.1875 -8.15625 C 19.507812 -8.96875 19.671875 -9.835938 19.671875 -10.765625 L 19.671875 -10.828125 C 19.671875 -11.753906 19.507812 -12.628906 19.1875 -13.453125 C 18.875 -14.273438 18.421875 -14.992188 17.828125 -15.609375 C 17.242188 -16.234375 16.550781 -16.726562 15.75 -17.09375 C 14.945312 -17.457031 14.070312 -17.640625 13.125 -17.640625 C 12.144531 -17.640625 11.257812 -17.460938 10.46875 -17.109375 C 9.675781 -16.753906 8.992188 -16.265625 8.421875 -15.640625 C 7.859375 -15.023438 7.414062 -14.3125 7.09375 -13.5 C 6.78125 -12.6875 6.625 -11.816406 6.625 -10.890625 L 6.625 -10.828125 C 6.625 -9.898438 6.78125 -9.019531 7.09375 -8.1875 C 7.414062 -7.363281 7.867188 -6.644531 8.453125 -6.03125 C 9.046875 -5.414062 9.738281 -4.925781 10.53125 -4.5625 C 11.320312 -4.195312 12.203125 -4.015625 13.171875 -4.015625 Z M 13.171875 -4.015625 "/></g></g></g><g fill="#000000" fill-opacity="1"><g transform="translate(273.761371, 87.654357)"><g><path d="M 2.59375 -21.65625 L 6.984375 -21.65625 L 17.140625 -8.328125 L 17.140625 -21.65625 L 21.84375 -21.65625 L 21.84375 0 L 17.78125 0 L 7.296875 -13.765625 L 7.296875 0 L 2.59375 0 Z M 2.59375 -21.65625 "/></g></g></g><g fill="#000000" fill-opacity="1"><g transform="translate(298.20661, 87.654357)"><g><path d="M 2.8125 -21.65625 L 7.578125 -21.65625 L 7.578125 0 L 2.8125 0 Z M 2.8125 -21.65625 "/></g></g></g><g fill="#000000" fill-opacity="1"><g transform="translate(308.603579, 87.654357)"><g><path d="M 2.59375 -21.65625 L 18.9375 -21.65625 L 18.9375 -17.421875 L 7.328125 -17.421875 L 7.328125 -13.03125 L 17.546875 -13.03125 L 17.546875 -8.78125 L 7.328125 -8.78125 L 7.328125 -4.234375 L 19.09375 -4.234375 L 19.09375 0 L 2.59375 0 Z M 2.59375 -21.65625 "/></g></g></g><g fill="#000000" fill-opacity="1"><g transform="translate(329.335604, 87.654357)"><g><path d="M 10.296875 0.3125 C 8.648438 0.3125 7.03125 0.03125 5.4375 -0.53125 C 3.851562 -1.101562 2.410156 -1.976562 1.109375 -3.15625 L 3.921875 -6.53125 C 4.910156 -5.726562 5.925781 -5.085938 6.96875 -4.609375 C 8.007812 -4.128906 9.148438 -3.890625 10.390625 -3.890625 C 11.378906 -3.890625 12.144531 -4.070312 12.6875 -4.4375 C 13.238281 -4.800781 13.515625 -5.300781 13.515625 -5.9375 L 13.515625 -6 C 13.515625 -6.3125 13.457031 -6.582031 13.34375 -6.8125 C 13.226562 -7.050781 13.007812 -7.273438 12.6875 -7.484375 C 12.375 -7.691406 11.929688 -7.898438 11.359375 -8.109375 C 10.796875 -8.316406 10.0625 -8.53125 9.15625 -8.75 C 8.0625 -9.019531 7.070312 -9.316406 6.1875 -9.640625 C 5.300781 -9.972656 4.546875 -10.378906 3.921875 -10.859375 C 3.304688 -11.347656 2.828125 -11.953125 2.484375 -12.671875 C 2.148438 -13.398438 1.984375 -14.300781 1.984375 -15.375 L 1.984375 -15.4375 C 1.984375 -16.425781 2.164062 -17.316406 2.53125 -18.109375 C 2.90625 -18.910156 3.425781 -19.597656 4.09375 -20.171875 C 4.769531 -20.742188 5.570312 -21.1875 6.5 -21.5 C 7.425781 -21.8125 8.445312 -21.96875 9.5625 -21.96875 C 11.144531 -21.96875 12.601562 -21.726562 13.9375 -21.25 C 15.269531 -20.78125 16.492188 -20.101562 17.609375 -19.21875 L 15.125 -15.625 C 14.15625 -16.28125 13.207031 -16.800781 12.28125 -17.1875 C 11.351562 -17.570312 10.425781 -17.765625 9.5 -17.765625 C 8.570312 -17.765625 7.875 -17.582031 7.40625 -17.21875 C 6.945312 -16.851562 6.71875 -16.40625 6.71875 -15.875 L 6.71875 -15.8125 C 6.71875 -15.457031 6.78125 -15.148438 6.90625 -14.890625 C 7.039062 -14.640625 7.285156 -14.410156 7.640625 -14.203125 C 7.992188 -13.992188 8.472656 -13.796875 9.078125 -13.609375 C 9.691406 -13.421875 10.460938 -13.207031 11.390625 -12.96875 C 12.484375 -12.675781 13.457031 -12.347656 14.3125 -11.984375 C 15.164062 -11.628906 15.882812 -11.195312 16.46875 -10.6875 C 17.0625 -10.1875 17.503906 -9.59375 17.796875 -8.90625 C 18.097656 -8.226562 18.25 -7.414062 18.25 -6.46875 L 18.25 -6.40625 C 18.25 -5.332031 18.050781 -4.378906 17.65625 -3.546875 C 17.269531 -2.710938 16.722656 -2.007812 16.015625 -1.4375 C 15.316406 -0.875 14.484375 -0.441406 13.515625 -0.140625 C 12.546875 0.160156 11.472656 0.3125 10.296875 0.3125 Z M 10.296875 0.3125 "/></g></g></g><g fill="#000000" fill-opacity="1"><g transform="translate(200.129963, 108.791552)"><g><path d="M 6.140625 0.171875 C 5.367188 0.171875 4.664062 0.03125 4.03125 -0.25 C 3.394531 -0.53125 2.847656 -0.90625 2.390625 -1.375 C 1.941406 -1.851562 1.59375 -2.410156 1.34375 -3.046875 C 1.101562 -3.679688 0.984375 -4.347656 0.984375 -5.046875 L 0.984375 -5.0625 C 0.984375 -5.757812 1.109375 -6.425781 1.359375 -7.0625 C 1.609375 -7.707031 1.957031 -8.265625 2.40625 -8.734375 C 2.863281 -9.210938 3.410156 -9.59375 4.046875 -9.875 C 4.691406 -10.164062 5.398438 -10.3125 6.171875 -10.3125 C 6.941406 -10.3125 7.644531 -10.171875 8.28125 -9.890625 C 8.914062 -9.609375 9.457031 -9.226562 9.90625 -8.75 C 10.363281 -8.269531 10.710938 -7.710938 10.953125 -7.078125 C 11.203125 -6.453125 11.328125 -5.789062 11.328125 -5.09375 L 11.328125 -5.0625 C 11.328125 -4.375 11.203125 -3.707031 10.953125 -3.0625 C 10.703125 -2.425781 10.347656 -1.867188 9.890625 -1.390625 C 9.441406 -0.921875 8.894531 -0.539062 8.25 -0.25 C 7.613281 0.03125 6.910156 0.171875 6.140625 0.171875 Z M 6.171875 -0.890625 C 6.753906 -0.890625 7.285156 -0.992188 7.765625 -1.203125 C 8.253906 -1.421875 8.671875 -1.71875 9.015625 -2.09375 C 9.367188 -2.476562 9.644531 -2.921875 9.84375 -3.421875 C 10.039062 -3.921875 10.140625 -4.460938 10.140625 -5.046875 L 10.140625 -5.0625 C 10.140625 -5.644531 10.039062 -6.1875 9.84375 -6.6875 C 9.644531 -7.195312 9.363281 -7.640625 9 -8.015625 C 8.644531 -8.398438 8.222656 -8.703125 7.734375 -8.921875 C 7.253906 -9.140625 6.722656 -9.25 6.140625 -9.25 C 5.554688 -9.25 5.019531 -9.140625 4.53125 -8.921875 C 4.050781 -8.710938 3.632812 -8.414062 3.28125 -8.03125 C 2.9375 -7.65625 2.664062 -7.21875 2.46875 -6.71875 C 2.269531 -6.21875 2.171875 -5.675781 2.171875 -5.09375 L 2.171875 -5.0625 C 2.171875 -4.488281 2.269531 -3.945312 2.46875 -3.4375 C 2.664062 -2.925781 2.941406 -2.484375 3.296875 -2.109375 C 3.660156 -1.734375 4.082031 -1.4375 4.5625 -1.21875 C 5.050781 -1 5.585938 -0.890625 6.171875 -0.890625 Z M 6.171875 -0.890625 "/></g></g></g><g fill="#000000" fill-opacity="1"><g transform="translate(212.44133, 108.791552)"><g><path d="M 1.4375 -10.140625 L 2.5 -10.140625 L 8.890625 -2.015625 L 8.890625 -10.140625 L 10.015625 -10.140625 L 10.015625 0 L 9.09375 0 L 2.546875 -8.3125 L 2.546875 0 L 1.4375 0 Z M 1.4375 -10.140625 "/></g></g></g><g fill="#000000" fill-opacity="1"><g transform="translate(223.883658, 108.791552)"><g/></g></g><g fill="#000000" fill-opacity="1"><g transform="translate(228.228846, 108.791552)"><g><path d="M 4.0625 -9.078125 L 0.65625 -9.078125 L 0.65625 -10.140625 L 8.625 -10.140625 L 8.625 -9.078125 L 5.21875 -9.078125 L 5.21875 0 L 4.0625 0 Z M 4.0625 -9.078125 "/></g></g></g><g fill="#000000" fill-opacity="1"><g transform="translate(237.513064, 108.791552)"><g><path d="M 1.4375 -10.140625 L 2.578125 -10.140625 L 2.578125 -5.640625 L 8.4375 -5.640625 L 8.4375 -10.140625 L 9.578125 -10.140625 L 9.578125 0 L 8.4375 0 L 8.4375 -4.5625 L 2.578125 -4.5625 L 2.578125 0 L 1.4375 0 Z M 1.4375 -10.140625 "/></g></g></g><g fill="#000000" fill-opacity="1"><g transform="translate(248.520877, 108.791552)"><g><path d="M 1.4375 -10.140625 L 8.765625 -10.140625 L 8.765625 -9.09375 L 2.578125 -9.09375 L 2.578125 -5.640625 L 8.109375 -5.640625 L 8.109375 -4.59375 L 2.578125 -4.59375 L 2.578125 -1.046875 L 8.828125 -1.046875 L 8.828125 0 L 1.4375 0 Z M 1.4375 -10.140625 "/></g></g></g><g fill="#000000" fill-opacity="1"><g transform="translate(258.225127, 108.791552)"><g/></g></g><g fill="#000000" fill-opacity="1"><g transform="translate(262.570314, 108.791552)"><g><path d="M 1.4375 -10.140625 L 5.796875 -10.140625 C 6.421875 -10.140625 6.976562 -10.050781 7.46875 -9.875 C 7.957031 -9.695312 8.359375 -9.445312 8.671875 -9.125 C 8.921875 -8.875 9.113281 -8.578125 9.25 -8.234375 C 9.382812 -7.898438 9.453125 -7.53125 9.453125 -7.125 L 9.453125 -7.09375 C 9.453125 -6.664062 9.382812 -6.285156 9.25 -5.953125 C 9.113281 -5.617188 8.921875 -5.328125 8.671875 -5.078125 C 8.429688 -4.835938 8.140625 -4.640625 7.796875 -4.484375 C 7.460938 -4.328125 7.097656 -4.210938 6.703125 -4.140625 L 9.828125 0 L 8.421875 0 L 5.46875 -3.9375 L 2.578125 -3.9375 L 2.578125 0 L 1.4375 0 Z M 5.6875 -4.96875 C 6.0625 -4.96875 6.410156 -5.015625 6.734375 -5.109375 C 7.054688 -5.210938 7.332031 -5.351562 7.5625 -5.53125 C 7.789062 -5.707031 7.96875 -5.921875 8.09375 -6.171875 C 8.226562 -6.429688 8.296875 -6.722656 8.296875 -7.046875 L 8.296875 -7.078125 C 8.296875 -7.710938 8.066406 -8.203125 7.609375 -8.546875 C 7.160156 -8.898438 6.523438 -9.078125 5.703125 -9.078125 L 2.578125 -9.078125 L 2.578125 -4.96875 Z M 5.6875 -4.96875 "/></g></g></g><g fill="#000000" fill-opacity="1"><g transform="translate(273.042219, 108.791552)"><g><path d="M 6.140625 0.171875 C 5.367188 0.171875 4.664062 0.03125 4.03125 -0.25 C 3.394531 -0.53125 2.847656 -0.90625 2.390625 -1.375 C 1.941406 -1.851562 1.59375 -2.410156 1.34375 -3.046875 C 1.101562 -3.679688 0.984375 -4.347656 0.984375 -5.046875 L 0.984375 -5.0625 C 0.984375 -5.757812 1.109375 -6.425781 1.359375 -7.0625 C 1.609375 -7.707031 1.957031 -8.265625 2.40625 -8.734375 C 2.863281 -9.210938 3.410156 -9.59375 4.046875 -9.875 C 4.691406 -10.164062 5.398438 -10.3125 6.171875 -10.3125 C 6.941406 -10.3125 7.644531 -10.171875 8.28125 -9.890625 C 8.914062 -9.609375 9.457031 -9.226562 9.90625 -8.75 C 10.363281 -8.269531 10.710938 -7.710938 10.953125 -7.078125 C 11.203125 -6.453125 11.328125 -5.789062 11.328125 -5.09375 L 11.328125 -5.0625 C 11.328125 -4.375 11.203125 -3.707031 10.953125 -3.0625 C 10.703125 -2.425781 10.347656 -1.867188 9.890625 -1.390625 C 9.441406 -0.921875 8.894531 -0.539062 8.25 -0.25 C 7.613281 0.03125 6.910156 0.171875 6.140625 0.171875 Z M 6.171875 -0.890625 C 6.753906 -0.890625 7.285156 -0.992188 7.765625 -1.203125 C 8.253906 -1.421875 8.671875 -1.71875 9.015625 -2.09375 C 9.367188 -2.476562 9.644531 -2.921875 9.84375 -3.421875 C 10.039062 -3.921875 10.140625 -4.460938 10.140625 -5.046875 L 10.140625 -5.0625 C 10.140625 -5.644531 10.039062 -6.1875 9.84375 -6.6875 C 9.644531 -7.195312 9.363281 -7.640625 9 -8.015625 C 8.644531 -8.398438 8.222656 -8.703125 7.734375 -8.921875 C 7.253906 -9.140625 6.722656 -9.25 6.140625 -9.25 C 5.554688 -9.25 5.019531 -9.140625 4.53125 -8.921875 C 4.050781 -8.710938 3.632812 -8.414062 3.28125 -8.03125 C 2.9375 -7.65625 2.664062 -7.21875 2.46875 -6.71875 C 2.269531 -6.21875 2.171875 -5.675781 2.171875 -5.09375 L 2.171875 -5.0625 C 2.171875 -4.488281 2.269531 -3.945312 2.46875 -3.4375 C 2.664062 -2.925781 2.941406 -2.484375 3.296875 -2.109375 C 3.660156 -1.734375 4.082031 -1.4375 4.5625 -1.21875 C 5.050781 -1 5.585938 -0.890625 6.171875 -0.890625 Z M 6.171875 -0.890625 "/></g></g></g><g fill="#000000" fill-opacity="1"><g transform="translate(285.353586, 108.791552)"><g><path d="M 5.1875 -10.21875 L 6.25 -10.21875 L 10.875 0 L 9.640625 0 L 8.453125 -2.671875 L 2.9375 -2.671875 L 1.734375 0 L 0.5625 0 Z M 8.015625 -3.703125 L 5.703125 -8.875 L 3.390625 -3.703125 Z M 8.015625 -3.703125 "/></g></g></g><g fill="#000000" fill-opacity="1"><g transform="translate(296.795914, 108.791552)"><g><path d="M 1.4375 -10.140625 L 4.953125 -10.140625 C 5.742188 -10.140625 6.46875 -10.007812 7.125 -9.75 C 7.789062 -9.5 8.363281 -9.144531 8.84375 -8.6875 C 9.320312 -8.238281 9.691406 -7.707031 9.953125 -7.09375 C 10.210938 -6.476562 10.34375 -5.8125 10.34375 -5.09375 L 10.34375 -5.0625 C 10.34375 -4.351562 10.210938 -3.6875 9.953125 -3.0625 C 9.691406 -2.445312 9.320312 -1.910156 8.84375 -1.453125 C 8.363281 -1.003906 7.789062 -0.648438 7.125 -0.390625 C 6.46875 -0.128906 5.742188 0 4.953125 0 L 1.4375 0 Z M 2.578125 -9.078125 L 2.578125 -1.0625 L 4.953125 -1.0625 C 5.585938 -1.0625 6.164062 -1.160156 6.6875 -1.359375 C 7.207031 -1.566406 7.648438 -1.847656 8.015625 -2.203125 C 8.378906 -2.554688 8.660156 -2.976562 8.859375 -3.46875 C 9.054688 -3.957031 9.15625 -4.484375 9.15625 -5.046875 L 9.15625 -5.0625 C 9.15625 -5.625 9.054688 -6.148438 8.859375 -6.640625 C 8.660156 -7.128906 8.378906 -7.550781 8.015625 -7.90625 C 7.648438 -8.269531 7.207031 -8.554688 6.6875 -8.765625 C 6.164062 -8.972656 5.585938 -9.078125 4.953125 -9.078125 Z M 2.578125 -9.078125 "/></g></g></g></svg>